<svg enable-background="new 0 0 221.422 264" height="264" viewBox="0 0 221.422 264" width="221.422" xmlns="http://www.w3.org/2000/svg"><path d="m69.215 16.674c-.072.119-.15.209-.234.27-.084.06-.187.09-.306.09-.137 0-.297-.068-.48-.204s-.414-.286-.689-.45c-.276-.164-.608-.313-.996-.449-.389-.137-.858-.205-1.41-.205-.521 0-.979.07-1.374.211-.396.14-.729.33-.996.57-.269.239-.47.521-.606.846-.136.324-.204.674-.204 1.05 0 .479.118.878.354 1.194.235.315.548.586.936.81.389.224.828.418 1.32.582s.996.334 1.512.51c.517.177 1.021.374 1.513.595.491.219.932.498 1.319.834.389.336.7.748.937 1.235.235.488.354 1.088.354 1.8 0 .752-.128 1.458-.384 2.118s-.63 1.234-1.122 1.722-1.096.873-1.812 1.152c-.717.279-1.53.42-2.442.42-1.12 0-2.136-.201-3.048-.605s-1.692-.95-2.34-1.639l.672-1.104c.063-.088.142-.162.234-.223.092-.06.193-.09.306-.09.104 0 .222.043.354.127.133.084.282.189.45.317s.36.269.576.42.462.292.738.42c.275.128.59.233.941.317.353.084.748.127 1.188.127.552 0 1.044-.076 1.476-.229.433-.152.798-.365 1.099-.642.3-.276.529-.606.689-.99s.24-.812.24-1.284c0-.52-.118-.945-.354-1.277-.235-.332-.546-.61-.93-.834-.384-.225-.824-.414-1.32-.57s-1-.316-1.512-.48-1.016-.354-1.512-.57c-.496-.215-.937-.495-1.32-.84-.384-.344-.694-.773-.93-1.289-.236-.517-.354-1.154-.354-1.914 0-.608.118-1.196.354-1.764.235-.568.58-1.072 1.032-1.513.451-.44 1.008-.792 1.668-1.056.659-.264 1.418-.396 2.273-.396.96 0 1.834.152 2.622.456s1.482.744 2.082 1.32z"/><path d="m85.066 15.941h-5.568v15.24h-2.315v-15.24h-5.58v-1.956h13.464v1.956z"/><path d="m105.502 13.985v17.196h-2.04v-12.636c0-.168.007-.348.019-.539.012-.193.025-.389.042-.589l-5.904 10.752c-.184.36-.464.54-.84.54h-.336c-.376 0-.656-.18-.84-.54l-6.024-10.8c.048.424.072.816.072 1.176v12.637h-2.04v-17.197h1.716c.208 0 .368.021.48.06.111.041.22.152.323.336l5.94 10.584c.096.192.189.393.282.6.092.209.178.421.258.637.08-.216.164-.43.252-.643.088-.211.184-.414.288-.605l5.832-10.572c.096-.184.202-.295.318-.336.115-.039.277-.06.485-.06h1.717z"/><path d="m109.258 18.641c.112-.783.328-1.478.648-2.082s.726-1.109 1.218-1.518c.493-.408 1.058-.718 1.692-.93.637-.212 1.322-.318 2.059-.318.729 0 1.4.104 2.016.313.615.208 1.146.504 1.59.888s.791.849 1.039 1.392c.248.545.371 1.148.371 1.813 0 .544-.07 1.029-.209 1.458-.141.428-.342.802-.602 1.122s-.574.592-.941.816-.779.407-1.236.551c1.121.289 1.963.783 2.527 1.482.563.7.846 1.574.846 2.622 0 .792-.15 1.505-.451 2.136-.299.633-.709 1.17-1.229 1.614-.521.444-1.127.784-1.818 1.021-.693.235-1.436.354-2.227.354-.912 0-1.691-.113-2.34-.342s-1.196-.542-1.645-.941c-.448-.4-.816-.875-1.104-1.423s-.532-1.142-.731-1.782l.924-.384c.24-.104.474-.132.702-.084s.394.181.498.396c.104.225.233.492.39.805s.371.611.643.9c.271.287.617.531 1.037.731.422.2.955.3 1.604.3.6 0 1.125-.098 1.578-.293.451-.197.828-.451 1.127-.763.301-.312.525-.66.678-1.044.152-.385.229-.764.229-1.141 0-.463-.061-.887-.18-1.271-.121-.384-.344-.716-.672-.996-.328-.279-.779-.5-1.35-.66-.572-.16-1.307-.24-2.203-.24v-1.547c.736-.008 1.363-.088 1.879-.24s.936-.36 1.26-.625c.324-.264.559-.579.707-.947s.223-.775.223-1.225c0-.496-.078-.928-.234-1.295-.156-.369-.369-.672-.643-.912-.271-.24-.594-.42-.965-.541-.373-.119-.773-.18-1.207-.18-.432 0-.834.064-1.205.192-.373.128-.701.306-.984.534s-.521.498-.713.81c-.193.312-.328.656-.408 1.032-.105.279-.235.466-.392.559-.155.092-.382.117-.678.077z"/><path d="m133.463 29.153c.232 0 .416.067.553.204.135.136.203.312.203.527v1.297h-11.473v-.732c0-.152.033-.309.096-.469.064-.159.164-.307.301-.443l5.508-5.531c.457-.465.873-.91 1.248-1.339.377-.428.695-.858.961-1.29.264-.432.467-.869.611-1.314.145-.443.217-.918.217-1.422s-.08-.945-.24-1.326c-.16-.379-.379-.693-.654-.941s-.602-.434-.979-.559c-.375-.123-.779-.186-1.211-.186-.441 0-.846.064-1.213.192s-.693.306-.979.534c-.283.228-.521.498-.713.81-.193.312-.328.656-.408 1.032-.096.279-.227.466-.391.559-.164.092-.395.117-.689.077l-1.117-.192c.113-.783.33-1.478.654-2.082s.732-1.109 1.225-1.518 1.055-.718 1.686-.93c.633-.212 1.316-.318 2.053-.318.729 0 1.408.108 2.039.324.633.216 1.18.529 1.645.941s.828.914 1.092 1.506c.264.593.396 1.265.396 2.017 0 .64-.096 1.234-.289 1.782-.191.548-.451 1.07-.779 1.566s-.705.979-1.135 1.451c-.428.473-.881.948-1.361 1.428l-4.535 4.633c.318-.088.643-.158.971-.211.328-.051.645-.077.949-.077z"/><path d="m140.063 15.881v6.012h7.068v1.896h-7.068v7.393h-2.328v-17.197h10.596v1.896z"/><path d="m162.348 24.977v1.225c0 .128-.039.236-.115.324s-.193.132-.354.132h-2.137v4.524h-1.871v-4.524h-7.633c-.16 0-.297-.046-.414-.138-.115-.092-.189-.206-.221-.342l-.217-1.093 8.363-11.1h1.992v10.991h2.607zm-4.477 0v-7.092c0-.207.008-.436.023-.684s.041-.5.072-.756l-6.264 8.531h6.169z"/><g fill="none"><path d="m58.115 77.453v-35.035" stroke="#b87332" stroke-miterlimit="10" stroke-width="2.8347"/><path d="m132.506 77.453v-35.035" stroke="#b87332" stroke-miterlimit="10" stroke-width="2.8347"/><path d="m59.281 181.704v-65.056" stroke="#b87332" stroke-miterlimit="10" stroke-width="2.8347"/><path d="m132.674 181.704v-65.056" stroke="#b87332" stroke-miterlimit="10" stroke-width="2.8347"/><path d="m123.742 78.271h17.035v39.699h-17.035z" stroke="#000" stroke-miterlimit="10" stroke-width="2.8347"/><path d="m50.178 78.104h17.035v39.699h-17.035z" stroke="#000" stroke-miterlimit="10" stroke-width="2.8347"/><path d="m169.429 77.453v-35.035" stroke="#b87332" stroke-miterlimit="10" stroke-width="2.8347"/><path d="m169.596 181.704v-65.056" stroke="#b87332" stroke-miterlimit="10" stroke-width="2.8347"/><path d="m160.664 78.271h17.035v39.699h-17.035z" stroke="#000" stroke-miterlimit="10" stroke-width="2.8347"/><path d="m10.264 7.143v35.275h202.665v-.166-35.273" stroke="#000" stroke-miterlimit="10" stroke-width="2.8347"/></g><path d="m70.994 215.949c3.199 0 5.798-2.6 5.798-5.799v-24.604c0-3.203-2.599-5.797-5.798-5.797h-24.603c-3.2 0-5.79 2.594-5.79 5.797v24.604c0 3.199 2.59 5.799 5.79 5.799z"/><path d="m54.064 193.219h9.263v9.266h-9.263z" fill="#c3996c"/><path d="m107.916 215.949c3.199 0 5.795-2.6 5.795-5.799v-24.604c0-3.203-2.596-5.797-5.795-5.797h-24.604c-3.201 0-5.789 2.594-5.789 5.797v24.604c0 3.199 2.588 5.799 5.789 5.799z"/><path d="m90.986 193.219h9.264v9.266h-9.264z" fill="#c3996c"/><path d="m144.559 215.949c3.199 0 5.797-2.6 5.797-5.799v-24.604c0-3.203-2.598-5.797-5.797-5.797h-24.604c-3.199 0-5.789 2.594-5.789 5.797v24.604c0 3.199 2.59 5.799 5.789 5.799z"/><path d="m127.629 193.219h9.262v9.266h-9.262z" fill="#c3996c"/><path d="m181.48 215.949c3.199 0 5.795-2.6 5.795-5.799v-24.604c0-3.203-2.596-5.797-5.795-5.797h-24.604c-3.199 0-5.789 2.594-5.789 5.797v24.604c0 3.199 2.59 5.799 5.789 5.799z"/><path d="m164.551 193.219h9.264v9.266h-9.264z" fill="#c3996c"/><path d="m46.867 169.483c.101.059.173.119.219.184s.068.146.068.242c0 .101-.036.209-.111.326-.074.119-.157.258-.249.422-.091.163-.173.354-.248.572-.074.219-.111.477-.111.774 0 .269.033.504.098.706.064.201.154.371.27.507.115.138.253.239.414.306s.337.102.529.102c.244 0 .448-.068.611-.205.164-.137.304-.318.418-.544.115-.226.219-.483.31-.771.092-.288.188-.583.292-.886.104-.302.223-.598.359-.885.138-.288.31-.546.519-.771.21-.226.465-.407.768-.544.302-.136.669-.205 1.102-.205.47 0 .91.081 1.32.241s.769.396 1.073.705c.305.31.545.688.72 1.134.176.447.263.958.263 1.535 0 .33-.031.656-.098.979-.064.322-.156.629-.276.925-.12.295-.264.572-.433.832-.167.259-.354.489-.561.691l-.93-.57c-.066-.047-.123-.109-.169-.186s-.067-.158-.067-.245c0-.12.049-.25.147-.39.099-.138.207-.305.327-.496.12-.192.229-.416.328-.673.098-.258.147-.565.147-.926 0-.552-.132-.979-.393-1.282-.262-.303-.638-.452-1.128-.452-.272 0-.496.067-.669.204-.173.138-.317.318-.436.543-.117.227-.217.483-.299.771-.081.288-.17.581-.267.879-.096.298-.211.59-.346.878s-.309.545-.525.77c-.216.227-.485.408-.811.544-.323.137-.723.206-1.198.206-.379 0-.749-.076-1.108-.228-.36-.15-.679-.37-.958-.658-.278-.288-.501-.644-.669-1.066-.169-.422-.253-.907-.253-1.453 0-.615.096-1.182.288-1.699.192-.52.461-.961.807-1.325z"/><path d="m44.973 153.342 10.41 3.232v1.749l-7.113 2.275c-.173.063-.384.12-.634.173.12.028.233.058.339.087.105.028.204.06.295.094l7.113 2.297v1.756l-10.41 3.226v-1.62c0-.167.039-.308.118-.421.079-.112.187-.188.321-.227l6.227-1.771c.154-.038.321-.075.501-.111.181-.036.369-.074.564-.111-.201-.039-.39-.08-.568-.127-.177-.044-.343-.094-.497-.147l-6.227-2.044c-.111-.04-.213-.114-.303-.228-.092-.112-.137-.25-.137-.414v-.568c0-.168.041-.305.121-.41.082-.105.188-.185.318-.238l6.227-2.037c.298-.101.642-.191 1.03-.273-.38-.063-.723-.132-1.03-.209l-6.227-1.771c-.121-.028-.225-.102-.311-.22s-.129-.258-.129-.421v-1.521z"/><path d="m52.928 145.12c0-.105.041-.199.122-.281l.829-.764c.522.423.923.941 1.202 1.559.278.617.417 1.357.417 2.222 0 .773-.131 1.467-.396 2.083-.264.618-.63 1.145-1.102 1.582-.47.437-1.031.771-1.684 1.004s-1.366.349-2.139.349c-.783 0-1.499-.124-2.149-.374-.65-.249-1.21-.601-1.682-1.055-.47-.453-.835-.994-1.098-1.623-.262-.629-.393-1.325-.393-2.088 0-.76.125-1.432.375-2.021.249-.588.575-1.087.979-1.501l.9.648c.057.038.107.088.15.147.043.061.064.143.064.248 0 .073-.021.146-.061.223-.041.077-.092.162-.151.253-.061.092-.126.197-.198.316-.072.12-.138.26-.197.418-.061.159-.11.342-.151.551-.041.208-.063.449-.063.724 0 .466.083.891.249 1.277s.406.72.721.997c.313.279.698.495 1.151.648.454.154.971.23 1.552.23.586 0 1.106-.083 1.563-.248.455-.165.84-.391 1.151-.674s.551-.616.718-1.001c.165-.384.247-.797.247-1.237 0-.265-.015-.504-.042-.717-.029-.214-.075-.41-.138-.591-.062-.18-.143-.35-.241-.511s-.219-.32-.363-.479c-.043-.048-.078-.099-.104-.152-.024-.05-.038-.105-.038-.162z"/><path d="m53.786 136.646h1.598v6.098h-10.41v-1.938h8.813v-4.16z"/><path d="m49.335 133.326v-.454c0-.182-.024-.333-.075-.453-.05-.12-.131-.224-.241-.311l-3.636-2.872c-.154-.119-.261-.246-.32-.378-.061-.133-.09-.299-.09-.501v-1.67l4.326 3.507c.265.206.451.42.563.641.058-.159.137-.301.24-.429.104-.127.239-.249.408-.363l4.873-3.614v1.706c0 .229-.032.402-.097.515-.064.113-.159.207-.285.285l-3.845 2.943c-.129.092-.221.197-.273.317-.053.121-.079.293-.079.52v.611h4.579v1.937h-10.41v-1.937z"/><path d="m165.87 167.441v1.751c0 .331-.13.571-.389.72l-3.333 2.189c-.126.082-.215.171-.268.27-.053.098-.078.243-.078.436v.827h4.067v1.938h-10.411v-3.176c0-.705.073-1.313.22-1.818.146-.507.352-.922.615-1.245.265-.324.58-.563.946-.717.368-.153.772-.229 1.214-.229.351 0 .682.051.994.154.312.104.594.251.85.445.254.194.477.436.669.721.192.286.344.61.454.977.071-.126.156-.24.255-.348.099-.105.215-.201.35-.287zm-5.457 4.984c0-.364-.046-.683-.138-.954-.091-.271-.217-.494-.377-.669-.162-.175-.352-.306-.573-.393s-.463-.129-.727-.129c-.528 0-.934.173-1.218.521-.282.348-.424.88-.424 1.595v1.237h3.456v-1.208z"/><path d="m157.353 160.77c.102.056.174.118.22.183s.067.146.067.241c0 .101-.036.21-.111.328-.073.117-.156.258-.248.421s-.174.354-.248.573c-.074.218-.111.476-.111.773 0 .27.032.504.097.705s.155.37.27.508c.116.137.253.238.415.306.16.067.336.101.528.101.245 0 .449-.068.612-.205.164-.137.303-.317.418-.543s.218-.482.31-.771c.091-.288.188-.584.292-.886.103-.303.223-.598.359-.887.137-.288.31-.543.518-.77.21-.227.466-.406.768-.544.303-.137.67-.205 1.102-.205.471 0 .911.08 1.321.241s.769.396 1.073.706.545.687.72 1.134c.176.445.263.958.263 1.533 0 .332-.032.658-.098.979-.064.321-.157.631-.276.926-.121.296-.264.572-.433.831-.168.259-.355.49-.562.691l-.929-.568c-.067-.049-.123-.11-.169-.188s-.068-.159-.068-.245c0-.12.05-.249.147-.389.099-.14.208-.305.327-.497.121-.191.229-.416.328-.674.099-.256.147-.564.147-.925 0-.552-.131-.979-.393-1.28-.261-.303-.637-.455-1.127-.455-.273 0-.497.069-.669.206-.174.136-.317.317-.437.544-.117.225-.217.481-.299.77-.08.287-.17.58-.266.878s-.211.591-.346.879-.31.545-.526.771c-.216.225-.485.405-.81.544-.323.136-.723.203-1.199.203-.378 0-.748-.074-1.108-.226-.359-.151-.679-.372-.957-.66-.279-.287-.502-.642-.669-1.063-.169-.424-.254-.908-.254-1.456 0-.614.097-1.181.289-1.699.191-.518.46-.96.806-1.324z"/><path d="m157.051 151.143v3.139h8.819v1.937h-8.819v3.14h-1.592v-8.215h1.592z"/><path d="m54.064 202.484h25.666v21.334h-25.666z" fill="none"/><text fill="#fff" font-family="'Lato-Bold'" font-size="12" transform="translate(63.417 211.4004)">1</text><path d="m90.985 202.484h25.666v21.334h-25.666z" fill="none"/><text fill="#fff" font-family="'Lato-Bold'" font-size="12" transform="translate(100.3384 211.4004)">2</text><path d="m127.944 202.484h25.666v21.334h-25.666z" fill="none"/><text fill="#fff" font-family="'Lato-Bold'" font-size="12" transform="translate(137.2969 211.4004)">3</text><path d="m164.867 202.484h25.666v21.334h-25.666z" fill="none"/><text fill="#fff" font-family="'Lato-Bold'" font-size="12" transform="translate(174.2197 211.4004)">4</text><path d="m95.618 215.949v27.261" fill="none" stroke="#b87332" stroke-miterlimit="10" stroke-width="2.8347"/><path d="m95.618 229.862v15.873" fill="none" stroke="#b87332" stroke-miterlimit="10" stroke-width="2.8347"/><path d="m107.93 256.558h-24.625" fill="none" stroke="#000" stroke-miterlimit="10" stroke-width="4.252"/><path d="m95.618 242.475v14.083" fill="none" stroke="#000" stroke-miterlimit="10" stroke-width="2.8347"/><path d="m38.784 115.225c-.499-.071-.938-.211-1.313-.417-.377-.207-.691-.465-.943-.775-.252-.309-.441-.664-.569-1.064-.127-.401-.191-.832-.191-1.293 0-.479.069-.913.207-1.3.136-.386.325-.716.568-.99.242-.272.527-.482.853-.629.327-.146.68-.221 1.059-.221.331 0 .623.038.875.112s.472.181.659.32.346.312.475.518c.13.208.237.439.324.699.197-.624.497-1.089.9-1.397.402-.307.909-.46 1.519-.46.519 0 .978.096 1.376.288s.732.451 1.004.778c.271.325.476.704.615 1.133.14.43.209.885.209 1.365 0 .522-.061.979-.18 1.367-.121.39-.298.727-.533 1.016-.235.288-.522.533-.863.734-.342.201-.735.374-1.182.518l-.323-.783c-.087-.208-.109-.4-.069-.58.041-.181.139-.311.292-.393.169-.087.334-.181.497-.285.162-.104.308-.227.436-.37.127-.145.229-.313.31-.508.079-.194.118-.427.118-.694 0-.303-.049-.566-.147-.793-.099-.225-.227-.413-.385-.564s-.335-.264-.529-.339c-.194-.073-.391-.111-.587-.111-.25 0-.477.026-.68.079-.204.054-.379.164-.523.331-.144.168-.256.409-.337.724-.082.314-.123.735-.123 1.264h-1.267c-.005-.437-.046-.799-.123-1.087-.076-.288-.184-.517-.32-.688-.137-.17-.301-.288-.493-.355s-.403-.102-.634-.102c-.489 0-.861.138-1.116.41-.254.274-.382.639-.382 1.095 0 .212.03.405.09.584.061.177.145.337.252.478.108.143.234.262.379.357.145.097.303.168.475.216.222.082.368.188.439.32.072.132.089.318.051.558z"/><path d="m38.784 106.872c-.499-.071-.938-.211-1.313-.417-.377-.206-.691-.464-.943-.774s-.441-.664-.569-1.065c-.127-.4-.191-.832-.191-1.292 0-.479.069-.913.207-1.3.136-.386.325-.716.568-.99.242-.273.527-.483.853-.63.327-.146.68-.22 1.059-.22.331 0 .623.037.875.112.252.074.472.181.659.32.188.139.346.312.475.518.13.207.237.439.324.698.197-.623.497-1.089.9-1.396.402-.308.909-.461 1.519-.461.519 0 .978.097 1.376.288.398.192.732.451 1.004.778.271.326.476.704.615 1.134s.209.885.209 1.365c0 .522-.061.979-.18 1.367-.121.389-.298.727-.533 1.015s-.522.533-.863.735c-.342.201-.735.373-1.182.518l-.323-.784c-.087-.207-.109-.399-.069-.58.041-.181.139-.311.292-.393.169-.087.334-.181.497-.284.162-.104.308-.227.436-.371.127-.144.229-.313.31-.507.079-.194.118-.427.118-.695 0-.302-.049-.565-.147-.792-.099-.225-.227-.414-.385-.564-.158-.151-.335-.264-.529-.339-.194-.074-.391-.111-.587-.111-.25 0-.477.025-.68.078-.204.054-.379.164-.523.332-.144.167-.256.409-.337.723-.082.315-.123.736-.123 1.265h-1.267c-.005-.438-.046-.799-.123-1.088-.076-.288-.184-.517-.32-.688-.137-.17-.301-.288-.493-.356-.192-.066-.403-.101-.634-.101-.489 0-.861.137-1.116.41-.254.274-.382.639-.382 1.095 0 .212.03.405.09.583.061.178.145.338.252.479.108.142.234.262.379.357s.303.168.475.216c.222.082.368.188.439.319.072.133.089.319.051.559z"/><path d="m41.089 91.307c.906 0 1.695.097 2.364.292.671.194 1.224.463 1.659.806.438.344.764.749.977 1.217.213.469.32.974.32 1.517 0 .541-.107 1.044-.32 1.508-.213.463-.539.865-.977 1.206-.436.341-.988.606-1.659.799-.669.192-1.458.288-2.364.288-.912 0-1.702-.096-2.369-.288-.668-.192-1.22-.458-1.656-.799s-.762-.743-.976-1.206c-.213-.464-.321-.967-.321-1.508 0-.543.108-1.048.321-1.517.214-.468.539-.873.976-1.217.437-.343.988-.611 1.656-.806.667-.196 1.457-.292 2.369-.292zm0 1.836c-.754 0-1.379.056-1.873.165-.493.11-.887.258-1.18.443s-.498.397-.615.638c-.119.239-.178.488-.178.749 0 .254.059.5.178.736.117.238.322.448.615.631s.687.327 1.18.436c.494.108 1.119.162 1.873.162.753 0 1.378-.054 1.871-.162.494-.108.889-.253 1.182-.436s.498-.393.615-.631c.118-.236.177-.482.177-.736 0-.261-.059-.51-.177-.749-.117-.24-.322-.452-.615-.638s-.688-.333-1.182-.443c-.493-.11-1.118-.165-1.871-.165z"/><path d="m44.702 79.815h.987c.177 0 .322.057.436.173.112.115.169.273.169.475v3.824h-2.189c-.057-.332-.188-.643-.393-.933-.203-.291-.461-.545-.773-.764s-.669-.39-1.073-.516c-.403-.124-.832-.186-1.288-.186-.533 0-.997.084-1.393.255-.396.17-.725.401-.983.691s-.454.628-.584 1.015c-.129.387-.193.796-.193 1.228 0 .433.064.841.193 1.228.13.387.325.724.584 1.012s.587.518.983.688.859.256 1.393.256c.456 0 .885-.063 1.288-.188.404-.124.762-.297 1.073-.515.313-.218.57-.472.773-.763.205-.291.336-.602.393-.933h2.189v3.823c0 .202-.057.36-.169.475-.113.115-.259.174-.436.174h-.987v-1.657c0-.225.011-.456.033-.69.021-.235.049-.469.082-.698-.153.427-.367.818-.64 1.173-.274.355-.596.66-.966.914-.369.256-.778.453-1.227.595s-.926.212-1.43.212c-.691 0-1.328-.13-1.912-.392-.583-.263-1.088-.623-1.515-1.084-.428-.46-.761-1.002-1.001-1.624-.24-.621-.361-1.291-.361-2.012 0-.72.121-1.392.361-2.013s.573-1.161 1.001-1.619c.427-.46.932-.82 1.515-1.084.584-.264 1.221-.396 1.912-.396.504 0 .98.07 1.43.212.448.143.856.34 1.223.595.368.254.689.559.966.914.275.356.49.746.644 1.174-.033-.23-.061-.462-.082-.694-.022-.233-.033-.462-.033-.688z"/><path d="m111.349 115.528c-.5-.071-.938-.211-1.314-.417-.377-.207-.691-.465-.943-.775-.252-.309-.441-.664-.569-1.064-.126-.401-.19-.832-.19-1.293 0-.479.068-.913.206-1.3.136-.386.325-.716.568-.99.242-.272.527-.482.853-.629.327-.146.68-.221 1.059-.221.332 0 .623.038.875.112s.472.181.659.32.346.312.475.518c.13.208.237.439.324.699.197-.624.497-1.089.9-1.397.403-.307.909-.46 1.519-.46.52 0 .978.096 1.376.288s.732.451 1.004.778c.271.325.476.704.615 1.133.14.43.209.885.209 1.365 0 .522-.06.979-.18 1.367-.12.39-.298.727-.533 1.016-.235.288-.522.533-.863.734s-.735.374-1.182.518l-.323-.783c-.087-.208-.109-.4-.069-.58.041-.181.139-.311.292-.393.169-.087.334-.181.497-.285s.308-.227.436-.37c.127-.145.229-.313.31-.508s.118-.427.118-.694c0-.303-.049-.566-.147-.793-.099-.225-.227-.413-.385-.564s-.335-.264-.529-.339c-.194-.073-.391-.111-.587-.111-.25 0-.476.026-.68.079-.204.054-.379.164-.522.331-.145.168-.257.409-.338.724-.082.314-.123.735-.123 1.264h-1.267c-.005-.437-.046-.799-.123-1.087-.076-.288-.183-.517-.32-.688-.137-.17-.301-.288-.493-.355s-.403-.102-.634-.102c-.489 0-.861.138-1.116.41-.254.274-.382.639-.382 1.095 0 .212.03.405.091.584.06.177.144.337.252.478.107.143.234.262.378.357.145.097.303.168.475.216.222.082.368.188.439.32.073.132.089.318.051.558z"/><path d="m111.349 107.176c-.5-.071-.938-.211-1.314-.417s-.691-.464-.943-.774-.441-.664-.569-1.065c-.126-.4-.19-.832-.19-1.292 0-.479.068-.913.206-1.3.136-.386.325-.716.568-.99.242-.273.527-.483.853-.63.327-.146.68-.22 1.059-.22.332 0 .623.037.875.112.252.074.472.181.659.32.188.139.346.312.475.518.13.207.237.439.324.698.197-.623.497-1.089.9-1.396s.909-.461 1.519-.461c.52 0 .978.097 1.376.288.398.192.732.451 1.004.778.271.326.476.704.615 1.134s.209.885.209 1.365c0 .522-.06.979-.18 1.367s-.298.727-.533 1.015-.522.533-.863.735c-.341.201-.735.373-1.182.518l-.323-.784c-.087-.207-.109-.399-.069-.58.041-.181.139-.311.292-.393.169-.087.334-.181.497-.284s.308-.227.436-.371c.127-.144.229-.313.31-.507s.118-.427.118-.695c0-.302-.049-.565-.147-.792-.099-.225-.227-.414-.385-.564-.158-.151-.335-.264-.529-.339-.194-.074-.391-.111-.587-.111-.25 0-.476.025-.68.078-.204.054-.379.164-.522.332-.145.167-.257.409-.338.723-.082.315-.123.736-.123 1.265h-1.267c-.005-.438-.046-.799-.123-1.088-.076-.288-.183-.517-.32-.688-.137-.17-.301-.288-.493-.356-.192-.066-.403-.101-.634-.101-.489 0-.861.137-1.116.41-.254.274-.382.639-.382 1.095 0 .212.03.405.091.583.06.178.144.338.252.479.107.142.234.262.378.357.145.096.303.168.475.216.222.082.368.188.439.319.073.133.089.319.051.559z"/><path d="m113.652 91.61c.907 0 1.695.097 2.364.292.671.194 1.224.463 1.66.806.437.344.763.749.976 1.217.214.469.32.974.32 1.517 0 .541-.106 1.044-.32 1.508-.213.463-.539.865-.976 1.206s-.989.606-1.66.799c-.669.192-1.457.288-2.364.288-.912 0-1.702-.096-2.368-.288-.668-.192-1.221-.458-1.657-.799s-.762-.743-.976-1.206c-.213-.464-.32-.967-.32-1.508 0-.543.107-1.048.32-1.517.214-.468.539-.873.976-1.217.437-.343.989-.611 1.657-.806.666-.195 1.456-.292 2.368-.292zm0 1.836c-.754 0-1.378.056-1.873.165-.493.11-.887.258-1.18.443s-.498.397-.615.638c-.118.239-.177.488-.177.749 0 .254.059.5.177.736.117.238.322.448.615.631s.687.327 1.18.436c.495.108 1.119.162 1.873.162.753 0 1.378-.054 1.871-.162.495-.108.889-.253 1.182-.436s.498-.393.615-.631c.118-.236.177-.482.177-.736 0-.261-.059-.51-.177-.749-.117-.24-.322-.452-.615-.638s-.687-.333-1.182-.443c-.493-.109-1.118-.165-1.871-.165z"/><path d="m117.267 80.119h.986c.177 0 .322.057.436.173.113.115.169.273.169.475v3.824h-2.188c-.058-.332-.188-.643-.393-.933-.204-.291-.462-.545-.773-.764-.313-.219-.67-.39-1.074-.516-.402-.124-.832-.186-1.287-.186-.533 0-.998.084-1.394.255-.396.17-.725.401-.983.691s-.453.628-.584 1.015c-.129.387-.193.796-.193 1.228 0 .433.064.841.193 1.228.131.387.325.724.584 1.012s.587.518.983.688.86.256 1.394.256c.455 0 .885-.063 1.287-.188.404-.124.762-.297 1.074-.515s.569-.472.773-.763c.205-.291.335-.602.393-.933h2.188v3.823c0 .202-.056.36-.169.475s-.259.174-.436.174h-.986v-1.657c0-.225.01-.456.032-.69.021-.235.05-.469.082-.698-.153.427-.366.818-.64 1.173s-.596.66-.966.914c-.369.256-.778.453-1.227.595s-.926.212-1.43.212c-.691 0-1.328-.13-1.911-.392-.584-.263-1.089-.623-1.516-1.084-.428-.46-.761-1.002-1.001-1.624-.24-.621-.36-1.291-.36-2.012 0-.72.12-1.392.36-2.013s.573-1.161 1.001-1.619c.427-.46.932-.82 1.516-1.084.583-.264 1.22-.396 1.911-.396.504 0 .98.07 1.43.212.448.143.856.34 1.224.595.367.254.688.559.965.914.275.356.49.746.644 1.174-.032-.23-.061-.462-.082-.694-.022-.233-.032-.462-.032-.688z"/><path d="m149.784 114.796c-.499-.071-.938-.211-1.313-.417-.378-.207-.691-.465-.943-.775-.252-.309-.442-.664-.569-1.064-.127-.401-.191-.832-.191-1.293 0-.479.069-.913.206-1.3.136-.386.326-.716.568-.99.243-.272.527-.482.854-.629.327-.146.68-.221 1.058-.221.332 0 .624.038.876.112s.471.181.658.32.346.312.475.518c.13.208.238.439.325.699.196-.624.496-1.089.899-1.397.403-.307.909-.46 1.519-.46.52 0 .978.096 1.376.288s.732.451 1.005.778c.271.325.476.704.615 1.133.139.43.208.885.208 1.365 0 .522-.06.979-.179 1.367-.121.39-.298.727-.533 1.016-.236.288-.523.533-.864.734s-.734.374-1.181.518l-.324-.783c-.086-.208-.108-.4-.068-.58.041-.181.138-.311.291-.393.169-.087.334-.181.497-.285s.309-.227.437-.37c.126-.145.229-.313.309-.508.08-.194.119-.427.119-.694 0-.303-.05-.566-.148-.793-.098-.225-.226-.413-.384-.564s-.335-.264-.53-.339c-.194-.073-.39-.111-.587-.111-.249 0-.476.026-.68.079-.204.054-.378.164-.522.331-.145.168-.257.409-.338.724-.082.314-.123.735-.123 1.264h-1.267c-.005-.437-.046-.799-.123-1.087-.076-.288-.183-.517-.319-.688-.138-.17-.302-.288-.494-.355-.191-.067-.402-.102-.634-.102-.488 0-.861.138-1.115.41-.255.274-.382.639-.382 1.095 0 .212.03.405.09.584.06.177.145.337.252.478.107.143.234.262.379.357.144.097.302.168.475.216.221.082.367.188.439.32s.089.318.05.558z"/><path d="m149.784 106.443c-.499-.071-.938-.211-1.313-.417-.378-.206-.691-.464-.943-.774s-.442-.664-.569-1.065c-.127-.4-.191-.832-.191-1.292 0-.479.069-.913.206-1.3.136-.386.326-.716.568-.99.243-.273.527-.483.854-.63.327-.146.68-.22 1.058-.22.332 0 .624.037.876.112.252.074.471.181.658.32.188.139.346.312.475.518.13.207.238.439.325.698.196-.623.496-1.089.899-1.396s.909-.461 1.519-.461c.52 0 .978.097 1.376.288.398.192.732.451 1.005.778.271.326.476.704.615 1.134s.208.885.208 1.365c0 .522-.06.979-.179 1.367-.121.389-.298.727-.533 1.015-.236.288-.523.533-.864.735-.341.201-.734.373-1.181.518l-.324-.784c-.086-.207-.108-.399-.068-.58.041-.181.138-.311.291-.393.169-.087.334-.181.497-.284s.309-.227.437-.371c.126-.144.229-.313.309-.507s.119-.427.119-.695c0-.302-.05-.565-.148-.792-.098-.225-.226-.414-.384-.564-.158-.151-.335-.264-.53-.339-.194-.074-.39-.111-.587-.111-.249 0-.476.025-.68.078-.204.054-.378.164-.522.332-.145.167-.257.409-.338.723-.082.315-.123.736-.123 1.265h-1.267c-.005-.438-.046-.799-.123-1.088-.076-.288-.183-.517-.319-.688-.138-.17-.302-.288-.494-.356-.191-.066-.402-.101-.634-.101-.488 0-.861.137-1.115.41-.255.274-.382.639-.382 1.095 0 .212.03.405.09.583s.145.338.252.479c.107.142.234.262.379.357.144.096.302.168.475.216.221.082.367.188.439.319.072.133.089.319.05.559z"/><path d="m152.088 90.878c.907 0 1.696.097 2.365.292.67.194 1.224.463 1.659.806.438.344.763.749.977 1.217.213.469.319.974.319 1.517 0 .541-.106 1.044-.319 1.508-.214.463-.539.865-.977 1.206-.436.341-.989.606-1.659.799-.669.192-1.458.288-2.365.288-.911 0-1.701-.096-2.368-.288-.668-.192-1.22-.458-1.657-.799-.436-.341-.762-.743-.975-1.206-.214-.464-.321-.967-.321-1.508 0-.543.107-1.048.321-1.517.213-.468.539-.873.975-1.217.438-.343.989-.611 1.657-.806.667-.195 1.457-.292 2.368-.292zm0 1.836c-.753 0-1.378.056-1.872.165-.494.11-.888.258-1.181.443s-.498.397-.615.638c-.118.239-.177.488-.177.749 0 .254.059.5.177.736.117.238.322.448.615.631s.687.327 1.181.436 1.119.162 1.872.162c.754 0 1.378-.054 1.872-.162s.888-.253 1.181-.436.498-.393.615-.631c.118-.236.177-.482.177-.736 0-.261-.059-.51-.177-.749-.117-.24-.322-.452-.615-.638s-.687-.333-1.181-.443c-.494-.109-1.118-.165-1.872-.165z"/><path d="m155.702 79.387h.986c.178 0 .322.057.437.173.112.115.169.273.169.475v3.824h-2.189c-.058-.332-.188-.643-.393-.933-.204-.291-.462-.545-.773-.764s-.669-.39-1.073-.516c-.403-.124-.832-.186-1.288-.186-.533 0-.997.084-1.394.255-.396.17-.724.401-.983.691s-.453.628-.583 1.015c-.129.387-.193.796-.193 1.228 0 .433.064.841.193 1.228.13.387.324.724.583 1.012.26.288.588.518.983.688.396.17.86.256 1.394.256.456 0 .885-.063 1.288-.188.404-.124.762-.297 1.073-.515s.569-.472.773-.763c.205-.291.335-.602.393-.933h2.189v3.823c0 .202-.057.36-.169.475-.114.115-.259.174-.437.174h-.986v-1.657c0-.225.011-.456.033-.69.021-.235.049-.469.082-.698-.154.427-.367.818-.641 1.173-.273.355-.595.66-.965.914-.369.256-.778.453-1.228.595-.448.142-.926.212-1.43.212-.691 0-1.327-.13-1.911-.392-.584-.263-1.089-.623-1.516-1.084-.428-.46-.76-1.002-1-1.624-.24-.621-.361-1.291-.361-2.012 0-.72.121-1.392.361-2.013s.572-1.161 1-1.619c.427-.46.932-.82 1.516-1.084s1.22-.396 1.911-.396c.504 0 .981.07 1.43.212.449.143.856.34 1.224.595.368.254.689.559.966.914.275.356.489.746.644 1.174-.033-.23-.062-.462-.082-.694-.022-.233-.033-.462-.033-.688z"/><path d="m120.431 169.244c.102.057.174.117.219.184.047.064.068.145.068.24 0 .102-.035.211-.111.328-.074.117-.156.258-.248.42-.092.164-.174.355-.248.574-.074.217-.111.475-.111.773 0 .27.033.504.098.705s.154.371.27.508.252.238.414.307c.16.066.336.102.529.102.244 0 .447-.07.611-.205.164-.139.303-.32.418-.545.115-.227.219-.482.309-.771.092-.287.189-.582.293-.885.104-.301.223-.598.359-.885.137-.289.309-.545.518-.77.211-.227.465-.408.768-.545s.67-.205 1.102-.205c.471 0 .91.08 1.32.24.41.162.77.396 1.074.705.305.311.545.689.719 1.135.176.447.264.957.264 1.535 0 .33-.031.656-.098.979-.064.322-.156.629-.277.926-.119.295-.264.57-.432.832-.168.258-.355.488-.561.689l-.93-.568c-.066-.049-.123-.109-.17-.188-.045-.076-.066-.158-.066-.244 0-.121.049-.25.146-.389.1-.139.207-.305.328-.496.119-.193.229-.418.328-.674.098-.258.146-.566.146-.926 0-.551-.131-.979-.393-1.281s-.637-.453-1.127-.453c-.273 0-.496.066-.67.205-.172.137-.316.316-.436.543-.117.227-.217.482-.299.77-.08.289-.17.582-.266.879-.096.299-.211.592-.346.879s-.309.545-.525.77c-.217.227-.486.408-.811.545s-.723.205-1.199.205c-.379 0-.748-.076-1.107-.229-.361-.15-.68-.369-.959-.658-.277-.287-.5-.643-.668-1.064-.17-.424-.254-.908-.254-1.455 0-.613.096-1.182.289-1.699.191-.52.461-.959.807-1.324z"/><path d="m118.538 153.102 10.41 3.232v1.748l-7.113 2.277c-.174.061-.385.119-.635.172.121.029.234.059.34.086.105.029.203.061.295.094l7.113 2.297v1.758l-10.41 3.225v-1.619c0-.168.039-.309.117-.422.08-.111.188-.188.322-.227l6.227-1.771c.154-.039.32-.076.5-.111.182-.035.369-.074.564-.111-.201-.039-.389-.08-.568-.127-.176-.045-.342-.094-.496-.146l-6.227-2.045c-.111-.039-.213-.113-.303-.229-.092-.111-.137-.25-.137-.412v-.568c0-.17.041-.305.121-.41.082-.107.188-.186.318-.238l6.227-2.039c.297-.1.641-.191 1.029-.271-.379-.064-.723-.133-1.029-.211l-6.227-1.77c-.121-.029-.225-.104-.311-.221s-.129-.258-.129-.422v-1.519z"/><path d="m123.743 142.574c.762 0 1.463.127 2.102.383.639.254 1.189.611 1.648 1.072.461.459.818 1.014 1.072 1.662.256.648.383 1.369.383 2.16v3.967h-10.41v-3.967c0-.791.127-1.512.383-2.16.258-.648.615-1.203 1.074-1.662.459-.461 1.006-.818 1.645-1.072.638-.256 1.339-.383 2.103-.383zm0 1.989c-.572 0-1.084.074-1.537.225-.455.152-.838.371-1.152.656s-.557.631-.723 1.037c-.17.404-.252.861-.252 1.371v2.023h7.328v-2.023c0-.51-.084-.967-.252-1.371-.168-.406-.408-.752-.723-1.037-.316-.285-.699-.504-1.152-.656-.453-.151-.967-.225-1.537-.225z"/><path d="m128.948 138.924v1.943h-10.41v-1.943z"/><path d="m123.743 126.67c.762 0 1.469.127 2.119.379s1.215.607 1.689 1.068.846 1.014 1.111 1.662c.268.648.4 1.369.4 2.162 0 .785-.133 1.504-.4 2.152-.266.648-.637 1.203-1.111 1.666s-1.039.822-1.689 1.076c-.65.256-1.357.381-2.119.381-.764 0-1.471-.125-2.121-.381-.65-.254-1.213-.613-1.688-1.076-.477-.463-.846-1.018-1.113-1.666-.266-.648-.4-1.367-.4-2.152 0-.529.063-1.025.184-1.492.123-.465.297-.893.52-1.281s.494-.738.814-1.047c.318-.311.674-.572 1.068-.789.393-.217.82-.381 1.281-.492.461-.113.945-.17 1.455-.17zm0 1.98c-.572 0-1.084.076-1.537.229-.455.156-.84.373-1.156.656s-.559.627-.729 1.033c-.166.406-.252.863-.252 1.373 0 .508.086.965.252 1.371.17.404.412.75.729 1.037.316.285.701.504 1.156.658.453.152.965.23 1.537.23.57 0 1.084-.078 1.537-.23.453-.154.836-.373 1.152-.658.314-.287.555-.633.723-1.037.168-.406.252-.863.252-1.371 0-.51-.084-.967-.252-1.373s-.408-.75-.723-1.033c-.316-.283-.699-.5-1.152-.656-.453-.152-.967-.229-1.537-.229z"/></svg>