<?xml version="1.0" encoding="utf-8"?>
<!-- Generator: Adobe Illustrator 16.0.0, SVG Export Plug-In . SVG Version: 6.00 Build 0)  -->
<!DOCTYPE svg PUBLIC "-//W3C//DTD SVG 1.1//EN" "http://www.w3.org/Graphics/SVG/1.1/DTD/svg11.dtd">
<svg version="1.1" id="Layer_1" xmlns="http://www.w3.org/2000/svg" xmlns:xlink="http://www.w3.org/1999/xlink" x="0px" y="0px"
	 width="221.422px" height="264px" viewBox="0 0 221.422 264" enable-background="new 0 0 221.422 264" xml:space="preserve">
<g>
	<path d="M69.215,16.674c-0.072,0.119-0.15,0.209-0.234,0.27c-0.084,0.06-0.187,0.09-0.306,0.09c-0.137,0-0.297-0.068-0.48-0.204
		s-0.414-0.286-0.689-0.45c-0.276-0.164-0.608-0.313-0.996-0.449c-0.389-0.137-0.858-0.205-1.41-0.205
		c-0.521,0-0.979,0.07-1.374,0.211c-0.396,0.14-0.729,0.33-0.996,0.57c-0.269,0.239-0.47,0.521-0.606,0.846
		c-0.136,0.324-0.204,0.674-0.204,1.05c0,0.479,0.118,0.878,0.354,1.194c0.235,0.315,0.548,0.586,0.936,0.81
		c0.389,0.224,0.828,0.418,1.32,0.582s0.996,0.334,1.512,0.51c0.517,0.177,1.021,0.374,1.513,0.595
		c0.491,0.219,0.932,0.498,1.319,0.834c0.389,0.336,0.7,0.748,0.937,1.235c0.235,0.488,0.354,1.088,0.354,1.8
		c0,0.752-0.128,1.458-0.384,2.118s-0.63,1.234-1.122,1.722c-0.492,0.488-1.096,0.873-1.812,1.152
		c-0.717,0.279-1.53,0.42-2.442,0.42c-1.12,0-2.136-0.201-3.048-0.605s-1.692-0.95-2.34-1.639l0.672-1.104
		c0.063-0.088,0.142-0.162,0.234-0.223c0.092-0.06,0.193-0.09,0.306-0.09c0.104,0,0.222,0.043,0.354,0.127
		c0.133,0.084,0.282,0.189,0.45,0.317s0.36,0.269,0.576,0.42s0.462,0.292,0.738,0.42c0.275,0.128,0.59,0.233,0.941,0.317
		c0.353,0.084,0.748,0.127,1.188,0.127c0.552,0,1.044-0.076,1.476-0.229c0.433-0.152,0.798-0.365,1.099-0.642
		c0.3-0.276,0.529-0.606,0.689-0.99s0.24-0.812,0.24-1.284c0-0.52-0.118-0.945-0.354-1.277c-0.235-0.332-0.546-0.61-0.93-0.834
		c-0.384-0.225-0.824-0.414-1.32-0.57s-1-0.316-1.512-0.48s-1.016-0.354-1.512-0.57c-0.496-0.215-0.937-0.495-1.32-0.84
		c-0.384-0.344-0.694-0.773-0.93-1.289c-0.236-0.517-0.354-1.154-0.354-1.914c0-0.608,0.118-1.196,0.354-1.764
		c0.235-0.568,0.58-1.072,1.032-1.513c0.451-0.44,1.008-0.792,1.668-1.056c0.659-0.264,1.418-0.396,2.273-0.396
		c0.96,0,1.834,0.152,2.622,0.456s1.482,0.744,2.082,1.32L69.215,16.674z"/>
	<path d="M85.066,15.941h-5.568v15.24h-2.315v-15.24h-5.58v-1.956h13.464V15.941z"/>
	<path d="M105.502,13.985v17.196h-2.04V18.545c0-0.168,0.007-0.348,0.019-0.539c0.012-0.193,0.025-0.389,0.042-0.589l-5.904,10.752
		c-0.184,0.36-0.464,0.54-0.84,0.54h-0.336c-0.376,0-0.656-0.18-0.84-0.54l-6.024-10.8c0.048,0.424,0.072,0.816,0.072,1.176v12.637
		h-2.04V13.985h1.716c0.208,0,0.368,0.021,0.48,0.06c0.111,0.041,0.22,0.152,0.323,0.336l5.94,10.584
		c0.096,0.192,0.189,0.393,0.282,0.6c0.092,0.209,0.178,0.421,0.258,0.637c0.08-0.216,0.164-0.43,0.252-0.643
		c0.088-0.211,0.184-0.414,0.288-0.605l5.832-10.572c0.096-0.184,0.202-0.295,0.318-0.336c0.115-0.039,0.277-0.06,0.485-0.06
		H105.502z"/>
	<path d="M109.258,18.641c0.112-0.783,0.328-1.478,0.648-2.082c0.32-0.604,0.726-1.109,1.218-1.518
		c0.493-0.408,1.058-0.718,1.692-0.93c0.637-0.212,1.322-0.318,2.059-0.318c0.729,0,1.4,0.104,2.016,0.313
		c0.615,0.208,1.146,0.504,1.59,0.888s0.791,0.849,1.039,1.392c0.248,0.545,0.371,1.148,0.371,1.813c0,0.544-0.07,1.029-0.209,1.458
		c-0.141,0.428-0.342,0.802-0.602,1.122s-0.574,0.592-0.941,0.816c-0.367,0.224-0.779,0.407-1.236,0.551
		c1.121,0.289,1.963,0.783,2.527,1.482c0.563,0.7,0.846,1.574,0.846,2.622c0,0.792-0.15,1.505-0.451,2.136
		c-0.299,0.633-0.709,1.17-1.229,1.614c-0.521,0.444-1.127,0.784-1.818,1.021c-0.693,0.235-1.436,0.354-2.227,0.354
		c-0.912,0-1.691-0.113-2.34-0.342s-1.196-0.542-1.645-0.941c-0.448-0.4-0.816-0.875-1.104-1.423s-0.532-1.142-0.731-1.782
		l0.924-0.384c0.24-0.104,0.474-0.132,0.702-0.084c0.228,0.048,0.394,0.181,0.498,0.396c0.104,0.225,0.233,0.492,0.39,0.805
		s0.371,0.611,0.643,0.9c0.271,0.287,0.617,0.531,1.037,0.731c0.422,0.2,0.955,0.3,1.604,0.3c0.6,0,1.125-0.098,1.578-0.293
		c0.451-0.197,0.828-0.451,1.127-0.763c0.301-0.312,0.525-0.66,0.678-1.044c0.152-0.385,0.229-0.764,0.229-1.141
		c0-0.463-0.061-0.887-0.18-1.271c-0.121-0.384-0.344-0.716-0.672-0.996c-0.328-0.279-0.779-0.5-1.35-0.66
		c-0.572-0.16-1.307-0.24-2.203-0.24v-1.547c0.736-0.008,1.363-0.088,1.879-0.24s0.936-0.36,1.26-0.625
		c0.324-0.264,0.559-0.579,0.707-0.947s0.223-0.775,0.223-1.225c0-0.496-0.078-0.928-0.234-1.295
		c-0.156-0.369-0.369-0.672-0.643-0.912c-0.271-0.24-0.594-0.42-0.965-0.541c-0.373-0.119-0.773-0.18-1.207-0.18
		c-0.432,0-0.834,0.064-1.205,0.192c-0.373,0.128-0.701,0.306-0.984,0.534c-0.283,0.228-0.521,0.498-0.713,0.81
		c-0.193,0.312-0.328,0.656-0.408,1.032c-0.105,0.279-0.235,0.466-0.392,0.559c-0.155,0.092-0.382,0.117-0.678,0.077L109.258,18.641
		z"/>
	<path d="M133.463,29.153c0.232,0,0.416,0.067,0.553,0.204c0.135,0.136,0.203,0.312,0.203,0.527v1.297h-11.473v-0.732
		c0-0.152,0.033-0.309,0.096-0.469c0.064-0.159,0.164-0.307,0.301-0.443l5.508-5.531c0.457-0.465,0.873-0.91,1.248-1.339
		c0.377-0.428,0.695-0.858,0.961-1.29c0.264-0.432,0.467-0.869,0.611-1.314c0.145-0.443,0.217-0.918,0.217-1.422
		s-0.08-0.945-0.24-1.326c-0.16-0.379-0.379-0.693-0.654-0.941s-0.602-0.434-0.979-0.559c-0.375-0.123-0.779-0.186-1.211-0.186
		c-0.441,0-0.846,0.064-1.213,0.192s-0.693,0.306-0.979,0.534c-0.283,0.228-0.521,0.498-0.713,0.81
		c-0.193,0.312-0.328,0.656-0.408,1.032c-0.096,0.279-0.227,0.466-0.391,0.559c-0.164,0.092-0.395,0.117-0.689,0.077l-1.117-0.192
		c0.113-0.783,0.33-1.478,0.654-2.082c0.324-0.604,0.732-1.109,1.225-1.518s1.055-0.718,1.686-0.93
		c0.633-0.212,1.316-0.318,2.053-0.318c0.729,0,1.408,0.108,2.039,0.324c0.633,0.216,1.18,0.529,1.645,0.941
		s0.828,0.914,1.092,1.506c0.264,0.593,0.396,1.265,0.396,2.017c0,0.64-0.096,1.234-0.289,1.782
		c-0.191,0.548-0.451,1.07-0.779,1.566s-0.705,0.979-1.135,1.451c-0.428,0.473-0.881,0.948-1.361,1.428l-4.535,4.633
		c0.318-0.088,0.643-0.158,0.971-0.211c0.328-0.051,0.645-0.077,0.949-0.077H133.463z"/>
	<path d="M140.063,15.881v6.012h7.068v1.896h-7.068v7.393h-2.328V13.985h10.596v1.896H140.063z"/>
	<path d="M162.348,24.977v1.225c0,0.128-0.039,0.236-0.115,0.324s-0.193,0.132-0.354,0.132h-2.137v4.524h-1.871v-4.524h-7.633
		c-0.16,0-0.297-0.046-0.414-0.138c-0.115-0.092-0.189-0.206-0.221-0.342l-0.217-1.093l8.363-11.1h1.992v10.991H162.348z
		 M157.871,24.977v-7.092c0-0.207,0.008-0.436,0.023-0.684s0.041-0.5,0.072-0.756l-6.264,8.531H157.871z"/>
</g>
<line fill="none" stroke="#B87332" stroke-width="2.8347" stroke-miterlimit="10" x1="58.115" y1="77.453" x2="58.115" y2="42.418"/>
<line fill="none" stroke="#B87332" stroke-width="2.8347" stroke-miterlimit="10" x1="132.506" y1="77.453" x2="132.506" y2="42.418"/>
<line fill="none" stroke="#B87332" stroke-width="2.8347" stroke-miterlimit="10" x1="59.281" y1="181.704" x2="59.281" y2="116.648"/>
<line fill="none" stroke="#B87332" stroke-width="2.8347" stroke-miterlimit="10" x1="132.674" y1="181.704" x2="132.674" y2="116.648"/>
<rect x="123.742" y="78.271" fill="none" stroke="#000000" stroke-width="2.8347" stroke-miterlimit="10" width="17.035" height="39.699"/>
<rect x="50.178" y="78.104" fill="none" stroke="#000000" stroke-width="2.8347" stroke-miterlimit="10" width="17.035" height="39.699"/>
<line fill="none" stroke="#B87332" stroke-width="2.8347" stroke-miterlimit="10" x1="169.429" y1="77.453" x2="169.429" y2="42.418"/>
<line fill="none" stroke="#B87332" stroke-width="2.8347" stroke-miterlimit="10" x1="169.596" y1="181.704" x2="169.596" y2="116.648"/>
<rect x="160.664" y="78.271" fill="none" stroke="#000000" stroke-width="2.8347" stroke-miterlimit="10" width="17.035" height="39.699"/>
<polyline fill="none" stroke="#000000" stroke-width="2.8347" stroke-miterlimit="10" points="10.264,7.143 10.264,42.418 
	212.929,42.418 212.929,42.252 212.929,6.979 "/>
<path d="M70.994,215.949c3.199,0,5.798-2.6,5.798-5.799v-24.604c0-3.203-2.599-5.797-5.798-5.797H46.391
	c-3.2,0-5.79,2.594-5.79,5.797v24.604c0,3.199,2.59,5.799,5.79,5.799H70.994z"/>
<rect x="54.064" y="193.219" fill="#C3996C" width="9.263" height="9.266"/>
<path d="M107.916,215.949c3.199,0,5.795-2.6,5.795-5.799v-24.604c0-3.203-2.596-5.797-5.795-5.797H83.312
	c-3.201,0-5.789,2.594-5.789,5.797v24.604c0,3.199,2.588,5.799,5.789,5.799H107.916z"/>
<rect x="90.986" y="193.219" fill="#C3996C" width="9.264" height="9.266"/>
<path d="M144.559,215.949c3.199,0,5.797-2.6,5.797-5.799v-24.604c0-3.203-2.598-5.797-5.797-5.797h-24.604
	c-3.199,0-5.789,2.594-5.789,5.797v24.604c0,3.199,2.59,5.799,5.789,5.799H144.559z"/>
<rect x="127.629" y="193.219" fill="#C3996C" width="9.262" height="9.266"/>
<path d="M181.48,215.949c3.199,0,5.795-2.6,5.795-5.799v-24.604c0-3.203-2.596-5.797-5.795-5.797h-24.604
	c-3.199,0-5.789,2.594-5.789,5.797v24.604c0,3.199,2.59,5.799,5.789,5.799H181.48z"/>
<rect x="164.551" y="193.219" fill="#C3996C" width="9.264" height="9.266"/>
<g>
	<path d="M46.867,169.483c0.101,0.059,0.173,0.119,0.219,0.184s0.068,0.146,0.068,0.242c0,0.101-0.036,0.209-0.111,0.326
		c-0.074,0.119-0.157,0.258-0.249,0.422c-0.091,0.163-0.173,0.354-0.248,0.572c-0.074,0.219-0.111,0.477-0.111,0.774
		c0,0.269,0.033,0.504,0.098,0.706c0.064,0.201,0.154,0.371,0.27,0.507c0.115,0.138,0.253,0.239,0.414,0.306
		c0.161,0.067,0.337,0.102,0.529,0.102c0.244,0,0.448-0.068,0.611-0.205c0.164-0.137,0.304-0.318,0.418-0.544
		c0.115-0.226,0.219-0.483,0.31-0.771c0.092-0.288,0.188-0.583,0.292-0.886c0.104-0.302,0.223-0.598,0.359-0.885
		c0.138-0.288,0.31-0.546,0.519-0.771c0.21-0.226,0.465-0.407,0.768-0.544c0.302-0.136,0.669-0.205,1.102-0.205
		c0.47,0,0.91,0.081,1.32,0.241s0.769,0.396,1.073,0.705c0.305,0.31,0.545,0.688,0.72,1.134c0.176,0.447,0.263,0.958,0.263,1.535
		c0,0.33-0.031,0.656-0.098,0.979c-0.064,0.322-0.156,0.629-0.276,0.925c-0.12,0.295-0.264,0.572-0.433,0.832
		c-0.167,0.259-0.354,0.489-0.561,0.691l-0.93-0.57c-0.066-0.047-0.123-0.109-0.169-0.186s-0.067-0.158-0.067-0.245
		c0-0.12,0.049-0.25,0.147-0.39c0.099-0.138,0.207-0.305,0.327-0.496c0.12-0.192,0.229-0.416,0.328-0.673
		c0.098-0.258,0.147-0.565,0.147-0.926c0-0.552-0.132-0.979-0.393-1.282c-0.262-0.303-0.638-0.452-1.128-0.452
		c-0.272,0-0.496,0.067-0.669,0.204c-0.173,0.138-0.317,0.318-0.436,0.543c-0.117,0.227-0.217,0.483-0.299,0.771
		c-0.081,0.288-0.17,0.581-0.267,0.879c-0.096,0.298-0.211,0.59-0.346,0.878s-0.309,0.545-0.525,0.77
		c-0.216,0.227-0.485,0.408-0.811,0.544c-0.323,0.137-0.723,0.206-1.198,0.206c-0.379,0-0.749-0.076-1.108-0.228
		c-0.36-0.15-0.679-0.37-0.958-0.658c-0.278-0.288-0.501-0.644-0.669-1.066c-0.169-0.422-0.253-0.907-0.253-1.453
		c0-0.615,0.096-1.182,0.288-1.699c0.192-0.52,0.461-0.961,0.807-1.325L46.867,169.483z"/>
	<path d="M44.973,153.342l10.41,3.232v1.749l-7.113,2.275c-0.173,0.063-0.384,0.12-0.634,0.173c0.12,0.028,0.233,0.058,0.339,0.087
		c0.105,0.028,0.204,0.06,0.295,0.094l7.113,2.297v1.756l-10.41,3.226v-1.62c0-0.167,0.039-0.308,0.118-0.421
		c0.079-0.112,0.187-0.188,0.321-0.227l6.227-1.771c0.154-0.038,0.321-0.075,0.501-0.111c0.181-0.036,0.369-0.074,0.564-0.111
		c-0.201-0.039-0.39-0.08-0.568-0.127c-0.177-0.044-0.343-0.094-0.497-0.147l-6.227-2.044c-0.111-0.04-0.213-0.114-0.303-0.228
		c-0.092-0.112-0.137-0.25-0.137-0.414v-0.568c0-0.168,0.041-0.305,0.121-0.41c0.082-0.105,0.188-0.185,0.318-0.238l6.227-2.037
		c0.298-0.101,0.642-0.191,1.03-0.273c-0.38-0.063-0.723-0.132-1.03-0.209l-6.227-1.771c-0.121-0.028-0.225-0.102-0.311-0.22
		s-0.129-0.258-0.129-0.421V153.342z"/>
	<path d="M52.928,145.12c0-0.105,0.041-0.199,0.122-0.281l0.829-0.764c0.522,0.423,0.923,0.941,1.202,1.559
		c0.278,0.617,0.417,1.357,0.417,2.222c0,0.773-0.131,1.467-0.396,2.083c-0.264,0.618-0.63,1.145-1.102,1.582
		c-0.47,0.437-1.031,0.771-1.684,1.004s-1.366,0.349-2.139,0.349c-0.783,0-1.499-0.124-2.149-0.374
		c-0.65-0.249-1.21-0.601-1.682-1.055c-0.47-0.453-0.835-0.994-1.098-1.623c-0.262-0.629-0.393-1.325-0.393-2.088
		c0-0.76,0.125-1.432,0.375-2.021c0.249-0.588,0.575-1.087,0.979-1.501l0.9,0.648c0.057,0.038,0.107,0.088,0.15,0.147
		c0.043,0.061,0.064,0.143,0.064,0.248c0,0.073-0.021,0.146-0.061,0.223c-0.041,0.077-0.092,0.162-0.151,0.253
		c-0.061,0.092-0.126,0.197-0.198,0.316c-0.072,0.12-0.138,0.26-0.197,0.418c-0.061,0.159-0.11,0.342-0.151,0.551
		c-0.041,0.208-0.063,0.449-0.063,0.724c0,0.466,0.083,0.891,0.249,1.277s0.406,0.72,0.721,0.997
		c0.313,0.279,0.698,0.495,1.151,0.648c0.454,0.154,0.971,0.23,1.552,0.23c0.586,0,1.106-0.083,1.563-0.248
		c0.455-0.165,0.84-0.391,1.151-0.674s0.551-0.616,0.718-1.001c0.165-0.384,0.247-0.797,0.247-1.237
		c0-0.265-0.015-0.504-0.042-0.717c-0.029-0.214-0.075-0.41-0.138-0.591c-0.062-0.18-0.143-0.35-0.241-0.511
		s-0.219-0.32-0.363-0.479c-0.043-0.048-0.078-0.099-0.104-0.152C52.942,145.232,52.928,145.177,52.928,145.12z"/>
	<path d="M53.786,136.646h1.598v6.098h-10.41v-1.938h8.813V136.646z"/>
	<path d="M49.335,133.326v-0.454c0-0.182-0.024-0.333-0.075-0.453c-0.05-0.12-0.131-0.224-0.241-0.311l-3.636-2.872
		c-0.154-0.119-0.261-0.246-0.32-0.378c-0.061-0.133-0.09-0.299-0.09-0.501v-1.67l4.326,3.507c0.265,0.206,0.451,0.42,0.563,0.641
		c0.058-0.159,0.137-0.301,0.24-0.429c0.104-0.127,0.239-0.249,0.408-0.363l4.873-3.614v1.706c0,0.229-0.032,0.402-0.097,0.515
		c-0.064,0.113-0.159,0.207-0.285,0.285l-3.845,2.943c-0.129,0.092-0.221,0.197-0.273,0.317c-0.053,0.121-0.079,0.293-0.079,0.52
		v0.611h4.579v1.937h-10.41v-1.937H49.335z"/>
</g>
<g>
	<path d="M165.87,167.441v1.751c0,0.331-0.13,0.571-0.389,0.72l-3.333,2.189c-0.126,0.082-0.215,0.171-0.268,0.27
		c-0.053,0.098-0.078,0.243-0.078,0.436v0.827h4.067v1.938h-10.411v-3.176c0-0.705,0.073-1.313,0.22-1.818
		c0.146-0.507,0.352-0.922,0.615-1.245c0.265-0.324,0.58-0.563,0.946-0.717c0.368-0.153,0.772-0.229,1.214-0.229
		c0.351,0,0.682,0.051,0.994,0.154c0.312,0.104,0.594,0.251,0.85,0.445c0.254,0.194,0.477,0.436,0.669,0.721
		c0.192,0.286,0.344,0.61,0.454,0.977c0.071-0.126,0.156-0.24,0.255-0.348c0.099-0.105,0.215-0.201,0.35-0.287L165.87,167.441z
		 M160.413,172.425c0-0.364-0.046-0.683-0.138-0.954c-0.091-0.271-0.217-0.494-0.377-0.669c-0.162-0.175-0.352-0.306-0.573-0.393
		c-0.221-0.087-0.463-0.129-0.727-0.129c-0.528,0-0.934,0.173-1.218,0.521c-0.282,0.348-0.424,0.88-0.424,1.595v1.237h3.456V172.425
		z"/>
	<path d="M157.353,160.77c0.102,0.056,0.174,0.118,0.22,0.183c0.046,0.065,0.067,0.146,0.067,0.241c0,0.101-0.036,0.21-0.111,0.328
		c-0.073,0.117-0.156,0.258-0.248,0.421s-0.174,0.354-0.248,0.573c-0.074,0.218-0.111,0.476-0.111,0.773
		c0,0.27,0.032,0.504,0.097,0.705s0.155,0.37,0.27,0.508c0.116,0.137,0.253,0.238,0.415,0.306c0.16,0.067,0.336,0.101,0.528,0.101
		c0.245,0,0.449-0.068,0.612-0.205c0.164-0.137,0.303-0.317,0.418-0.543s0.218-0.482,0.31-0.771
		c0.091-0.288,0.188-0.584,0.292-0.886c0.103-0.303,0.223-0.598,0.359-0.887c0.137-0.288,0.31-0.543,0.518-0.77
		c0.21-0.227,0.466-0.406,0.768-0.544c0.303-0.137,0.67-0.205,1.102-0.205c0.471,0,0.911,0.08,1.321,0.241s0.769,0.396,1.073,0.706
		s0.545,0.687,0.72,1.134c0.176,0.445,0.263,0.958,0.263,1.533c0,0.332-0.032,0.658-0.098,0.979
		c-0.064,0.321-0.157,0.631-0.276,0.926c-0.121,0.296-0.264,0.572-0.433,0.831c-0.168,0.259-0.355,0.49-0.562,0.691l-0.929-0.568
		c-0.067-0.049-0.123-0.11-0.169-0.188s-0.068-0.159-0.068-0.245c0-0.12,0.05-0.249,0.147-0.389c0.099-0.14,0.208-0.305,0.327-0.497
		c0.121-0.191,0.229-0.416,0.328-0.674c0.099-0.256,0.147-0.564,0.147-0.925c0-0.552-0.131-0.979-0.393-1.28
		c-0.261-0.303-0.637-0.455-1.127-0.455c-0.273,0-0.497,0.069-0.669,0.206c-0.174,0.136-0.317,0.317-0.437,0.544
		c-0.117,0.225-0.217,0.481-0.299,0.77c-0.08,0.287-0.17,0.58-0.266,0.878s-0.211,0.591-0.346,0.879s-0.31,0.545-0.526,0.771
		c-0.216,0.225-0.485,0.405-0.81,0.544c-0.323,0.136-0.723,0.203-1.199,0.203c-0.378,0-0.748-0.074-1.108-0.226
		c-0.359-0.151-0.679-0.372-0.957-0.66c-0.279-0.287-0.502-0.642-0.669-1.063c-0.169-0.424-0.254-0.908-0.254-1.456
		c0-0.614,0.097-1.181,0.289-1.699c0.191-0.518,0.46-0.96,0.806-1.324L157.353,160.77z"/>
	<path d="M157.051,151.143v3.139h8.819v1.937h-8.819v3.14h-1.592v-8.215H157.051z"/>
</g>
<rect x="54.064" y="202.484" fill="none" width="25.666" height="21.334"/>
<text transform="matrix(1 0 0 1 63.417 211.4004)" fill="#FFFFFF" font-family="'Lato-Bold'" font-size="12">1</text>
<rect x="90.985" y="202.484" fill="none" width="25.666" height="21.334"/>
<text transform="matrix(1 0 0 1 100.3384 211.4004)" fill="#FFFFFF" font-family="'Lato-Bold'" font-size="12">2</text>
<rect x="127.944" y="202.484" fill="none" width="25.666" height="21.334"/>
<text transform="matrix(1 0 0 1 137.2969 211.4004)" fill="#FFFFFF" font-family="'Lato-Bold'" font-size="12">3</text>
<rect x="164.867" y="202.484" fill="none" width="25.666" height="21.334"/>
<text transform="matrix(1 0 0 1 174.2197 211.4004)" fill="#FFFFFF" font-family="'Lato-Bold'" font-size="12">4</text>
<line fill="none" stroke="#B87332" stroke-width="2.8347" stroke-miterlimit="10" x1="95.618" y1="215.949" x2="95.618" y2="243.21"/>
<line fill="none" stroke="#B87332" stroke-width="2.8347" stroke-miterlimit="10" x1="95.618" y1="229.862" x2="95.618" y2="245.735"/>
<line fill="none" stroke="#000000" stroke-width="4.252" stroke-miterlimit="10" x1="107.93" y1="256.558" x2="83.305" y2="256.558"/>
<line fill="none" stroke="#000000" stroke-width="2.8347" stroke-miterlimit="10" x1="95.618" y1="242.475" x2="95.618" y2="256.558"/>
<g>
	<path d="M38.784,115.225c-0.499-0.071-0.938-0.211-1.313-0.417c-0.377-0.207-0.691-0.465-0.943-0.775
		c-0.252-0.309-0.441-0.664-0.569-1.064c-0.127-0.401-0.191-0.832-0.191-1.293c0-0.479,0.069-0.913,0.207-1.3
		c0.136-0.386,0.325-0.716,0.568-0.99c0.242-0.272,0.527-0.482,0.853-0.629c0.327-0.146,0.68-0.221,1.059-0.221
		c0.331,0,0.623,0.038,0.875,0.112s0.472,0.181,0.659,0.32s0.346,0.312,0.475,0.518c0.13,0.208,0.237,0.439,0.324,0.699
		c0.197-0.624,0.497-1.089,0.9-1.397c0.402-0.307,0.909-0.46,1.519-0.46c0.519,0,0.978,0.096,1.376,0.288s0.732,0.451,1.004,0.778
		c0.271,0.325,0.476,0.704,0.615,1.133c0.14,0.43,0.209,0.885,0.209,1.365c0,0.522-0.061,0.979-0.18,1.367
		c-0.121,0.39-0.298,0.727-0.533,1.016c-0.235,0.288-0.522,0.533-0.863,0.734c-0.342,0.201-0.735,0.374-1.182,0.518l-0.323-0.783
		c-0.087-0.208-0.109-0.4-0.069-0.58c0.041-0.181,0.139-0.311,0.292-0.393c0.169-0.087,0.334-0.181,0.497-0.285
		c0.162-0.104,0.308-0.227,0.436-0.37c0.127-0.145,0.229-0.313,0.31-0.508c0.079-0.194,0.118-0.427,0.118-0.694
		c0-0.303-0.049-0.566-0.147-0.793c-0.099-0.225-0.227-0.413-0.385-0.564s-0.335-0.264-0.529-0.339
		c-0.194-0.073-0.391-0.111-0.587-0.111c-0.25,0-0.477,0.026-0.68,0.079c-0.204,0.054-0.379,0.164-0.523,0.331
		c-0.144,0.168-0.256,0.409-0.337,0.724c-0.082,0.314-0.123,0.735-0.123,1.264h-1.267c-0.005-0.437-0.046-0.799-0.123-1.087
		c-0.076-0.288-0.184-0.517-0.32-0.688c-0.137-0.17-0.301-0.288-0.493-0.355s-0.403-0.102-0.634-0.102
		c-0.489,0-0.861,0.138-1.116,0.41c-0.254,0.274-0.382,0.639-0.382,1.095c0,0.212,0.03,0.405,0.09,0.584
		c0.061,0.177,0.145,0.337,0.252,0.478c0.108,0.143,0.234,0.262,0.379,0.357c0.145,0.097,0.303,0.168,0.475,0.216
		c0.222,0.082,0.368,0.188,0.439,0.32c0.072,0.132,0.089,0.318,0.051,0.558L38.784,115.225z"/>
	<path d="M38.784,106.872c-0.499-0.071-0.938-0.211-1.313-0.417c-0.377-0.206-0.691-0.464-0.943-0.774
		c-0.252-0.31-0.441-0.664-0.569-1.065c-0.127-0.4-0.191-0.832-0.191-1.292c0-0.479,0.069-0.913,0.207-1.3
		c0.136-0.386,0.325-0.716,0.568-0.99c0.242-0.273,0.527-0.483,0.853-0.63c0.327-0.146,0.68-0.22,1.059-0.22
		c0.331,0,0.623,0.037,0.875,0.112c0.252,0.074,0.472,0.181,0.659,0.32c0.188,0.139,0.346,0.312,0.475,0.518
		c0.13,0.207,0.237,0.439,0.324,0.698c0.197-0.623,0.497-1.089,0.9-1.396c0.402-0.308,0.909-0.461,1.519-0.461
		c0.519,0,0.978,0.097,1.376,0.288c0.398,0.192,0.732,0.451,1.004,0.778c0.271,0.326,0.476,0.704,0.615,1.134
		s0.209,0.885,0.209,1.365c0,0.522-0.061,0.979-0.18,1.367c-0.121,0.389-0.298,0.727-0.533,1.015s-0.522,0.533-0.863,0.735
		c-0.342,0.201-0.735,0.373-1.182,0.518l-0.323-0.784c-0.087-0.207-0.109-0.399-0.069-0.58c0.041-0.181,0.139-0.311,0.292-0.393
		c0.169-0.087,0.334-0.181,0.497-0.284c0.162-0.104,0.308-0.227,0.436-0.371c0.127-0.144,0.229-0.313,0.31-0.507
		c0.079-0.194,0.118-0.427,0.118-0.695c0-0.302-0.049-0.565-0.147-0.792c-0.099-0.225-0.227-0.414-0.385-0.564
		c-0.158-0.151-0.335-0.264-0.529-0.339c-0.194-0.074-0.391-0.111-0.587-0.111c-0.25,0-0.477,0.025-0.68,0.078
		c-0.204,0.054-0.379,0.164-0.523,0.332c-0.144,0.167-0.256,0.409-0.337,0.723c-0.082,0.315-0.123,0.736-0.123,1.265h-1.267
		c-0.005-0.438-0.046-0.799-0.123-1.088c-0.076-0.288-0.184-0.517-0.32-0.688c-0.137-0.17-0.301-0.288-0.493-0.356
		c-0.192-0.066-0.403-0.101-0.634-0.101c-0.489,0-0.861,0.137-1.116,0.41c-0.254,0.274-0.382,0.639-0.382,1.095
		c0,0.212,0.03,0.405,0.09,0.583c0.061,0.178,0.145,0.338,0.252,0.479c0.108,0.142,0.234,0.262,0.379,0.357s0.303,0.168,0.475,0.216
		c0.222,0.082,0.368,0.188,0.439,0.319c0.072,0.133,0.089,0.319,0.051,0.559L38.784,106.872z"/>
	<path d="M41.089,91.307c0.906,0,1.695,0.097,2.364,0.292c0.671,0.194,1.224,0.463,1.659,0.806c0.438,0.344,0.764,0.749,0.977,1.217
		c0.213,0.469,0.32,0.974,0.32,1.517c0,0.541-0.107,1.044-0.32,1.508c-0.213,0.463-0.539,0.865-0.977,1.206
		c-0.436,0.341-0.988,0.606-1.659,0.799c-0.669,0.192-1.458,0.288-2.364,0.288c-0.912,0-1.702-0.096-2.369-0.288
		c-0.668-0.192-1.22-0.458-1.656-0.799s-0.762-0.743-0.976-1.206c-0.213-0.464-0.321-0.967-0.321-1.508
		c0-0.543,0.108-1.048,0.321-1.517c0.214-0.468,0.539-0.873,0.976-1.217c0.437-0.343,0.988-0.611,1.656-0.806
		C39.387,91.403,40.177,91.307,41.089,91.307z M41.089,93.143c-0.754,0-1.379,0.056-1.873,0.165c-0.493,0.11-0.887,0.258-1.18,0.443
		s-0.498,0.397-0.615,0.638c-0.119,0.239-0.178,0.488-0.178,0.749c0,0.254,0.059,0.5,0.178,0.736
		c0.117,0.238,0.322,0.448,0.615,0.631s0.687,0.327,1.18,0.436c0.494,0.108,1.119,0.162,1.873,0.162
		c0.753,0,1.378-0.054,1.871-0.162c0.494-0.108,0.889-0.253,1.182-0.436s0.498-0.393,0.615-0.631
		c0.118-0.236,0.177-0.482,0.177-0.736c0-0.261-0.059-0.51-0.177-0.749c-0.117-0.24-0.322-0.452-0.615-0.638
		s-0.688-0.333-1.182-0.443C42.467,93.198,41.842,93.143,41.089,93.143z"/>
	<path d="M44.702,79.815h0.987c0.177,0,0.322,0.057,0.436,0.173c0.112,0.115,0.169,0.273,0.169,0.475v3.824h-2.189
		c-0.057-0.332-0.188-0.643-0.393-0.933c-0.203-0.291-0.461-0.545-0.773-0.764c-0.312-0.219-0.669-0.39-1.073-0.516
		c-0.403-0.124-0.832-0.186-1.288-0.186c-0.533,0-0.997,0.084-1.393,0.255c-0.396,0.17-0.725,0.401-0.983,0.691
		s-0.454,0.628-0.584,1.015c-0.129,0.387-0.193,0.796-0.193,1.228c0,0.433,0.064,0.841,0.193,1.228
		c0.13,0.387,0.325,0.724,0.584,1.012s0.587,0.518,0.983,0.688c0.396,0.17,0.859,0.256,1.393,0.256c0.456,0,0.885-0.063,1.288-0.188
		c0.404-0.124,0.762-0.297,1.073-0.515c0.313-0.218,0.57-0.472,0.773-0.763c0.205-0.291,0.336-0.602,0.393-0.933h2.189v3.823
		c0,0.202-0.057,0.36-0.169,0.475c-0.113,0.115-0.259,0.174-0.436,0.174h-0.987v-1.657c0-0.225,0.011-0.456,0.033-0.69
		c0.021-0.235,0.049-0.469,0.082-0.698c-0.153,0.427-0.367,0.818-0.64,1.173c-0.274,0.355-0.596,0.66-0.966,0.914
		c-0.369,0.256-0.778,0.453-1.227,0.595c-0.449,0.142-0.926,0.212-1.43,0.212c-0.691,0-1.328-0.13-1.912-0.392
		c-0.583-0.263-1.088-0.623-1.515-1.084c-0.428-0.46-0.761-1.002-1.001-1.624c-0.24-0.621-0.361-1.291-0.361-2.012
		c0-0.72,0.121-1.392,0.361-2.013s0.573-1.161,1.001-1.619c0.427-0.46,0.932-0.82,1.515-1.084c0.584-0.264,1.221-0.396,1.912-0.396
		c0.504,0,0.98,0.07,1.43,0.212c0.448,0.143,0.856,0.34,1.223,0.595c0.368,0.254,0.689,0.559,0.966,0.914
		c0.275,0.356,0.49,0.746,0.644,1.174c-0.033-0.23-0.061-0.462-0.082-0.694c-0.022-0.233-0.033-0.462-0.033-0.688V79.815z"/>
</g>
<g>
	<path d="M111.349,115.528c-0.5-0.071-0.938-0.211-1.314-0.417c-0.377-0.207-0.691-0.465-0.943-0.775
		c-0.252-0.309-0.441-0.664-0.569-1.064c-0.126-0.401-0.19-0.832-0.19-1.293c0-0.479,0.068-0.913,0.206-1.3
		c0.136-0.386,0.325-0.716,0.568-0.99c0.242-0.272,0.527-0.482,0.853-0.629c0.327-0.146,0.68-0.221,1.059-0.221
		c0.332,0,0.623,0.038,0.875,0.112s0.472,0.181,0.659,0.32s0.346,0.312,0.475,0.518c0.13,0.208,0.237,0.439,0.324,0.699
		c0.197-0.624,0.497-1.089,0.9-1.397c0.403-0.307,0.909-0.46,1.519-0.46c0.52,0,0.978,0.096,1.376,0.288s0.732,0.451,1.004,0.778
		c0.271,0.325,0.476,0.704,0.615,1.133c0.14,0.43,0.209,0.885,0.209,1.365c0,0.522-0.06,0.979-0.18,1.367
		c-0.12,0.39-0.298,0.727-0.533,1.016c-0.235,0.288-0.522,0.533-0.863,0.734s-0.735,0.374-1.182,0.518l-0.323-0.783
		c-0.087-0.208-0.109-0.4-0.069-0.58c0.041-0.181,0.139-0.311,0.292-0.393c0.169-0.087,0.334-0.181,0.497-0.285
		c0.163-0.104,0.308-0.227,0.436-0.37c0.127-0.145,0.229-0.313,0.31-0.508s0.118-0.427,0.118-0.694c0-0.303-0.049-0.566-0.147-0.793
		c-0.099-0.225-0.227-0.413-0.385-0.564s-0.335-0.264-0.529-0.339c-0.194-0.073-0.391-0.111-0.587-0.111
		c-0.25,0-0.476,0.026-0.68,0.079c-0.204,0.054-0.379,0.164-0.522,0.331c-0.145,0.168-0.257,0.409-0.338,0.724
		c-0.082,0.314-0.123,0.735-0.123,1.264h-1.267c-0.005-0.437-0.046-0.799-0.123-1.087c-0.076-0.288-0.183-0.517-0.32-0.688
		c-0.137-0.17-0.301-0.288-0.493-0.355s-0.403-0.102-0.634-0.102c-0.489,0-0.861,0.138-1.116,0.41
		c-0.254,0.274-0.382,0.639-0.382,1.095c0,0.212,0.03,0.405,0.091,0.584c0.06,0.177,0.144,0.337,0.252,0.478
		c0.107,0.143,0.234,0.262,0.378,0.357c0.145,0.097,0.303,0.168,0.475,0.216c0.222,0.082,0.368,0.188,0.439,0.32
		c0.073,0.132,0.089,0.318,0.051,0.558L111.349,115.528z"/>
	<path d="M111.349,107.176c-0.5-0.071-0.938-0.211-1.314-0.417s-0.691-0.464-0.943-0.774c-0.252-0.31-0.441-0.664-0.569-1.065
		c-0.126-0.4-0.19-0.832-0.19-1.292c0-0.479,0.068-0.913,0.206-1.3c0.136-0.386,0.325-0.716,0.568-0.99
		c0.242-0.273,0.527-0.483,0.853-0.63c0.327-0.146,0.68-0.22,1.059-0.22c0.332,0,0.623,0.037,0.875,0.112
		c0.252,0.074,0.472,0.181,0.659,0.32c0.188,0.139,0.346,0.312,0.475,0.518c0.13,0.207,0.237,0.439,0.324,0.698
		c0.197-0.623,0.497-1.089,0.9-1.396s0.909-0.461,1.519-0.461c0.52,0,0.978,0.097,1.376,0.288c0.398,0.192,0.732,0.451,1.004,0.778
		c0.271,0.326,0.476,0.704,0.615,1.134s0.209,0.885,0.209,1.365c0,0.522-0.06,0.979-0.18,1.367s-0.298,0.727-0.533,1.015
		s-0.522,0.533-0.863,0.735c-0.341,0.201-0.735,0.373-1.182,0.518l-0.323-0.784c-0.087-0.207-0.109-0.399-0.069-0.58
		c0.041-0.181,0.139-0.311,0.292-0.393c0.169-0.087,0.334-0.181,0.497-0.284s0.308-0.227,0.436-0.371
		c0.127-0.144,0.229-0.313,0.31-0.507s0.118-0.427,0.118-0.695c0-0.302-0.049-0.565-0.147-0.792
		c-0.099-0.225-0.227-0.414-0.385-0.564c-0.158-0.151-0.335-0.264-0.529-0.339c-0.194-0.074-0.391-0.111-0.587-0.111
		c-0.25,0-0.476,0.025-0.68,0.078c-0.204,0.054-0.379,0.164-0.522,0.332c-0.145,0.167-0.257,0.409-0.338,0.723
		c-0.082,0.315-0.123,0.736-0.123,1.265h-1.267c-0.005-0.438-0.046-0.799-0.123-1.088c-0.076-0.288-0.183-0.517-0.32-0.688
		c-0.137-0.17-0.301-0.288-0.493-0.356c-0.192-0.066-0.403-0.101-0.634-0.101c-0.489,0-0.861,0.137-1.116,0.41
		c-0.254,0.274-0.382,0.639-0.382,1.095c0,0.212,0.03,0.405,0.091,0.583c0.06,0.178,0.144,0.338,0.252,0.479
		c0.107,0.142,0.234,0.262,0.378,0.357c0.145,0.096,0.303,0.168,0.475,0.216c0.222,0.082,0.368,0.188,0.439,0.319
		c0.073,0.133,0.089,0.319,0.051,0.559L111.349,107.176z"/>
	<path d="M113.652,91.61c0.907,0,1.695,0.097,2.364,0.292c0.671,0.194,1.224,0.463,1.66,0.806c0.437,0.344,0.763,0.749,0.976,1.217
		c0.214,0.469,0.32,0.974,0.32,1.517c0,0.541-0.106,1.044-0.32,1.508c-0.213,0.463-0.539,0.865-0.976,1.206s-0.989,0.606-1.66,0.799
		c-0.669,0.192-1.457,0.288-2.364,0.288c-0.912,0-1.702-0.096-2.368-0.288c-0.668-0.192-1.221-0.458-1.657-0.799
		s-0.762-0.743-0.976-1.206c-0.213-0.464-0.32-0.967-0.32-1.508c0-0.543,0.107-1.048,0.32-1.517
		c0.214-0.468,0.539-0.873,0.976-1.217c0.437-0.343,0.989-0.611,1.657-0.806C111.95,91.707,112.74,91.61,113.652,91.61z
		 M113.652,93.446c-0.754,0-1.378,0.056-1.873,0.165c-0.493,0.11-0.887,0.258-1.18,0.443s-0.498,0.397-0.615,0.638
		c-0.118,0.239-0.177,0.488-0.177,0.749c0,0.254,0.059,0.5,0.177,0.736c0.117,0.238,0.322,0.448,0.615,0.631s0.687,0.327,1.18,0.436
		c0.495,0.108,1.119,0.162,1.873,0.162c0.753,0,1.378-0.054,1.871-0.162c0.495-0.108,0.889-0.253,1.182-0.436
		s0.498-0.393,0.615-0.631c0.118-0.236,0.177-0.482,0.177-0.736c0-0.261-0.059-0.51-0.177-0.749
		c-0.117-0.24-0.322-0.452-0.615-0.638s-0.687-0.333-1.182-0.443C115.03,93.502,114.405,93.446,113.652,93.446z"/>
	<path d="M117.267,80.119h0.986c0.177,0,0.322,0.057,0.436,0.173c0.113,0.115,0.169,0.273,0.169,0.475v3.824h-2.188
		c-0.058-0.332-0.188-0.643-0.393-0.933c-0.204-0.291-0.462-0.545-0.773-0.764c-0.313-0.219-0.67-0.39-1.074-0.516
		c-0.402-0.124-0.832-0.186-1.287-0.186c-0.533,0-0.998,0.084-1.394,0.255c-0.396,0.17-0.725,0.401-0.983,0.691
		s-0.453,0.628-0.584,1.015c-0.129,0.387-0.193,0.796-0.193,1.228c0,0.433,0.064,0.841,0.193,1.228
		c0.131,0.387,0.325,0.724,0.584,1.012s0.587,0.518,0.983,0.688c0.396,0.17,0.86,0.256,1.394,0.256c0.455,0,0.885-0.063,1.287-0.188
		c0.404-0.124,0.762-0.297,1.074-0.515c0.312-0.218,0.569-0.472,0.773-0.763c0.205-0.291,0.335-0.602,0.393-0.933h2.188v3.823
		c0,0.202-0.056,0.36-0.169,0.475c-0.113,0.115-0.259,0.174-0.436,0.174h-0.986v-1.657c0-0.225,0.01-0.456,0.032-0.69
		c0.021-0.235,0.05-0.469,0.082-0.698c-0.153,0.427-0.366,0.818-0.64,1.173c-0.274,0.355-0.596,0.66-0.966,0.914
		c-0.369,0.256-0.778,0.453-1.227,0.595c-0.449,0.142-0.926,0.212-1.43,0.212c-0.691,0-1.328-0.13-1.911-0.392
		c-0.584-0.263-1.089-0.623-1.516-1.084c-0.428-0.46-0.761-1.002-1.001-1.624c-0.24-0.621-0.36-1.291-0.36-2.012
		c0-0.72,0.12-1.392,0.36-2.013s0.573-1.161,1.001-1.619c0.427-0.46,0.932-0.82,1.516-1.084c0.583-0.264,1.22-0.396,1.911-0.396
		c0.504,0,0.98,0.07,1.43,0.212c0.448,0.143,0.856,0.34,1.224,0.595c0.367,0.254,0.688,0.559,0.965,0.914
		c0.275,0.356,0.49,0.746,0.644,1.174c-0.032-0.23-0.061-0.462-0.082-0.694c-0.022-0.233-0.032-0.462-0.032-0.688V80.119z"/>
</g>
<g>
	<path d="M149.784,114.796c-0.499-0.071-0.938-0.211-1.313-0.417c-0.378-0.207-0.691-0.465-0.943-0.775
		c-0.252-0.309-0.442-0.664-0.569-1.064c-0.127-0.401-0.191-0.832-0.191-1.293c0-0.479,0.069-0.913,0.206-1.3
		c0.136-0.386,0.326-0.716,0.568-0.99c0.243-0.272,0.527-0.482,0.854-0.629c0.327-0.146,0.68-0.221,1.058-0.221
		c0.332,0,0.624,0.038,0.876,0.112s0.471,0.181,0.658,0.32s0.346,0.312,0.475,0.518c0.13,0.208,0.238,0.439,0.325,0.699
		c0.196-0.624,0.496-1.089,0.899-1.397c0.403-0.307,0.909-0.46,1.519-0.46c0.52,0,0.978,0.096,1.376,0.288s0.732,0.451,1.005,0.778
		c0.271,0.325,0.476,0.704,0.615,1.133c0.139,0.43,0.208,0.885,0.208,1.365c0,0.522-0.06,0.979-0.179,1.367
		c-0.121,0.39-0.298,0.727-0.533,1.016c-0.236,0.288-0.523,0.533-0.864,0.734s-0.734,0.374-1.181,0.518l-0.324-0.783
		c-0.086-0.208-0.108-0.4-0.068-0.58c0.041-0.181,0.138-0.311,0.291-0.393c0.169-0.087,0.334-0.181,0.497-0.285
		c0.163-0.104,0.309-0.227,0.437-0.37c0.126-0.145,0.229-0.313,0.309-0.508c0.08-0.194,0.119-0.427,0.119-0.694
		c0-0.303-0.05-0.566-0.148-0.793c-0.098-0.225-0.226-0.413-0.384-0.564s-0.335-0.264-0.53-0.339
		c-0.194-0.073-0.39-0.111-0.587-0.111c-0.249,0-0.476,0.026-0.68,0.079c-0.204,0.054-0.378,0.164-0.522,0.331
		c-0.145,0.168-0.257,0.409-0.338,0.724c-0.082,0.314-0.123,0.735-0.123,1.264h-1.267c-0.005-0.437-0.046-0.799-0.123-1.087
		c-0.076-0.288-0.183-0.517-0.319-0.688c-0.138-0.17-0.302-0.288-0.494-0.355c-0.191-0.067-0.402-0.102-0.634-0.102
		c-0.488,0-0.861,0.138-1.115,0.41c-0.255,0.274-0.382,0.639-0.382,1.095c0,0.212,0.03,0.405,0.09,0.584
		c0.06,0.177,0.145,0.337,0.252,0.478c0.107,0.143,0.234,0.262,0.379,0.357c0.144,0.097,0.302,0.168,0.475,0.216
		c0.221,0.082,0.367,0.188,0.439,0.32s0.089,0.318,0.05,0.558L149.784,114.796z"/>
	<path d="M149.784,106.443c-0.499-0.071-0.938-0.211-1.313-0.417c-0.378-0.206-0.691-0.464-0.943-0.774
		c-0.252-0.31-0.442-0.664-0.569-1.065c-0.127-0.4-0.191-0.832-0.191-1.292c0-0.479,0.069-0.913,0.206-1.3
		c0.136-0.386,0.326-0.716,0.568-0.99c0.243-0.273,0.527-0.483,0.854-0.63c0.327-0.146,0.68-0.22,1.058-0.22
		c0.332,0,0.624,0.037,0.876,0.112c0.252,0.074,0.471,0.181,0.658,0.32c0.188,0.139,0.346,0.312,0.475,0.518
		c0.13,0.207,0.238,0.439,0.325,0.698c0.196-0.623,0.496-1.089,0.899-1.396s0.909-0.461,1.519-0.461c0.52,0,0.978,0.097,1.376,0.288
		c0.398,0.192,0.732,0.451,1.005,0.778c0.271,0.326,0.476,0.704,0.615,1.134c0.139,0.43,0.208,0.885,0.208,1.365
		c0,0.522-0.06,0.979-0.179,1.367c-0.121,0.389-0.298,0.727-0.533,1.015c-0.236,0.288-0.523,0.533-0.864,0.735
		c-0.341,0.201-0.734,0.373-1.181,0.518l-0.324-0.784c-0.086-0.207-0.108-0.399-0.068-0.58c0.041-0.181,0.138-0.311,0.291-0.393
		c0.169-0.087,0.334-0.181,0.497-0.284s0.309-0.227,0.437-0.371c0.126-0.144,0.229-0.313,0.309-0.507
		c0.08-0.194,0.119-0.427,0.119-0.695c0-0.302-0.05-0.565-0.148-0.792c-0.098-0.225-0.226-0.414-0.384-0.564
		c-0.158-0.151-0.335-0.264-0.53-0.339c-0.194-0.074-0.39-0.111-0.587-0.111c-0.249,0-0.476,0.025-0.68,0.078
		c-0.204,0.054-0.378,0.164-0.522,0.332c-0.145,0.167-0.257,0.409-0.338,0.723c-0.082,0.315-0.123,0.736-0.123,1.265h-1.267
		c-0.005-0.438-0.046-0.799-0.123-1.088c-0.076-0.288-0.183-0.517-0.319-0.688c-0.138-0.17-0.302-0.288-0.494-0.356
		c-0.191-0.066-0.402-0.101-0.634-0.101c-0.488,0-0.861,0.137-1.115,0.41c-0.255,0.274-0.382,0.639-0.382,1.095
		c0,0.212,0.03,0.405,0.09,0.583s0.145,0.338,0.252,0.479c0.107,0.142,0.234,0.262,0.379,0.357c0.144,0.096,0.302,0.168,0.475,0.216
		c0.221,0.082,0.367,0.188,0.439,0.319c0.072,0.133,0.089,0.319,0.05,0.559L149.784,106.443z"/>
	<path d="M152.088,90.878c0.907,0,1.696,0.097,2.365,0.292c0.67,0.194,1.224,0.463,1.659,0.806c0.438,0.344,0.763,0.749,0.977,1.217
		c0.213,0.469,0.319,0.974,0.319,1.517c0,0.541-0.106,1.044-0.319,1.508c-0.214,0.463-0.539,0.865-0.977,1.206
		c-0.436,0.341-0.989,0.606-1.659,0.799c-0.669,0.192-1.458,0.288-2.365,0.288c-0.911,0-1.701-0.096-2.368-0.288
		c-0.668-0.192-1.22-0.458-1.657-0.799c-0.436-0.341-0.762-0.743-0.975-1.206c-0.214-0.464-0.321-0.967-0.321-1.508
		c0-0.543,0.107-1.048,0.321-1.517c0.213-0.468,0.539-0.873,0.975-1.217c0.438-0.343,0.989-0.611,1.657-0.806
		C150.387,90.975,151.177,90.878,152.088,90.878z M152.088,92.714c-0.753,0-1.378,0.056-1.872,0.165
		c-0.494,0.11-0.888,0.258-1.181,0.443s-0.498,0.397-0.615,0.638c-0.118,0.239-0.177,0.488-0.177,0.749
		c0,0.254,0.059,0.5,0.177,0.736c0.117,0.238,0.322,0.448,0.615,0.631s0.687,0.327,1.181,0.436s1.119,0.162,1.872,0.162
		c0.754,0,1.378-0.054,1.872-0.162s0.888-0.253,1.181-0.436s0.498-0.393,0.615-0.631c0.118-0.236,0.177-0.482,0.177-0.736
		c0-0.261-0.059-0.51-0.177-0.749c-0.117-0.24-0.322-0.452-0.615-0.638s-0.687-0.333-1.181-0.443
		C153.466,92.77,152.842,92.714,152.088,92.714z"/>
	<path d="M155.702,79.387h0.986c0.178,0,0.322,0.057,0.437,0.173c0.112,0.115,0.169,0.273,0.169,0.475v3.824h-2.189
		c-0.058-0.332-0.188-0.643-0.393-0.933c-0.204-0.291-0.462-0.545-0.773-0.764s-0.669-0.39-1.073-0.516
		c-0.403-0.124-0.832-0.186-1.288-0.186c-0.533,0-0.997,0.084-1.394,0.255c-0.396,0.17-0.724,0.401-0.983,0.691
		c-0.259,0.29-0.453,0.628-0.583,1.015c-0.129,0.387-0.193,0.796-0.193,1.228c0,0.433,0.064,0.841,0.193,1.228
		c0.13,0.387,0.324,0.724,0.583,1.012c0.26,0.288,0.588,0.518,0.983,0.688c0.396,0.17,0.86,0.256,1.394,0.256
		c0.456,0,0.885-0.063,1.288-0.188c0.404-0.124,0.762-0.297,1.073-0.515s0.569-0.472,0.773-0.763
		c0.205-0.291,0.335-0.602,0.393-0.933h2.189v3.823c0,0.202-0.057,0.36-0.169,0.475c-0.114,0.115-0.259,0.174-0.437,0.174h-0.986
		v-1.657c0-0.225,0.011-0.456,0.033-0.69c0.021-0.235,0.049-0.469,0.082-0.698c-0.154,0.427-0.367,0.818-0.641,1.173
		c-0.273,0.355-0.595,0.66-0.965,0.914c-0.369,0.256-0.778,0.453-1.228,0.595c-0.448,0.142-0.926,0.212-1.43,0.212
		c-0.691,0-1.327-0.13-1.911-0.392c-0.584-0.263-1.089-0.623-1.516-1.084c-0.428-0.46-0.76-1.002-1-1.624
		c-0.24-0.621-0.361-1.291-0.361-2.012c0-0.72,0.121-1.392,0.361-2.013s0.572-1.161,1-1.619c0.427-0.46,0.932-0.82,1.516-1.084
		s1.22-0.396,1.911-0.396c0.504,0,0.981,0.07,1.43,0.212c0.449,0.143,0.856,0.34,1.224,0.595c0.368,0.254,0.689,0.559,0.966,0.914
		c0.275,0.356,0.489,0.746,0.644,1.174c-0.033-0.23-0.062-0.462-0.082-0.694c-0.022-0.233-0.033-0.462-0.033-0.688V79.387z"/>
</g>
<g id="symbol_x5F_4">
</g>
<g>
	<path d="M120.431,169.244c0.102,0.057,0.174,0.117,0.219,0.184c0.047,0.064,0.068,0.145,0.068,0.24
		c0,0.102-0.035,0.211-0.111,0.328c-0.074,0.117-0.156,0.258-0.248,0.42c-0.092,0.164-0.174,0.355-0.248,0.574
		c-0.074,0.217-0.111,0.475-0.111,0.773c0,0.27,0.033,0.504,0.098,0.705s0.154,0.371,0.27,0.508s0.252,0.238,0.414,0.307
		c0.16,0.066,0.336,0.102,0.529,0.102c0.244,0,0.447-0.07,0.611-0.205c0.164-0.139,0.303-0.32,0.418-0.545
		c0.115-0.227,0.219-0.482,0.309-0.771c0.092-0.287,0.189-0.582,0.293-0.885c0.104-0.301,0.223-0.598,0.359-0.885
		c0.137-0.289,0.309-0.545,0.518-0.77c0.211-0.227,0.465-0.408,0.768-0.545s0.67-0.205,1.102-0.205c0.471,0,0.91,0.08,1.32,0.24
		c0.41,0.162,0.77,0.396,1.074,0.705c0.305,0.311,0.545,0.689,0.719,1.135c0.176,0.447,0.264,0.957,0.264,1.535
		c0,0.33-0.031,0.656-0.098,0.979c-0.064,0.322-0.156,0.629-0.277,0.926c-0.119,0.295-0.264,0.57-0.432,0.832
		c-0.168,0.258-0.355,0.488-0.561,0.689l-0.93-0.568c-0.066-0.049-0.123-0.109-0.17-0.188c-0.045-0.076-0.066-0.158-0.066-0.244
		c0-0.121,0.049-0.25,0.146-0.389c0.1-0.139,0.207-0.305,0.328-0.496c0.119-0.193,0.229-0.418,0.328-0.674
		c0.098-0.258,0.146-0.566,0.146-0.926c0-0.551-0.131-0.979-0.393-1.281s-0.637-0.453-1.127-0.453c-0.273,0-0.496,0.066-0.67,0.205
		c-0.172,0.137-0.316,0.316-0.436,0.543c-0.117,0.227-0.217,0.482-0.299,0.77c-0.08,0.289-0.17,0.582-0.266,0.879
		c-0.096,0.299-0.211,0.592-0.346,0.879s-0.309,0.545-0.525,0.77c-0.217,0.227-0.486,0.408-0.811,0.545s-0.723,0.205-1.199,0.205
		c-0.379,0-0.748-0.076-1.107-0.229c-0.361-0.15-0.68-0.369-0.959-0.658c-0.277-0.287-0.5-0.643-0.668-1.064
		c-0.17-0.424-0.254-0.908-0.254-1.455c0-0.613,0.096-1.182,0.289-1.699c0.191-0.52,0.461-0.959,0.807-1.324L120.431,169.244z"/>
	<path d="M118.538,153.102l10.41,3.232v1.748l-7.113,2.277c-0.174,0.061-0.385,0.119-0.635,0.172
		c0.121,0.029,0.234,0.059,0.34,0.086c0.105,0.029,0.203,0.061,0.295,0.094l7.113,2.297v1.758l-10.41,3.225v-1.619
		c0-0.168,0.039-0.309,0.117-0.422c0.08-0.111,0.188-0.188,0.322-0.227l6.227-1.771c0.154-0.039,0.32-0.076,0.5-0.111
		c0.182-0.035,0.369-0.074,0.564-0.111c-0.201-0.039-0.389-0.08-0.568-0.127c-0.176-0.045-0.342-0.094-0.496-0.146l-6.227-2.045
		c-0.111-0.039-0.213-0.113-0.303-0.229c-0.092-0.111-0.137-0.25-0.137-0.412v-0.568c0-0.17,0.041-0.305,0.121-0.41
		c0.082-0.107,0.188-0.186,0.318-0.238l6.227-2.039c0.297-0.1,0.641-0.191,1.029-0.271c-0.379-0.064-0.723-0.133-1.029-0.211
		l-6.227-1.77c-0.121-0.029-0.225-0.104-0.311-0.221s-0.129-0.258-0.129-0.422V153.102z"/>
	<path d="M123.743,142.574c0.762,0,1.463,0.127,2.102,0.383c0.639,0.254,1.189,0.611,1.648,1.072
		c0.461,0.459,0.818,1.014,1.072,1.662c0.256,0.648,0.383,1.369,0.383,2.16v3.967h-10.41v-3.967c0-0.791,0.127-1.512,0.383-2.16
		c0.258-0.648,0.615-1.203,1.074-1.662c0.459-0.461,1.006-0.818,1.645-1.072C122.278,142.701,122.979,142.574,123.743,142.574z
		 M123.743,144.563c-0.572,0-1.084,0.074-1.537,0.225c-0.455,0.152-0.838,0.371-1.152,0.656s-0.557,0.631-0.723,1.037
		c-0.17,0.404-0.252,0.861-0.252,1.371v2.023h7.328v-2.023c0-0.51-0.084-0.967-0.252-1.371c-0.168-0.406-0.408-0.752-0.723-1.037
		c-0.316-0.285-0.699-0.504-1.152-0.656C124.827,144.637,124.313,144.563,123.743,144.563z"/>
	<path d="M128.948,138.924v1.943h-10.41v-1.943H128.948z"/>
	<path d="M123.743,126.67c0.762,0,1.469,0.127,2.119,0.379s1.215,0.607,1.689,1.068s0.846,1.014,1.111,1.662
		c0.268,0.648,0.4,1.369,0.4,2.162c0,0.785-0.133,1.504-0.4,2.152c-0.266,0.648-0.637,1.203-1.111,1.666s-1.039,0.822-1.689,1.076
		c-0.65,0.256-1.357,0.381-2.119,0.381c-0.764,0-1.471-0.125-2.121-0.381c-0.65-0.254-1.213-0.613-1.688-1.076
		c-0.477-0.463-0.846-1.018-1.113-1.666c-0.266-0.648-0.4-1.367-0.4-2.152c0-0.529,0.063-1.025,0.184-1.492
		c0.123-0.465,0.297-0.893,0.52-1.281s0.494-0.738,0.814-1.047c0.318-0.311,0.674-0.572,1.068-0.789
		c0.393-0.217,0.82-0.381,1.281-0.492C122.749,126.727,123.233,126.67,123.743,126.67z M123.743,128.65
		c-0.572,0-1.084,0.076-1.537,0.229c-0.455,0.156-0.84,0.373-1.156,0.656s-0.559,0.627-0.729,1.033
		c-0.166,0.406-0.252,0.863-0.252,1.373c0,0.508,0.086,0.965,0.252,1.371c0.17,0.404,0.412,0.75,0.729,1.037
		c0.316,0.285,0.701,0.504,1.156,0.658c0.453,0.152,0.965,0.23,1.537,0.23c0.57,0,1.084-0.078,1.537-0.23
		c0.453-0.154,0.836-0.373,1.152-0.658c0.314-0.287,0.555-0.633,0.723-1.037c0.168-0.406,0.252-0.863,0.252-1.371
		c0-0.51-0.084-0.967-0.252-1.373s-0.408-0.75-0.723-1.033c-0.316-0.283-0.699-0.5-1.152-0.656
		C124.827,128.727,124.313,128.65,123.743,128.65z"/>
</g>
</svg>
