<?xml version="1.0" encoding="utf-8"?>
<!-- Generator: Adobe Illustrator 16.0.0, SVG Export Plug-In . SVG Version: 6.00 Build 0)  -->
<!DOCTYPE svg PUBLIC "-//W3C//DTD SVG 1.1//EN" "http://www.w3.org/Graphics/SVG/1.1/DTD/svg11.dtd">
<svg version="1.1" id="Layer_1" xmlns="http://www.w3.org/2000/svg" xmlns:xlink="http://www.w3.org/1999/xlink" x="0px" y="0px"
	 width="518px" height="221.783px" viewBox="0 0 518 221.783" enable-background="new 0 0 518 221.783" xml:space="preserve">
<g>
	<path d="M98.482,94.915c3.199,0,5.798-2.599,5.798-5.795V64.514c0-3.199-2.599-5.798-5.798-5.798H73.879
		c-3.201,0-5.789,2.599-5.789,5.798V89.12c0,3.196,2.588,5.795,5.789,5.795H98.482z"/>
	<path d="M98.482,131.65c3.199,0,5.798-2.596,5.798-5.795v-24.604c0-3.199-2.599-5.798-5.798-5.798H73.879
		c-3.201,0-5.789,2.599-5.789,5.798v24.604c0,3.199,2.588,5.795,5.789,5.795H98.482z"/>
	<path d="M98.482,168.392c3.199,0,5.798-2.599,5.798-5.798V137.99c0-3.202-2.599-5.798-5.798-5.798H73.879
		c-3.201,0-5.789,2.596-5.789,5.798v24.604c0,3.199,2.588,5.798,5.789,5.798H98.482z"/>
	<rect x="81.553" y="72.181" fill="#C3996C" width="9.263" height="9.264"/>
	<rect x="81.553" y="109.215" fill="#C3996C" width="9.263" height="9.264"/>
	<rect x="81.553" y="145.804" fill="#C3996C" width="9.263" height="9.264"/>
</g>
<polyline fill="none" stroke="#B87332" stroke-width="2.8347" stroke-miterlimit="10" points="68.09,113.552 25.324,113.552 
	25.324,187.26 "/>
<g>
	<path d="M115.287,69.135c0.105,0,0.199,0.041,0.281,0.122l0.763,0.829c-0.422,0.522-0.942,0.923-1.559,1.202
		c-0.617,0.278-1.357,0.417-2.221,0.417c-0.773,0-1.468-0.131-2.085-0.396c-0.616-0.264-1.144-0.63-1.58-1.102
		c-0.437-0.47-0.772-1.031-1.005-1.684s-0.349-1.366-0.349-2.139c0-0.783,0.124-1.499,0.374-2.149s0.602-1.21,1.055-1.682
		c0.453-0.47,0.995-0.835,1.624-1.098c0.628-0.262,1.324-0.393,2.088-0.393c0.758,0,1.432,0.125,2.02,0.375
		c0.588,0.249,1.088,0.575,1.501,0.979l-0.647,0.9c-0.039,0.057-0.088,0.107-0.147,0.15c-0.061,0.043-0.144,0.064-0.249,0.064
		c-0.072,0-0.146-0.021-0.223-0.061c-0.077-0.041-0.161-0.092-0.252-0.151c-0.092-0.061-0.197-0.126-0.317-0.198
		s-0.259-0.138-0.418-0.197c-0.158-0.061-0.342-0.11-0.551-0.151c-0.208-0.041-0.45-0.063-0.723-0.063
		c-0.466,0-0.892,0.083-1.278,0.249s-0.719,0.406-0.997,0.721c-0.279,0.313-0.494,0.698-0.648,1.151
		c-0.153,0.454-0.23,0.971-0.23,1.552c0,0.586,0.083,1.106,0.248,1.563c0.166,0.455,0.391,0.84,0.674,1.151s0.617,0.551,1.001,0.718
		c0.384,0.165,0.797,0.247,1.238,0.247c0.264,0,0.503-0.015,0.716-0.042c0.214-0.029,0.411-0.075,0.591-0.138
		c0.18-0.062,0.351-0.143,0.512-0.241c0.16-0.099,0.319-0.219,0.479-0.363c0.048-0.043,0.098-0.078,0.151-0.104
		C115.175,69.148,115.229,69.135,115.287,69.135z"/>
	<path d="M126.584,71.59h-1.498c-0.168,0-0.305-0.042-0.41-0.126c-0.105-0.083-0.185-0.188-0.237-0.313l-0.777-2.123h-4.313
		l-0.778,2.123c-0.038,0.11-0.112,0.213-0.223,0.303c-0.111,0.092-0.247,0.137-0.411,0.137h-1.512l4.097-10.41h1.974L126.584,71.59z
		 M123.164,67.658l-1.267-3.463c-0.063-0.153-0.128-0.336-0.195-0.547s-0.135-0.439-0.201-0.685
		c-0.063,0.245-0.127,0.475-0.194,0.688s-0.132,0.399-0.194,0.558l-1.26,3.448H123.164z"/>
	<path d="M136.44,61.18v10.41h-0.993c-0.154,0-0.282-0.025-0.386-0.076c-0.103-0.05-0.202-0.135-0.299-0.255l-5.436-6.94
		c0.029,0.316,0.044,0.609,0.044,0.878v6.394h-1.707V61.18h1.016c0.081,0,0.152,0.003,0.212,0.01
		c0.061,0.008,0.113,0.021,0.158,0.044c0.046,0.021,0.09,0.053,0.134,0.094c0.043,0.041,0.091,0.095,0.144,0.161l5.458,6.97
		c-0.015-0.168-0.026-0.333-0.036-0.497c-0.01-0.163-0.015-0.314-0.015-0.453V61.18H136.44z"/>
	<path d="M151.035,61.18v10.41h-1.943v-4.55h-4.89v4.55h-1.943V61.18h1.943v4.478h4.89V61.18H151.035z"/>
</g>
<g>
	<path d="M115.005,142.482c0.105,0,0.199,0.041,0.281,0.122l0.765,0.829c-0.423,0.522-0.942,0.923-1.559,1.202
		c-0.618,0.278-1.358,0.417-2.222,0.417c-0.773,0-1.468-0.131-2.084-0.396c-0.617-0.264-1.144-0.63-1.582-1.102
		c-0.436-0.47-0.771-1.031-1.003-1.684c-0.233-0.652-0.35-1.366-0.35-2.139c0-0.783,0.124-1.499,0.374-2.149s0.602-1.21,1.055-1.682
		c0.453-0.47,0.995-0.835,1.623-1.098c0.629-0.262,1.325-0.393,2.088-0.393c0.76,0,1.433,0.125,2.021,0.375
		c0.589,0.249,1.088,0.575,1.501,0.979l-0.647,0.9c-0.039,0.057-0.088,0.107-0.147,0.15c-0.062,0.043-0.144,0.064-0.249,0.064
		c-0.072,0-0.146-0.021-0.223-0.061c-0.077-0.041-0.161-0.092-0.253-0.151c-0.092-0.061-0.197-0.126-0.316-0.198
		s-0.259-0.138-0.417-0.197c-0.159-0.061-0.343-0.11-0.551-0.151c-0.209-0.041-0.45-0.063-0.725-0.063
		c-0.465,0-0.891,0.083-1.277,0.249s-0.72,0.406-0.997,0.721c-0.279,0.313-0.494,0.698-0.648,1.151
		c-0.154,0.454-0.23,0.971-0.23,1.552c0,0.586,0.083,1.106,0.248,1.563c0.166,0.455,0.391,0.84,0.674,1.151
		c0.284,0.312,0.617,0.551,1.001,0.718c0.385,0.165,0.797,0.247,1.237,0.247c0.266,0,0.504-0.015,0.718-0.042
		c0.213-0.029,0.41-0.075,0.591-0.138c0.179-0.062,0.349-0.143,0.511-0.241c0.16-0.099,0.319-0.219,0.478-0.363
		c0.049-0.043,0.099-0.078,0.152-0.104C114.893,142.496,114.949,142.482,115.005,142.482z"/>
	<path d="M126.302,144.938h-1.497c-0.168,0-0.305-0.042-0.41-0.126c-0.105-0.083-0.186-0.188-0.237-0.313l-0.777-2.123h-4.313
		l-0.778,2.123c-0.038,0.11-0.112,0.213-0.223,0.303c-0.11,0.092-0.247,0.137-0.41,0.137h-1.512l4.097-10.41h1.973L126.302,144.938z
		 M122.883,141.006l-1.267-3.463c-0.063-0.153-0.128-0.336-0.195-0.547c-0.066-0.211-0.135-0.439-0.201-0.685
		c-0.063,0.245-0.128,0.475-0.194,0.688c-0.067,0.214-0.133,0.399-0.194,0.558l-1.26,3.448H122.883z"/>
	<path d="M136.16,134.527v10.41h-0.994c-0.154,0-0.282-0.025-0.386-0.076c-0.103-0.05-0.202-0.135-0.299-0.255l-5.435-6.94
		c0.028,0.316,0.042,0.609,0.042,0.878v6.394h-1.706v-10.41h1.015c0.082,0,0.152,0.003,0.213,0.01
		c0.061,0.008,0.113,0.021,0.158,0.044c0.046,0.021,0.091,0.053,0.133,0.094c0.045,0.041,0.092,0.095,0.146,0.161l5.456,6.97
		c-0.014-0.168-0.025-0.333-0.035-0.497c-0.01-0.163-0.014-0.314-0.014-0.453v-6.328H136.16z"/>
	<path d="M148.075,143.34v1.598h-6.098v-10.41h1.937v8.813H148.075z"/>
</g>
<polyline fill="none" stroke="#B87332" stroke-width="2.8347" stroke-miterlimit="10" points="328.24,150.292 296.907,150.292 
	296.907,217.573 162.907,217.573 162.907,150.425 162.907,150.292 104.28,150.292 "/>
<polyline fill="none" stroke="#B87332" stroke-width="2.8347" stroke-miterlimit="10" points="328.24,76.815 296.907,76.815 
	296.907,9.667 162.907,9.667 162.907,76.815 104.28,76.815 "/>
<line fill="none" stroke="#B87332" stroke-width="2.8347" stroke-miterlimit="10" x1="229.907" y1="9.667" x2="229.907" y2="109.215"/>
<line fill="none" stroke="#B87332" stroke-width="2.8347" stroke-miterlimit="10" x1="209.574" y1="141.369" x2="209.574" y2="106.334"/>
<line fill="none" stroke="#B87332" stroke-width="2.8347" stroke-miterlimit="10" x1="249.907" y1="141.369" x2="249.907" y2="106.334"/>
<path fill="#B87332" d="M225.697,9.667c0,0.581,0.118,1.135,0.331,1.638c0.639,1.512,2.135,2.572,3.879,2.572
	c2.325,0,4.21-1.885,4.21-4.21s-1.885-4.21-4.21-4.21S225.697,7.342,225.697,9.667z"/>
<path fill="#B87332" d="M206.363,217.573c0,0.581,0.118,1.135,0.331,1.638c0.639,1.512,2.135,2.572,3.879,2.572
	c2.325,0,4.21-1.885,4.21-4.21s-1.885-4.21-4.21-4.21S206.363,215.248,206.363,217.573z"/>
<path fill="#B87332" d="M245.697,217.573c0,0.581,0.118,1.135,0.331,1.638c0.639,1.512,2.135,2.572,3.879,2.572
	c2.325,0,4.21-1.885,4.21-4.21s-1.885-4.21-4.21-4.21S245.697,215.248,245.697,217.573z"/>
<rect x="224.298" y="97.922" fill="#B87332" width="11.293" height="22.586"/>
<g>
	<defs>
		<rect id="SVGID_5_" x="241.187" y="98.361" width="20.281" height="21.826"/>
	</defs>
	<clipPath id="SVGID_2_">
		<use xlink:href="#SVGID_5_"  overflow="visible"/>
	</clipPath>
	<circle clip-path="url(#SVGID_2_)" fill="#B87332" cx="241.186" cy="109.275" r="10.913"/>
</g>
<g>
	<defs>
		<rect id="SVGID_7_" x="198.679" y="97.983" width="20.282" height="21.827"/>
	</defs>
	<clipPath id="SVGID_4_">
		<use xlink:href="#SVGID_7_"  overflow="visible"/>
	</clipPath>
	<circle clip-path="url(#SVGID_4_)" fill="#B87332" cx="218.961" cy="108.896" r="10.913"/>
</g>
<g>
	<path d="M353.36,110.332h-3.924v11.025h-2.421v-11.025h-3.925v-1.988h10.27V110.332z"/>
	<path d="M358.877,116.731c0,0.732-0.09,1.392-0.271,1.979c-0.18,0.589-0.448,1.09-0.806,1.504
		c-0.356,0.414-0.802,0.731-1.336,0.953c-0.534,0.223-1.155,0.333-1.863,0.333c-0.324,0-0.642-0.02-0.954-0.058
		c-0.312-0.039-0.639-0.101-0.98-0.185c0.018-0.24,0.039-0.48,0.063-0.721c0.024-0.239,0.045-0.479,0.063-0.72
		c0.018-0.132,0.07-0.238,0.157-0.319s0.212-0.122,0.374-0.122c0.102,0,0.235,0.021,0.4,0.063s0.373,0.063,0.625,0.063
		c0.342,0,0.646-0.05,0.909-0.149c0.264-0.099,0.484-0.256,0.661-0.472c0.177-0.217,0.311-0.497,0.4-0.842
		c0.091-0.345,0.136-0.764,0.136-1.256v-8.441h2.421V116.731z"/>
	<path d="M372.602,121.357h-1.872c-0.21,0-0.381-0.053-0.513-0.157c-0.132-0.105-0.23-0.235-0.297-0.392l-0.972-2.655h-5.392
		l-0.972,2.655c-0.048,0.138-0.141,0.264-0.279,0.378c-0.138,0.114-0.309,0.171-0.513,0.171h-1.89l5.121-13.014h2.466
		L372.602,121.357z M368.327,116.443l-1.584-4.329c-0.078-0.191-0.159-0.42-0.243-0.684c-0.084-0.265-0.168-0.549-0.252-0.855
		c-0.078,0.307-0.159,0.593-0.243,0.859c-0.084,0.268-0.165,0.5-0.243,0.698l-1.575,4.311H368.327z"/>
	<path d="M381.818,119.692v1.665h-7.2v-1.665h2.637v-7.587c0-0.3,0.009-0.609,0.027-0.927l-1.872,1.565
		c-0.108,0.084-0.215,0.137-0.319,0.158c-0.105,0.021-0.204,0.022-0.298,0.004c-0.093-0.018-0.175-0.05-0.247-0.095
		s-0.126-0.094-0.162-0.148l-0.702-0.963l3.97-3.375h1.826v11.367H381.818z"/>
	<path d="M392.933,114.851c0,1.134-0.122,2.119-0.364,2.956c-0.243,0.837-0.579,1.529-1.009,2.075
		c-0.429,0.546-0.936,0.952-1.521,1.219c-0.585,0.268-1.217,0.4-1.895,0.4c-0.679,0-1.307-0.133-1.886-0.4
		c-0.579-0.267-1.081-0.673-1.508-1.219c-0.426-0.546-0.759-1.238-0.999-2.075c-0.239-0.837-0.359-1.822-0.359-2.956
		c0-1.14,0.12-2.127,0.359-2.961c0.24-0.834,0.573-1.524,0.999-2.07c0.427-0.546,0.929-0.952,1.508-1.22
		c0.579-0.267,1.207-0.4,1.886-0.4c0.678,0,1.31,0.134,1.895,0.4c0.585,0.268,1.092,0.674,1.521,1.22
		c0.43,0.546,0.766,1.236,1.009,2.07C392.811,112.724,392.933,113.711,392.933,114.851z M390.638,114.851
		c0-0.942-0.069-1.722-0.207-2.34c-0.139-0.618-0.323-1.11-0.554-1.477c-0.231-0.365-0.497-0.622-0.797-0.77
		c-0.3-0.146-0.611-0.221-0.936-0.221c-0.318,0-0.626,0.074-0.923,0.221c-0.297,0.147-0.56,0.404-0.787,0.77
		c-0.229,0.366-0.41,0.858-0.545,1.477s-0.202,1.397-0.202,2.34c0,0.941,0.067,1.722,0.202,2.34s0.316,1.11,0.545,1.476
		c0.228,0.366,0.49,0.623,0.787,0.77c0.297,0.147,0.604,0.221,0.923,0.221c0.324,0,0.636-0.073,0.936-0.221
		c0.3-0.146,0.565-0.403,0.797-0.77c0.23-0.365,0.415-0.857,0.554-1.476C390.568,116.572,390.638,115.792,390.638,114.851z"/>
	<path d="M403.363,116.452v1.287c0,0.12-0.039,0.224-0.117,0.311s-0.189,0.131-0.333,0.131h-1.188v3.177h-1.935v-3.177h-5.49
		c-0.15,0-0.282-0.047-0.396-0.14c-0.114-0.093-0.187-0.209-0.217-0.347l-0.233-1.125l6.165-8.235h2.105v8.118H403.363z
		 M399.79,116.452v-4.257c0-0.401,0.026-0.846,0.081-1.332l-4.041,5.589H399.79z"/>
	<path d="M412.65,119.287c0.24,0,0.431,0.067,0.571,0.203c0.141,0.135,0.212,0.313,0.212,0.535v1.332h-8.929v-0.738
		c0-0.149,0.032-0.307,0.095-0.473c0.063-0.164,0.164-0.313,0.302-0.445l3.951-3.96c0.33-0.336,0.625-0.657,0.887-0.963
		c0.261-0.306,0.478-0.608,0.652-0.909c0.174-0.3,0.307-0.604,0.4-0.913c0.093-0.31,0.14-0.635,0.14-0.977
		c0-0.312-0.045-0.587-0.136-0.823c-0.09-0.237-0.217-0.437-0.382-0.599s-0.363-0.284-0.595-0.364
		c-0.23-0.081-0.49-0.122-0.778-0.122c-0.264,0-0.508,0.038-0.733,0.112c-0.225,0.075-0.425,0.181-0.599,0.315
		s-0.32,0.292-0.44,0.473c-0.12,0.18-0.21,0.378-0.271,0.594c-0.102,0.276-0.233,0.459-0.396,0.549s-0.396,0.111-0.702,0.063
		l-1.17-0.207c0.09-0.624,0.264-1.172,0.521-1.643s0.581-0.864,0.968-1.18c0.387-0.314,0.831-0.552,1.332-0.711
		c0.501-0.158,1.039-0.238,1.615-0.238c0.601,0,1.149,0.089,1.647,0.266s0.924,0.428,1.278,0.752c0.354,0.323,0.63,0.714,0.827,1.17
		c0.198,0.456,0.298,0.963,0.298,1.521c0,0.48-0.071,0.924-0.212,1.332c-0.142,0.408-0.33,0.798-0.567,1.17
		c-0.236,0.372-0.515,0.732-0.832,1.08c-0.318,0.349-0.651,0.702-0.999,1.063l-2.935,2.997c0.282-0.084,0.563-0.148,0.842-0.194
		c0.279-0.045,0.545-0.067,0.797-0.067H412.65z"/>
</g>
<g>
	<g>
		<defs>
			<rect id="SVGID_9_" x="431.466" y="106.245" width="39.448" height="14.193"/>
		</defs>
		<clipPath id="SVGID_6_">
			<use xlink:href="#SVGID_9_"  overflow="visible"/>
		</clipPath>
		<path clip-path="url(#SVGID_6_)" d="M438.348,112.111v-5.86l-6.892,7.094l6.892,7.094v-5.859h25.579v5.859l6.892-7.094
			l-6.892-7.094v5.86H438.348z M438.348,112.111"/>
	</g>
</g>
<line fill="none" stroke="#000000" stroke-width="2.8347" stroke-miterlimit="10" x1="472.075" y1="210.878" x2="472.075" y2="5.81"/>
<line fill="none" stroke="#000000" stroke-width="2.8347" stroke-miterlimit="10" x1="471.863" y1="7.065" x2="507.139" y2="7.065"/>
<path fill="none" stroke="#B87332" stroke-width="2.8347" stroke-miterlimit="10" d="M472.075,159.149"/>
<line fill="none" stroke="#000000" stroke-width="2.8347" stroke-miterlimit="10" x1="472.029" y1="209.73" x2="507.303" y2="209.73"/>
<g>
	<path d="M497.607,66.017c-0.119-0.072-0.209-0.15-0.27-0.234c-0.06-0.084-0.09-0.187-0.09-0.306c0-0.137,0.068-0.297,0.204-0.48
		s0.286-0.414,0.45-0.689c0.164-0.276,0.313-0.608,0.449-0.996c0.137-0.389,0.205-0.858,0.205-1.41c0-0.521-0.07-0.979-0.211-1.374
		c-0.14-0.396-0.33-0.729-0.57-0.996c-0.239-0.269-0.521-0.47-0.846-0.606c-0.324-0.136-0.674-0.204-1.05-0.204
		c-0.479,0-0.878,0.118-1.194,0.354c-0.315,0.235-0.586,0.548-0.81,0.936c-0.224,0.389-0.418,0.828-0.582,1.32
		s-0.334,0.996-0.51,1.512c-0.177,0.517-0.374,1.021-0.595,1.513c-0.219,0.491-0.498,0.932-0.834,1.319
		c-0.336,0.389-0.748,0.7-1.235,0.937c-0.488,0.235-1.088,0.354-1.8,0.354c-0.752,0-1.458-0.128-2.118-0.384
		s-1.234-0.63-1.722-1.122c-0.488-0.492-0.873-1.096-1.152-1.812c-0.279-0.717-0.42-1.53-0.42-2.442c0-1.12,0.201-2.136,0.605-3.048
		s0.95-1.692,1.639-2.34l1.104,0.672c0.088,0.063,0.162,0.142,0.223,0.234c0.06,0.092,0.09,0.193,0.09,0.306
		c0,0.104-0.043,0.222-0.127,0.354c-0.084,0.133-0.189,0.282-0.317,0.45s-0.269,0.36-0.42,0.576s-0.292,0.462-0.42,0.738
		c-0.128,0.275-0.233,0.59-0.317,0.941c-0.084,0.353-0.127,0.748-0.127,1.188c0,0.552,0.076,1.044,0.229,1.476
		c0.152,0.433,0.365,0.798,0.642,1.099c0.276,0.3,0.606,0.529,0.99,0.689s0.812,0.24,1.284,0.24c0.52,0,0.945-0.118,1.277-0.354
		c0.332-0.235,0.61-0.546,0.834-0.93c0.225-0.384,0.414-0.824,0.57-1.32s0.316-1,0.48-1.512s0.354-1.016,0.57-1.512
		c0.215-0.496,0.495-0.937,0.84-1.32c0.344-0.384,0.773-0.694,1.289-0.93c0.517-0.236,1.154-0.354,1.914-0.354
		c0.608,0,1.196,0.118,1.764,0.354c0.568,0.235,1.072,0.58,1.513,1.032c0.44,0.451,0.792,1.008,1.056,1.668
		c0.264,0.659,0.396,1.418,0.396,2.273c0,0.96-0.152,1.834-0.456,2.622s-0.744,1.482-1.32,2.082L497.607,66.017z"/>
	<path d="M498.34,81.868V76.3H483.1v-2.315h15.24v-5.58h1.956v13.464H498.34z"/>
	<path d="M500.296,102.304H483.1v-2.04h12.637c0.168,0,0.348,0.007,0.539,0.019c0.193,0.012,0.389,0.025,0.589,0.042l-10.752-5.904
		c-0.36-0.184-0.54-0.464-0.54-0.84v-0.336c0-0.376,0.18-0.656,0.54-0.84l10.8-6.024c-0.424,0.048-0.816,0.072-1.176,0.072H483.1
		v-2.04h17.196v1.716c0,0.208-0.021,0.368-0.06,0.48c-0.041,0.111-0.152,0.22-0.336,0.323l-10.584,5.94
		c-0.192,0.096-0.393,0.189-0.6,0.282c-0.209,0.092-0.421,0.178-0.637,0.258c0.216,0.08,0.43,0.164,0.643,0.252
		c0.211,0.088,0.414,0.184,0.605,0.288l10.572,5.832c0.184,0.096,0.295,0.202,0.336,0.318c0.039,0.115,0.06,0.277,0.06,0.485
		V102.304z"/>
	<path d="M495.641,106.06c0.783,0.112,1.478,0.328,2.082,0.648c0.604,0.32,1.109,0.726,1.518,1.218
		c0.408,0.493,0.718,1.058,0.93,1.692c0.212,0.637,0.318,1.322,0.318,2.059c0,0.729-0.104,1.4-0.313,2.016
		c-0.208,0.615-0.504,1.146-0.888,1.59s-0.849,0.791-1.392,1.039c-0.545,0.248-1.148,0.371-1.813,0.371
		c-0.544,0-1.029-0.07-1.458-0.209c-0.428-0.141-0.802-0.342-1.122-0.602s-0.592-0.574-0.816-0.941
		c-0.224-0.367-0.407-0.779-0.551-1.236c-0.289,1.121-0.783,1.963-1.482,2.527c-0.7,0.563-1.574,0.846-2.622,0.846
		c-0.792,0-1.505-0.15-2.136-0.451c-0.633-0.299-1.17-0.709-1.614-1.229c-0.444-0.521-0.784-1.127-1.021-1.818
		c-0.235-0.693-0.354-1.436-0.354-2.227c0-0.912,0.113-1.691,0.342-2.34s0.542-1.196,0.941-1.645c0.4-0.448,0.875-0.816,1.423-1.104
		s1.142-0.532,1.782-0.731l0.384,0.924c0.104,0.24,0.132,0.474,0.084,0.702c-0.048,0.228-0.181,0.394-0.396,0.498
		c-0.225,0.104-0.492,0.233-0.805,0.39s-0.611,0.371-0.9,0.643c-0.287,0.271-0.531,0.617-0.731,1.037
		c-0.2,0.422-0.3,0.955-0.3,1.604c0,0.6,0.098,1.125,0.293,1.578c0.197,0.451,0.451,0.828,0.763,1.127
		c0.312,0.301,0.66,0.525,1.044,0.678c0.385,0.152,0.764,0.229,1.141,0.229c0.463,0,0.887-0.061,1.271-0.18
		c0.384-0.121,0.716-0.344,0.996-0.672c0.279-0.328,0.5-0.779,0.66-1.35c0.16-0.572,0.24-1.307,0.24-2.203h1.547
		c0.008,0.736,0.088,1.363,0.24,1.879s0.36,0.936,0.625,1.26c0.264,0.324,0.579,0.559,0.947,0.707s0.775,0.223,1.225,0.223
		c0.496,0,0.928-0.078,1.295-0.234c0.369-0.156,0.672-0.369,0.912-0.643c0.24-0.271,0.42-0.594,0.541-0.965
		c0.119-0.373,0.18-0.773,0.18-1.207c0-0.432-0.064-0.834-0.192-1.205c-0.128-0.373-0.306-0.701-0.534-0.984
		c-0.228-0.283-0.498-0.521-0.81-0.713c-0.312-0.193-0.656-0.328-1.032-0.408c-0.279-0.105-0.466-0.235-0.559-0.392
		c-0.092-0.155-0.117-0.382-0.077-0.678L495.641,106.06z"/>
	<path d="M485.128,130.265c0,0.232-0.067,0.416-0.204,0.553c-0.136,0.135-0.312,0.203-0.527,0.203H483.1v-11.473h0.732
		c0.152,0,0.309,0.033,0.469,0.096c0.159,0.064,0.307,0.164,0.443,0.301l5.531,5.508c0.465,0.457,0.91,0.873,1.339,1.248
		c0.428,0.377,0.858,0.695,1.29,0.961c0.432,0.264,0.869,0.467,1.314,0.611c0.443,0.145,0.918,0.217,1.422,0.217
		s0.945-0.08,1.326-0.24c0.379-0.16,0.693-0.379,0.941-0.654s0.434-0.602,0.559-0.979c0.123-0.375,0.186-0.779,0.186-1.211
		c0-0.441-0.064-0.846-0.192-1.213s-0.306-0.693-0.534-0.979c-0.228-0.283-0.498-0.521-0.81-0.713
		c-0.312-0.193-0.656-0.328-1.032-0.408c-0.279-0.096-0.466-0.227-0.559-0.391c-0.092-0.164-0.117-0.395-0.077-0.689l0.192-1.117
		c0.783,0.113,1.478,0.33,2.082,0.654c0.604,0.324,1.109,0.732,1.518,1.225s0.718,1.055,0.93,1.686
		c0.212,0.633,0.318,1.316,0.318,2.053c0,0.729-0.108,1.408-0.324,2.039c-0.216,0.633-0.529,1.18-0.941,1.645
		s-0.914,0.828-1.506,1.092c-0.593,0.264-1.265,0.396-2.017,0.396c-0.64,0-1.234-0.096-1.782-0.289
		c-0.548-0.191-1.07-0.451-1.566-0.779s-0.979-0.705-1.451-1.135c-0.473-0.428-0.948-0.881-1.428-1.361l-4.633-4.535
		c0.088,0.318,0.158,0.643,0.211,0.971c0.051,0.328,0.077,0.645,0.077,0.949V130.265z"/>
	<path d="M498.4,136.864h-6.012v7.068h-1.896v-7.068H483.1v-2.328h17.196v10.596H498.4V136.864z"/>
	<path d="M489.305,159.149h-1.225c-0.128,0-0.236-0.039-0.324-0.115s-0.132-0.193-0.132-0.354v-2.137H483.1v-1.871h4.524v-7.633
		c0-0.16,0.046-0.297,0.138-0.414c0.092-0.115,0.206-0.189,0.342-0.221l1.093-0.217l11.1,8.363v1.992h-10.991V159.149z
		 M489.305,154.673h7.092c0.207,0,0.436,0.008,0.684,0.023s0.5,0.041,0.756,0.072l-8.531-6.264V154.673z"/>
</g>
<rect x="81.553" y="81.444" fill="none" width="25.666" height="21.334"/>
<text transform="matrix(1 0 0 1 90.9058 90.3594)" fill="#FFFFFF" font-family="'Lato-Bold'" font-size="12">1</text>
<rect x="81.553" y="118.479" fill="none" width="25.666" height="21.334"/>
<text transform="matrix(1 0 0 1 90.9058 127.3945)" fill="#FFFFFF" font-family="'Lato-Bold'" font-size="12">2</text>
<rect x="81.553" y="155.067" fill="none" width="25.666" height="21.334"/>
<text transform="matrix(1 0 0 1 90.9058 163.9834)" fill="#FFFFFF" font-family="'Lato-Bold'" font-size="12">3</text>
<g>
	<path d="M194.817,174.282c0-0.192,0.054-0.345,0.161-0.457c0.108-0.112,0.251-0.17,0.43-0.17h1.064v7.143h-0.59
		c-0.12,0-0.246-0.026-0.378-0.075c-0.132-0.052-0.251-0.131-0.356-0.241l-3.168-3.162c-0.269-0.263-0.525-0.499-0.771-0.708
		s-0.487-0.384-0.728-0.522c-0.24-0.14-0.482-0.246-0.73-0.321c-0.247-0.073-0.508-0.111-0.781-0.111
		c-0.25,0-0.469,0.037-0.658,0.109c-0.19,0.071-0.35,0.174-0.479,0.305c-0.129,0.133-0.227,0.291-0.292,0.476
		c-0.064,0.186-0.098,0.393-0.098,0.624c0,0.211,0.031,0.405,0.091,0.586c0.06,0.18,0.144,0.34,0.252,0.479
		c0.107,0.14,0.234,0.257,0.378,0.354c0.145,0.096,0.303,0.168,0.475,0.215c0.222,0.082,0.368,0.188,0.439,0.316
		c0.073,0.131,0.09,0.318,0.051,0.563l-0.165,0.936c-0.499-0.071-0.938-0.211-1.313-0.417c-0.378-0.206-0.691-0.464-0.943-0.773
		s-0.442-0.666-0.57-1.066c-0.126-0.401-0.19-0.832-0.19-1.292c0-0.48,0.071-0.92,0.213-1.318s0.343-0.739,0.602-1.022
		c0.259-0.282,0.57-0.504,0.935-0.661c0.366-0.159,0.771-0.239,1.218-0.239c0.385,0,0.739,0.058,1.065,0.17
		c0.327,0.114,0.639,0.264,0.937,0.454c0.298,0.189,0.586,0.412,0.863,0.665c0.279,0.256,0.562,0.521,0.85,0.8l2.397,2.348
		c-0.066-0.226-0.118-0.449-0.154-0.674c-0.036-0.224-0.054-0.436-0.054-0.637V174.282z"/>
	<path d="M194.817,165.929c0-0.19,0.054-0.343,0.161-0.457c0.108-0.112,0.251-0.169,0.43-0.169h1.064v7.143h-0.59
		c-0.12,0-0.246-0.024-0.378-0.076c-0.132-0.049-0.251-0.13-0.356-0.241l-3.168-3.159c-0.269-0.265-0.525-0.502-0.771-0.71
		c-0.245-0.209-0.487-0.382-0.728-0.521s-0.482-0.246-0.73-0.32c-0.247-0.075-0.508-0.112-0.781-0.112
		c-0.25,0-0.469,0.036-0.658,0.107c-0.19,0.073-0.35,0.175-0.479,0.308c-0.129,0.131-0.227,0.29-0.292,0.475
		c-0.064,0.185-0.098,0.393-0.098,0.622c0,0.212,0.031,0.408,0.091,0.587c0.06,0.181,0.144,0.34,0.252,0.479
		c0.107,0.139,0.234,0.257,0.378,0.353c0.145,0.097,0.303,0.168,0.475,0.216c0.222,0.082,0.368,0.188,0.439,0.317
		c0.073,0.129,0.09,0.316,0.051,0.561l-0.165,0.938c-0.499-0.073-0.938-0.211-1.313-0.419c-0.378-0.206-0.691-0.464-0.943-0.774
		c-0.252-0.31-0.442-0.663-0.57-1.063c-0.126-0.401-0.19-0.832-0.19-1.294c0-0.479,0.071-0.919,0.213-1.317s0.343-0.738,0.602-1.021
		c0.259-0.284,0.57-0.504,0.935-0.664c0.366-0.158,0.771-0.236,1.218-0.236c0.385,0,0.739,0.057,1.065,0.169
		c0.327,0.112,0.639,0.265,0.937,0.453c0.298,0.19,0.586,0.411,0.863,0.667c0.279,0.253,0.562,0.521,0.85,0.799l2.397,2.347
		c-0.066-0.226-0.118-0.45-0.154-0.673s-0.054-0.436-0.054-0.638V165.929z"/>
	<path d="M191.267,156.648c0.907,0,1.695,0.098,2.365,0.292s1.223,0.464,1.659,0.807s0.763,0.749,0.976,1.216
		c0.214,0.469,0.32,0.975,0.32,1.517s-0.106,1.046-0.32,1.509c-0.213,0.463-0.539,0.865-0.976,1.205
		c-0.437,0.342-0.989,0.607-1.659,0.8s-1.458,0.288-2.365,0.288c-0.912,0-1.701-0.096-2.368-0.288
		c-0.668-0.192-1.22-0.458-1.657-0.8c-0.436-0.34-0.762-0.742-0.975-1.205c-0.214-0.463-0.321-0.967-0.321-1.509
		s0.107-1.048,0.321-1.517c0.213-0.467,0.539-0.873,0.975-1.216c0.438-0.343,0.989-0.612,1.657-0.807
		C189.566,156.746,190.355,156.648,191.267,156.648z M191.267,158.485c-0.754,0-1.378,0.055-1.873,0.165
		c-0.493,0.111-0.887,0.259-1.18,0.443s-0.498,0.396-0.615,0.637c-0.118,0.24-0.177,0.489-0.177,0.749
		c0,0.255,0.059,0.501,0.177,0.738c0.117,0.237,0.322,0.448,0.615,0.63c0.293,0.183,0.687,0.326,1.18,0.436
		c0.495,0.107,1.119,0.162,1.873,0.162s1.378-0.055,1.871-0.162c0.495-0.109,0.889-0.253,1.182-0.436
		c0.293-0.182,0.498-0.393,0.615-0.63c0.118-0.237,0.177-0.483,0.177-0.738c0-0.26-0.059-0.509-0.177-0.749
		c-0.117-0.24-0.322-0.452-0.615-0.637s-0.687-0.332-1.182-0.443C192.645,158.54,192.021,158.485,191.267,158.485z"/>
	<path d="M194.881,145.158h0.986c0.177,0,0.322,0.057,0.437,0.173c0.112,0.114,0.168,0.272,0.168,0.475v3.823h-2.188
		c-0.058-0.331-0.188-0.642-0.393-0.933c-0.204-0.289-0.462-0.545-0.773-0.763s-0.669-0.391-1.073-0.516
		c-0.403-0.124-0.832-0.187-1.288-0.187c-0.533,0-0.997,0.086-1.394,0.256s-0.725,0.4-0.983,0.691
		c-0.259,0.289-0.453,0.629-0.583,1.015c-0.129,0.387-0.193,0.796-0.193,1.227c0,0.434,0.064,0.842,0.193,1.229
		c0.13,0.387,0.324,0.725,0.583,1.013c0.259,0.287,0.587,0.517,0.983,0.687c0.396,0.171,0.86,0.256,1.394,0.256
		c0.456,0,0.885-0.063,1.288-0.188c0.404-0.125,0.762-0.296,1.073-0.515c0.312-0.218,0.569-0.473,0.773-0.763
		c0.205-0.291,0.335-0.602,0.393-0.934h2.188v3.824c0,0.201-0.056,0.359-0.168,0.475c-0.114,0.115-0.26,0.174-0.437,0.174h-0.986
		v-1.657c0-0.226,0.011-0.455,0.032-0.69s0.05-0.468,0.082-0.698c-0.153,0.428-0.366,0.817-0.64,1.173
		c-0.274,0.356-0.595,0.661-0.966,0.914c-0.369,0.256-0.777,0.452-1.227,0.596c-0.449,0.141-0.926,0.211-1.43,0.211
		c-0.691,0-1.328-0.131-1.911-0.392c-0.584-0.263-1.089-0.624-1.516-1.084c-0.428-0.461-0.761-1.002-1.001-1.623
		s-0.36-1.293-0.36-2.014c0-0.72,0.12-1.39,0.36-2.012c0.24-0.621,0.573-1.161,1.001-1.62c0.427-0.458,0.932-0.818,1.516-1.084
		c0.583-0.264,1.22-0.396,1.911-0.396c0.504,0,0.98,0.07,1.43,0.213c0.449,0.141,0.856,0.34,1.224,0.593
		c0.368,0.256,0.688,0.561,0.966,0.914c0.275,0.356,0.489,0.748,0.643,1.175c-0.032-0.229-0.061-0.462-0.082-0.695
		s-0.032-0.462-0.032-0.688V145.158z"/>
</g>
<g>
	<path d="M234.883,173.619h1.333v5.758h-1.333v-2.109h-6.069c-0.24,0-0.487-0.007-0.741-0.021l1.253,1.497
		c0.067,0.087,0.108,0.172,0.126,0.256c0.017,0.084,0.018,0.164,0.004,0.238c-0.016,0.073-0.04,0.139-0.076,0.197
		c-0.035,0.058-0.075,0.102-0.118,0.129l-0.771,0.563l-2.7-3.176v-1.461h9.094V173.619z"/>
	<path d="M231.01,164.727c0.907,0,1.696,0.096,2.365,0.291c0.67,0.194,1.224,0.464,1.659,0.806c0.438,0.345,0.763,0.75,0.977,1.218
		c0.213,0.468,0.319,0.974,0.319,1.516s-0.106,1.045-0.319,1.509c-0.214,0.463-0.539,0.865-0.977,1.205
		c-0.436,0.342-0.989,0.608-1.659,0.799c-0.669,0.192-1.458,0.288-2.365,0.288c-0.911,0-1.701-0.096-2.368-0.288
		c-0.668-0.19-1.22-0.457-1.657-0.799c-0.436-0.34-0.762-0.742-0.975-1.205c-0.214-0.464-0.321-0.967-0.321-1.509
		s0.107-1.048,0.321-1.516c0.213-0.468,0.539-0.873,0.975-1.218c0.438-0.342,0.989-0.611,1.657-0.806
		C229.309,164.822,230.099,164.727,231.01,164.727z M231.01,166.562c-0.753,0-1.378,0.057-1.872,0.167
		c-0.494,0.109-0.888,0.258-1.181,0.442c-0.293,0.186-0.498,0.396-0.615,0.638c-0.118,0.239-0.177,0.488-0.177,0.748
		c0,0.255,0.059,0.501,0.177,0.738c0.117,0.237,0.322,0.447,0.615,0.63s0.687,0.327,1.181,0.437
		c0.494,0.107,1.119,0.161,1.872,0.161c0.754,0,1.378-0.054,1.872-0.161c0.494-0.109,0.888-0.254,1.181-0.437
		s0.498-0.393,0.615-0.63c0.118-0.237,0.177-0.483,0.177-0.738c0-0.26-0.059-0.509-0.177-0.748
		c-0.117-0.241-0.322-0.452-0.615-0.638c-0.293-0.185-0.687-0.333-1.181-0.442C232.388,166.618,231.764,166.562,231.01,166.562z"/>
	<path d="M231.01,156.373c0.907,0,1.696,0.099,2.365,0.293c0.67,0.195,1.224,0.463,1.659,0.807c0.438,0.342,0.763,0.748,0.977,1.217
		c0.213,0.469,0.319,0.973,0.319,1.516c0,0.542-0.106,1.045-0.319,1.508c-0.214,0.464-0.539,0.865-0.977,1.207
		c-0.436,0.34-0.989,0.606-1.659,0.799c-0.669,0.192-1.458,0.288-2.365,0.288c-0.911,0-1.701-0.096-2.368-0.288
		c-0.668-0.192-1.22-0.459-1.657-0.799c-0.436-0.342-0.762-0.743-0.975-1.207c-0.214-0.463-0.321-0.966-0.321-1.508
		c0-0.543,0.107-1.047,0.321-1.516c0.213-0.469,0.539-0.875,0.975-1.217c0.438-0.344,0.989-0.611,1.657-0.807
		C229.309,156.472,230.099,156.373,231.01,156.373z M231.01,158.211c-0.753,0-1.378,0.054-1.872,0.164
		c-0.494,0.111-0.888,0.259-1.181,0.443s-0.498,0.398-0.615,0.637c-0.118,0.24-0.177,0.49-0.177,0.75c0,0.254,0.059,0.5,0.177,0.737
		c0.117,0.238,0.322,0.448,0.615,0.63c0.293,0.183,0.687,0.328,1.181,0.436s1.119,0.162,1.872,0.162
		c0.754,0,1.378-0.055,1.872-0.162s0.888-0.253,1.181-0.436c0.293-0.182,0.498-0.392,0.615-0.63
		c0.118-0.237,0.177-0.483,0.177-0.737c0-0.26-0.059-0.51-0.177-0.75c-0.117-0.238-0.322-0.452-0.615-0.637
		s-0.687-0.332-1.181-0.443C232.388,158.265,231.764,158.211,231.01,158.211z"/>
	<path d="M234.625,144.883h0.986c0.178,0,0.322,0.058,0.437,0.173c0.112,0.114,0.169,0.274,0.169,0.476v3.822h-2.189
		c-0.058-0.33-0.188-0.642-0.393-0.933c-0.204-0.289-0.462-0.544-0.773-0.762c-0.312-0.219-0.669-0.392-1.073-0.516
		c-0.403-0.124-0.832-0.188-1.288-0.188c-0.533,0-0.997,0.086-1.394,0.256c-0.396,0.171-0.724,0.4-0.983,0.691
		c-0.259,0.29-0.453,0.629-0.583,1.015c-0.129,0.387-0.193,0.797-0.193,1.229s0.064,0.841,0.193,1.228
		c0.13,0.387,0.324,0.724,0.583,1.012c0.26,0.287,0.588,0.517,0.983,0.688c0.396,0.17,0.86,0.256,1.394,0.256
		c0.456,0,0.885-0.063,1.288-0.188c0.404-0.124,0.762-0.297,1.073-0.516c0.312-0.218,0.569-0.472,0.773-0.762
		c0.205-0.291,0.335-0.603,0.393-0.933h2.189v3.822c0,0.201-0.057,0.361-0.169,0.476c-0.114,0.115-0.259,0.174-0.437,0.174h-0.986
		v-1.657c0-0.225,0.011-0.456,0.033-0.691c0.021-0.234,0.049-0.468,0.082-0.698c-0.154,0.428-0.367,0.817-0.641,1.174
		c-0.273,0.355-0.595,0.66-0.965,0.914c-0.369,0.256-0.778,0.452-1.228,0.595c-0.448,0.142-0.926,0.212-1.43,0.212
		c-0.691,0-1.327-0.132-1.911-0.392c-0.584-0.263-1.089-0.623-1.516-1.085c-0.428-0.46-0.76-1.001-1-1.623
		c-0.24-0.621-0.361-1.293-0.361-2.013c0-0.719,0.121-1.391,0.361-2.013c0.24-0.621,0.572-1.16,1-1.62
		c0.427-0.458,0.932-0.818,1.516-1.082c0.584-0.266,1.22-0.396,1.911-0.396c0.504,0,0.981,0.07,1.43,0.212
		c0.449,0.142,0.856,0.34,1.224,0.595c0.368,0.254,0.689,0.559,0.966,0.914c0.275,0.355,0.489,0.746,0.644,1.174
		c-0.033-0.23-0.062-0.462-0.082-0.696c-0.022-0.231-0.033-0.462-0.033-0.687V144.883z"/>
</g>
<line fill="none" stroke="#B87332" stroke-width="2.8347" stroke-miterlimit="10" x1="210.741" y1="215.6" x2="210.741" y2="180.564"/>
<line fill="none" stroke="#B87332" stroke-width="2.8347" stroke-miterlimit="10" x1="250.074" y1="215.6" x2="250.074" y2="180.564"/>
<rect x="241.143" y="142.188" fill="none" stroke="#000000" stroke-width="2.8347" stroke-miterlimit="10" width="17.035" height="39.699"/>
<rect x="201.637" y="142.02" fill="none" stroke="#000000" stroke-width="2.8347" stroke-miterlimit="10" width="17.035" height="39.699"/>
<line fill="none" stroke="#B87332" stroke-width="2.8347" stroke-miterlimit="10" x1="25.324" y1="173.912" x2="25.324" y2="189.785"/>
<line fill="none" stroke="#000000" stroke-width="4.252" stroke-miterlimit="10" x1="37.636" y1="200.607" x2="13.012" y2="200.607"/>
<line fill="none" stroke="#000000" stroke-width="2.8347" stroke-miterlimit="10" x1="25.324" y1="186.524" x2="25.324" y2="200.607"/>
<line fill="none" stroke="#B87332" stroke-width="2.8347" stroke-miterlimit="10" x1="379.734" y1="162.807" x2="379.734" y2="190.067"/>
<line fill="none" stroke="#B87332" stroke-width="2.8347" stroke-miterlimit="10" x1="379.734" y1="176.72" x2="379.734" y2="192.593"/>
<line fill="none" stroke="#000000" stroke-width="4.252" stroke-miterlimit="10" x1="392.047" y1="203.415" x2="367.422" y2="203.415"/>
<line fill="none" stroke="#000000" stroke-width="2.8347" stroke-miterlimit="10" x1="379.734" y1="189.332" x2="379.734" y2="203.415"/>
<g id="symbol_x5F_4">
</g>
<path fill="#ED1F24" stroke="#000000" stroke-width="2.8347" stroke-miterlimit="10" d="M375.523,24.971
	c0,0.581,0.118,1.135,0.331,1.638c0.639,1.512,2.135,2.572,3.879,2.572c2.325,0,4.21-1.885,4.21-4.21s-1.885-4.21-4.21-4.21
	S375.523,22.646,375.523,24.971z"/>
<g>
	<path d="M396.372,25.942h-2.794v2.968h-1.447v-2.968h-2.78v-1.317h2.78v-2.951h1.447v2.951h2.794V25.942z"/>
	<path d="M399.956,23.487c0.231-0.048,0.453-0.082,0.664-0.104c0.211-0.021,0.414-0.031,0.611-0.031
		c0.547,0,1.029,0.081,1.447,0.245c0.417,0.163,0.768,0.388,1.051,0.676c0.284,0.288,0.497,0.626,0.641,1.012
		c0.145,0.387,0.217,0.803,0.217,1.249c0,0.552-0.098,1.056-0.292,1.513c-0.194,0.456-0.464,0.845-0.81,1.17
		c-0.346,0.323-0.755,0.574-1.228,0.752c-0.474,0.177-0.989,0.267-1.544,0.267c-0.327,0-0.637-0.033-0.93-0.102
		c-0.293-0.066-0.568-0.156-0.824-0.27c-0.258-0.112-0.494-0.242-0.712-0.389c-0.22-0.146-0.415-0.301-0.589-0.464l0.549-0.756
		c0.115-0.163,0.266-0.245,0.452-0.245c0.121,0,0.244,0.039,0.368,0.115c0.124,0.077,0.268,0.16,0.429,0.252
		c0.159,0.091,0.35,0.176,0.568,0.252c0.218,0.077,0.481,0.114,0.789,0.114c0.325,0,0.614-0.053,0.863-0.158
		c0.25-0.105,0.457-0.253,0.622-0.442c0.167-0.189,0.291-0.415,0.375-0.677c0.085-0.261,0.127-0.546,0.127-0.853
		c0-0.566-0.165-1.01-0.494-1.329c-0.328-0.319-0.814-0.479-1.458-0.479c-0.495,0-1.001,0.092-1.519,0.273l-1.109-0.316l0.864-5.055
		h5.141v0.756c0,0.255-0.079,0.461-0.237,0.619s-0.428,0.237-0.807,0.237h-2.858L399.956,23.487z"/>
	<path d="M415.465,19.708l-4.204,10.411h-1.749l-4.204-10.411h1.554c0.169,0,0.305,0.041,0.41,0.122
		c0.106,0.082,0.185,0.188,0.239,0.317l2.453,6.351c0.082,0.206,0.16,0.433,0.234,0.68c0.075,0.247,0.146,0.505,0.214,0.774
		c0.056-0.27,0.119-0.527,0.188-0.774c0.065-0.247,0.141-0.474,0.223-0.68l2.439-6.351c0.04-0.111,0.115-0.212,0.228-0.302
		c0.112-0.092,0.251-0.138,0.415-0.138H415.465z"/>
</g>
<line fill="none" stroke="#B87332" stroke-width="2.8347" stroke-miterlimit="10" x1="379.733" y1="37.613" x2="379.733" y2="62.875"/>
<line fill="none" stroke="#000000" stroke-width="2.8347" stroke-miterlimit="10" x1="379.733" y1="45.995" x2="379.733" y2="29.231"/>
<rect x="328.24" y="62.875" fill="none" stroke="#000000" stroke-width="2.8347" stroke-miterlimit="10" width="101.354" height="101.354"/>
</svg>
