<svg enable-background="new 0 0 518 221.783" height="221.783" viewBox="0 0 518 221.783" width="518" xmlns="http://www.w3.org/2000/svg" xmlns:xlink="http://www.w3.org/1999/xlink"><path d="m98.482 94.915c3.199 0 5.798-2.599 5.798-5.795v-24.606c0-3.199-2.599-5.798-5.798-5.798h-24.603c-3.201 0-5.789 2.599-5.789 5.798v24.606c0 3.196 2.588 5.795 5.789 5.795z"/><path d="m98.482 131.65c3.199 0 5.798-2.596 5.798-5.795v-24.604c0-3.199-2.599-5.798-5.798-5.798h-24.603c-3.201 0-5.789 2.599-5.789 5.798v24.604c0 3.199 2.588 5.795 5.789 5.795z"/><path d="m98.482 168.392c3.199 0 5.798-2.599 5.798-5.798v-24.604c0-3.202-2.599-5.798-5.798-5.798h-24.603c-3.201 0-5.789 2.596-5.789 5.798v24.604c0 3.199 2.588 5.798 5.789 5.798z"/><path d="m81.553 72.181h9.263v9.264h-9.263z" fill="#c3996c"/><path d="m81.553 109.215h9.263v9.264h-9.263z" fill="#c3996c"/><path d="m81.553 145.804h9.263v9.264h-9.263z" fill="#c3996c"/><path d="m68.09 113.552h-42.766v73.708" fill="none" stroke="#b87332" stroke-miterlimit="10" stroke-width="2.8347"/><path d="m115.287 69.135c.105 0 .199.041.281.122l.763.829c-.422.522-.942.923-1.559 1.202-.617.278-1.357.417-2.221.417-.773 0-1.468-.131-2.085-.396-.616-.264-1.144-.63-1.58-1.102-.437-.47-.772-1.031-1.005-1.684s-.349-1.366-.349-2.139c0-.783.124-1.499.374-2.149s.602-1.21 1.055-1.682c.453-.47.995-.835 1.624-1.098.628-.262 1.324-.393 2.088-.393.758 0 1.432.125 2.02.375.588.249 1.088.575 1.501.979l-.647.9c-.039.057-.088.107-.147.15-.061.043-.144.064-.249.064-.072 0-.146-.021-.223-.061-.077-.041-.161-.092-.252-.151-.092-.061-.197-.126-.317-.198s-.259-.138-.418-.197c-.158-.061-.342-.11-.551-.151-.208-.041-.45-.063-.723-.063-.466 0-.892.083-1.278.249s-.719.406-.997.721c-.279.313-.494.698-.648 1.151-.153.454-.23.971-.23 1.552 0 .586.083 1.106.248 1.563.166.455.391.84.674 1.151s.617.551 1.001.718c.384.165.797.247 1.238.247.264 0 .503-.015.716-.042.214-.029.411-.075.591-.138.18-.062.351-.143.512-.241.16-.099.319-.219.479-.363.048-.043.098-.078.151-.104.051-.025.105-.038.163-.038z"/><path d="m126.584 71.59h-1.498c-.168 0-.305-.042-.41-.126-.105-.083-.185-.188-.237-.313l-.777-2.123h-4.313l-.778 2.123c-.038.11-.112.213-.223.303-.111.092-.247.137-.411.137h-1.512l4.097-10.41h1.974zm-3.42-3.932-1.267-3.463c-.063-.153-.128-.336-.195-.547s-.135-.439-.201-.685c-.063.245-.127.475-.194.688s-.132.399-.194.558l-1.26 3.448h3.311z"/><path d="m136.44 61.18v10.41h-.993c-.154 0-.282-.025-.386-.076-.103-.05-.202-.135-.299-.255l-5.436-6.94c.029.316.044.609.044.878v6.394h-1.707v-10.411h1.016c.081 0 .152.003.212.01.061.008.113.021.158.044.046.021.09.053.134.094.043.041.091.095.144.161l5.458 6.97c-.015-.168-.026-.333-.036-.497-.01-.163-.015-.314-.015-.453v-6.329z"/><path d="m151.035 61.18v10.41h-1.943v-4.55h-4.89v4.55h-1.943v-10.41h1.943v4.478h4.89v-4.478z"/><path d="m115.005 142.482c.105 0 .199.041.281.122l.765.829c-.423.522-.942.923-1.559 1.202-.618.278-1.358.417-2.222.417-.773 0-1.468-.131-2.084-.396-.617-.264-1.144-.63-1.582-1.102-.436-.47-.771-1.031-1.003-1.684-.233-.652-.35-1.366-.35-2.139 0-.783.124-1.499.374-2.149s.602-1.21 1.055-1.682c.453-.47.995-.835 1.623-1.098.629-.262 1.325-.393 2.088-.393.76 0 1.433.125 2.021.375.589.249 1.088.575 1.501.979l-.647.9c-.039.057-.088.107-.147.15-.062.043-.144.064-.249.064-.072 0-.146-.021-.223-.061-.077-.041-.161-.092-.253-.151-.092-.061-.197-.126-.316-.198s-.259-.138-.417-.197c-.159-.061-.343-.11-.551-.151-.209-.041-.45-.063-.725-.063-.465 0-.891.083-1.277.249s-.72.406-.997.721c-.279.313-.494.698-.648 1.151-.154.454-.23.971-.23 1.552 0 .586.083 1.106.248 1.563.166.455.391.84.674 1.151.284.312.617.551 1.001.718.385.165.797.247 1.237.247.266 0 .504-.015.718-.042.213-.029.41-.075.591-.138.179-.062.349-.143.511-.241.16-.099.319-.219.478-.363.049-.043.099-.078.152-.104.05-.024.106-.038.162-.038z"/><path d="m126.302 144.938h-1.497c-.168 0-.305-.042-.41-.126-.105-.083-.186-.188-.237-.313l-.777-2.123h-4.313l-.778 2.123c-.038.11-.112.213-.223.303-.11.092-.247.137-.41.137h-1.512l4.097-10.41h1.973zm-3.419-3.932-1.267-3.463c-.063-.153-.128-.336-.195-.547-.066-.211-.135-.439-.201-.685-.063.245-.128.475-.194.688-.067.214-.133.399-.194.558l-1.26 3.448h3.311z"/><path d="m136.16 134.527v10.41h-.994c-.154 0-.282-.025-.386-.076-.103-.05-.202-.135-.299-.255l-5.435-6.94c.028.316.042.609.042.878v6.394h-1.706v-10.41h1.015c.082 0 .152.003.213.01.061.008.113.021.158.044.046.021.091.053.133.094.045.041.092.095.146.161l5.456 6.97c-.014-.168-.025-.333-.035-.497-.01-.163-.014-.314-.014-.453v-6.328h1.706z"/><path d="m148.075 143.34v1.598h-6.098v-10.41h1.937v8.813h4.161z"/><path d="m328.24 150.292h-31.333v67.281h-134v-67.148-.133h-58.627" fill="none" stroke="#b87332" stroke-miterlimit="10" stroke-width="2.8347"/><path d="m328.24 76.815h-31.333v-67.148h-134v67.148h-58.627" fill="none" stroke="#b87332" stroke-miterlimit="10" stroke-width="2.8347"/><path d="m229.907 9.667v99.548" fill="none" stroke="#b87332" stroke-miterlimit="10" stroke-width="2.8347"/><path d="m209.574 141.369v-35.035" fill="none" stroke="#b87332" stroke-miterlimit="10" stroke-width="2.8347"/><path d="m249.907 141.369v-35.035" fill="none" stroke="#b87332" stroke-miterlimit="10" stroke-width="2.8347"/><path d="m225.697 9.667c0 .581.118 1.135.331 1.638.639 1.512 2.135 2.572 3.879 2.572 2.325 0 4.21-1.885 4.21-4.21s-1.885-4.21-4.21-4.21-4.21 1.885-4.21 4.21z" fill="#b87332"/><path d="m206.363 217.573c0 .581.118 1.135.331 1.638.639 1.512 2.135 2.572 3.879 2.572 2.325 0 4.21-1.885 4.21-4.21s-1.885-4.21-4.21-4.21-4.21 1.885-4.21 4.21z" fill="#b87332"/><path d="m245.697 217.573c0 .581.118 1.135.331 1.638.639 1.512 2.135 2.572 3.879 2.572 2.325 0 4.21-1.885 4.21-4.21s-1.885-4.21-4.21-4.21-4.21 1.885-4.21 4.21z" fill="#b87332"/><path d="m224.298 97.922h11.293v22.586h-11.293z" fill="#b87332"/><clipPath id="a"><path d="m241.187 98.361h20.281v21.826h-20.281z"/></clipPath><clipPath id="b"><path d="m198.679 97.983h20.282v21.827h-20.282z"/></clipPath><clipPath id="c"><path d="m431.466 106.245h39.448v14.193h-39.448z"/></clipPath><circle clip-path="url(#a)" cx="241.186" cy="109.275" fill="#b87332" r="10.913"/><circle clip-path="url(#b)" cx="218.961" cy="108.896" fill="#b87332" r="10.913"/><path d="m353.36 110.332h-3.924v11.025h-2.421v-11.025h-3.925v-1.988h10.27z"/><path d="m358.877 116.731c0 .732-.09 1.392-.271 1.979-.18.589-.448 1.09-.806 1.504-.356.414-.802.731-1.336.953-.534.223-1.155.333-1.863.333-.324 0-.642-.02-.954-.058-.312-.039-.639-.101-.98-.185.018-.24.039-.48.063-.721.024-.239.045-.479.063-.72.018-.132.07-.238.157-.319s.212-.122.374-.122c.102 0 .235.021.4.063s.373.063.625.063c.342 0 .646-.05.909-.149.264-.099.484-.256.661-.472.177-.217.311-.497.4-.842.091-.345.136-.764.136-1.256v-8.441h2.421v8.39z"/><path d="m372.602 121.357h-1.872c-.21 0-.381-.053-.513-.157-.132-.105-.23-.235-.297-.392l-.972-2.655h-5.392l-.972 2.655c-.048.138-.141.264-.279.378s-.309.171-.513.171h-1.89l5.121-13.014h2.466zm-4.275-4.914-1.584-4.329c-.078-.191-.159-.42-.243-.684-.084-.265-.168-.549-.252-.855-.078.307-.159.593-.243.859-.084.268-.165.5-.243.698l-1.575 4.311z"/><path d="m381.818 119.692v1.665h-7.2v-1.665h2.637v-7.587c0-.3.009-.609.027-.927l-1.872 1.565c-.108.084-.215.137-.319.158-.105.021-.204.022-.298.004-.093-.018-.175-.05-.247-.095s-.126-.094-.162-.148l-.702-.963 3.97-3.375h1.826v11.367h2.34z"/><path d="m392.933 114.851c0 1.134-.122 2.119-.364 2.956-.243.837-.579 1.529-1.009 2.075-.429.546-.936.952-1.521 1.219-.585.268-1.217.4-1.895.4-.679 0-1.307-.133-1.886-.4s-1.081-.673-1.508-1.219c-.426-.546-.759-1.238-.999-2.075-.239-.837-.359-1.822-.359-2.956 0-1.14.12-2.127.359-2.961.24-.834.573-1.524.999-2.07.427-.546.929-.952 1.508-1.22.579-.267 1.207-.4 1.886-.4.678 0 1.31.134 1.895.4.585.268 1.092.674 1.521 1.22.43.546.766 1.236 1.009 2.07.242.834.364 1.821.364 2.961zm-2.295 0c0-.942-.069-1.722-.207-2.34-.139-.618-.323-1.11-.554-1.477-.231-.365-.497-.622-.797-.77-.3-.146-.611-.221-.936-.221-.318 0-.626.074-.923.221s-.56.404-.787.77c-.229.366-.41.858-.545 1.477s-.202 1.397-.202 2.34c0 .941.067 1.722.202 2.34s.316 1.11.545 1.476c.228.366.49.623.787.77s.604.221.923.221c.324 0 .636-.073.936-.221.3-.146.565-.403.797-.77.23-.365.415-.857.554-1.476.137-.619.207-1.399.207-2.34z"/><path d="m403.363 116.452v1.287c0 .12-.039.224-.117.311s-.189.131-.333.131h-1.188v3.177h-1.935v-3.177h-5.49c-.15 0-.282-.047-.396-.14s-.187-.209-.217-.347l-.233-1.125 6.165-8.235h2.105v8.118zm-3.573 0v-4.257c0-.401.026-.846.081-1.332l-4.041 5.589z"/><path d="m412.65 119.287c.24 0 .431.067.571.203.141.135.212.313.212.535v1.332h-8.929v-.738c0-.149.032-.307.095-.473.063-.164.164-.313.302-.445l3.951-3.96c.33-.336.625-.657.887-.963.261-.306.478-.608.652-.909.174-.3.307-.604.4-.913.093-.31.14-.635.14-.977 0-.312-.045-.587-.136-.823-.09-.237-.217-.437-.382-.599s-.363-.284-.595-.364c-.23-.081-.49-.122-.778-.122-.264 0-.508.038-.733.112-.225.075-.425.181-.599.315s-.32.292-.44.473c-.12.18-.21.378-.271.594-.102.276-.233.459-.396.549s-.396.111-.702.063l-1.17-.207c.09-.624.264-1.172.521-1.643s.581-.864.968-1.18c.387-.314.831-.552 1.332-.711.501-.158 1.039-.238 1.615-.238.601 0 1.149.089 1.647.266s.924.428 1.278.752c.354.323.63.714.827 1.17.198.456.298.963.298 1.521 0 .48-.071.924-.212 1.332-.142.408-.33.798-.567 1.17-.236.372-.515.732-.832 1.08-.318.349-.651.702-.999 1.063l-2.935 2.997c.282-.084.563-.148.842-.194.279-.045.545-.067.797-.067h3.341z"/><path clip-path="url(#c)" d="m438.348 112.111v-5.86l-6.892 7.094 6.892 7.094v-5.859h25.579v5.859l6.892-7.094-6.892-7.094v5.86zm0 0"/><path d="m472.075 210.878v-205.068" fill="none" stroke="#000" stroke-miterlimit="10" stroke-width="2.8347"/><path d="m471.863 7.065h35.276" fill="none" stroke="#000" stroke-miterlimit="10" stroke-width="2.8347"/><path d="m472.029 209.73h35.274" fill="none" stroke="#000" stroke-miterlimit="10" stroke-width="2.8347"/><path d="m497.607 66.017c-.119-.072-.209-.15-.27-.234-.06-.084-.09-.187-.09-.306 0-.137.068-.297.204-.48s.286-.414.45-.689c.164-.276.313-.608.449-.996.137-.389.205-.858.205-1.41 0-.521-.07-.979-.211-1.374-.14-.396-.33-.729-.57-.996-.239-.269-.521-.47-.846-.606-.324-.136-.674-.204-1.05-.204-.479 0-.878.118-1.194.354-.315.235-.586.548-.81.936-.224.389-.418.828-.582 1.32s-.334.996-.51 1.512c-.177.517-.374 1.021-.595 1.513-.219.491-.498.932-.834 1.319-.336.389-.748.7-1.235.937-.488.235-1.088.354-1.8.354-.752 0-1.458-.128-2.118-.384s-1.234-.63-1.722-1.122-.873-1.096-1.152-1.812c-.279-.717-.42-1.53-.42-2.442 0-1.12.201-2.136.605-3.048s.95-1.692 1.639-2.34l1.104.672c.088.063.162.142.223.234.06.092.09.193.09.306 0 .104-.043.222-.127.354-.084.133-.189.282-.317.45s-.269.36-.42.576-.292.462-.42.738c-.128.275-.233.59-.317.941-.084.353-.127.748-.127 1.188 0 .552.076 1.044.229 1.476.152.433.365.798.642 1.099.276.3.606.529.99.689s.812.24 1.284.24c.52 0 .945-.118 1.277-.354.332-.235.61-.546.834-.93.225-.384.414-.824.57-1.32s.316-1 .48-1.512.354-1.016.57-1.512c.215-.496.495-.937.84-1.32.344-.384.773-.694 1.289-.93.517-.236 1.154-.354 1.914-.354.608 0 1.196.118 1.764.354.568.235 1.072.58 1.513 1.032.44.451.792 1.008 1.056 1.668.264.659.396 1.418.396 2.273 0 .96-.152 1.834-.456 2.622s-.744 1.482-1.32 2.082z"/><path d="m498.34 81.868v-5.568h-15.24v-2.315h15.24v-5.58h1.956v13.464h-1.956z"/><path d="m500.296 102.304h-17.196v-2.04h12.637c.168 0 .348.007.539.019.193.012.389.025.589.042l-10.752-5.904c-.36-.184-.54-.464-.54-.84v-.336c0-.376.18-.656.54-.84l10.8-6.024c-.424.048-.816.072-1.176.072h-12.637v-2.04h17.196v1.716c0 .208-.021.368-.06.48-.041.111-.152.22-.336.323l-10.584 5.94c-.192.096-.393.189-.6.282-.209.092-.421.178-.637.258.216.08.43.164.643.252.211.088.414.184.605.288l10.572 5.832c.184.096.295.202.336.318.039.115.06.277.06.485v1.717z"/><path d="m495.641 106.06c.783.112 1.478.328 2.082.648s1.109.726 1.518 1.218c.408.493.718 1.058.93 1.692.212.637.318 1.322.318 2.059 0 .729-.104 1.4-.313 2.016-.208.615-.504 1.146-.888 1.59s-.849.791-1.392 1.039c-.545.248-1.148.371-1.813.371-.544 0-1.029-.07-1.458-.209-.428-.141-.802-.342-1.122-.602s-.592-.574-.816-.941-.407-.779-.551-1.236c-.289 1.121-.783 1.963-1.482 2.527-.7.563-1.574.846-2.622.846-.792 0-1.505-.15-2.136-.451-.633-.299-1.17-.709-1.614-1.229-.444-.521-.784-1.127-1.021-1.818-.235-.693-.354-1.436-.354-2.227 0-.912.113-1.691.342-2.34s.542-1.196.941-1.645c.4-.448.875-.816 1.423-1.104s1.142-.532 1.782-.731l.384.924c.104.24.132.474.084.702s-.181.394-.396.498c-.225.104-.492.233-.805.39s-.611.371-.9.643c-.287.271-.531.617-.731 1.037-.2.422-.3.955-.3 1.604 0 .6.098 1.125.293 1.578.197.451.451.828.763 1.127.312.301.66.525 1.044.678.385.152.764.229 1.141.229.463 0 .887-.061 1.271-.18.384-.121.716-.344.996-.672.279-.328.5-.779.66-1.35.16-.572.24-1.307.24-2.203h1.547c.008.736.088 1.363.24 1.879s.36.936.625 1.26c.264.324.579.559.947.707s.775.223 1.225.223c.496 0 .928-.078 1.295-.234.369-.156.672-.369.912-.643.24-.271.42-.594.541-.965.119-.373.18-.773.18-1.207 0-.432-.064-.834-.192-1.205-.128-.373-.306-.701-.534-.984s-.498-.521-.81-.713c-.312-.193-.656-.328-1.032-.408-.279-.105-.466-.235-.559-.392-.092-.155-.117-.382-.077-.678z"/><path d="m485.128 130.265c0 .232-.067.416-.204.553-.136.135-.312.203-.527.203h-1.297v-11.473h.732c.152 0 .309.033.469.096.159.064.307.164.443.301l5.531 5.508c.465.457.91.873 1.339 1.248.428.377.858.695 1.29.961.432.264.869.467 1.314.611.443.145.918.217 1.422.217s.945-.08 1.326-.24c.379-.16.693-.379.941-.654s.434-.602.559-.979c.123-.375.186-.779.186-1.211 0-.441-.064-.846-.192-1.213s-.306-.693-.534-.979c-.228-.283-.498-.521-.81-.713-.312-.193-.656-.328-1.032-.408-.279-.096-.466-.227-.559-.391-.092-.164-.117-.395-.077-.689l.192-1.117c.783.113 1.478.33 2.082.654s1.109.732 1.518 1.225.718 1.055.93 1.686c.212.633.318 1.316.318 2.053 0 .729-.108 1.408-.324 2.039-.216.633-.529 1.18-.941 1.645s-.914.828-1.506 1.092c-.593.264-1.265.396-2.017.396-.64 0-1.234-.096-1.782-.289-.548-.191-1.07-.451-1.566-.779s-.979-.705-1.451-1.135c-.473-.428-.948-.881-1.428-1.361l-4.633-4.535c.088.318.158.643.211.971.051.328.077.645.077.949z"/><path d="m498.4 136.864h-6.012v7.068h-1.896v-7.068h-7.392v-2.328h17.196v10.596h-1.896z"/><path d="m489.305 159.149h-1.225c-.128 0-.236-.039-.324-.115s-.132-.193-.132-.354v-2.137h-4.524v-1.871h4.524v-7.633c0-.16.046-.297.138-.414.092-.115.206-.189.342-.221l1.093-.217 11.1 8.363v1.992h-10.991v2.607zm0-4.476h7.092c.207 0 .436.008.684.023s.5.041.756.072l-8.531-6.264v6.169z"/><path d="m81.553 81.444h25.666v21.334h-25.666z" fill="none"/><text fill="#fff" font-family="'Lato-Bold'" font-size="12" transform="translate(90.9058 90.3594)">1</text><path d="m81.553 118.479h25.666v21.334h-25.666z" fill="none"/><text fill="#fff" font-family="'Lato-Bold'" font-size="12" transform="translate(90.9058 127.3945)">2</text><path d="m81.553 155.067h25.666v21.334h-25.666z" fill="none"/><text fill="#fff" font-family="'Lato-Bold'" font-size="12" transform="translate(90.9058 163.9834)">3</text><path d="m194.817 174.282c0-.192.054-.345.161-.457.108-.112.251-.17.43-.17h1.064v7.143h-.59c-.12 0-.246-.026-.378-.075-.132-.052-.251-.131-.356-.241l-3.168-3.162c-.269-.263-.525-.499-.771-.708s-.487-.384-.728-.522c-.24-.14-.482-.246-.73-.321-.247-.073-.508-.111-.781-.111-.25 0-.469.037-.658.109-.19.071-.35.174-.479.305-.129.133-.227.291-.292.476-.064.186-.098.393-.098.624 0 .211.031.405.091.586.06.18.144.34.252.479.107.14.234.257.378.354.145.096.303.168.475.215.222.082.368.188.439.316.073.131.09.318.051.563l-.165.936c-.499-.071-.938-.211-1.313-.417-.378-.206-.691-.464-.943-.773s-.442-.666-.57-1.066c-.126-.401-.19-.832-.19-1.292 0-.48.071-.92.213-1.318s.343-.739.602-1.022c.259-.282.57-.504.935-.661.366-.159.771-.239 1.218-.239.385 0 .739.058 1.065.17.327.114.639.264.937.454.298.189.586.412.863.665.279.256.562.521.85.8l2.397 2.348c-.066-.226-.118-.449-.154-.674-.036-.224-.054-.436-.054-.637v-2.677z"/><path d="m194.817 165.929c0-.19.054-.343.161-.457.108-.112.251-.169.43-.169h1.064v7.143h-.59c-.12 0-.246-.024-.378-.076-.132-.049-.251-.13-.356-.241l-3.168-3.159c-.269-.265-.525-.502-.771-.71-.245-.209-.487-.382-.728-.521s-.482-.246-.73-.32c-.247-.075-.508-.112-.781-.112-.25 0-.469.036-.658.107-.19.073-.35.175-.479.308-.129.131-.227.29-.292.475-.064.185-.098.393-.098.622 0 .212.031.408.091.587.06.181.144.34.252.479.107.139.234.257.378.353.145.097.303.168.475.216.222.082.368.188.439.317.073.129.09.316.051.561l-.165.938c-.499-.073-.938-.211-1.313-.419-.378-.206-.691-.464-.943-.774s-.442-.663-.57-1.063c-.126-.401-.19-.832-.19-1.294 0-.479.071-.919.213-1.317s.343-.738.602-1.021c.259-.284.57-.504.935-.664.366-.158.771-.236 1.218-.236.385 0 .739.057 1.065.169.327.112.639.265.937.453.298.19.586.411.863.667.279.253.562.521.85.799l2.397 2.347c-.066-.226-.118-.45-.154-.673s-.054-.436-.054-.638v-2.677z"/><path d="m191.267 156.648c.907 0 1.695.098 2.365.292s1.223.464 1.659.807.763.749.976 1.216c.214.469.32.975.32 1.517s-.106 1.046-.32 1.509c-.213.463-.539.865-.976 1.205-.437.342-.989.607-1.659.8s-1.458.288-2.365.288c-.912 0-1.701-.096-2.368-.288-.668-.192-1.22-.458-1.657-.8-.436-.34-.762-.742-.975-1.205-.214-.463-.321-.967-.321-1.509s.107-1.048.321-1.517c.213-.467.539-.873.975-1.216.438-.343.989-.612 1.657-.807.667-.194 1.456-.292 2.368-.292zm0 1.837c-.754 0-1.378.055-1.873.165-.493.111-.887.259-1.18.443s-.498.396-.615.637c-.118.24-.177.489-.177.749 0 .255.059.501.177.738.117.237.322.448.615.63.293.183.687.326 1.18.436.495.107 1.119.162 1.873.162s1.378-.055 1.871-.162c.495-.109.889-.253 1.182-.436.293-.182.498-.393.615-.63.118-.237.177-.483.177-.738 0-.26-.059-.509-.177-.749-.117-.24-.322-.452-.615-.637s-.687-.332-1.182-.443c-.493-.11-1.117-.165-1.871-.165z"/><path d="m194.881 145.158h.986c.177 0 .322.057.437.173.112.114.168.272.168.475v3.823h-2.188c-.058-.331-.188-.642-.393-.933-.204-.289-.462-.545-.773-.763s-.669-.391-1.073-.516c-.403-.124-.832-.187-1.288-.187-.533 0-.997.086-1.394.256s-.725.4-.983.691c-.259.289-.453.629-.583 1.015-.129.387-.193.796-.193 1.227 0 .434.064.842.193 1.229.13.387.324.725.583 1.013.259.287.587.517.983.687.396.171.86.256 1.394.256.456 0 .885-.063 1.288-.188.404-.125.762-.296 1.073-.515.312-.218.569-.473.773-.763.205-.291.335-.602.393-.934h2.188v3.824c0 .201-.056.359-.168.475-.114.115-.26.174-.437.174h-.986v-1.657c0-.226.011-.455.032-.69s.05-.468.082-.698c-.153.428-.366.817-.64 1.173s-.595.661-.966.914c-.369.256-.777.452-1.227.596-.449.141-.926.211-1.43.211-.691 0-1.328-.131-1.911-.392-.584-.263-1.089-.624-1.516-1.084-.428-.461-.761-1.002-1.001-1.623s-.36-1.293-.36-2.014c0-.72.12-1.39.36-2.012.24-.621.573-1.161 1.001-1.62.427-.458.932-.818 1.516-1.084.583-.264 1.22-.396 1.911-.396.504 0 .98.07 1.43.213.449.141.856.34 1.224.593.368.256.688.561.966.914.275.356.489.748.643 1.175-.032-.229-.061-.462-.082-.695s-.032-.462-.032-.688z"/><path d="m234.883 173.619h1.333v5.758h-1.333v-2.109h-6.069c-.24 0-.487-.007-.741-.021l1.253 1.497c.067.087.108.172.126.256.017.084.018.164.004.238-.016.073-.04.139-.076.197-.035.058-.075.102-.118.129l-.771.563-2.7-3.176v-1.461h9.094v-1.871z"/><path d="m231.01 164.727c.907 0 1.696.096 2.365.291.67.194 1.224.464 1.659.806.438.345.763.75.977 1.218.213.468.319.974.319 1.516s-.106 1.045-.319 1.509c-.214.463-.539.865-.977 1.205-.436.342-.989.608-1.659.799-.669.192-1.458.288-2.365.288-.911 0-1.701-.096-2.368-.288-.668-.19-1.22-.457-1.657-.799-.436-.34-.762-.742-.975-1.205-.214-.464-.321-.967-.321-1.509s.107-1.048.321-1.516c.213-.468.539-.873.975-1.218.438-.342.989-.611 1.657-.806.667-.196 1.457-.291 2.368-.291zm0 1.835c-.753 0-1.378.057-1.872.167-.494.109-.888.258-1.181.442-.293.186-.498.396-.615.638-.118.239-.177.488-.177.748 0 .255.059.501.177.738.117.237.322.447.615.63s.687.327 1.181.437c.494.107 1.119.161 1.872.161.754 0 1.378-.054 1.872-.161.494-.109.888-.254 1.181-.437s.498-.393.615-.63c.118-.237.177-.483.177-.738 0-.26-.059-.509-.177-.748-.117-.241-.322-.452-.615-.638-.293-.185-.687-.333-1.181-.442-.494-.111-1.118-.167-1.872-.167z"/><path d="m231.01 156.373c.907 0 1.696.099 2.365.293.67.195 1.224.463 1.659.807.438.342.763.748.977 1.217.213.469.319.973.319 1.516 0 .542-.106 1.045-.319 1.508-.214.464-.539.865-.977 1.207-.436.34-.989.606-1.659.799-.669.192-1.458.288-2.365.288-.911 0-1.701-.096-2.368-.288-.668-.192-1.22-.459-1.657-.799-.436-.342-.762-.743-.975-1.207-.214-.463-.321-.966-.321-1.508 0-.543.107-1.047.321-1.516.213-.469.539-.875.975-1.217.438-.344.989-.611 1.657-.807.667-.194 1.457-.293 2.368-.293zm0 1.838c-.753 0-1.378.054-1.872.164-.494.111-.888.259-1.181.443s-.498.398-.615.637c-.118.24-.177.49-.177.75 0 .254.059.5.177.737.117.238.322.448.615.63.293.183.687.328 1.181.436s1.119.162 1.872.162c.754 0 1.378-.055 1.872-.162s.888-.253 1.181-.436c.293-.182.498-.392.615-.63.118-.237.177-.483.177-.737 0-.26-.059-.51-.177-.75-.117-.238-.322-.452-.615-.637s-.687-.332-1.181-.443c-.494-.11-1.118-.164-1.872-.164z"/><path d="m234.625 144.883h.986c.178 0 .322.058.437.173.112.114.169.274.169.476v3.822h-2.189c-.058-.33-.188-.642-.393-.933-.204-.289-.462-.544-.773-.762-.312-.219-.669-.392-1.073-.516-.403-.124-.832-.188-1.288-.188-.533 0-.997.086-1.394.256-.396.171-.724.4-.983.691-.259.29-.453.629-.583 1.015-.129.387-.193.797-.193 1.229s.064.841.193 1.228c.13.387.324.724.583 1.012.26.287.588.517.983.688.396.17.86.256 1.394.256.456 0 .885-.063 1.288-.188.404-.124.762-.297 1.073-.516.312-.218.569-.472.773-.762.205-.291.335-.603.393-.933h2.189v3.822c0 .201-.057.361-.169.476-.114.115-.259.174-.437.174h-.986v-1.657c0-.225.011-.456.033-.691.021-.234.049-.468.082-.698-.154.428-.367.817-.641 1.174-.273.355-.595.66-.965.914-.369.256-.778.452-1.228.595-.448.142-.926.212-1.43.212-.691 0-1.327-.132-1.911-.392-.584-.263-1.089-.623-1.516-1.085-.428-.46-.76-1.001-1-1.623-.24-.621-.361-1.293-.361-2.013 0-.719.121-1.391.361-2.013.24-.621.572-1.16 1-1.62.427-.458.932-.818 1.516-1.082.584-.266 1.22-.396 1.911-.396.504 0 .981.07 1.43.212s.856.34 1.224.595c.368.254.689.559.966.914.275.355.489.746.644 1.174-.033-.23-.062-.462-.082-.696-.022-.231-.033-.462-.033-.687z"/><g stroke-miterlimit="10"><path d="m210.741 215.6v-35.036" fill="none" stroke="#b87332" stroke-width="2.8347"/><path d="m250.074 215.6v-35.036" fill="none" stroke="#b87332" stroke-width="2.8347"/><path d="m241.143 142.188h17.035v39.699h-17.035z" fill="none" stroke="#000" stroke-width="2.8347"/><path d="m201.637 142.02h17.035v39.699h-17.035z" fill="none" stroke="#000" stroke-width="2.8347"/><path d="m25.324 173.912v15.873" fill="none" stroke="#b87332" stroke-width="2.8347"/><path d="m37.636 200.607h-24.624" fill="none" stroke="#000" stroke-width="4.252"/><path d="m25.324 186.524v14.083" fill="none" stroke="#000" stroke-width="2.8347"/><path d="m379.734 162.807v27.26" fill="none" stroke="#b87332" stroke-width="2.8347"/><path d="m379.734 176.72v15.873" fill="none" stroke="#b87332" stroke-width="2.8347"/><path d="m392.047 203.415h-24.625" fill="none" stroke="#000" stroke-width="4.252"/><path d="m379.734 189.332v14.083" fill="none" stroke="#000" stroke-width="2.8347"/><path d="m375.523 24.971c0 .581.118 1.135.331 1.638.639 1.512 2.135 2.572 3.879 2.572 2.325 0 4.21-1.885 4.21-4.21s-1.885-4.21-4.21-4.21-4.21 1.885-4.21 4.21z" fill="#ed1f24" stroke="#000" stroke-width="2.8347"/></g><path d="m396.372 25.942h-2.794v2.968h-1.447v-2.968h-2.78v-1.317h2.78v-2.951h1.447v2.951h2.794z"/><path d="m399.956 23.487c.231-.048.453-.082.664-.104.211-.021.414-.031.611-.031.547 0 1.029.081 1.447.245.417.163.768.388 1.051.676.284.288.497.626.641 1.012.145.387.217.803.217 1.249 0 .552-.098 1.056-.292 1.513-.194.456-.464.845-.81 1.17-.346.323-.755.574-1.228.752-.474.177-.989.267-1.544.267-.327 0-.637-.033-.93-.102-.293-.066-.568-.156-.824-.27-.258-.112-.494-.242-.712-.389-.22-.146-.415-.301-.589-.464l.549-.756c.115-.163.266-.245.452-.245.121 0 .244.039.368.115.124.077.268.16.429.252.159.091.35.176.568.252.218.077.481.114.789.114.325 0 .614-.053.863-.158.25-.105.457-.253.622-.442.167-.189.291-.415.375-.677.085-.261.127-.546.127-.853 0-.566-.165-1.01-.494-1.329-.328-.319-.814-.479-1.458-.479-.495 0-1.001.092-1.519.273l-1.109-.316.864-5.055h5.141v.756c0 .255-.079.461-.237.619s-.428.237-.807.237h-2.858z"/><path d="m415.465 19.708-4.204 10.411h-1.749l-4.204-10.411h1.554c.169 0 .305.041.41.122.106.082.185.188.239.317l2.453 6.351c.082.206.16.433.234.68.075.247.146.505.214.774.056-.27.119-.527.188-.774.065-.247.141-.474.223-.68l2.439-6.351c.04-.111.115-.212.228-.302.112-.092.251-.138.415-.138h1.56z"/><path d="m379.733 37.613v25.262" fill="none" stroke="#b87332" stroke-miterlimit="10" stroke-width="2.8347"/><path d="m379.733 45.995v-16.764" fill="none" stroke="#000" stroke-miterlimit="10" stroke-width="2.8347"/><path d="m328.24 62.875h101.354v101.354h-101.354z" fill="none" stroke="#000" stroke-miterlimit="10" stroke-width="2.8347"/></svg>