<?xml version="1.0" encoding="utf-8"?>
<!-- Generator: Adobe Illustrator 16.0.0, SVG Export Plug-In . SVG Version: 6.00 Build 0)  -->
<!DOCTYPE svg PUBLIC "-//W3C//DTD SVG 1.1//EN" "http://www.w3.org/Graphics/SVG/1.1/DTD/svg11.dtd">
<svg version="1.1" id="Layer_1" xmlns="http://www.w3.org/2000/svg" xmlns:xlink="http://www.w3.org/1999/xlink" x="0px" y="0px"
	 width="496px" height="565px" viewBox="0 0 496 565" enable-background="new 0 0 496 565" xml:space="preserve">
<rect x="9.456" y="351.689" fill="#424143" width="477.311" height="121.49"/>
<g>
	<rect x="11.29" y="457.276" width="206.106" height="15.903"/>
	<rect x="282.482" y="457.276" width="206.118" height="15.903"/>
	<rect x="11.29" y="351.689" width="15.905" height="109.922"/>
	<rect x="472.68" y="351.689" width="15.921" height="105.587"/>
	<rect x="27.195" y="351.689" width="445.484" height="15.903"/>
</g>
<line fill="none" stroke="#000000" stroke-width="2.8347" stroke-miterlimit="10" x1="45.5" y1="46.633" x2="45.5" y2="11.359"/>
<line fill="none" stroke="#000000" stroke-width="2.8347" stroke-miterlimit="10" x1="454.499" y1="46.469" x2="454.499" y2="11.193"/>
<line fill="none" stroke="#B87332" stroke-width="2.8347" stroke-miterlimit="10" x1="84.371" y1="205.885" x2="84.371" y2="46.633"/>
<line fill="none" stroke="#B87332" stroke-width="2.8347" stroke-miterlimit="10" x1="84.869" y1="245.584" x2="84.869" y2="389.92"/>
<rect x="75.854" y="205.885" fill="none" stroke="#000000" stroke-width="2.8347" stroke-miterlimit="10" width="17.035" height="39.699"/>
<line fill="none" stroke="#B87332" stroke-width="2.8347" stroke-miterlimit="10" x1="67.482" y1="261.619" x2="67.482" y2="46.633"/>
<polyline fill="none" stroke="#B87332" stroke-width="2.8347" stroke-miterlimit="10" points="82,430.804 67.98,430.804 
	67.98,301.631 "/>
<line fill="none" stroke="#B87332" stroke-width="2.8347" stroke-miterlimit="10" x1="121.038" y1="205.885" x2="121.038" y2="46.633"/>
<line fill="none" stroke="#B87332" stroke-width="2.8347" stroke-miterlimit="10" x1="121.536" y1="245.584" x2="121.536" y2="389.92"/>
<rect x="112.52" y="205.885" fill="none" stroke="#000000" stroke-width="2.8347" stroke-miterlimit="10" width="17.035" height="39.699"/>
<line fill="none" stroke="#B87332" stroke-width="2.8347" stroke-miterlimit="10" x1="104.149" y1="261.619" x2="104.149" y2="46.633"/>
<polyline fill="none" stroke="#B87332" stroke-width="2.8347" stroke-miterlimit="10" points="118.667,430.804 104.647,430.804 
	104.647,301.631 "/>
<line fill="none" stroke="#B87332" stroke-width="2.8347" stroke-miterlimit="10" x1="157.371" y1="205.885" x2="157.371" y2="46.633"/>
<line fill="none" stroke="#B87332" stroke-width="2.8347" stroke-miterlimit="10" x1="157.869" y1="245.584" x2="157.869" y2="389.92"/>
<rect x="148.854" y="205.885" fill="none" stroke="#000000" stroke-width="2.8347" stroke-miterlimit="10" width="17.035" height="39.699"/>
<line fill="none" stroke="#B87332" stroke-width="2.8347" stroke-miterlimit="10" x1="140.482" y1="261.619" x2="140.482" y2="46.633"/>
<polyline fill="none" stroke="#B87332" stroke-width="2.8347" stroke-miterlimit="10" points="155,430.804 140.98,430.804 
	140.98,301.631 "/>
<line fill="none" stroke="#B87332" stroke-width="2.8347" stroke-miterlimit="10" x1="194.502" y1="205.885" x2="194.502" y2="46.633"/>
<line fill="none" stroke="#B87332" stroke-width="2.8347" stroke-miterlimit="10" x1="195" y1="245.584" x2="195" y2="389.92"/>
<rect x="185.984" y="205.885" fill="none" stroke="#000000" stroke-width="2.8347" stroke-miterlimit="10" width="17.035" height="39.699"/>
<line fill="none" stroke="#B87332" stroke-width="2.8347" stroke-miterlimit="10" x1="177.613" y1="261.619" x2="177.613" y2="46.633"/>
<polyline fill="none" stroke="#B87332" stroke-width="2.8347" stroke-miterlimit="10" points="192.131,430.804 178.111,430.804 
	178.111,301.631 "/>
<line fill="none" stroke="#B87332" stroke-width="2.8347" stroke-miterlimit="10" x1="231.371" y1="205.885" x2="231.371" y2="46.633"/>
<line fill="none" stroke="#B87332" stroke-width="2.8347" stroke-miterlimit="10" x1="231.869" y1="245.584" x2="231.869" y2="389.92"/>
<rect x="222.854" y="205.885" fill="none" stroke="#000000" stroke-width="2.8347" stroke-miterlimit="10" width="17.035" height="39.699"/>
<line fill="none" stroke="#B87332" stroke-width="2.8347" stroke-miterlimit="10" x1="214.482" y1="261.619" x2="214.482" y2="46.633"/>
<polyline fill="none" stroke="#B87332" stroke-width="2.8347" stroke-miterlimit="10" points="229,430.804 214.98,430.804 
	214.98,301.631 "/>
<rect x="58.965" y="261.619" fill="none" stroke="#000000" stroke-width="2.8347" stroke-miterlimit="10" width="17.035" height="39.699"/>
<rect x="95.631" y="261.619" fill="none" stroke="#000000" stroke-width="2.8347" stroke-miterlimit="10" width="17.035" height="39.699"/>
<rect x="131.965" y="261.619" fill="none" stroke="#000000" stroke-width="2.8347" stroke-miterlimit="10" width="17.035" height="39.699"/>
<rect x="169.096" y="261.619" fill="none" stroke="#000000" stroke-width="2.8347" stroke-miterlimit="10" width="17.035" height="39.699"/>
<rect x="205.965" y="261.619" fill="none" stroke="#000000" stroke-width="2.8347" stroke-miterlimit="10" width="17.035" height="39.699"/>
<line fill="none" stroke="#B87332" stroke-width="2.8347" stroke-miterlimit="10" x1="267.982" y1="205.885" x2="267.982" y2="46.633"/>
<line fill="none" stroke="#B87332" stroke-width="2.8347" stroke-miterlimit="10" x1="268.48" y1="245.584" x2="268.48" y2="389.92"/>
<rect x="259.465" y="205.885" fill="none" stroke="#000000" stroke-width="2.8347" stroke-miterlimit="10" width="17.035" height="39.699"/>
<line fill="none" stroke="#B87332" stroke-width="2.8347" stroke-miterlimit="10" x1="251.094" y1="261.619" x2="251.094" y2="46.633"/>
<polyline fill="none" stroke="#B87332" stroke-width="2.8347" stroke-miterlimit="10" points="265.611,430.804 251.592,430.804 
	251.592,301.631 "/>
<g>
	<rect x="79.99" y="389.434" fill="#C3996C" width="9.262" height="9.264"/>
	<rect x="116.723" y="389.434" fill="#C3996C" width="9.264" height="9.264"/>
	<rect x="153.461" y="389.434" fill="#C3996C" width="9.262" height="9.264"/>
	<rect x="190.194" y="389.434" fill="#C3996C" width="9.263" height="9.264"/>
	<rect x="116.723" y="426.174" fill="#C3996C" width="9.264" height="9.26"/>
	<rect x="153.461" y="426.174" fill="#C3996C" width="9.262" height="9.26"/>
	<rect x="190.194" y="426.174" fill="#C3996C" width="9.263" height="9.26"/>
	<rect x="226.938" y="389.434" fill="#C3996C" width="9.264" height="9.264"/>
	<rect x="263.67" y="389.434" fill="#C3996C" width="9.262" height="9.264"/>
	<rect x="300.41" y="389.434" fill="#C3996C" width="9.263" height="9.264"/>
	<rect x="337.143" y="389.434" fill="#C3996C" width="9.264" height="9.264"/>
	<rect x="226.938" y="426.174" fill="#C3996C" width="9.264" height="9.26"/>
	<rect x="263.67" y="426.174" fill="#C3996C" width="9.262" height="9.26"/>
	<rect x="300.41" y="426.174" fill="#C3996C" width="9.263" height="9.26"/>
	<rect x="337.143" y="426.174" fill="#C3996C" width="9.264" height="9.26"/>
	<rect x="373.892" y="389.434" fill="#C3996C" width="9.264" height="9.264"/>
	<rect x="410.627" y="389.434" fill="#C3996C" width="9.262" height="9.264"/>
	<rect x="373.892" y="426.174" fill="#C3996C" width="9.264" height="9.26"/>
	<rect x="410.627" y="426.174" fill="#C3996C" width="9.262" height="9.26"/>
	<rect x="79.99" y="426.174" fill="#C3996C" width="9.262" height="9.26"/>
</g>
<rect x="242.576" y="261.619" fill="none" stroke="#000000" stroke-width="2.8347" stroke-miterlimit="10" width="17.035" height="39.699"/>
<rect x="78.483" y="401.603" fill="none" width="25.666" height="21.334"/>
<text transform="matrix(1 0 0 1 87.8359 410.5176)" fill="#FFFFFF" font-family="'Lato-Bold'" font-size="12">2</text>
<rect x="78.483" y="437.942" fill="none" width="25.666" height="21.334"/>
<text transform="matrix(1 0 0 1 87.8359 446.8594)" fill="#FFFFFF" font-family="'Lato-Bold'" font-size="12">1</text>
<rect x="113.153" y="401.603" fill="none" width="25.666" height="21.334"/>
<text transform="matrix(1 0 0 1 122.5063 410.5176)" fill="#FFFFFF" font-family="'Lato-Bold'" font-size="12">4</text>
<rect x="113.153" y="437.942" fill="none" width="25.666" height="21.334"/>
<text transform="matrix(1 0 0 1 122.5063 446.8594)" fill="#FFFFFF" font-family="'Lato-Bold'" font-size="12">3</text>
<rect x="149.89" y="401.603" fill="none" width="25.666" height="21.334"/>
<text transform="matrix(1 0 0 1 159.2427 410.5176)" fill="#FFFFFF" font-family="'Lato-Bold'" font-size="12">6</text>
<rect x="149.89" y="437.942" fill="none" width="25.666" height="21.334"/>
<text transform="matrix(1 0 0 1 159.2427 446.8594)" fill="#FFFFFF" font-family="'Lato-Bold'" font-size="12">5</text>
<rect x="186.624" y="401.603" fill="none" width="25.666" height="21.334"/>
<text transform="matrix(1 0 0 1 195.9771 410.5176)" fill="#FFFFFF" font-family="'Lato-Bold'" font-size="12">8</text>
<rect x="186.624" y="437.942" fill="none" width="25.666" height="21.334"/>
<text transform="matrix(1 0 0 1 195.9771 446.8594)" fill="#FFFFFF" font-family="'Lato-Bold'" font-size="12">7</text>
<rect x="223.369" y="401.603" fill="none" width="25.666" height="21.334"/>
<text transform="matrix(1 0 0 1 229.2422 410.5176)" fill="#FFFFFF" font-family="'Lato-Bold'" font-size="12">10</text>
<rect x="223.369" y="437.942" fill="none" width="25.666" height="21.334"/>
<text transform="matrix(1 0 0 1 232.7222 446.8594)" fill="#FFFFFF" font-family="'Lato-Bold'" font-size="12">9</text>
<rect x="260.098" y="401.603" fill="none" width="25.666" height="21.334"/>
<text transform="matrix(1 0 0 1 265.9707 410.5176)" fill="#FFFFFF" font-family="'Lato-Bold'" font-size="12">12</text>
<rect x="260.098" y="437.942" fill="none" width="25.666" height="21.334"/>
<text transform="matrix(1 0 0 1 265.9707 446.8594)" fill="#FFFFFF" font-family="'Lato-Bold'" font-size="12">11</text>
<g>
	<path fill="#FFFFFF" d="M313.923,409.408v1.109h-4.8v-1.109h1.758v-5.059c0-0.199,0.006-0.406,0.018-0.617l-1.248,1.043
		c-0.071,0.057-0.143,0.092-0.213,0.105s-0.136,0.016-0.197,0.004c-0.063-0.014-0.117-0.033-0.166-0.064
		c-0.047-0.029-0.084-0.063-0.107-0.098l-0.468-0.643l2.646-2.25h1.219v7.578H313.923z"/>
	<path fill="#FFFFFF" d="M321.326,407.248v0.857c0,0.08-0.025,0.15-0.077,0.207c-0.052,0.059-0.126,0.088-0.222,0.088h-0.793v2.117
		h-1.289V408.4h-3.66c-0.1,0-0.188-0.031-0.264-0.094c-0.076-0.063-0.125-0.139-0.145-0.23l-0.156-0.75l4.11-5.49h1.403v5.412
		H321.326z M318.945,407.248v-2.838c0-0.268,0.018-0.564,0.054-0.889l-2.694,3.727H318.945z"/>
</g>
<g>
	<path fill="#FFFFFF" d="M313.923,445.748v1.111h-4.8v-1.111h1.758v-5.057c0-0.201,0.006-0.406,0.018-0.619l-1.248,1.045
		c-0.071,0.057-0.143,0.09-0.213,0.105c-0.07,0.014-0.136,0.014-0.197,0.002c-0.063-0.012-0.117-0.033-0.166-0.063
		c-0.047-0.029-0.084-0.063-0.107-0.1l-0.468-0.643l2.646-2.25h1.219v7.578H313.923z"/>
	<path fill="#FFFFFF" d="M315.32,440.602c0.061-0.416,0.176-0.781,0.349-1.096c0.172-0.314,0.387-0.576,0.646-0.785
		c0.258-0.211,0.553-0.369,0.887-0.475s0.693-0.16,1.078-0.16c0.399,0,0.761,0.059,1.082,0.172c0.322,0.113,0.598,0.271,0.826,0.475
		c0.228,0.201,0.402,0.439,0.524,0.711s0.183,0.566,0.183,0.881c0,0.277-0.031,0.52-0.093,0.73
		c-0.062,0.209-0.151,0.393-0.267,0.549c-0.116,0.156-0.26,0.287-0.432,0.395c-0.173,0.109-0.367,0.199-0.582,0.271
		c0.52,0.164,0.907,0.414,1.164,0.75c0.256,0.336,0.383,0.758,0.383,1.266c0,0.432-0.08,0.814-0.24,1.146
		c-0.159,0.332-0.375,0.609-0.647,0.836s-0.587,0.396-0.944,0.514c-0.358,0.115-0.737,0.174-1.138,0.174
		c-0.437,0-0.815-0.051-1.14-0.15s-0.605-0.248-0.846-0.443c-0.24-0.197-0.444-0.436-0.612-0.721
		c-0.168-0.283-0.312-0.611-0.433-0.984l0.654-0.27c0.172-0.072,0.333-0.09,0.483-0.057c0.149,0.033,0.259,0.115,0.327,0.242
		c0.072,0.141,0.15,0.279,0.236,0.414c0.086,0.137,0.189,0.258,0.309,0.363c0.121,0.105,0.262,0.191,0.424,0.258
		s0.355,0.1,0.579,0.1c0.252,0,0.472-0.041,0.659-0.123c0.188-0.082,0.346-0.189,0.472-0.32c0.126-0.133,0.22-0.279,0.282-0.441
		c0.062-0.162,0.093-0.326,0.093-0.49c0-0.207-0.022-0.396-0.065-0.566c-0.045-0.17-0.137-0.314-0.277-0.436
		c-0.139-0.119-0.34-0.213-0.602-0.281c-0.263-0.068-0.613-0.102-1.054-0.102v-1.057c0.364-0.004,0.666-0.037,0.905-0.102
		c0.24-0.064,0.432-0.152,0.574-0.268c0.142-0.113,0.24-0.25,0.297-0.41c0.056-0.16,0.084-0.336,0.084-0.529
		c0-0.406-0.114-0.717-0.342-0.93c-0.229-0.211-0.533-0.318-0.912-0.318c-0.177,0-0.338,0.025-0.486,0.076
		c-0.148,0.049-0.281,0.119-0.398,0.209c-0.119,0.09-0.218,0.195-0.298,0.316c-0.08,0.119-0.14,0.252-0.18,0.395
		c-0.068,0.186-0.157,0.307-0.267,0.367c-0.111,0.061-0.266,0.074-0.465,0.041L315.32,440.602z"/>
</g>
<g>
	<path fill="#FFFFFF" d="M350.656,409.408v1.109h-4.799v-1.109h1.758v-5.059c0-0.199,0.006-0.406,0.018-0.617l-1.248,1.043
		c-0.072,0.057-0.143,0.092-0.213,0.105s-0.137,0.016-0.198,0.004c-0.062-0.014-0.116-0.033-0.165-0.064
		c-0.048-0.029-0.084-0.063-0.107-0.098l-0.469-0.643l2.646-2.25h1.218v7.578H350.656z"/>
	<path fill="#FFFFFF" d="M354.539,404.992l-0.301,0.371c0.168-0.084,0.35-0.148,0.543-0.193c0.194-0.047,0.403-0.07,0.627-0.07
		c0.328,0,0.647,0.055,0.957,0.162c0.311,0.107,0.584,0.271,0.819,0.49c0.236,0.217,0.427,0.488,0.57,0.813s0.216,0.701,0.216,1.133
		c0,0.404-0.074,0.783-0.223,1.139c-0.147,0.354-0.355,0.662-0.623,0.926s-0.592,0.473-0.969,0.625
		c-0.379,0.15-0.795,0.227-1.252,0.227c-0.463,0-0.879-0.074-1.248-0.221c-0.367-0.148-0.682-0.355-0.941-0.621
		s-0.459-0.586-0.598-0.961c-0.137-0.373-0.207-0.789-0.207-1.244c0-0.408,0.084-0.828,0.25-1.258s0.422-0.877,0.771-1.34
		l2.07-2.779c0.071-0.096,0.177-0.178,0.315-0.246c0.137-0.066,0.297-0.102,0.477-0.102h1.32L354.539,404.992z M354.875,409.402
		c0.236,0,0.453-0.041,0.65-0.121c0.198-0.08,0.368-0.191,0.51-0.336c0.143-0.143,0.254-0.313,0.334-0.506
		c0.08-0.195,0.119-0.406,0.119-0.633c0-0.248-0.037-0.471-0.113-0.67c-0.076-0.197-0.184-0.365-0.324-0.504
		s-0.309-0.242-0.504-0.314c-0.196-0.072-0.412-0.107-0.648-0.107s-0.449,0.039-0.642,0.119s-0.356,0.191-0.492,0.332
		c-0.136,0.143-0.242,0.311-0.317,0.506c-0.076,0.193-0.115,0.402-0.115,0.627c0,0.238,0.033,0.459,0.1,0.656
		s0.164,0.367,0.294,0.508c0.13,0.139,0.291,0.248,0.483,0.326C354.4,409.363,354.623,409.402,354.875,409.402z"/>
</g>
<g>
	<path fill="#FFFFFF" d="M350.656,445.748v1.111h-4.799v-1.111h1.758v-5.057c0-0.201,0.006-0.406,0.018-0.619l-1.248,1.045
		c-0.072,0.057-0.143,0.09-0.213,0.105c-0.07,0.014-0.137,0.014-0.198,0.002s-0.116-0.033-0.165-0.063
		c-0.048-0.029-0.084-0.063-0.107-0.1l-0.469-0.643l2.646-2.25h1.218v7.578H350.656z"/>
	<path fill="#FFFFFF" d="M353.843,441.332c0.192-0.039,0.376-0.068,0.552-0.086s0.346-0.027,0.51-0.027
		c0.457,0,0.858,0.068,1.207,0.205c0.348,0.135,0.639,0.322,0.875,0.563s0.414,0.521,0.534,0.844s0.181,0.668,0.181,1.041
		c0,0.459-0.082,0.879-0.244,1.26c-0.161,0.381-0.387,0.705-0.674,0.975c-0.289,0.27-0.629,0.479-1.023,0.627
		s-0.823,0.223-1.287,0.223c-0.271,0-0.529-0.027-0.773-0.084s-0.474-0.131-0.688-0.225s-0.412-0.203-0.594-0.324
		c-0.182-0.123-0.346-0.252-0.489-0.387l0.456-0.631c0.096-0.135,0.223-0.203,0.378-0.203c0.101,0,0.202,0.031,0.306,0.096
		c0.104,0.064,0.223,0.133,0.357,0.209c0.134,0.076,0.292,0.146,0.475,0.211c0.182,0.064,0.4,0.096,0.656,0.096
		c0.271,0,0.512-0.045,0.721-0.133c0.207-0.088,0.381-0.211,0.519-0.369c0.138-0.156,0.241-0.346,0.312-0.563
		c0.07-0.219,0.105-0.455,0.105-0.711c0-0.473-0.137-0.842-0.411-1.107s-0.679-0.398-1.215-0.398c-0.412,0-0.834,0.076-1.267,0.227
		l-0.924-0.264l0.721-4.211h4.283v0.629c0,0.213-0.065,0.385-0.197,0.516c-0.133,0.133-0.356,0.199-0.672,0.199h-2.383
		L353.843,441.332z"/>
</g>
<g>
	<path fill="#FFFFFF" d="M387.405,409.408v1.109h-4.8v-1.109h1.758v-5.059c0-0.199,0.006-0.406,0.018-0.617l-1.248,1.043
		c-0.071,0.057-0.143,0.092-0.213,0.105s-0.136,0.016-0.197,0.004c-0.063-0.014-0.117-0.033-0.166-0.064
		c-0.047-0.029-0.084-0.063-0.107-0.098l-0.468-0.643l2.646-2.25h1.219v7.578H387.405z"/>
	<path fill="#FFFFFF" d="M393.1,405.994c0.527,0.172,0.918,0.436,1.17,0.789s0.378,0.787,0.378,1.299
		c0,0.385-0.073,0.732-0.22,1.045c-0.146,0.311-0.351,0.578-0.614,0.797c-0.265,0.221-0.581,0.391-0.951,0.51
		c-0.37,0.121-0.779,0.18-1.228,0.18c-0.447,0-0.856-0.059-1.227-0.18c-0.37-0.119-0.688-0.289-0.951-0.51
		c-0.264-0.219-0.469-0.486-0.615-0.797c-0.146-0.313-0.219-0.66-0.219-1.045c0-0.512,0.127-0.945,0.379-1.299
		s0.641-0.617,1.17-0.789c-0.42-0.176-0.736-0.426-0.945-0.75c-0.211-0.324-0.315-0.715-0.315-1.17c0-0.328,0.067-0.635,0.201-0.918
		s0.321-0.531,0.562-0.74c0.239-0.211,0.526-0.375,0.86-0.492c0.334-0.119,0.701-0.178,1.101-0.178c0.4,0,0.768,0.059,1.102,0.178
		c0.334,0.117,0.621,0.281,0.861,0.492c0.24,0.209,0.427,0.457,0.561,0.74c0.135,0.283,0.201,0.59,0.201,0.918
		c0,0.455-0.105,0.846-0.314,1.17C393.834,405.568,393.52,405.818,393.1,405.994z M391.635,409.457c0.244,0,0.459-0.035,0.643-0.105
		s0.339-0.168,0.465-0.291c0.126-0.125,0.221-0.271,0.285-0.445c0.064-0.172,0.096-0.357,0.096-0.557
		c0-0.477-0.132-0.836-0.396-1.08c-0.264-0.244-0.627-0.367-1.092-0.367c-0.463,0-0.828,0.123-1.092,0.367s-0.396,0.604-0.396,1.08
		c0,0.199,0.032,0.385,0.096,0.557c0.063,0.174,0.159,0.32,0.285,0.445c0.126,0.123,0.28,0.221,0.465,0.291
		S391.391,409.457,391.635,409.457z M391.635,402.861c-0.22,0-0.41,0.035-0.569,0.104c-0.16,0.066-0.294,0.158-0.399,0.271
		c-0.105,0.115-0.184,0.246-0.234,0.395c-0.049,0.146-0.074,0.303-0.074,0.467c0,0.172,0.021,0.34,0.063,0.502
		c0.043,0.162,0.113,0.305,0.213,0.432c0.101,0.125,0.232,0.227,0.396,0.303s0.366,0.113,0.605,0.113
		c0.24,0,0.442-0.037,0.606-0.113s0.296-0.178,0.396-0.303c0.101-0.127,0.172-0.27,0.213-0.432c0.043-0.162,0.063-0.33,0.063-0.502
		c0-0.164-0.026-0.32-0.077-0.467c-0.053-0.148-0.131-0.279-0.234-0.395c-0.104-0.113-0.236-0.205-0.396-0.271
		C392.045,402.896,391.855,402.861,391.635,402.861z"/>
</g>
<g>
	<path fill="#FFFFFF" d="M387.405,445.748v1.111h-4.8v-1.111h1.758v-5.057c0-0.201,0.006-0.406,0.018-0.619l-1.248,1.045
		c-0.071,0.057-0.143,0.09-0.213,0.105c-0.07,0.014-0.136,0.014-0.197,0.002c-0.063-0.012-0.117-0.033-0.166-0.063
		c-0.047-0.029-0.084-0.063-0.107-0.1l-0.468-0.643l2.646-2.25h1.219v7.578H387.405z"/>
	<path fill="#FFFFFF" d="M394.707,438.184v0.641c0,0.193-0.02,0.348-0.06,0.465c-0.04,0.119-0.08,0.219-0.12,0.297l-3.288,6.77
		c-0.067,0.139-0.164,0.258-0.288,0.355c-0.124,0.1-0.29,0.148-0.498,0.148h-1.074l3.354-6.631c0.075-0.135,0.151-0.26,0.226-0.375
		c0.073-0.113,0.156-0.223,0.248-0.326h-4.152c-0.092,0-0.172-0.035-0.239-0.102c-0.068-0.068-0.103-0.148-0.103-0.24v-1.002
		H394.707z"/>
</g>
<g>
	<path fill="#FFFFFF" d="M423.814,409.139c0.16,0,0.287,0.045,0.381,0.135s0.142,0.209,0.142,0.357v0.887h-5.952v-0.492
		c0-0.1,0.021-0.205,0.063-0.314c0.043-0.109,0.109-0.209,0.201-0.297l2.635-2.641c0.219-0.223,0.416-0.438,0.59-0.641
		c0.175-0.205,0.32-0.406,0.436-0.607c0.116-0.199,0.205-0.402,0.268-0.607c0.062-0.207,0.093-0.424,0.093-0.652
		c0-0.207-0.03-0.391-0.091-0.549c-0.06-0.158-0.145-0.291-0.254-0.398c-0.11-0.107-0.242-0.189-0.396-0.244
		c-0.154-0.053-0.327-0.08-0.52-0.08c-0.176,0-0.338,0.025-0.488,0.074c-0.15,0.051-0.283,0.121-0.399,0.211
		s-0.214,0.195-0.294,0.314c-0.08,0.121-0.141,0.252-0.18,0.396c-0.068,0.184-0.156,0.307-0.264,0.365
		c-0.108,0.061-0.265,0.074-0.469,0.043l-0.779-0.139c0.06-0.416,0.176-0.781,0.348-1.094c0.172-0.314,0.387-0.576,0.645-0.787
		c0.258-0.209,0.555-0.367,0.889-0.475c0.334-0.105,0.693-0.158,1.076-0.158c0.4,0,0.767,0.059,1.099,0.178
		c0.332,0.117,0.616,0.285,0.853,0.5c0.235,0.217,0.42,0.477,0.551,0.779c0.133,0.305,0.199,0.643,0.199,1.016
		c0,0.32-0.048,0.615-0.142,0.887c-0.095,0.273-0.22,0.533-0.378,0.781s-0.344,0.488-0.555,0.719
		c-0.213,0.232-0.435,0.469-0.666,0.709l-1.957,1.998c0.188-0.057,0.375-0.1,0.562-0.129c0.187-0.031,0.363-0.045,0.531-0.045
		H423.814z"/>
	<path fill="#FFFFFF" d="M431.549,406.18c0,0.756-0.081,1.414-0.243,1.971c-0.162,0.559-0.386,1.02-0.672,1.383
		c-0.286,0.365-0.624,0.637-1.015,0.814c-0.39,0.178-0.811,0.266-1.263,0.266s-0.87-0.088-1.257-0.266s-0.721-0.449-1.005-0.814
		c-0.284-0.363-0.507-0.824-0.666-1.383c-0.16-0.557-0.24-1.215-0.24-1.971c0-0.76,0.08-1.418,0.24-1.973
		c0.159-0.557,0.382-1.018,0.666-1.381s0.618-0.635,1.005-0.813s0.805-0.268,1.257-0.268s0.873,0.09,1.263,0.268
		c0.391,0.178,0.729,0.449,1.015,0.813s0.51,0.824,0.672,1.381C431.468,404.762,431.549,405.42,431.549,406.18z M430.019,406.18
		c0-0.627-0.046-1.148-0.138-1.561c-0.092-0.41-0.215-0.738-0.369-0.982s-0.331-0.416-0.531-0.514
		c-0.199-0.098-0.408-0.146-0.624-0.146c-0.212,0-0.417,0.049-0.614,0.146c-0.199,0.098-0.373,0.27-0.525,0.514
		s-0.273,0.572-0.363,0.982c-0.09,0.412-0.135,0.934-0.135,1.561c0,0.629,0.045,1.148,0.135,1.561s0.211,0.74,0.363,0.984
		s0.326,0.414,0.525,0.512c0.197,0.1,0.402,0.148,0.614,0.148c0.216,0,0.425-0.049,0.624-0.148c0.2-0.098,0.377-0.268,0.531-0.512
		s0.277-0.572,0.369-0.984S430.019,406.809,430.019,406.18z"/>
</g>
<g>
	<path fill="#FFFFFF" d="M424.139,445.748v1.111h-4.8v-1.111h1.758v-5.057c0-0.201,0.006-0.406,0.019-0.619l-1.248,1.045
		c-0.072,0.057-0.144,0.09-0.213,0.105c-0.07,0.014-0.137,0.014-0.199,0.002c-0.062-0.012-0.116-0.033-0.164-0.063
		c-0.049-0.029-0.084-0.063-0.108-0.1l-0.468-0.643l2.646-2.25h1.217v7.578H424.139z"/>
	<path fill="#FFFFFF" d="M428.837,443.492c0.067-0.084,0.132-0.166,0.192-0.246c0.06-0.08,0.117-0.158,0.174-0.238
		c-0.201,0.127-0.42,0.225-0.66,0.291c-0.24,0.064-0.492,0.098-0.756,0.098c-0.301,0-0.594-0.051-0.883-0.156
		c-0.287-0.104-0.543-0.26-0.768-0.471c-0.225-0.209-0.405-0.469-0.543-0.779c-0.139-0.311-0.207-0.674-0.207-1.09
		c0-0.387,0.072-0.752,0.216-1.092s0.347-0.637,0.606-0.895c0.26-0.256,0.572-0.457,0.936-0.605
		c0.364-0.148,0.766-0.223,1.206-0.223c0.444,0,0.843,0.07,1.197,0.211s0.655,0.336,0.905,0.588s0.442,0.555,0.576,0.906
		c0.135,0.352,0.201,0.738,0.201,1.158c0,0.268-0.023,0.521-0.068,0.762c-0.047,0.24-0.111,0.471-0.195,0.693
		c-0.084,0.221-0.186,0.439-0.307,0.65c-0.119,0.213-0.254,0.422-0.401,0.631l-1.986,2.832c-0.067,0.096-0.17,0.176-0.306,0.242
		c-0.137,0.066-0.29,0.1-0.462,0.1h-1.362L428.837,443.492z M426.869,440.787c0,0.484,0.125,0.854,0.375,1.107
		s0.604,0.381,1.064,0.381c0.24,0,0.454-0.039,0.643-0.115c0.188-0.076,0.346-0.18,0.474-0.311c0.128-0.133,0.226-0.289,0.291-0.469
		s0.099-0.373,0.099-0.582c0-0.236-0.035-0.447-0.107-0.633s-0.174-0.344-0.307-0.471c-0.132-0.129-0.289-0.227-0.471-0.295
		s-0.381-0.102-0.598-0.102c-0.224,0-0.426,0.037-0.605,0.111s-0.334,0.176-0.462,0.309s-0.226,0.289-0.294,0.471
		S426.869,440.57,426.869,440.787z"/>
</g>
<line fill="none" stroke="#B87332" stroke-width="2.8347" stroke-miterlimit="10" x1="341.774" y1="312.129" x2="341.774" y2="389.945"/>
<line fill="none" stroke="#B87332" stroke-width="2.8347" stroke-miterlimit="10" x1="378.523" y1="312.129" x2="378.523" y2="389.945"/>
<line fill="none" stroke="#B87332" stroke-width="2.8347" stroke-miterlimit="10" x1="415.258" y1="312.129" x2="415.258" y2="389.945"/>
<path fill="#B87332" d="M337.564,312.129c0-0.581,0.118-1.135,0.331-1.638c0.639-1.512,2.135-2.572,3.879-2.572
	c2.325,0,4.21,1.885,4.21,4.21s-1.885,4.21-4.21,4.21S337.564,314.454,337.564,312.129z"/>
<path fill="#B87332" d="M374.313,312.129c0-0.581,0.118-1.135,0.331-1.638c0.639-1.512,2.135-2.572,3.879-2.572
	c2.325,0,4.21,1.885,4.21,4.21s-1.885,4.21-4.21,4.21S374.313,314.454,374.313,312.129z"/>
<polyline fill="none" stroke="#B87332" stroke-width="2.8347" stroke-miterlimit="10" points="415.258,312.129 305.041,312.129 
	305.041,389.945 "/>
<path fill="#B87332" d="M411.048,312.129c0-0.581,0.118-1.135,0.331-1.638c0.639-1.512,2.135-2.572,3.879-2.572
	c2.325,0,4.21,1.885,4.21,4.21s-1.885,4.21-4.21,4.21S411.048,314.454,411.048,312.129z"/>
<line fill="none" stroke="#B87332" stroke-width="2.8347" stroke-miterlimit="10" x1="305.244" y1="507.648" x2="305.244" y2="435.436"/>
<line fill="none" stroke="#B87332" stroke-width="2.8347" stroke-miterlimit="10" x1="378.523" y1="513.505" x2="378.523" y2="435.688"/>
<path fill="#B87332" d="M382.733,513.505c0,0.581-0.118,1.135-0.331,1.638c-0.639,1.512-2.135,2.572-3.879,2.572
	c-2.325,0-4.21-1.885-4.21-4.21s1.885-4.21,4.21-4.21S382.733,511.18,382.733,513.505z"/>
<line fill="none" stroke="#B87332" stroke-width="2.8347" stroke-miterlimit="10" x1="415.258" y1="513.505" x2="415.258" y2="435.688"/>
<path fill="#B87332" d="M419.468,513.505c0,0.581-0.118,1.135-0.331,1.638c-0.639,1.512-2.135,2.572-3.879,2.572
	c-2.325,0-4.21-1.885-4.21-4.21s1.885-4.21,4.21-4.21S419.468,511.18,419.468,513.505z"/>
<polyline fill="none" stroke="#B87332" stroke-width="2.8347" stroke-miterlimit="10" points="415.258,547.285 415.258,513.252 
	341.774,513.252 341.774,435.436 "/>
<g>
	<path d="M209.627,21.375c-0.072,0.12-0.15,0.211-0.234,0.271s-0.186,0.09-0.306,0.09c-0.136,0-0.296-0.067-0.479-0.204
		c-0.185-0.136-0.414-0.285-0.69-0.449s-0.608-0.314-0.996-0.451c-0.388-0.135-0.858-0.203-1.41-0.203
		c-0.521,0-0.978,0.07-1.374,0.209c-0.396,0.141-0.729,0.33-0.996,0.57s-0.47,0.522-0.605,0.846
		c-0.137,0.324-0.205,0.675-0.205,1.051c0,0.48,0.119,0.878,0.354,1.193c0.235,0.316,0.548,0.586,0.937,0.811
		c0.388,0.225,0.828,0.418,1.32,0.582c0.491,0.164,0.995,0.334,1.512,0.51c0.516,0.176,1.02,0.374,1.512,0.594
		c0.492,0.221,0.932,0.498,1.32,0.834c0.388,0.336,0.699,0.748,0.936,1.236s0.354,1.088,0.354,1.8c0,0.753-0.127,1.458-0.383,2.118
		c-0.257,0.66-0.631,1.234-1.123,1.723c-0.492,0.487-1.096,0.871-1.812,1.151s-1.53,0.42-2.442,0.42
		c-1.119,0-2.136-0.202-3.048-0.606c-0.911-0.403-1.692-0.949-2.34-1.637l0.672-1.104c0.063-0.089,0.142-0.162,0.234-0.222
		c0.092-0.061,0.194-0.09,0.306-0.09c0.104,0,0.223,0.041,0.354,0.125c0.133,0.084,0.283,0.19,0.451,0.318s0.359,0.268,0.575,0.42
		s0.462,0.292,0.738,0.42s0.59,0.234,0.942,0.318c0.352,0.084,0.748,0.125,1.188,0.125c0.553,0,1.044-0.075,1.477-0.227
		c0.432-0.152,0.797-0.367,1.098-0.643c0.3-0.276,0.529-0.605,0.689-0.99c0.16-0.384,0.24-0.813,0.24-1.283
		c0-0.521-0.118-0.947-0.354-1.279c-0.236-0.331-0.547-0.609-0.93-0.834c-0.385-0.223-0.824-0.414-1.32-0.569
		c-0.496-0.156-1-0.315-1.512-0.479c-0.513-0.164-1.017-0.354-1.513-0.57c-0.496-0.217-0.937-0.496-1.319-0.84
		c-0.385-0.344-0.695-0.774-0.931-1.291c-0.235-0.516-0.354-1.153-0.354-1.914c0-0.607,0.119-1.195,0.354-1.764
		c0.235-0.567,0.58-1.072,1.032-1.512c0.451-0.439,1.008-0.792,1.668-1.057c0.66-0.264,1.418-0.396,2.273-0.396
		c0.961,0,1.834,0.152,2.623,0.456c0.787,0.305,1.481,0.744,2.082,1.32L209.627,21.375z"/>
	<path d="M225.479,20.643h-5.568v15.24h-2.315v-15.24h-5.58v-1.955h13.464V20.643z"/>
	<path d="M245.914,18.688v17.195h-2.039V23.247c0-0.168,0.006-0.348,0.018-0.54c0.012-0.191,0.025-0.388,0.042-0.588l-5.903,10.752
		c-0.185,0.36-0.465,0.54-0.841,0.54h-0.336c-0.376,0-0.655-0.18-0.84-0.54l-6.024-10.8c0.049,0.425,0.072,0.815,0.072,1.176v12.636
		h-2.04V18.688h1.716c0.209,0,0.368,0.02,0.48,0.06c0.111,0.04,0.22,0.152,0.324,0.337l5.939,10.584
		c0.096,0.191,0.189,0.392,0.282,0.6c0.092,0.208,0.178,0.42,0.258,0.636c0.08-0.216,0.164-0.431,0.253-0.642
		c0.088-0.213,0.184-0.414,0.287-0.606l5.832-10.571c0.096-0.185,0.202-0.297,0.318-0.337c0.115-0.04,0.277-0.06,0.486-0.06H245.914
		z"/>
	<path d="M249.67,23.344c0.113-0.784,0.328-1.479,0.648-2.082c0.32-0.604,0.727-1.11,1.219-1.519
		c0.492-0.407,1.057-0.718,1.691-0.93c0.637-0.212,1.322-0.318,2.059-0.318c0.729,0,1.4,0.104,2.016,0.312
		c0.615,0.209,1.146,0.505,1.59,0.889s0.791,0.848,1.039,1.393c0.248,0.543,0.371,1.147,0.371,1.812c0,0.544-0.07,1.03-0.209,1.458
		c-0.141,0.428-0.342,0.803-0.602,1.122s-0.574,0.592-0.941,0.815c-0.367,0.225-0.779,0.408-1.236,0.553
		c1.121,0.287,1.963,0.781,2.527,1.481c0.563,0.7,0.846,1.574,0.846,2.622c0,0.792-0.15,1.504-0.451,2.137
		c-0.299,0.631-0.709,1.17-1.229,1.613c-0.521,0.444-1.127,0.784-1.818,1.02c-0.693,0.236-1.436,0.354-2.227,0.354
		c-0.912,0-1.691-0.114-2.34-0.342s-1.195-0.542-1.645-0.942c-0.447-0.399-0.816-0.873-1.104-1.422
		c-0.289-0.548-0.533-1.142-0.732-1.781l0.924-0.385c0.24-0.104,0.475-0.132,0.703-0.084c0.227,0.049,0.393,0.18,0.498,0.396
		c0.104,0.224,0.232,0.492,0.389,0.804s0.371,0.612,0.643,0.899c0.271,0.289,0.617,0.533,1.037,0.732
		c0.422,0.2,0.955,0.301,1.604,0.301c0.6,0,1.125-0.099,1.578-0.295c0.451-0.195,0.828-0.449,1.127-0.762
		c0.301-0.313,0.525-0.66,0.678-1.044s0.229-0.765,0.229-1.14c0-0.465-0.061-0.889-0.18-1.272c-0.121-0.384-0.344-0.716-0.672-0.996
		s-0.779-0.499-1.35-0.659c-0.572-0.16-1.307-0.24-2.203-0.24v-1.549c0.736-0.008,1.363-0.088,1.879-0.24
		c0.516-0.151,0.936-0.359,1.26-0.623s0.559-0.58,0.707-0.948s0.223-0.776,0.223-1.224c0-0.496-0.078-0.928-0.234-1.297
		c-0.156-0.367-0.369-0.672-0.643-0.912c-0.271-0.239-0.594-0.42-0.965-0.539c-0.373-0.121-0.773-0.18-1.207-0.18
		c-0.432,0-0.834,0.063-1.205,0.191c-0.373,0.128-0.701,0.306-0.984,0.533c-0.283,0.229-0.521,0.498-0.713,0.811
		c-0.193,0.313-0.328,0.656-0.408,1.032c-0.105,0.28-0.234,0.466-0.391,0.558s-0.383,0.118-0.678,0.078L249.67,23.344z"/>
	<path d="M273.875,33.855c0.232,0,0.416,0.068,0.553,0.203c0.135,0.137,0.203,0.313,0.203,0.529v1.295h-11.473v-0.731
		c0-0.151,0.033-0.308,0.096-0.468c0.064-0.16,0.164-0.309,0.301-0.444l5.508-5.532c0.457-0.463,0.873-0.91,1.248-1.338
		c0.377-0.428,0.695-0.857,0.961-1.29c0.264-0.432,0.467-0.87,0.611-1.313c0.145-0.444,0.217-0.918,0.217-1.422
		s-0.08-0.946-0.24-1.326c-0.16-0.381-0.379-0.694-0.654-0.942c-0.275-0.247-0.602-0.434-0.979-0.558
		c-0.375-0.124-0.779-0.186-1.211-0.186c-0.441,0-0.846,0.063-1.213,0.191s-0.693,0.306-0.979,0.533
		c-0.283,0.229-0.521,0.498-0.713,0.811c-0.193,0.313-0.328,0.656-0.408,1.032c-0.096,0.28-0.227,0.466-0.391,0.558
		s-0.395,0.118-0.689,0.078l-1.117-0.191c0.113-0.784,0.33-1.479,0.654-2.082c0.324-0.604,0.732-1.11,1.225-1.519
		c0.492-0.407,1.055-0.718,1.686-0.93c0.633-0.212,1.316-0.318,2.053-0.318c0.729,0,1.408,0.108,2.039,0.324
		c0.633,0.216,1.18,0.53,1.645,0.942s0.828,0.914,1.092,1.506s0.396,1.264,0.396,2.016c0,0.641-0.096,1.234-0.289,1.782
		c-0.191,0.548-0.451,1.069-0.779,1.565s-0.705,0.98-1.135,1.453c-0.428,0.472-0.881,0.947-1.361,1.428l-4.535,4.631
		c0.318-0.088,0.643-0.157,0.971-0.209c0.328-0.053,0.645-0.078,0.949-0.078H273.875z"/>
	<path d="M280.475,20.584v6.012h7.068v1.896h-7.068v7.392h-2.328V18.688h10.596v1.896H280.475z"/>
	<path d="M302.76,29.68v1.224c0,0.128-0.039,0.235-0.115,0.324c-0.076,0.088-0.193,0.132-0.354,0.132h-2.137v4.523h-1.871v-4.523
		h-7.633c-0.16,0-0.297-0.046-0.414-0.139c-0.115-0.092-0.189-0.205-0.221-0.342l-0.217-1.092l8.363-11.1h1.992V29.68H302.76z
		 M298.283,29.68v-7.092c0-0.209,0.008-0.437,0.023-0.685s0.041-0.5,0.072-0.756l-6.264,8.532H298.283z"/>
</g>
<line fill="none" stroke="#000000" stroke-width="2.8347" stroke-miterlimit="10" x1="455.646" y1="46.469" x2="44.244" y2="46.469"/>
<g>
	<path d="M58.404,245.422h1.333v5.76h-1.333v-2.109h-6.069c-0.24,0-0.487-0.008-0.741-0.022l1.253,1.497
		c0.067,0.087,0.108,0.173,0.126,0.256c0.017,0.084,0.018,0.164,0.004,0.238c-0.016,0.074-0.04,0.141-0.076,0.197
		c-0.035,0.058-0.075,0.102-0.118,0.131l-0.771,0.561l-2.7-3.176v-1.461h9.094V245.422z"/>
	<path d="M58.081,237.457c0-0.19,0.054-0.343,0.162-0.457c0.107-0.112,0.25-0.168,0.429-0.168h1.065v7.143h-0.591
		c-0.12,0-0.246-0.026-0.378-0.076c-0.132-0.051-0.25-0.131-0.355-0.242l-3.169-3.16c-0.269-0.264-0.525-0.5-0.771-0.709
		c-0.244-0.209-0.487-0.383-0.728-0.521c-0.24-0.14-0.482-0.246-0.729-0.321c-0.248-0.073-0.509-0.111-0.782-0.111
		c-0.249,0-0.469,0.036-0.658,0.108c-0.19,0.072-0.35,0.174-0.479,0.306c-0.129,0.132-0.227,0.29-0.292,0.476
		c-0.064,0.186-0.097,0.393-0.097,0.622c0,0.212,0.03,0.407,0.09,0.587c0.06,0.181,0.145,0.34,0.252,0.479
		c0.107,0.139,0.234,0.257,0.379,0.353c0.144,0.097,0.302,0.168,0.475,0.216c0.221,0.082,0.367,0.188,0.439,0.316
		c0.072,0.13,0.089,0.317,0.05,0.562l-0.165,0.937c-0.499-0.071-0.938-0.211-1.313-0.417c-0.378-0.207-0.691-0.465-0.943-0.775
		c-0.252-0.309-0.442-0.664-0.569-1.064c-0.127-0.401-0.191-0.832-0.191-1.293c0-0.479,0.071-0.919,0.213-1.317
		c0.143-0.398,0.343-0.739,0.602-1.022s0.57-0.504,0.936-0.662s0.771-0.238,1.217-0.238c0.385,0,0.74,0.058,1.065,0.17
		c0.327,0.112,0.639,0.264,0.937,0.453c0.298,0.19,0.586,0.412,0.863,0.666c0.279,0.254,0.562,0.521,0.85,0.799l2.398,2.348
		c-0.067-0.225-0.119-0.45-0.155-0.673c-0.036-0.224-0.054-0.436-0.054-0.638V237.457z"/>
	<path d="M59.737,225.196v1.714c0,0.129-0.034,0.233-0.102,0.313c-0.066,0.078-0.144,0.146-0.23,0.198l-2.57,1.562
		c0.082,0.024,0.158,0.052,0.231,0.083c0.071,0.031,0.138,0.066,0.201,0.104l2.138,1.382c0.082,0.054,0.158,0.118,0.228,0.194
		c0.069,0.077,0.104,0.174,0.104,0.288v1.592l-3.809-2.535l-3.579,2.435v-1.714c0-0.13,0.019-0.226,0.054-0.288
		c0.036-0.062,0.095-0.117,0.177-0.165l2.462-1.548c-0.162-0.053-0.323-0.128-0.482-0.224l-1.943-1.246
		c-0.178-0.105-0.267-0.242-0.267-0.41v-1.635l3.499,2.427L59.737,225.196z"/>
	<path d="M52.227,220.877c-0.499-0.072-0.938-0.211-1.313-0.418c-0.378-0.206-0.691-0.464-0.943-0.774
		c-0.252-0.31-0.442-0.664-0.569-1.065c-0.127-0.4-0.191-0.832-0.191-1.292c0-0.479,0.069-0.913,0.206-1.3
		c0.136-0.386,0.326-0.716,0.568-0.99c0.243-0.273,0.527-0.482,0.854-0.629c0.327-0.146,0.68-0.221,1.058-0.221
		c0.332,0,0.624,0.037,0.876,0.112c0.252,0.074,0.471,0.181,0.658,0.32s0.346,0.312,0.475,0.518c0.13,0.208,0.238,0.439,0.325,0.698
		c0.196-0.623,0.496-1.088,0.899-1.396c0.403-0.307,0.909-0.461,1.519-0.461c0.52,0,0.978,0.097,1.376,0.289
		c0.398,0.191,0.732,0.451,1.005,0.777c0.271,0.326,0.476,0.705,0.615,1.134c0.139,0.43,0.208,0.885,0.208,1.365
		c0,0.522-0.06,0.979-0.179,1.367c-0.121,0.39-0.298,0.727-0.533,1.015c-0.236,0.289-0.523,0.533-0.864,0.735
		c-0.341,0.201-0.734,0.374-1.181,0.518l-0.324-0.784c-0.086-0.207-0.108-0.399-0.068-0.58c0.041-0.18,0.138-0.311,0.291-0.393
		c0.169-0.086,0.334-0.18,0.497-0.284c0.163-0.104,0.309-0.227,0.437-0.37c0.126-0.145,0.229-0.313,0.309-0.508
		c0.08-0.194,0.119-0.427,0.119-0.695c0-0.302-0.05-0.565-0.148-0.792c-0.098-0.225-0.226-0.413-0.384-0.564
		s-0.335-0.264-0.53-0.339c-0.194-0.074-0.39-0.111-0.587-0.111c-0.249,0-0.476,0.025-0.68,0.078
		c-0.204,0.055-0.378,0.164-0.522,0.332s-0.257,0.409-0.338,0.723c-0.082,0.315-0.123,0.736-0.123,1.265h-1.267
		c-0.005-0.437-0.046-0.799-0.123-1.087c-0.076-0.289-0.183-0.518-0.319-0.688c-0.138-0.17-0.302-0.288-0.494-0.356
		c-0.191-0.066-0.402-0.101-0.634-0.101c-0.488,0-0.861,0.138-1.115,0.41c-0.255,0.274-0.382,0.639-0.382,1.095
		c0,0.212,0.03,0.405,0.09,0.584c0.06,0.177,0.145,0.337,0.252,0.478c0.107,0.142,0.234,0.262,0.379,0.357
		c0.144,0.097,0.302,0.168,0.475,0.216c0.221,0.082,0.367,0.188,0.439,0.32s0.089,0.318,0.05,0.558L52.227,220.877z"/>
	<path d="M52.227,212.524c-0.499-0.071-0.938-0.211-1.313-0.417c-0.378-0.206-0.691-0.464-0.943-0.774
		c-0.252-0.31-0.442-0.665-0.569-1.065s-0.191-0.832-0.191-1.293c0-0.479,0.069-0.912,0.206-1.299
		c0.136-0.386,0.326-0.717,0.568-0.99c0.243-0.273,0.527-0.483,0.854-0.63c0.327-0.146,0.68-0.22,1.058-0.22
		c0.332,0,0.624,0.037,0.876,0.112c0.252,0.073,0.471,0.181,0.658,0.319c0.188,0.14,0.346,0.313,0.475,0.519
		c0.13,0.207,0.238,0.439,0.325,0.698c0.196-0.623,0.496-1.089,0.899-1.396s0.909-0.461,1.519-0.461c0.52,0,0.978,0.096,1.376,0.288
		s0.732,0.451,1.005,0.778c0.271,0.326,0.476,0.704,0.615,1.133c0.139,0.431,0.208,0.885,0.208,1.365
		c0,0.523-0.06,0.979-0.179,1.368c-0.121,0.389-0.298,0.727-0.533,1.015c-0.236,0.288-0.523,0.533-0.864,0.734
		c-0.341,0.202-0.734,0.374-1.181,0.519l-0.324-0.784c-0.086-0.207-0.108-0.399-0.068-0.58c0.041-0.181,0.138-0.311,0.291-0.393
		c0.169-0.087,0.334-0.181,0.497-0.285c0.163-0.103,0.309-0.226,0.437-0.37c0.126-0.144,0.229-0.313,0.309-0.507
		c0.08-0.195,0.119-0.427,0.119-0.695c0-0.303-0.05-0.566-0.148-0.792c-0.098-0.226-0.226-0.414-0.384-0.565
		c-0.158-0.15-0.335-0.264-0.53-0.338c-0.194-0.074-0.39-0.111-0.587-0.111c-0.249,0-0.476,0.025-0.68,0.078
		c-0.204,0.054-0.378,0.164-0.522,0.332c-0.145,0.167-0.257,0.408-0.338,0.723c-0.082,0.315-0.123,0.736-0.123,1.265h-1.267
		c-0.005-0.438-0.046-0.8-0.123-1.088c-0.076-0.288-0.183-0.517-0.319-0.688c-0.138-0.17-0.302-0.288-0.494-0.356
		c-0.191-0.066-0.402-0.101-0.634-0.101c-0.488,0-0.861,0.137-1.115,0.41c-0.255,0.274-0.382,0.639-0.382,1.095
		c0,0.212,0.03,0.405,0.09,0.583c0.06,0.177,0.145,0.338,0.252,0.479c0.107,0.142,0.234,0.261,0.379,0.357
		c0.144,0.096,0.302,0.167,0.475,0.216c0.221,0.082,0.367,0.188,0.439,0.319c0.072,0.133,0.089,0.319,0.05,0.558L52.227,212.524z"/>
	<path d="M54.531,196.959c0.907,0,1.696,0.097,2.365,0.291c0.67,0.195,1.224,0.463,1.659,0.807c0.438,0.344,0.763,0.749,0.977,1.217
		c0.213,0.469,0.319,0.974,0.319,1.516s-0.106,1.045-0.319,1.509c-0.214,0.463-0.539,0.864-0.977,1.206
		c-0.436,0.341-0.989,0.606-1.659,0.799c-0.669,0.192-1.458,0.288-2.365,0.288c-0.911,0-1.701-0.096-2.368-0.288
		c-0.668-0.192-1.22-0.458-1.657-0.799c-0.436-0.342-0.762-0.743-0.975-1.206c-0.214-0.464-0.321-0.967-0.321-1.509
		s0.107-1.047,0.321-1.516c0.213-0.468,0.539-0.873,0.975-1.217c0.438-0.344,0.989-0.611,1.657-0.807
		C52.83,197.056,53.62,196.959,54.531,196.959z M54.531,198.795c-0.753,0-1.378,0.055-1.872,0.165s-0.888,0.258-1.181,0.443
		c-0.293,0.185-0.498,0.397-0.615,0.638c-0.118,0.238-0.177,0.488-0.177,0.748c0,0.255,0.059,0.501,0.177,0.737
		c0.117,0.238,0.322,0.448,0.615,0.631s0.687,0.327,1.181,0.436s1.119,0.162,1.872,0.162c0.754,0,1.378-0.054,1.872-0.162
		s0.888-0.253,1.181-0.436s0.498-0.393,0.615-0.631c0.118-0.236,0.177-0.482,0.177-0.737c0-0.26-0.059-0.51-0.177-0.748
		c-0.117-0.24-0.322-0.453-0.615-0.638c-0.293-0.186-0.687-0.333-1.181-0.443S55.285,198.795,54.531,198.795z"/>
	<path d="M58.145,185.467h0.986c0.178,0,0.322,0.058,0.437,0.174c0.112,0.115,0.169,0.273,0.169,0.475v3.824h-2.189
		c-0.058-0.332-0.188-0.643-0.393-0.934c-0.204-0.29-0.462-0.545-0.773-0.763c-0.312-0.219-0.669-0.39-1.073-0.516
		c-0.403-0.124-0.832-0.187-1.288-0.187c-0.533,0-0.997,0.085-1.394,0.256c-0.396,0.17-0.724,0.4-0.983,0.691
		c-0.259,0.289-0.453,0.628-0.583,1.015c-0.129,0.387-0.193,0.796-0.193,1.228s0.064,0.841,0.193,1.228
		c0.13,0.387,0.324,0.724,0.583,1.012c0.26,0.288,0.588,0.518,0.983,0.688c0.396,0.17,0.86,0.256,1.394,0.256
		c0.456,0,0.885-0.063,1.288-0.188c0.404-0.124,0.762-0.297,1.073-0.515s0.569-0.473,0.773-0.763
		c0.205-0.291,0.335-0.602,0.393-0.933h2.189v3.823c0,0.202-0.057,0.36-0.169,0.475c-0.114,0.115-0.259,0.174-0.437,0.174h-0.986
		v-1.657c0-0.225,0.011-0.456,0.033-0.69c0.021-0.235,0.049-0.469,0.082-0.698c-0.154,0.427-0.367,0.818-0.641,1.173
		c-0.273,0.355-0.595,0.66-0.965,0.914c-0.369,0.256-0.778,0.452-1.228,0.595c-0.448,0.142-0.926,0.212-1.43,0.212
		c-0.691,0-1.327-0.13-1.911-0.392c-0.584-0.263-1.089-0.623-1.516-1.084c-0.428-0.461-0.76-1.002-1-1.624
		c-0.24-0.621-0.361-1.292-0.361-2.013c0-0.719,0.121-1.391,0.361-2.012s0.572-1.161,1-1.619c0.427-0.46,0.932-0.82,1.516-1.084
		s1.22-0.396,1.911-0.396c0.504,0,0.981,0.07,1.43,0.212c0.449,0.142,0.856,0.34,1.224,0.595c0.368,0.254,0.689,0.559,0.966,0.914
		c0.275,0.355,0.489,0.746,0.644,1.174c-0.033-0.23-0.062-0.462-0.082-0.695c-0.022-0.232-0.033-0.461-0.033-0.688V185.467z"/>
</g>
<g>
	<path d="M56.892,347.009c-0.283-0.252-0.514-0.537-0.689-0.857s-0.264-0.696-0.264-1.128c0-0.336,0.069-0.644,0.21-0.921
		c0.14-0.278,0.343-0.519,0.608-0.721c0.267-0.201,0.594-0.357,0.984-0.468c0.39-0.109,0.837-0.165,1.341-0.165
		c0.46,0,0.886,0.063,1.278,0.187c0.392,0.124,0.731,0.301,1.02,0.53c0.288,0.23,0.513,0.509,0.675,0.834
		c0.162,0.326,0.243,0.691,0.243,1.096c0,0.344-0.053,0.638-0.159,0.882c-0.105,0.244-0.253,0.462-0.44,0.654h2.52v1.481h-8.166
		v-0.906c0-0.191,0.09-0.317,0.271-0.378L56.892,347.009z M60.613,346.932c0.204-0.168,0.348-0.352,0.432-0.55
		c0.084-0.197,0.126-0.412,0.126-0.645c0-0.224-0.042-0.426-0.126-0.606c-0.084-0.18-0.212-0.333-0.384-0.459
		s-0.389-0.223-0.651-0.291c-0.262-0.067-0.57-0.102-0.927-0.102c-0.36,0-0.665,0.029-0.915,0.087s-0.453,0.141-0.609,0.249
		c-0.155,0.108-0.27,0.239-0.342,0.393c-0.072,0.154-0.107,0.329-0.107,0.525c0,0.309,0.064,0.57,0.194,0.786
		s0.313,0.42,0.549,0.612H60.613z"/>
	<path d="M61.098,336.119h1.11v4.8h-1.11v-1.758h-5.058c-0.2,0-0.406-0.006-0.618-0.018l1.044,1.248
		c0.057,0.071,0.091,0.143,0.105,0.213c0.014,0.07,0.015,0.136,0.003,0.198c-0.013,0.062-0.033,0.116-0.063,0.165
		c-0.029,0.048-0.063,0.084-0.099,0.107l-0.643,0.468l-2.25-2.646v-1.218h7.578V336.119z"/>
</g>
<g>
	<path d="M74.065,346.967c-0.283-0.252-0.514-0.538-0.689-0.858c-0.176-0.319-0.264-0.695-0.264-1.128
		c0-0.336,0.069-0.643,0.21-0.921c0.14-0.277,0.343-0.518,0.608-0.72c0.267-0.202,0.594-0.358,0.984-0.468
		c0.39-0.11,0.837-0.165,1.341-0.165c0.46,0,0.886,0.062,1.278,0.186c0.392,0.124,0.731,0.301,1.02,0.531s0.513,0.508,0.675,0.834
		s0.243,0.691,0.243,1.095c0,0.345-0.053,0.639-0.159,0.882c-0.105,0.244-0.253,0.463-0.44,0.654h2.52v1.482h-8.166v-0.906
		c0-0.192,0.09-0.318,0.271-0.378L74.065,346.967z M77.786,346.889c0.204-0.168,0.348-0.351,0.432-0.549s0.126-0.413,0.126-0.646
		c0-0.224-0.042-0.426-0.126-0.605s-0.212-0.333-0.384-0.459s-0.389-0.223-0.651-0.291c-0.262-0.068-0.57-0.103-0.927-0.103
		c-0.36,0-0.665,0.029-0.915,0.088c-0.25,0.058-0.453,0.141-0.609,0.249c-0.155,0.107-0.27,0.238-0.342,0.393
		s-0.107,0.329-0.107,0.525c0,0.308,0.064,0.569,0.194,0.785c0.13,0.217,0.313,0.421,0.549,0.612H77.786z"/>
	<path d="M78.001,336.4c0-0.159,0.045-0.286,0.135-0.381c0.09-0.094,0.209-0.141,0.357-0.141h0.888v5.952h-0.492
		c-0.1,0-0.205-0.021-0.314-0.063c-0.11-0.042-0.209-0.108-0.297-0.201l-2.641-2.634c-0.224-0.22-0.438-0.417-0.642-0.591
		s-0.406-0.319-0.606-0.435c-0.2-0.116-0.402-0.205-0.608-0.268c-0.206-0.062-0.424-0.093-0.651-0.093
		c-0.208,0-0.391,0.03-0.549,0.09c-0.158,0.061-0.291,0.146-0.399,0.255c-0.107,0.11-0.188,0.242-0.243,0.396
		c-0.054,0.154-0.081,0.327-0.081,0.519c0,0.177,0.025,0.339,0.075,0.489s0.12,0.283,0.21,0.399c0.09,0.115,0.195,0.214,0.315,0.294
		s0.252,0.14,0.396,0.18c0.185,0.068,0.307,0.156,0.366,0.264c0.061,0.108,0.074,0.265,0.042,0.468l-0.138,0.78
		c-0.416-0.06-0.781-0.176-1.095-0.348c-0.314-0.172-0.576-0.387-0.786-0.646c-0.21-0.258-0.368-0.554-0.475-0.888
		c-0.105-0.334-0.159-0.693-0.159-1.077c0-0.399,0.06-0.766,0.178-1.098s0.285-0.616,0.501-0.853
		c0.216-0.235,0.476-0.42,0.779-0.552c0.305-0.132,0.643-0.198,1.015-0.198c0.32,0,0.616,0.048,0.888,0.142
		c0.272,0.094,0.532,0.22,0.78,0.378s0.488,0.343,0.72,0.555c0.232,0.212,0.468,0.435,0.708,0.666l1.998,1.956
		c-0.056-0.188-0.099-0.375-0.129-0.561c-0.03-0.187-0.045-0.363-0.045-0.531V336.4z"/>
</g>
<g>
	<path d="M93.696,347.084c-0.283-0.252-0.514-0.537-0.689-0.857s-0.264-0.696-0.264-1.128c0-0.336,0.069-0.644,0.21-0.921
		c0.14-0.278,0.343-0.519,0.608-0.721c0.267-0.201,0.594-0.357,0.984-0.468c0.39-0.109,0.837-0.165,1.341-0.165
		c0.46,0,0.886,0.063,1.278,0.187c0.392,0.124,0.731,0.301,1.02,0.53c0.288,0.23,0.513,0.509,0.675,0.834
		c0.162,0.326,0.243,0.691,0.243,1.096c0,0.344-0.053,0.638-0.159,0.882c-0.105,0.244-0.253,0.462-0.44,0.654h2.52v1.481h-8.166
		v-0.906c0-0.191,0.09-0.317,0.271-0.378L93.696,347.084z M97.417,347.007c0.204-0.168,0.348-0.352,0.432-0.55
		c0.084-0.197,0.126-0.412,0.126-0.645c0-0.224-0.042-0.426-0.126-0.606c-0.084-0.18-0.212-0.333-0.384-0.459
		s-0.389-0.223-0.651-0.291c-0.262-0.067-0.57-0.102-0.927-0.102c-0.36,0-0.665,0.029-0.915,0.087s-0.453,0.141-0.609,0.249
		c-0.155,0.108-0.27,0.239-0.342,0.393c-0.072,0.154-0.107,0.329-0.107,0.525c0,0.309,0.064,0.57,0.194,0.786
		s0.313,0.42,0.549,0.612H97.417z"/>
	<path d="M92.755,341.757c-0.416-0.061-0.781-0.176-1.095-0.349c-0.314-0.172-0.576-0.387-0.786-0.645s-0.368-0.554-0.475-0.888
		c-0.105-0.334-0.159-0.693-0.159-1.077c0-0.4,0.058-0.762,0.172-1.083c0.113-0.322,0.271-0.598,0.474-0.825
		c0.202-0.229,0.439-0.403,0.711-0.525c0.272-0.122,0.566-0.183,0.882-0.183c0.276,0,0.52,0.031,0.729,0.093
		c0.21,0.063,0.393,0.151,0.549,0.268c0.156,0.115,0.288,0.26,0.396,0.432c0.108,0.172,0.198,0.366,0.271,0.582
		c0.164-0.521,0.414-0.908,0.75-1.164s0.758-0.384,1.266-0.384c0.433,0,0.814,0.08,1.146,0.24c0.332,0.159,0.61,0.376,0.837,0.647
		c0.226,0.272,0.396,0.587,0.513,0.945c0.116,0.357,0.174,0.736,0.174,1.137c0,0.437-0.05,0.816-0.149,1.14
		c-0.101,0.324-0.248,0.606-0.444,0.847c-0.196,0.239-0.436,0.443-0.72,0.611s-0.612,0.313-0.984,0.433l-0.27-0.654
		c-0.072-0.172-0.091-0.333-0.058-0.483c0.034-0.149,0.115-0.259,0.243-0.326c0.141-0.072,0.278-0.151,0.414-0.237
		s0.257-0.189,0.363-0.309c0.105-0.12,0.191-0.262,0.258-0.424s0.099-0.354,0.099-0.579c0-0.252-0.041-0.472-0.123-0.659
		c-0.082-0.188-0.188-0.346-0.32-0.472s-0.279-0.22-0.441-0.281c-0.162-0.063-0.325-0.094-0.489-0.094
		c-0.208,0-0.396,0.022-0.566,0.066s-0.315,0.136-0.436,0.276c-0.12,0.14-0.214,0.341-0.281,0.603
		c-0.068,0.262-0.103,0.613-0.103,1.053h-1.056c-0.004-0.363-0.038-0.666-0.103-0.905c-0.063-0.24-0.152-0.432-0.267-0.573
		c-0.114-0.143-0.251-0.241-0.411-0.297c-0.16-0.057-0.336-0.084-0.528-0.084c-0.407,0-0.718,0.113-0.93,0.342
		c-0.212,0.228-0.318,0.532-0.318,0.912c0,0.176,0.025,0.338,0.075,0.485c0.05,0.148,0.12,0.281,0.21,0.399s0.195,0.217,0.315,0.297
		s0.252,0.141,0.396,0.18c0.185,0.068,0.307,0.157,0.366,0.268c0.061,0.11,0.074,0.265,0.042,0.465L92.755,341.757z"/>
</g>
<g>
	<path d="M111.173,347.213c-0.283-0.252-0.514-0.537-0.689-0.857s-0.264-0.696-0.264-1.128c0-0.336,0.069-0.644,0.21-0.921
		c0.14-0.278,0.343-0.519,0.608-0.721c0.267-0.201,0.594-0.357,0.984-0.468c0.39-0.109,0.837-0.165,1.341-0.165
		c0.46,0,0.886,0.063,1.278,0.187c0.392,0.124,0.731,0.301,1.02,0.53c0.288,0.23,0.513,0.509,0.675,0.834
		c0.162,0.326,0.243,0.691,0.243,1.096c0,0.344-0.053,0.638-0.159,0.882c-0.105,0.244-0.253,0.462-0.44,0.654h2.52v1.481h-8.166
		v-0.906c0-0.191,0.09-0.317,0.271-0.378L111.173,347.213z M114.894,347.136c0.204-0.168,0.348-0.352,0.432-0.55
		c0.084-0.197,0.126-0.412,0.126-0.645c0-0.224-0.042-0.426-0.126-0.606c-0.084-0.18-0.212-0.333-0.384-0.459
		s-0.389-0.223-0.651-0.291c-0.262-0.067-0.57-0.102-0.927-0.102c-0.36,0-0.665,0.029-0.915,0.087s-0.453,0.141-0.609,0.249
		c-0.155,0.108-0.27,0.239-0.342,0.393c-0.072,0.154-0.107,0.329-0.107,0.525c0,0.309,0.064,0.57,0.194,0.786
		s0.313,0.42,0.549,0.612H114.894z"/>
	<path d="M113.22,335.88h0.857c0.08,0,0.149,0.025,0.207,0.077c0.059,0.053,0.087,0.126,0.087,0.223v0.792h2.118v1.29h-2.118v3.66
		c0,0.1-0.031,0.188-0.093,0.264c-0.063,0.076-0.139,0.124-0.231,0.144l-0.75,0.156l-5.489-4.11v-1.403h5.412V335.88z
		 M113.22,338.262h-2.839c-0.268,0-0.563-0.019-0.888-0.055l3.727,2.694V338.262z"/>
</g>
<g>
	<path d="M129.981,347.146c-0.283-0.252-0.514-0.538-0.689-0.858c-0.176-0.319-0.264-0.695-0.264-1.128
		c0-0.336,0.069-0.643,0.21-0.921c0.14-0.277,0.343-0.518,0.608-0.72c0.267-0.202,0.594-0.358,0.984-0.468
		c0.39-0.11,0.837-0.165,1.341-0.165c0.46,0,0.886,0.062,1.278,0.186c0.392,0.124,0.731,0.301,1.02,0.531s0.513,0.508,0.675,0.834
		s0.243,0.691,0.243,1.095c0,0.345-0.053,0.639-0.159,0.882c-0.105,0.244-0.253,0.463-0.44,0.654h2.52v1.482h-8.166v-0.906
		c0-0.192,0.09-0.318,0.271-0.378L129.981,347.146z M133.702,347.068c0.204-0.168,0.348-0.351,0.432-0.549s0.126-0.413,0.126-0.646
		c0-0.224-0.042-0.426-0.126-0.605s-0.212-0.333-0.384-0.459s-0.389-0.223-0.651-0.291c-0.262-0.068-0.57-0.103-0.927-0.103
		c-0.36,0-0.665,0.029-0.915,0.088c-0.25,0.058-0.453,0.141-0.609,0.249c-0.155,0.107-0.27,0.238-0.342,0.393
		s-0.107,0.329-0.107,0.525c0,0.308,0.064,0.569,0.194,0.785c0.13,0.217,0.313,0.421,0.549,0.612H133.702z"/>
	<path d="M129.771,340.03c-0.04-0.191-0.068-0.376-0.087-0.552c-0.018-0.176-0.026-0.346-0.026-0.51
		c0-0.456,0.067-0.858,0.204-1.206c0.136-0.348,0.323-0.64,0.563-0.876s0.521-0.414,0.843-0.534c0.322-0.12,0.669-0.18,1.041-0.18
		c0.46,0,0.88,0.081,1.261,0.243c0.38,0.161,0.704,0.387,0.975,0.675c0.27,0.288,0.479,0.629,0.627,1.022
		c0.147,0.395,0.222,0.823,0.222,1.287c0,0.272-0.027,0.53-0.084,0.774c-0.056,0.244-0.131,0.473-0.225,0.687
		s-0.202,0.412-0.324,0.594c-0.122,0.183-0.251,0.346-0.387,0.489l-0.63-0.456c-0.136-0.096-0.204-0.222-0.204-0.378
		c0-0.1,0.032-0.202,0.096-0.306c0.064-0.104,0.134-0.223,0.21-0.357c0.076-0.134,0.146-0.292,0.21-0.474
		c0.064-0.182,0.096-0.401,0.096-0.657c0-0.271-0.044-0.512-0.132-0.72s-0.211-0.381-0.369-0.52
		c-0.157-0.138-0.346-0.241-0.563-0.312s-0.455-0.105-0.711-0.105c-0.472,0-0.841,0.138-1.107,0.411
		c-0.266,0.274-0.398,0.68-0.398,1.215c0,0.412,0.076,0.834,0.228,1.267l-0.264,0.924l-4.212-0.72v-4.284h0.63
		c0.212,0,0.384,0.065,0.516,0.198c0.132,0.132,0.198,0.355,0.198,0.672v2.382L129.771,340.03z"/>
</g>
<g>
	<path d="M155,341.391v1.458c0,0.276-0.108,0.476-0.324,0.6l-2.777,1.824c-0.104,0.068-0.179,0.144-0.223,0.226
		s-0.065,0.202-0.065,0.362v0.69H155v1.614h-8.676v-2.646c0-0.588,0.061-1.093,0.183-1.515s0.293-0.769,0.513-1.038
		c0.221-0.271,0.483-0.469,0.789-0.598c0.307-0.128,0.644-0.191,1.012-0.191c0.292,0,0.567,0.043,0.828,0.129
		c0.26,0.086,0.495,0.21,0.708,0.372c0.212,0.162,0.397,0.362,0.558,0.6c0.16,0.238,0.286,0.51,0.378,0.813
		c0.06-0.104,0.131-0.2,0.213-0.288s0.179-0.168,0.291-0.24L155,341.391z M150.452,345.543c0-0.305-0.038-0.569-0.114-0.795
		c-0.076-0.227-0.181-0.412-0.314-0.559c-0.135-0.146-0.293-0.255-0.478-0.327c-0.184-0.071-0.386-0.107-0.605-0.107
		c-0.44,0-0.778,0.145-1.015,0.435c-0.235,0.29-0.354,0.733-0.354,1.329v1.032h2.88V345.543z"/>
	<path d="M155,333.398v1.608c0,0.112-0.028,0.201-0.084,0.267c-0.056,0.066-0.12,0.119-0.192,0.159l-3.33,2.01
		c0.101,0.032,0.187,0.07,0.259,0.114l3.071,1.926c0.068,0.049,0.132,0.104,0.189,0.165c0.058,0.063,0.087,0.144,0.087,0.243v1.506
		l-4.464-2.88l-4.212,2.767v-1.608c0-0.112,0.015-0.193,0.045-0.243s0.079-0.097,0.146-0.141l3.181-1.975
		c-0.101-0.039-0.2-0.088-0.3-0.144l-2.851-1.813c-0.076-0.044-0.132-0.092-0.168-0.144s-0.054-0.118-0.054-0.198v-1.542l4.146,2.79
		L155,333.398z"/>
</g>
<g>
	<path d="M167.25,341.97v2.615h7.35v1.614h-7.35v2.616h-1.326v-6.846H167.25z"/>
	<path d="M174.6,333.779v1.608c0,0.112-0.028,0.201-0.084,0.267c-0.056,0.066-0.12,0.119-0.192,0.159l-3.33,2.01
		c0.101,0.032,0.187,0.07,0.259,0.114l3.071,1.926c0.068,0.049,0.132,0.104,0.189,0.165c0.058,0.063,0.087,0.144,0.087,0.243v1.506
		l-4.464-2.88l-4.212,2.767v-1.608c0-0.112,0.015-0.193,0.045-0.243s0.079-0.097,0.146-0.141l3.181-1.975
		c-0.101-0.039-0.2-0.088-0.3-0.144l-2.851-1.813c-0.076-0.044-0.132-0.092-0.168-0.144s-0.054-0.118-0.054-0.198v-1.542l4.146,2.79
		L174.6,333.779z"/>
</g>
<g>
	<path d="M184.814,343.259c0.084,0.048,0.145,0.099,0.183,0.152c0.038,0.055,0.057,0.121,0.057,0.201
		c0,0.084-0.03,0.175-0.093,0.273c-0.062,0.098-0.131,0.215-0.207,0.351s-0.145,0.295-0.207,0.478
		c-0.062,0.182-0.093,0.396-0.093,0.645c0,0.225,0.027,0.42,0.081,0.588s0.129,0.31,0.225,0.423
		c0.097,0.114,0.211,0.199,0.346,0.255c0.134,0.057,0.28,0.084,0.44,0.084c0.204,0,0.374-0.057,0.51-0.171
		c0.137-0.113,0.253-0.265,0.349-0.452c0.096-0.188,0.182-0.402,0.258-0.643s0.157-0.486,0.243-0.738s0.186-0.498,0.3-0.737
		c0.114-0.24,0.258-0.454,0.432-0.643c0.175-0.188,0.388-0.339,0.64-0.453c0.252-0.113,0.558-0.171,0.918-0.171
		c0.392,0,0.759,0.067,1.101,0.201s0.641,0.33,0.895,0.588s0.454,0.573,0.6,0.945c0.146,0.372,0.219,0.798,0.219,1.278
		c0,0.275-0.026,0.548-0.081,0.815c-0.054,0.269-0.131,0.525-0.23,0.771c-0.101,0.246-0.22,0.477-0.36,0.692
		c-0.14,0.216-0.296,0.408-0.468,0.576l-0.774-0.474c-0.056-0.04-0.103-0.092-0.141-0.156c-0.038-0.063-0.057-0.132-0.057-0.204
		c0-0.1,0.041-0.208,0.123-0.324c0.082-0.115,0.173-0.254,0.272-0.414c0.101-0.159,0.191-0.347,0.273-0.561s0.123-0.471,0.123-0.771
		c0-0.46-0.109-0.815-0.327-1.067s-0.531-0.378-0.939-0.378c-0.228,0-0.414,0.057-0.558,0.171c-0.145,0.114-0.265,0.265-0.363,0.453
		c-0.098,0.188-0.181,0.401-0.249,0.642c-0.067,0.24-0.142,0.484-0.222,0.732s-0.176,0.491-0.288,0.731s-0.258,0.454-0.438,0.643
		c-0.18,0.188-0.404,0.339-0.675,0.453c-0.27,0.113-0.603,0.171-0.999,0.171c-0.315,0-0.624-0.063-0.924-0.189
		s-0.565-0.309-0.798-0.549s-0.418-0.536-0.558-0.888c-0.141-0.353-0.211-0.757-0.211-1.212c0-0.513,0.08-0.984,0.24-1.416
		c0.16-0.433,0.384-0.801,0.672-1.104L184.814,343.259z"/>
	<path d="M189.866,335.339c0-0.088,0.034-0.166,0.102-0.234l0.69-0.636c0.436,0.352,0.77,0.785,1.002,1.299s0.348,1.131,0.348,1.851
		c0,0.645-0.109,1.224-0.33,1.737c-0.22,0.514-0.525,0.953-0.918,1.317c-0.392,0.363-0.859,0.643-1.403,0.837
		c-0.544,0.193-1.139,0.291-1.782,0.291c-0.652,0-1.249-0.104-1.791-0.313s-1.009-0.501-1.401-0.879
		c-0.392-0.378-0.696-0.829-0.915-1.353c-0.218-0.524-0.327-1.104-0.327-1.74c0-0.632,0.104-1.193,0.313-1.684
		c0.208-0.489,0.479-0.906,0.816-1.251l0.75,0.54c0.048,0.032,0.09,0.073,0.126,0.123c0.035,0.051,0.054,0.119,0.054,0.207
		c0,0.061-0.018,0.122-0.051,0.187c-0.034,0.063-0.076,0.134-0.126,0.21c-0.051,0.076-0.105,0.164-0.165,0.264
		c-0.061,0.101-0.115,0.216-0.165,0.349c-0.05,0.132-0.092,0.284-0.126,0.459c-0.034,0.174-0.052,0.375-0.052,0.603
		c0,0.388,0.069,0.743,0.207,1.065c0.139,0.321,0.339,0.599,0.601,0.83c0.262,0.232,0.582,0.412,0.96,0.54
		c0.378,0.129,0.809,0.192,1.293,0.192c0.488,0,0.922-0.069,1.302-0.207s0.7-0.325,0.96-0.561c0.26-0.236,0.459-0.515,0.598-0.834
		c0.138-0.32,0.206-0.664,0.206-1.032c0-0.22-0.012-0.419-0.035-0.597c-0.024-0.179-0.063-0.343-0.114-0.492
		c-0.052-0.15-0.119-0.292-0.201-0.427c-0.082-0.134-0.183-0.267-0.303-0.398c-0.036-0.04-0.065-0.082-0.087-0.126
		C189.877,335.433,189.866,335.387,189.866,335.339z"/>
	<path d="M186.872,331.744v-0.378c0-0.151-0.021-0.277-0.063-0.378c-0.042-0.1-0.109-0.186-0.201-0.258l-3.03-2.394
		c-0.128-0.101-0.217-0.205-0.267-0.315c-0.051-0.11-0.075-0.249-0.075-0.417v-1.392l3.605,2.922
		c0.221,0.172,0.376,0.35,0.469,0.534c0.048-0.133,0.114-0.251,0.2-0.357c0.087-0.106,0.199-0.207,0.34-0.303l4.062-3.013v1.423
		c0,0.191-0.027,0.335-0.081,0.429s-0.133,0.173-0.237,0.236l-3.204,2.454c-0.107,0.076-0.184,0.164-0.228,0.265
		c-0.044,0.1-0.066,0.244-0.066,0.432v0.51h3.816v1.614h-8.676v-1.614H186.872z"/>
</g>
<g>
	<path d="M202.461,338.867h8.676v1.422h-5.604c-0.225,0-0.467-0.012-0.727-0.036l4.926,2.622c0.236,0.124,0.354,0.314,0.354,0.57
		v0.228c0,0.256-0.118,0.446-0.354,0.57l-4.943,2.651c0.132-0.012,0.262-0.021,0.39-0.029s0.246-0.013,0.354-0.013h5.604v1.423
		h-8.676v-1.219c0-0.071,0.002-0.134,0.006-0.186s0.014-0.1,0.03-0.142c0.016-0.042,0.042-0.079,0.078-0.113
		c0.035-0.034,0.084-0.067,0.144-0.1l4.818-2.598c0.128-0.068,0.26-0.131,0.396-0.189c0.136-0.058,0.276-0.114,0.42-0.171
		c-0.147-0.056-0.291-0.113-0.429-0.174c-0.138-0.06-0.271-0.124-0.399-0.191l-4.806-2.563c-0.06-0.032-0.108-0.065-0.144-0.102
		c-0.036-0.036-0.063-0.075-0.078-0.117c-0.017-0.042-0.026-0.089-0.03-0.142c-0.004-0.052-0.006-0.113-0.006-0.186V338.867z"/>
	<path d="M211.137,335.315v1.62h-8.676v-1.62H211.137z"/>
	<path d="M204.039,328.757c0.084,0.048,0.145,0.1,0.183,0.153s0.057,0.121,0.057,0.201c0,0.084-0.03,0.175-0.093,0.272
		c-0.062,0.099-0.131,0.215-0.207,0.352c-0.076,0.136-0.145,0.295-0.207,0.477c-0.062,0.183-0.093,0.397-0.093,0.646
		c0,0.224,0.027,0.42,0.081,0.588s0.129,0.309,0.225,0.423c0.097,0.114,0.211,0.199,0.346,0.255c0.134,0.056,0.28,0.084,0.44,0.084
		c0.204,0,0.374-0.057,0.51-0.171c0.137-0.114,0.253-0.265,0.349-0.453c0.096-0.188,0.182-0.402,0.258-0.642
		c0.076-0.24,0.157-0.486,0.243-0.738s0.186-0.498,0.3-0.738s0.258-0.454,0.432-0.642c0.175-0.188,0.388-0.339,0.64-0.453
		s0.558-0.171,0.918-0.171c0.392,0,0.759,0.066,1.101,0.201c0.342,0.134,0.641,0.33,0.895,0.588s0.454,0.572,0.6,0.944
		c0.146,0.372,0.219,0.799,0.219,1.278c0,0.276-0.026,0.548-0.081,0.816c-0.054,0.268-0.131,0.524-0.23,0.771
		c-0.101,0.246-0.22,0.478-0.36,0.693c-0.14,0.216-0.296,0.408-0.468,0.576l-0.774-0.475c-0.056-0.04-0.103-0.092-0.141-0.155
		c-0.038-0.064-0.057-0.133-0.057-0.204c0-0.101,0.041-0.208,0.123-0.324s0.173-0.254,0.272-0.414
		c0.101-0.16,0.191-0.347,0.273-0.562c0.082-0.214,0.123-0.471,0.123-0.771c0-0.46-0.109-0.816-0.327-1.068
		s-0.531-0.378-0.939-0.378c-0.228,0-0.414,0.058-0.558,0.171c-0.145,0.114-0.265,0.266-0.363,0.453
		c-0.098,0.188-0.181,0.402-0.249,0.643c-0.067,0.239-0.142,0.483-0.222,0.731s-0.176,0.492-0.288,0.732s-0.258,0.454-0.438,0.642
		c-0.18,0.188-0.404,0.339-0.675,0.453c-0.27,0.114-0.603,0.171-0.999,0.171c-0.315,0-0.624-0.063-0.924-0.188
		s-0.565-0.31-0.798-0.55c-0.232-0.239-0.418-0.535-0.558-0.888c-0.141-0.352-0.211-0.756-0.211-1.212
		c0-0.512,0.08-0.984,0.24-1.416s0.384-0.8,0.672-1.104L204.039,328.757z"/>
	<path d="M206.799,318.521c0.636,0,1.225,0.105,1.767,0.315s1.012,0.507,1.407,0.891c0.396,0.385,0.705,0.847,0.927,1.387
		c0.223,0.54,0.333,1.14,0.333,1.8c0,0.656-0.11,1.254-0.333,1.794c-0.222,0.54-0.53,1.003-0.927,1.389
		c-0.396,0.387-0.865,0.686-1.407,0.897s-1.131,0.317-1.767,0.317s-1.225-0.105-1.768-0.317c-0.541-0.212-1.011-0.511-1.406-0.897
		c-0.396-0.386-0.705-0.849-0.928-1.389c-0.222-0.54-0.333-1.138-0.333-1.794c0-0.44,0.052-0.854,0.153-1.242
		c0.103-0.388,0.246-0.744,0.433-1.068c0.186-0.323,0.411-0.614,0.678-0.872c0.266-0.259,0.563-0.478,0.891-0.657
		c0.328-0.181,0.685-0.317,1.068-0.411S206.375,318.521,206.799,318.521z M206.799,320.171c-0.477,0-0.903,0.064-1.281,0.192
		s-0.699,0.31-0.963,0.546s-0.466,0.522-0.606,0.86c-0.14,0.339-0.21,0.72-0.21,1.144s0.07,0.805,0.21,1.143
		c0.141,0.339,0.343,0.626,0.606,0.864s0.585,0.421,0.963,0.549s0.805,0.192,1.281,0.192c0.476,0,0.903-0.064,1.281-0.192
		s0.697-0.311,0.96-0.549c0.262-0.238,0.463-0.525,0.603-0.864c0.141-0.338,0.21-0.719,0.21-1.143s-0.069-0.805-0.21-1.144
		c-0.14-0.338-0.341-0.624-0.603-0.86c-0.263-0.236-0.582-0.418-0.96-0.546S207.274,320.171,206.799,320.171z"/>
</g>
<g>
	<path d="M220.229,338.99h8.676v1.422h-5.604c-0.225,0-0.467-0.012-0.727-0.036l4.926,2.622c0.236,0.124,0.354,0.314,0.354,0.57
		v0.228c0,0.256-0.118,0.446-0.354,0.57l-4.943,2.651c0.132-0.012,0.262-0.021,0.39-0.029s0.246-0.013,0.354-0.013h5.604v1.423
		h-8.676v-1.219c0-0.071,0.002-0.134,0.006-0.186s0.014-0.1,0.03-0.142c0.016-0.042,0.042-0.079,0.078-0.113
		c0.035-0.034,0.084-0.067,0.144-0.1l4.818-2.598c0.128-0.068,0.26-0.131,0.396-0.189c0.136-0.058,0.276-0.114,0.42-0.171
		c-0.147-0.056-0.291-0.113-0.429-0.174c-0.138-0.06-0.271-0.124-0.399-0.191l-4.806-2.563c-0.06-0.032-0.108-0.065-0.144-0.102
		c-0.036-0.036-0.063-0.075-0.078-0.117c-0.017-0.042-0.026-0.089-0.03-0.142c-0.004-0.052-0.006-0.113-0.006-0.186V338.99z"/>
	<path d="M224.566,328.784c0.636,0,1.225,0.105,1.767,0.315s1.012,0.507,1.407,0.891c0.396,0.384,0.705,0.846,0.927,1.386
		c0.223,0.54,0.333,1.141,0.333,1.8c0,0.656-0.11,1.254-0.333,1.794c-0.222,0.54-0.53,1.004-0.927,1.39
		c-0.396,0.386-0.865,0.685-1.407,0.896s-1.131,0.318-1.767,0.318s-1.225-0.106-1.768-0.318c-0.541-0.212-1.011-0.511-1.406-0.896
		c-0.396-0.386-0.705-0.85-0.928-1.39c-0.222-0.54-0.333-1.138-0.333-1.794c0-0.439,0.052-0.854,0.153-1.241
		c0.103-0.389,0.246-0.744,0.433-1.068c0.186-0.324,0.411-0.615,0.678-0.873c0.266-0.258,0.563-0.477,0.891-0.657
		c0.328-0.18,0.685-0.316,1.068-0.411C223.738,328.831,224.143,328.784,224.566,328.784z M224.566,330.435
		c-0.477,0-0.903,0.063-1.281,0.191s-0.699,0.311-0.963,0.546c-0.264,0.236-0.466,0.523-0.606,0.861
		c-0.14,0.338-0.21,0.719-0.21,1.143c0,0.425,0.07,0.806,0.21,1.144c0.141,0.338,0.343,0.626,0.606,0.864
		c0.264,0.237,0.585,0.421,0.963,0.549s0.805,0.191,1.281,0.191c0.476,0,0.903-0.063,1.281-0.191s0.697-0.312,0.96-0.549
		c0.262-0.238,0.463-0.526,0.603-0.864c0.141-0.338,0.21-0.719,0.21-1.144c0-0.424-0.069-0.805-0.21-1.143
		c-0.14-0.338-0.341-0.625-0.603-0.861c-0.263-0.235-0.582-0.418-0.96-0.546S225.042,330.435,224.566,330.435z"/>
	<path d="M221.807,322.742c0.084,0.048,0.145,0.1,0.183,0.153s0.057,0.121,0.057,0.201c0,0.084-0.03,0.175-0.093,0.272
		c-0.062,0.099-0.131,0.215-0.207,0.352c-0.076,0.136-0.145,0.295-0.207,0.477c-0.062,0.183-0.093,0.397-0.093,0.646
		c0,0.224,0.027,0.42,0.081,0.588s0.129,0.309,0.225,0.423c0.097,0.114,0.211,0.199,0.346,0.255c0.134,0.056,0.28,0.084,0.44,0.084
		c0.204,0,0.374-0.057,0.51-0.171c0.137-0.114,0.253-0.265,0.349-0.453c0.096-0.188,0.182-0.402,0.258-0.642
		c0.076-0.24,0.157-0.486,0.243-0.738s0.186-0.498,0.3-0.738s0.258-0.454,0.432-0.642c0.175-0.188,0.388-0.339,0.64-0.453
		s0.558-0.171,0.918-0.171c0.392,0,0.759,0.066,1.101,0.201c0.342,0.134,0.641,0.33,0.895,0.588s0.454,0.572,0.6,0.944
		c0.146,0.372,0.219,0.799,0.219,1.278c0,0.276-0.026,0.548-0.081,0.816c-0.054,0.268-0.131,0.524-0.23,0.771
		c-0.101,0.246-0.22,0.478-0.36,0.693c-0.14,0.216-0.296,0.408-0.468,0.576l-0.774-0.475c-0.056-0.04-0.103-0.092-0.141-0.155
		c-0.038-0.064-0.057-0.133-0.057-0.204c0-0.101,0.041-0.208,0.123-0.324s0.173-0.254,0.272-0.414
		c0.101-0.16,0.191-0.347,0.273-0.562c0.082-0.214,0.123-0.471,0.123-0.771c0-0.46-0.109-0.816-0.327-1.068
		s-0.531-0.378-0.939-0.378c-0.228,0-0.414,0.058-0.558,0.171c-0.145,0.114-0.265,0.266-0.363,0.453
		c-0.098,0.188-0.181,0.402-0.249,0.643c-0.067,0.239-0.142,0.483-0.222,0.731s-0.176,0.492-0.288,0.732s-0.258,0.454-0.438,0.642
		c-0.18,0.188-0.404,0.339-0.675,0.453c-0.27,0.114-0.603,0.171-0.999,0.171c-0.315,0-0.624-0.063-0.924-0.188
		s-0.565-0.31-0.798-0.55c-0.232-0.239-0.418-0.535-0.558-0.888c-0.141-0.352-0.211-0.756-0.211-1.212
		c0-0.512,0.08-0.984,0.24-1.416s0.384-0.8,0.672-1.104L221.807,322.742z"/>
	<path d="M228.904,319.16v1.62h-8.676v-1.62H228.904z"/>
</g>
<g>
	<path d="M240.917,342.982c0.084,0.048,0.145,0.099,0.183,0.152c0.038,0.055,0.057,0.121,0.057,0.201
		c0,0.084-0.03,0.175-0.093,0.273c-0.062,0.098-0.131,0.215-0.207,0.351s-0.145,0.295-0.207,0.478
		c-0.062,0.182-0.093,0.396-0.093,0.645c0,0.225,0.027,0.42,0.081,0.588s0.129,0.31,0.225,0.423
		c0.097,0.114,0.211,0.199,0.346,0.255c0.134,0.057,0.28,0.084,0.44,0.084c0.204,0,0.374-0.057,0.51-0.171
		c0.137-0.113,0.253-0.265,0.349-0.452c0.096-0.188,0.182-0.402,0.258-0.643s0.157-0.486,0.243-0.738s0.186-0.498,0.3-0.737
		c0.114-0.24,0.258-0.454,0.432-0.643c0.175-0.188,0.388-0.339,0.64-0.453c0.252-0.113,0.558-0.171,0.918-0.171
		c0.392,0,0.759,0.067,1.101,0.201s0.641,0.33,0.895,0.588s0.454,0.573,0.6,0.945c0.146,0.372,0.219,0.798,0.219,1.278
		c0,0.275-0.027,0.548-0.082,0.815c-0.053,0.269-0.131,0.525-0.23,0.771c-0.1,0.246-0.219,0.477-0.36,0.692
		c-0.14,0.216-0.296,0.408-0.468,0.576l-0.774-0.474c-0.056-0.04-0.103-0.092-0.141-0.156c-0.038-0.063-0.057-0.132-0.057-0.204
		c0-0.1,0.041-0.208,0.123-0.324c0.082-0.115,0.173-0.254,0.272-0.414c0.101-0.159,0.191-0.347,0.273-0.561s0.123-0.471,0.123-0.771
		c0-0.46-0.109-0.815-0.327-1.067s-0.531-0.378-0.939-0.378c-0.228,0-0.414,0.057-0.558,0.171c-0.145,0.114-0.265,0.265-0.363,0.453
		c-0.098,0.188-0.181,0.401-0.249,0.642c-0.067,0.24-0.142,0.484-0.222,0.732s-0.176,0.491-0.288,0.731s-0.258,0.454-0.438,0.643
		c-0.18,0.188-0.404,0.339-0.675,0.453c-0.27,0.113-0.603,0.171-0.999,0.171c-0.315,0-0.624-0.063-0.924-0.189
		s-0.565-0.309-0.798-0.549s-0.418-0.536-0.558-0.888c-0.141-0.353-0.211-0.757-0.211-1.212c0-0.513,0.08-0.984,0.24-1.416
		c0.16-0.433,0.384-0.801,0.672-1.104L240.917,342.982z"/>
	<path d="M243.677,333.316c0.636,0,1.22,0.105,1.752,0.317s0.99,0.511,1.374,0.895s0.682,0.846,0.894,1.386
		c0.213,0.54,0.319,1.14,0.319,1.8v3.307h-8.676v-3.307c0-0.66,0.106-1.26,0.32-1.8c0.215-0.54,0.513-1.002,0.895-1.386
		s0.839-0.683,1.371-0.895S243.042,333.316,243.677,333.316z M243.677,334.972c-0.477,0-0.903,0.063-1.281,0.189
		s-0.698,0.308-0.96,0.546s-0.463,0.526-0.603,0.864c-0.141,0.338-0.21,0.719-0.21,1.143v1.687h6.107v-1.687
		c0-0.424-0.069-0.805-0.21-1.143c-0.14-0.338-0.341-0.626-0.603-0.864c-0.263-0.238-0.582-0.42-0.96-0.546
		S244.153,334.972,243.677,334.972z"/>
	<path d="M248.016,324.73v1.248c0,0.14-0.035,0.254-0.105,0.342s-0.157,0.154-0.261,0.198l-1.77,0.647v3.594l1.77,0.648
		c0.092,0.032,0.177,0.094,0.251,0.186c0.076,0.093,0.115,0.206,0.115,0.343v1.26l-8.676-3.414v-1.645L248.016,324.73z
		 M244.739,327.58l-2.886,1.056c-0.128,0.053-0.28,0.106-0.456,0.162c-0.176,0.057-0.366,0.112-0.57,0.168
		c0.204,0.053,0.396,0.106,0.573,0.162c0.179,0.057,0.333,0.11,0.465,0.162l2.874,1.05V327.58z"/>
</g>
<g>
	<path d="M258.418,342.614c0.084,0.048,0.145,0.099,0.183,0.152c0.038,0.055,0.057,0.121,0.057,0.201
		c0,0.084-0.03,0.175-0.093,0.273c-0.062,0.098-0.131,0.215-0.207,0.351s-0.145,0.295-0.207,0.478
		c-0.062,0.182-0.093,0.396-0.093,0.645c0,0.225,0.027,0.42,0.081,0.588s0.129,0.31,0.225,0.423
		c0.097,0.114,0.211,0.199,0.346,0.255c0.134,0.057,0.28,0.084,0.44,0.084c0.204,0,0.374-0.057,0.51-0.171
		c0.137-0.113,0.253-0.265,0.349-0.452c0.096-0.188,0.182-0.402,0.258-0.643s0.157-0.486,0.243-0.738s0.186-0.498,0.3-0.737
		c0.114-0.24,0.258-0.454,0.432-0.643c0.175-0.188,0.388-0.339,0.64-0.453c0.252-0.113,0.558-0.171,0.918-0.171
		c0.392,0,0.759,0.067,1.101,0.201s0.641,0.33,0.895,0.588s0.454,0.573,0.6,0.945c0.146,0.372,0.219,0.798,0.219,1.278
		c0,0.275-0.026,0.548-0.081,0.815c-0.054,0.269-0.131,0.525-0.23,0.771c-0.101,0.246-0.22,0.477-0.36,0.692
		c-0.14,0.216-0.296,0.408-0.468,0.576l-0.774-0.474c-0.056-0.04-0.103-0.092-0.141-0.156c-0.038-0.063-0.057-0.132-0.057-0.204
		c0-0.1,0.041-0.208,0.123-0.324c0.082-0.115,0.173-0.254,0.272-0.414c0.101-0.159,0.191-0.347,0.273-0.561s0.123-0.471,0.123-0.771
		c0-0.46-0.109-0.815-0.327-1.067s-0.531-0.378-0.939-0.378c-0.228,0-0.414,0.057-0.558,0.171c-0.145,0.114-0.265,0.265-0.363,0.453
		c-0.098,0.188-0.181,0.401-0.249,0.642c-0.067,0.24-0.142,0.484-0.222,0.732s-0.176,0.491-0.288,0.731s-0.258,0.454-0.438,0.643
		c-0.18,0.188-0.404,0.339-0.675,0.453c-0.27,0.113-0.603,0.171-0.999,0.171c-0.315,0-0.624-0.063-0.924-0.189
		s-0.565-0.309-0.798-0.549s-0.418-0.536-0.558-0.888c-0.141-0.353-0.211-0.757-0.211-1.212c0-0.513,0.08-0.984,0.24-1.416
		c0.16-0.433,0.384-0.801,0.672-1.104L258.418,342.614z"/>
	<path d="M263.47,334.694c0-0.088,0.034-0.166,0.102-0.234l0.69-0.636c0.436,0.352,0.77,0.785,1.002,1.299s0.348,1.131,0.348,1.851
		c0,0.645-0.109,1.224-0.33,1.737c-0.22,0.514-0.525,0.953-0.918,1.317c-0.392,0.363-0.859,0.643-1.403,0.837
		c-0.544,0.193-1.139,0.291-1.782,0.291c-0.652,0-1.249-0.104-1.791-0.313s-1.009-0.501-1.401-0.879
		c-0.392-0.378-0.696-0.829-0.915-1.353c-0.218-0.524-0.327-1.104-0.327-1.74c0-0.632,0.104-1.193,0.313-1.684
		c0.208-0.489,0.479-0.906,0.816-1.251l0.75,0.54c0.048,0.032,0.09,0.073,0.126,0.123c0.035,0.051,0.054,0.119,0.054,0.207
		c0,0.061-0.018,0.122-0.051,0.187c-0.034,0.063-0.076,0.134-0.126,0.21c-0.051,0.076-0.105,0.164-0.165,0.264
		c-0.061,0.101-0.115,0.216-0.165,0.349c-0.05,0.132-0.092,0.284-0.126,0.459c-0.034,0.174-0.052,0.375-0.052,0.603
		c0,0.388,0.069,0.743,0.207,1.065c0.139,0.321,0.339,0.599,0.601,0.83c0.262,0.232,0.582,0.412,0.96,0.54
		c0.378,0.129,0.809,0.192,1.293,0.192c0.488,0,0.922-0.069,1.302-0.207s0.7-0.325,0.96-0.561c0.26-0.236,0.459-0.515,0.598-0.834
		c0.138-0.32,0.206-0.664,0.206-1.032c0-0.22-0.012-0.419-0.035-0.597c-0.024-0.179-0.063-0.343-0.114-0.492
		c-0.052-0.15-0.119-0.292-0.201-0.427c-0.082-0.134-0.183-0.267-0.303-0.398c-0.036-0.04-0.065-0.082-0.087-0.126
		C263.48,334.788,263.47,334.742,263.47,334.694z"/>
	<path d="M264.184,327.632h1.332v5.082h-8.676V331.1h7.344V327.632z"/>
</g>
<line fill="none" stroke="#B87332" stroke-width="2.8347" stroke-miterlimit="10" x1="415.258" y1="312.129" x2="415.258" y2="296.256"/>
<line fill="none" stroke="#000000" stroke-width="4.252" stroke-miterlimit="10" x1="427.57" y1="285.434" x2="402.945" y2="285.434"/>
<line fill="none" stroke="#000000" stroke-width="2.8347" stroke-miterlimit="10" x1="415.258" y1="299.517" x2="415.258" y2="285.434"/>
<g id="symbol_x5F_4">
</g>
<path fill="#FFF200" stroke="#000000" stroke-width="2.8347" stroke-miterlimit="10" d="M415.314,553.934
	c-0.58,0-1.135-0.117-1.637-0.33c-1.512-0.639-2.572-2.135-2.572-3.879c0-2.326,1.885-4.211,4.209-4.211
	c2.326,0,4.211,1.885,4.211,4.211C419.525,552.049,417.641,553.934,415.314,553.934z"/>
<line fill="none" stroke="#000000" stroke-width="2.8347" stroke-miterlimit="10" x1="415.314" y1="544.471" x2="415.314" y2="530.388"/>
<path fill="#ED1F24" stroke="#000000" stroke-width="2.8347" stroke-miterlimit="10" d="M301.042,508.558
	c0-0.581,0.118-1.135,0.331-1.638c0.639-1.512,2.135-2.572,3.879-2.572c2.325,0,4.21,1.885,4.21,4.21s-1.885,4.21-4.21,4.21
	S301.042,510.883,301.042,508.558z"/>
<line fill="none" stroke="#000000" stroke-width="2.8347" stroke-miterlimit="10" x1="305.252" y1="487.533" x2="305.252" y2="504.297"/>
<g>
	<path d="M285.037,524.258h-2.793v2.968h-1.447v-2.968h-2.78v-1.317h2.78v-2.951h1.447v2.951h2.793V524.258z"/>
	<path d="M288.622,521.803c0.231-0.048,0.451-0.082,0.663-0.104c0.211-0.021,0.415-0.031,0.612-0.031
		c0.547,0,1.03,0.081,1.447,0.245c0.417,0.163,0.768,0.388,1.051,0.676c0.284,0.288,0.497,0.626,0.642,1.012
		c0.144,0.387,0.215,0.803,0.215,1.249c0,0.552-0.097,1.056-0.291,1.513c-0.195,0.456-0.465,0.845-0.811,1.17
		c-0.346,0.323-0.754,0.574-1.228,0.752c-0.473,0.177-0.987,0.267-1.544,0.267c-0.326,0-0.636-0.033-0.929-0.102
		c-0.293-0.066-0.567-0.156-0.824-0.27c-0.258-0.112-0.494-0.242-0.714-0.389c-0.218-0.146-0.413-0.301-0.586-0.464l0.547-0.756
		c0.115-0.163,0.267-0.245,0.454-0.245c0.12,0,0.241,0.039,0.367,0.115c0.124,0.077,0.267,0.16,0.428,0.252
		c0.161,0.091,0.351,0.176,0.569,0.252c0.218,0.077,0.48,0.114,0.789,0.114c0.325,0,0.613-0.053,0.863-0.158
		s0.457-0.253,0.622-0.442c0.167-0.189,0.291-0.415,0.375-0.677c0.083-0.261,0.126-0.546,0.126-0.853
		c0-0.566-0.164-1.01-0.494-1.329c-0.328-0.319-0.814-0.479-1.457-0.479c-0.495,0-1.001,0.092-1.52,0.273l-1.108-0.316l0.864-5.055
		h5.141v0.756c0,0.255-0.08,0.461-0.238,0.619s-0.428,0.237-0.806,0.237h-2.858L288.622,521.803z"/>
	<path d="M304.132,518.023l-4.204,10.411h-1.75l-4.206-10.411h1.557c0.167,0,0.305,0.041,0.41,0.122
		c0.105,0.082,0.184,0.188,0.236,0.317l2.456,6.351c0.081,0.206,0.16,0.433,0.233,0.68c0.075,0.247,0.146,0.505,0.214,0.774
		c0.057-0.27,0.119-0.527,0.186-0.774c0.068-0.247,0.143-0.474,0.225-0.68l2.44-6.351c0.038-0.111,0.114-0.212,0.227-0.302
		c0.112-0.092,0.251-0.138,0.413-0.138H304.132z"/>
	<path d="M309.086,523.921c0,0.988,0.12,1.96,0.36,2.915c0.239,0.955,0.583,1.853,1.029,2.693c0.048,0.096,0.076,0.181,0.083,0.255
		s0.001,0.14-0.019,0.195c-0.019,0.055-0.05,0.103-0.089,0.144c-0.041,0.041-0.086,0.075-0.134,0.104l-0.792,0.482
		c-0.355-0.547-0.658-1.097-0.907-1.648c-0.25-0.553-0.454-1.109-0.612-1.671s-0.275-1.13-0.349-1.706
		c-0.075-0.577-0.111-1.164-0.111-1.764c0-0.601,0.036-1.189,0.111-1.769c0.073-0.578,0.19-1.148,0.349-1.71
		s0.362-1.117,0.612-1.666c0.249-0.55,0.552-1.099,0.907-1.646l0.792,0.475c0.048,0.029,0.093,0.064,0.134,0.105
		c0.039,0.04,0.07,0.088,0.089,0.143c0.02,0.057,0.025,0.121,0.019,0.194c-0.007,0.075-0.035,0.163-0.083,0.264
		c-0.446,0.835-0.79,1.731-1.029,2.688C309.206,521.958,309.086,522.932,309.086,523.921z"/>
	<path d="M316.098,522.487c-0.048,0.077-0.098,0.131-0.15,0.162s-0.121,0.047-0.202,0.047c-0.087,0-0.179-0.023-0.277-0.072
		c-0.099-0.048-0.212-0.102-0.343-0.161c-0.129-0.062-0.276-0.115-0.442-0.163c-0.165-0.048-0.361-0.071-0.586-0.071
		c-0.351,0-0.626,0.073-0.825,0.223c-0.199,0.148-0.299,0.343-0.299,0.583c0,0.158,0.052,0.292,0.154,0.4
		c0.104,0.107,0.24,0.202,0.412,0.284c0.17,0.081,0.363,0.155,0.578,0.22c0.216,0.064,0.437,0.136,0.659,0.212
		c0.224,0.077,0.442,0.165,0.658,0.264c0.217,0.099,0.41,0.223,0.58,0.374c0.17,0.15,0.308,0.332,0.41,0.543
		c0.104,0.211,0.155,0.466,0.155,0.764c0,0.354-0.063,0.683-0.19,0.982c-0.128,0.301-0.316,0.56-0.565,0.777
		c-0.25,0.219-0.559,0.389-0.925,0.512c-0.368,0.122-0.791,0.184-1.271,0.184c-0.255,0-0.503-0.022-0.745-0.068
		s-0.475-0.109-0.699-0.191c-0.223-0.08-0.429-0.177-0.618-0.288c-0.19-0.11-0.356-0.229-0.501-0.359l0.41-0.677
		c0.053-0.082,0.116-0.144,0.188-0.188c0.072-0.043,0.163-0.064,0.273-0.064c0.111,0,0.216,0.031,0.314,0.093
		c0.098,0.063,0.212,0.13,0.342,0.202c0.129,0.072,0.281,0.139,0.457,0.202c0.175,0.063,0.397,0.093,0.666,0.093
		c0.211,0,0.393-0.024,0.543-0.075c0.151-0.05,0.275-0.116,0.374-0.198s0.171-0.177,0.217-0.284c0.046-0.108,0.068-0.22,0.068-0.334
		c0-0.174-0.052-0.315-0.155-0.426c-0.103-0.11-0.24-0.206-0.41-0.288c-0.171-0.081-0.365-0.154-0.583-0.219
		s-0.442-0.137-0.669-0.213c-0.229-0.077-0.451-0.167-0.671-0.271c-0.218-0.103-0.412-0.233-0.582-0.393
		c-0.171-0.158-0.308-0.353-0.411-0.582c-0.104-0.231-0.155-0.509-0.155-0.836c0-0.302,0.062-0.591,0.181-0.863
		c0.119-0.274,0.297-0.513,0.529-0.718c0.232-0.203,0.523-0.366,0.871-0.488c0.348-0.123,0.75-0.184,1.206-0.184
		c0.509,0,0.973,0.084,1.39,0.252c0.417,0.167,0.766,0.389,1.044,0.662L316.098,522.487z"/>
	<path d="M328.469,521.047l-2.348,7.388h-1.426c-0.163,0-0.277-0.105-0.339-0.316l-1.324-4.271c-0.044-0.144-0.083-0.286-0.12-0.428
		c-0.035-0.142-0.065-0.284-0.089-0.429c-0.029,0.145-0.062,0.289-0.097,0.436c-0.037,0.146-0.076,0.292-0.12,0.437l-1.347,4.255
		c-0.057,0.211-0.184,0.316-0.381,0.316h-1.368l-2.339-7.388h1.418c0.13,0,0.24,0.032,0.331,0.094
		c0.091,0.063,0.151,0.142,0.18,0.238l1.058,3.945c0.053,0.216,0.1,0.427,0.141,0.633c0.041,0.208,0.076,0.414,0.104,0.62
		c0.053-0.206,0.109-0.412,0.17-0.62c0.06-0.206,0.123-0.417,0.19-0.633l1.225-3.96c0.029-0.096,0.085-0.176,0.168-0.237
		c0.085-0.063,0.187-0.094,0.307-0.094h0.785c0.125,0,0.231,0.031,0.32,0.094c0.088,0.062,0.146,0.142,0.176,0.237l1.188,3.96
		c0.063,0.216,0.121,0.428,0.176,0.638c0.056,0.209,0.109,0.416,0.163,0.622c0.063-0.407,0.151-0.828,0.266-1.26l1.088-3.945
		c0.033-0.097,0.094-0.176,0.18-0.238c0.086-0.062,0.189-0.094,0.309-0.094H328.469z"/>
	<path d="M330.218,523.921c0-0.989-0.119-1.963-0.357-2.921c-0.236-0.957-0.579-1.854-1.025-2.688
		c-0.053-0.101-0.083-0.188-0.09-0.264c-0.007-0.073-0.001-0.138,0.018-0.194c0.02-0.055,0.049-0.103,0.09-0.143
		c0.041-0.041,0.088-0.076,0.141-0.105l0.792-0.475c0.355,0.547,0.658,1.096,0.907,1.646c0.25,0.549,0.454,1.104,0.612,1.666
		s0.273,1.132,0.346,1.71c0.072,0.579,0.107,1.168,0.107,1.769c0,0.6-0.035,1.187-0.107,1.764c-0.072,0.576-0.188,1.145-0.346,1.706
		s-0.362,1.118-0.612,1.671c-0.249,0.552-0.552,1.102-0.907,1.648l-0.792-0.482c-0.053-0.029-0.1-0.063-0.141-0.104
		s-0.07-0.089-0.09-0.144c-0.019-0.056-0.024-0.121-0.018-0.195s0.037-0.159,0.09-0.255c0.446-0.841,0.789-1.738,1.025-2.693
		C330.099,525.881,330.218,524.909,330.218,523.921z"/>
</g>
<g>
	<path d="M433.722,541.816l-4.205,10.411h-1.749l-4.206-10.411h1.557c0.167,0,0.305,0.041,0.41,0.122
		c0.105,0.082,0.184,0.188,0.236,0.317l2.456,6.351c0.081,0.206,0.159,0.433,0.233,0.68c0.075,0.247,0.146,0.505,0.213,0.774
		c0.058-0.27,0.12-0.527,0.187-0.774c0.068-0.247,0.142-0.474,0.224-0.68l2.441-6.351c0.037-0.111,0.113-0.212,0.227-0.303
		c0.112-0.091,0.25-0.137,0.413-0.137H433.722z"/>
	<path d="M435.948,547.605c0,0.119-0.024,0.23-0.072,0.335c-0.05,0.105-0.114,0.197-0.193,0.274
		c-0.081,0.078-0.175,0.142-0.283,0.188c-0.108,0.047-0.224,0.07-0.347,0.07c-0.119,0-0.233-0.023-0.339-0.07
		c-0.106-0.046-0.199-0.109-0.277-0.188c-0.078-0.077-0.141-0.169-0.188-0.274c-0.047-0.104-0.07-0.216-0.07-0.335
		c0-0.123,0.023-0.239,0.07-0.347c0.047-0.109,0.109-0.202,0.188-0.28s0.171-0.141,0.277-0.188c0.105-0.047,0.22-0.07,0.339-0.07
		c0.123,0,0.238,0.023,0.347,0.07s0.202,0.109,0.283,0.188c0.079,0.078,0.144,0.171,0.193,0.28
		C435.924,547.366,435.948,547.482,435.948,547.605z M435.757,549.279v5.742h-1.387v-5.742H435.757z"/>
	<path d="M438.461,549.984c0.116-0.116,0.237-0.224,0.366-0.322s0.266-0.183,0.408-0.252c0.145-0.069,0.298-0.123,0.462-0.162
		s0.343-0.06,0.538-0.06c0.313,0,0.59,0.054,0.833,0.161c0.242,0.105,0.445,0.255,0.608,0.447c0.161,0.192,0.284,0.422,0.369,0.688
		c0.084,0.268,0.125,0.562,0.125,0.882v3.655h-1.382v-3.655c0-0.351-0.081-0.622-0.241-0.814s-0.404-0.288-0.732-0.288
		c-0.239,0-0.463,0.055-0.672,0.162c-0.209,0.108-0.407,0.256-0.594,0.442v4.153h-1.382v-5.742h0.845
		c0.18,0,0.297,0.084,0.354,0.252L438.461,549.984z"/>
	<path d="M446.864,547.713c0,0.989,0.12,1.961,0.36,2.916c0.239,0.955,0.583,1.853,1.029,2.693c0.048,0.096,0.076,0.18,0.083,0.255
		c0.007,0.074,0.001,0.14-0.019,0.194c-0.019,0.056-0.05,0.104-0.089,0.145c-0.041,0.041-0.086,0.075-0.134,0.104l-0.792,0.482
		c-0.355-0.547-0.658-1.097-0.907-1.648c-0.25-0.554-0.454-1.11-0.612-1.671c-0.158-0.562-0.275-1.13-0.349-1.707
		c-0.075-0.576-0.111-1.163-0.111-1.764c0-0.6,0.036-1.189,0.111-1.768c0.073-0.578,0.19-1.148,0.349-1.71s0.362-1.117,0.612-1.667
		c0.249-0.549,0.552-1.098,0.907-1.645l0.792,0.475c0.048,0.029,0.093,0.064,0.134,0.105c0.039,0.039,0.07,0.088,0.089,0.143
		c0.02,0.057,0.025,0.121,0.019,0.194c-0.007,0.075-0.035,0.163-0.083,0.264c-0.446,0.835-0.79,1.731-1.029,2.688
		C446.984,545.75,446.864,546.725,446.864,547.713z"/>
	<path d="M451.256,545.848c0.303-0.34,0.646-0.616,1.03-0.827s0.836-0.316,1.354-0.316c0.403,0,0.771,0.083,1.105,0.252
		c0.334,0.167,0.621,0.411,0.863,0.729c0.242,0.32,0.43,0.713,0.563,1.182c0.131,0.468,0.198,1.004,0.198,1.609
		c0,0.552-0.075,1.063-0.224,1.533c-0.149,0.471-0.361,0.878-0.638,1.224c-0.275,0.346-0.609,0.615-1.001,0.81
		c-0.392,0.195-0.828,0.292-1.313,0.292c-0.413,0-0.766-0.063-1.059-0.19s-0.554-0.304-0.785-0.529v3.023h-1.777v-9.799h1.086
		c0.231,0,0.382,0.107,0.454,0.324L451.256,545.848z M451.35,550.313c0.202,0.245,0.422,0.417,0.659,0.518
		c0.237,0.102,0.495,0.151,0.774,0.151c0.269,0,0.511-0.05,0.727-0.151c0.217-0.101,0.399-0.254,0.551-0.46s0.269-0.467,0.349-0.782
		c0.082-0.313,0.123-0.684,0.123-1.111c0-0.433-0.035-0.799-0.104-1.099c-0.07-0.3-0.17-0.544-0.299-0.731
		c-0.131-0.186-0.287-0.323-0.473-0.41c-0.184-0.086-0.395-0.129-0.629-0.129c-0.371,0-0.685,0.078-0.943,0.233
		c-0.26,0.156-0.504,0.376-0.735,0.659V550.313z"/>
	<path d="M458.341,547.713c0-0.988-0.119-1.963-0.357-2.92c-0.236-0.957-0.578-1.854-1.025-2.688
		c-0.053-0.101-0.083-0.188-0.09-0.264c-0.007-0.073-0.001-0.138,0.018-0.194c0.02-0.055,0.049-0.104,0.09-0.143
		c0.041-0.041,0.088-0.076,0.141-0.105l0.793-0.475c0.354,0.547,0.657,1.096,0.906,1.645c0.25,0.55,0.454,1.105,0.612,1.667
		s0.274,1.132,0.346,1.71c0.072,0.578,0.107,1.168,0.107,1.768c0,0.601-0.035,1.188-0.107,1.764
		c-0.071,0.577-0.188,1.146-0.346,1.707c-0.158,0.561-0.362,1.117-0.612,1.671c-0.249,0.552-0.552,1.102-0.906,1.648l-0.793-0.482
		c-0.053-0.029-0.1-0.063-0.141-0.104s-0.07-0.089-0.09-0.145c-0.019-0.055-0.024-0.12-0.018-0.194
		c0.007-0.075,0.037-0.159,0.09-0.255c0.447-0.841,0.789-1.738,1.025-2.693C458.222,549.674,458.341,548.702,458.341,547.713z"/>
</g>
</svg>
