<svg enable-background="new 0 0 496 565" height="565" viewBox="0 0 496 565" width="496" xmlns="http://www.w3.org/2000/svg"><path d="m9.456 351.689h477.311v121.49h-477.311z" fill="#424143"/><path d="m11.29 457.276h206.106v15.903h-206.106z"/><path d="m282.482 457.276h206.118v15.903h-206.118z"/><path d="m11.29 351.689h15.905v109.922h-15.905z"/><path d="m472.68 351.689h15.921v105.587h-15.921z"/><path d="m27.195 351.689h445.484v15.903h-445.484z"/><g fill="none"><path d="m45.5 46.633v-35.274" stroke="#000" stroke-miterlimit="10" stroke-width="2.8347"/><path d="m454.499 46.469v-35.276" stroke="#000" stroke-miterlimit="10" stroke-width="2.8347"/><path d="m84.371 205.885v-159.252" stroke="#b87332" stroke-miterlimit="10" stroke-width="2.8347"/><path d="m84.869 245.584v144.336" stroke="#b87332" stroke-miterlimit="10" stroke-width="2.8347"/><path d="m75.854 205.885h17.035v39.699h-17.035z" stroke="#000" stroke-miterlimit="10" stroke-width="2.8347"/><path d="m67.482 261.619v-214.986" stroke="#b87332" stroke-miterlimit="10" stroke-width="2.8347"/><path d="m82 430.804h-14.02v-129.173" stroke="#b87332" stroke-miterlimit="10" stroke-width="2.8347"/><path d="m121.038 205.885v-159.252" stroke="#b87332" stroke-miterlimit="10" stroke-width="2.8347"/><path d="m121.536 245.584v144.336" stroke="#b87332" stroke-miterlimit="10" stroke-width="2.8347"/><path d="m112.52 205.885h17.035v39.699h-17.035z" stroke="#000" stroke-miterlimit="10" stroke-width="2.8347"/><path d="m104.149 261.619v-214.986" stroke="#b87332" stroke-miterlimit="10" stroke-width="2.8347"/><path d="m118.667 430.804h-14.02v-129.173" stroke="#b87332" stroke-miterlimit="10" stroke-width="2.8347"/><path d="m157.371 205.885v-159.252" stroke="#b87332" stroke-miterlimit="10" stroke-width="2.8347"/><path d="m157.869 245.584v144.336" stroke="#b87332" stroke-miterlimit="10" stroke-width="2.8347"/><path d="m148.854 205.885h17.035v39.699h-17.035z" stroke="#000" stroke-miterlimit="10" stroke-width="2.8347"/><path d="m140.482 261.619v-214.986" stroke="#b87332" stroke-miterlimit="10" stroke-width="2.8347"/><path d="m155 430.804h-14.02v-129.173" stroke="#b87332" stroke-miterlimit="10" stroke-width="2.8347"/><path d="m194.502 205.885v-159.252" stroke="#b87332" stroke-miterlimit="10" stroke-width="2.8347"/><path d="m195 245.584v144.336" stroke="#b87332" stroke-miterlimit="10" stroke-width="2.8347"/><path d="m185.984 205.885h17.035v39.699h-17.035z" stroke="#000" stroke-miterlimit="10" stroke-width="2.8347"/><path d="m177.613 261.619v-214.986" stroke="#b87332" stroke-miterlimit="10" stroke-width="2.8347"/><path d="m192.131 430.804h-14.02v-129.173" stroke="#b87332" stroke-miterlimit="10" stroke-width="2.8347"/><path d="m231.371 205.885v-159.252" stroke="#b87332" stroke-miterlimit="10" stroke-width="2.8347"/><path d="m231.869 245.584v144.336" stroke="#b87332" stroke-miterlimit="10" stroke-width="2.8347"/><path d="m222.854 205.885h17.035v39.699h-17.035z" stroke="#000" stroke-miterlimit="10" stroke-width="2.8347"/><path d="m214.482 261.619v-214.986" stroke="#b87332" stroke-miterlimit="10" stroke-width="2.8347"/><path d="m229 430.804h-14.02v-129.173" stroke="#b87332" stroke-miterlimit="10" stroke-width="2.8347"/><path d="m58.965 261.619h17.035v39.699h-17.035z" stroke="#000" stroke-miterlimit="10" stroke-width="2.8347"/><path d="m95.631 261.619h17.035v39.699h-17.035z" stroke="#000" stroke-miterlimit="10" stroke-width="2.8347"/><path d="m131.965 261.619h17.035v39.699h-17.035z" stroke="#000" stroke-miterlimit="10" stroke-width="2.8347"/><path d="m169.096 261.619h17.035v39.699h-17.035z" stroke="#000" stroke-miterlimit="10" stroke-width="2.8347"/><path d="m205.965 261.619h17.035v39.699h-17.035z" stroke="#000" stroke-miterlimit="10" stroke-width="2.8347"/><path d="m267.982 205.885v-159.252" stroke="#b87332" stroke-miterlimit="10" stroke-width="2.8347"/><path d="m268.48 245.584v144.336" stroke="#b87332" stroke-miterlimit="10" stroke-width="2.8347"/><path d="m259.465 205.885h17.035v39.699h-17.035z" stroke="#000" stroke-miterlimit="10" stroke-width="2.8347"/><path d="m251.094 261.619v-214.986" stroke="#b87332" stroke-miterlimit="10" stroke-width="2.8347"/><path d="m265.611 430.804h-14.019v-129.173" stroke="#b87332" stroke-miterlimit="10" stroke-width="2.8347"/></g><path d="m79.99 389.434h9.262v9.264h-9.262z" fill="#c3996c"/><path d="m116.723 389.434h9.264v9.264h-9.264z" fill="#c3996c"/><path d="m153.461 389.434h9.262v9.264h-9.262z" fill="#c3996c"/><path d="m190.194 389.434h9.263v9.264h-9.263z" fill="#c3996c"/><path d="m116.723 426.174h9.264v9.26h-9.264z" fill="#c3996c"/><path d="m153.461 426.174h9.262v9.26h-9.262z" fill="#c3996c"/><path d="m190.194 426.174h9.263v9.26h-9.263z" fill="#c3996c"/><path d="m226.938 389.434h9.264v9.264h-9.264z" fill="#c3996c"/><path d="m263.67 389.434h9.262v9.264h-9.262z" fill="#c3996c"/><path d="m300.41 389.434h9.263v9.264h-9.263z" fill="#c3996c"/><path d="m337.143 389.434h9.264v9.264h-9.264z" fill="#c3996c"/><path d="m226.938 426.174h9.264v9.26h-9.264z" fill="#c3996c"/><path d="m263.67 426.174h9.262v9.26h-9.262z" fill="#c3996c"/><path d="m300.41 426.174h9.263v9.26h-9.263z" fill="#c3996c"/><path d="m337.143 426.174h9.264v9.26h-9.264z" fill="#c3996c"/><path d="m373.892 389.434h9.264v9.264h-9.264z" fill="#c3996c"/><path d="m410.627 389.434h9.262v9.264h-9.262z" fill="#c3996c"/><path d="m373.892 426.174h9.264v9.26h-9.264z" fill="#c3996c"/><path d="m410.627 426.174h9.262v9.26h-9.262z" fill="#c3996c"/><path d="m79.99 426.174h9.262v9.26h-9.262z" fill="#c3996c"/><path d="m242.576 261.619h17.035v39.699h-17.035z" fill="none" stroke="#000" stroke-miterlimit="10" stroke-width="2.8347"/><path d="m78.483 401.603h25.666v21.334h-25.666z" fill="none"/><text fill="#fff" font-family="'Lato-Bold'" font-size="12" transform="translate(87.8359 410.5176)">2</text><path d="m78.483 437.942h25.666v21.334h-25.666z" fill="none"/><text fill="#fff" font-family="'Lato-Bold'" font-size="12" transform="translate(87.8359 446.8594)">1</text><path d="m113.153 401.603h25.666v21.334h-25.666z" fill="none"/><text fill="#fff" font-family="'Lato-Bold'" font-size="12" transform="translate(122.5063 410.5176)">4</text><path d="m113.153 437.942h25.666v21.334h-25.666z" fill="none"/><text fill="#fff" font-family="'Lato-Bold'" font-size="12" transform="translate(122.5063 446.8594)">3</text><path d="m149.89 401.603h25.666v21.334h-25.666z" fill="none"/><text fill="#fff" font-family="'Lato-Bold'" font-size="12" transform="translate(159.2427 410.5176)">6</text><path d="m149.89 437.942h25.666v21.334h-25.666z" fill="none"/><text fill="#fff" font-family="'Lato-Bold'" font-size="12" transform="translate(159.2427 446.8594)">5</text><path d="m186.624 401.603h25.666v21.334h-25.666z" fill="none"/><text fill="#fff" font-family="'Lato-Bold'" font-size="12" transform="translate(195.9771 410.5176)">8</text><path d="m186.624 437.942h25.666v21.334h-25.666z" fill="none"/><text fill="#fff" font-family="'Lato-Bold'" font-size="12" transform="translate(195.9771 446.8594)">7</text><path d="m223.369 401.603h25.666v21.334h-25.666z" fill="none"/><text fill="#fff" font-family="'Lato-Bold'" font-size="12" transform="translate(229.2422 410.5176)">10</text><path d="m223.369 437.942h25.666v21.334h-25.666z" fill="none"/><text fill="#fff" font-family="'Lato-Bold'" font-size="12" transform="translate(232.7222 446.8594)">9</text><path d="m260.098 401.603h25.666v21.334h-25.666z" fill="none"/><text fill="#fff" font-family="'Lato-Bold'" font-size="12" transform="translate(265.9707 410.5176)">12</text><path d="m260.098 437.942h25.666v21.334h-25.666z" fill="none"/><text fill="#fff" font-family="'Lato-Bold'" font-size="12" transform="translate(265.9707 446.8594)">11</text><path d="m313.923 409.408v1.109h-4.8v-1.109h1.758v-5.059c0-.199.006-.406.018-.617l-1.248 1.043c-.071.057-.143.092-.213.105s-.136.016-.197.004c-.063-.014-.117-.033-.166-.064-.047-.029-.084-.063-.107-.098l-.468-.643 2.646-2.25h1.219v7.578h1.558z" fill="#fff"/><path d="m321.326 407.248v.857c0 .08-.025.15-.077.207-.052.059-.126.088-.222.088h-.793v2.117h-1.289v-2.117h-3.66c-.1 0-.188-.031-.264-.094s-.125-.139-.145-.23l-.156-.75 4.11-5.49h1.403v5.412zm-2.381 0v-2.838c0-.268.018-.564.054-.889l-2.694 3.727z" fill="#fff"/><path d="m313.923 445.748v1.111h-4.8v-1.111h1.758v-5.057c0-.201.006-.406.018-.619l-1.248 1.045c-.071.057-.143.09-.213.105-.07.014-.136.014-.197.002-.063-.012-.117-.033-.166-.063-.047-.029-.084-.063-.107-.1l-.468-.643 2.646-2.25h1.219v7.578h1.558z" fill="#fff"/><path d="m315.32 440.602c.061-.416.176-.781.349-1.096.172-.314.387-.576.646-.785.258-.211.553-.369.887-.475s.693-.16 1.078-.16c.399 0 .761.059 1.082.172.322.113.598.271.826.475.228.201.402.439.524.711s.183.566.183.881c0 .277-.031.52-.093.73-.062.209-.151.393-.267.549s-.26.287-.432.395c-.173.109-.367.199-.582.271.52.164.907.414 1.164.75.256.336.383.758.383 1.266 0 .432-.08.814-.24 1.146-.159.332-.375.609-.647.836s-.587.396-.944.514c-.358.115-.737.174-1.138.174-.437 0-.815-.051-1.14-.15s-.605-.248-.846-.443c-.24-.197-.444-.436-.612-.721-.168-.283-.312-.611-.433-.984l.654-.27c.172-.072.333-.09.483-.057.149.033.259.115.327.242.072.141.15.279.236.414.086.137.189.258.309.363.121.105.262.191.424.258s.355.1.579.1c.252 0 .472-.041.659-.123.188-.082.346-.189.472-.32.126-.133.22-.279.282-.441s.093-.326.093-.49c0-.207-.022-.396-.065-.566-.045-.17-.137-.314-.277-.436-.139-.119-.34-.213-.602-.281-.263-.068-.613-.102-1.054-.102v-1.057c.364-.004.666-.037.905-.102.24-.064.432-.152.574-.268.142-.113.24-.25.297-.41.056-.16.084-.336.084-.529 0-.406-.114-.717-.342-.93-.229-.211-.533-.318-.912-.318-.177 0-.338.025-.486.076-.148.049-.281.119-.398.209-.119.09-.218.195-.298.316-.08.119-.14.252-.18.395-.068.186-.157.307-.267.367-.111.061-.266.074-.465.041z" fill="#fff"/><path d="m350.656 409.408v1.109h-4.799v-1.109h1.758v-5.059c0-.199.006-.406.018-.617l-1.248 1.043c-.072.057-.143.092-.213.105s-.137.016-.198.004c-.062-.014-.116-.033-.165-.064-.048-.029-.084-.063-.107-.098l-.469-.643 2.646-2.25h1.218v7.578h1.559z" fill="#fff"/><path d="m354.539 404.992-.301.371c.168-.084.35-.148.543-.193.194-.047.403-.07.627-.07.328 0 .647.055.957.162.311.107.584.271.819.49.236.217.427.488.57.813s.216.701.216 1.133c0 .404-.074.783-.223 1.139-.147.354-.355.662-.623.926s-.592.473-.969.625c-.379.15-.795.227-1.252.227-.463 0-.879-.074-1.248-.221-.367-.148-.682-.355-.941-.621s-.459-.586-.598-.961c-.137-.373-.207-.789-.207-1.244 0-.408.084-.828.25-1.258s.422-.877.771-1.34l2.07-2.779c.071-.096.177-.178.315-.246.137-.066.297-.102.477-.102h1.32zm.336 4.41c.236 0 .453-.041.65-.121.198-.08.368-.191.51-.336.143-.143.254-.313.334-.506.08-.195.119-.406.119-.633 0-.248-.037-.471-.113-.67-.076-.197-.184-.365-.324-.504s-.309-.242-.504-.314c-.196-.072-.412-.107-.648-.107s-.449.039-.642.119-.356.191-.492.332c-.136.143-.242.311-.317.506-.076.193-.115.402-.115.627 0 .238.033.459.1.656s.164.367.294.508c.13.139.291.248.483.326.19.078.413.117.665.117z" fill="#fff"/><path d="m350.656 445.748v1.111h-4.799v-1.111h1.758v-5.057c0-.201.006-.406.018-.619l-1.248 1.045c-.072.057-.143.09-.213.105-.07.014-.137.014-.198.002s-.116-.033-.165-.063c-.048-.029-.084-.063-.107-.1l-.469-.643 2.646-2.25h1.218v7.578h1.559z" fill="#fff"/><path d="m353.843 441.332c.192-.039.376-.068.552-.086s.346-.027.51-.027c.457 0 .858.068 1.207.205.348.135.639.322.875.563s.414.521.534.844.181.668.181 1.041c0 .459-.082.879-.244 1.26-.161.381-.387.705-.674.975-.289.27-.629.479-1.023.627s-.823.223-1.287.223c-.271 0-.529-.027-.773-.084s-.474-.131-.688-.225-.412-.203-.594-.324c-.182-.123-.346-.252-.489-.387l.456-.631c.096-.135.223-.203.378-.203.101 0 .202.031.306.096.104.064.223.133.357.209s.292.146.475.211c.182.064.4.096.656.096.271 0 .512-.045.721-.133.207-.088.381-.211.519-.369.138-.156.241-.346.312-.563.07-.219.105-.455.105-.711 0-.473-.137-.842-.411-1.107s-.679-.398-1.215-.398c-.412 0-.834.076-1.267.227l-.924-.264.721-4.211h4.283v.629c0 .213-.065.385-.197.516-.133.133-.356.199-.672.199h-2.383z" fill="#fff"/><path d="m387.405 409.408v1.109h-4.8v-1.109h1.758v-5.059c0-.199.006-.406.018-.617l-1.248 1.043c-.071.057-.143.092-.213.105s-.136.016-.197.004c-.063-.014-.117-.033-.166-.064-.047-.029-.084-.063-.107-.098l-.468-.643 2.646-2.25h1.219v7.578h1.558z" fill="#fff"/><path d="m393.1 405.994c.527.172.918.436 1.17.789s.378.787.378 1.299c0 .385-.073.732-.22 1.045-.146.311-.351.578-.614.797-.265.221-.581.391-.951.51-.37.121-.779.18-1.228.18-.447 0-.856-.059-1.227-.18-.37-.119-.688-.289-.951-.51-.264-.219-.469-.486-.615-.797-.146-.313-.219-.66-.219-1.045 0-.512.127-.945.379-1.299s.641-.617 1.17-.789c-.42-.176-.736-.426-.945-.75-.211-.324-.315-.715-.315-1.17 0-.328.067-.635.201-.918s.321-.531.562-.74c.239-.211.526-.375.86-.492.334-.119.701-.178 1.101-.178s.768.059 1.102.178c.334.117.621.281.861.492.24.209.427.457.561.74.135.283.201.59.201.918 0 .455-.105.846-.314 1.17-.213.324-.527.574-.947.75zm-1.465 3.463c.244 0 .459-.035.643-.105s.339-.168.465-.291c.126-.125.221-.271.285-.445.064-.172.096-.357.096-.557 0-.477-.132-.836-.396-1.08s-.627-.367-1.092-.367c-.463 0-.828.123-1.092.367s-.396.604-.396 1.08c0 .199.032.385.096.557.063.174.159.32.285.445.126.123.28.221.465.291s.397.105.641.105zm0-6.596c-.22 0-.41.035-.569.104-.16.066-.294.158-.399.271-.105.115-.184.246-.234.395-.049.146-.074.303-.074.467 0 .172.021.34.063.502.043.162.113.305.213.432.101.125.232.227.396.303s.366.113.605.113c.24 0 .442-.037.606-.113s.296-.178.396-.303c.101-.127.172-.27.213-.432.043-.162.063-.33.063-.502 0-.164-.026-.32-.077-.467-.053-.148-.131-.279-.234-.395-.104-.113-.236-.205-.396-.271-.162-.069-.352-.104-.572-.104z" fill="#fff"/><path d="m387.405 445.748v1.111h-4.8v-1.111h1.758v-5.057c0-.201.006-.406.018-.619l-1.248 1.045c-.071.057-.143.09-.213.105-.07.014-.136.014-.197.002-.063-.012-.117-.033-.166-.063-.047-.029-.084-.063-.107-.1l-.468-.643 2.646-2.25h1.219v7.578h1.558z" fill="#fff"/><path d="m394.707 438.184v.641c0 .193-.02.348-.06.465-.04.119-.08.219-.12.297l-3.288 6.77c-.067.139-.164.258-.288.355-.124.1-.29.148-.498.148h-1.074l3.354-6.631c.075-.135.151-.26.226-.375.073-.113.156-.223.248-.326h-4.152c-.092 0-.172-.035-.239-.102-.068-.068-.103-.148-.103-.24v-1.002z" fill="#fff"/><path d="m423.814 409.139c.16 0 .287.045.381.135s.142.209.142.357v.887h-5.952v-.492c0-.1.021-.205.063-.314.043-.109.109-.209.201-.297l2.635-2.641c.219-.223.416-.438.59-.641.175-.205.32-.406.436-.607.116-.199.205-.402.268-.607.062-.207.093-.424.093-.652 0-.207-.03-.391-.091-.549-.06-.158-.145-.291-.254-.398-.11-.107-.242-.189-.396-.244-.154-.053-.327-.08-.52-.08-.176 0-.338.025-.488.074-.15.051-.283.121-.399.211s-.214.195-.294.314c-.08.121-.141.252-.18.396-.068.184-.156.307-.264.365-.108.061-.265.074-.469.043l-.779-.139c.06-.416.176-.781.348-1.094.172-.314.387-.576.645-.787.258-.209.555-.367.889-.475.334-.105.693-.158 1.076-.158.4 0 .767.059 1.099.178.332.117.616.285.853.5.235.217.42.477.551.779.133.305.199.643.199 1.016 0 .32-.048.615-.142.887-.095.273-.22.533-.378.781s-.344.488-.555.719c-.213.232-.435.469-.666.709l-1.957 1.998c.188-.057.375-.1.562-.129.187-.031.363-.045.531-.045z" fill="#fff"/><path d="m431.549 406.18c0 .756-.081 1.414-.243 1.971-.162.559-.386 1.02-.672 1.383-.286.365-.624.637-1.015.814-.39.178-.811.266-1.263.266s-.87-.088-1.257-.266-.721-.449-1.005-.814c-.284-.363-.507-.824-.666-1.383-.16-.557-.24-1.215-.24-1.971 0-.76.08-1.418.24-1.973.159-.557.382-1.018.666-1.381s.618-.635 1.005-.813.805-.268 1.257-.268.873.09 1.263.268c.391.178.729.449 1.015.813s.51.824.672 1.381c.162.555.243 1.213.243 1.973zm-1.53 0c0-.627-.046-1.148-.138-1.561-.092-.41-.215-.738-.369-.982s-.331-.416-.531-.514c-.199-.098-.408-.146-.624-.146-.212 0-.417.049-.614.146-.199.098-.373.27-.525.514s-.273.572-.363.982c-.09.412-.135.934-.135 1.561 0 .629.045 1.148.135 1.561s.211.74.363.984.326.414.525.512c.197.1.402.148.614.148.216 0 .425-.049.624-.148.2-.098.377-.268.531-.512s.277-.572.369-.984.138-.932.138-1.561z" fill="#fff"/><path d="m424.139 445.748v1.111h-4.8v-1.111h1.758v-5.057c0-.201.006-.406.019-.619l-1.248 1.045c-.072.057-.144.09-.213.105-.07.014-.137.014-.199.002s-.116-.033-.164-.063c-.049-.029-.084-.063-.108-.1l-.468-.643 2.646-2.25h1.217v7.578h1.56z" fill="#fff"/><path d="m428.837 443.492c.067-.084.132-.166.192-.246s.117-.158.174-.238c-.201.127-.42.225-.66.291-.24.064-.492.098-.756.098-.301 0-.594-.051-.883-.156-.287-.104-.543-.26-.768-.471-.225-.209-.405-.469-.543-.779-.139-.311-.207-.674-.207-1.09 0-.387.072-.752.216-1.092s.347-.637.606-.895c.26-.256.572-.457.936-.605s.766-.223 1.206-.223c.444 0 .843.07 1.197.211s.655.336.905.588.442.555.576.906c.135.352.201.738.201 1.158 0 .268-.023.521-.068.762-.047.24-.111.471-.195.693-.084.221-.186.439-.307.65-.119.213-.254.422-.401.631l-1.986 2.832c-.067.096-.17.176-.306.242-.137.066-.29.1-.462.1h-1.362zm-1.968-2.705c0 .484.125.854.375 1.107s.604.381 1.064.381c.24 0 .454-.039.643-.115.188-.076.346-.18.474-.311.128-.133.226-.289.291-.469s.099-.373.099-.582c0-.236-.035-.447-.107-.633s-.174-.344-.307-.471c-.132-.129-.289-.227-.471-.295s-.381-.102-.598-.102c-.224 0-.426.037-.605.111s-.334.176-.462.309-.226.289-.294.471-.102.382-.102.599z" fill="#fff"/><path d="m341.774 312.129v77.816" fill="none" stroke="#b87332" stroke-miterlimit="10" stroke-width="2.8347"/><path d="m378.523 312.129v77.816" fill="none" stroke="#b87332" stroke-miterlimit="10" stroke-width="2.8347"/><path d="m415.258 312.129v77.816" fill="none" stroke="#b87332" stroke-miterlimit="10" stroke-width="2.8347"/><path d="m337.564 312.129c0-.581.118-1.135.331-1.638.639-1.512 2.135-2.572 3.879-2.572 2.325 0 4.21 1.885 4.21 4.21s-1.885 4.21-4.21 4.21-4.21-1.885-4.21-4.21z" fill="#b87332"/><path d="m374.313 312.129c0-.581.118-1.135.331-1.638.639-1.512 2.135-2.572 3.879-2.572 2.325 0 4.21 1.885 4.21 4.21s-1.885 4.21-4.21 4.21-4.21-1.885-4.21-4.21z" fill="#b87332"/><path d="m415.258 312.129h-110.217v77.816" fill="none" stroke="#b87332" stroke-miterlimit="10" stroke-width="2.8347"/><path d="m411.048 312.129c0-.581.118-1.135.331-1.638.639-1.512 2.135-2.572 3.879-2.572 2.325 0 4.21 1.885 4.21 4.21s-1.885 4.21-4.21 4.21-4.21-1.885-4.21-4.21z" fill="#b87332"/><path d="m305.244 507.648v-72.212" fill="none" stroke="#b87332" stroke-miterlimit="10" stroke-width="2.8347"/><path d="m378.523 513.505v-77.817" fill="none" stroke="#b87332" stroke-miterlimit="10" stroke-width="2.8347"/><path d="m382.733 513.505c0 .581-.118 1.135-.331 1.638-.639 1.512-2.135 2.572-3.879 2.572-2.325 0-4.21-1.885-4.21-4.21s1.885-4.21 4.21-4.21 4.21 1.885 4.21 4.21z" fill="#b87332"/><path d="m415.258 513.505v-77.817" fill="none" stroke="#b87332" stroke-miterlimit="10" stroke-width="2.8347"/><path d="m419.468 513.505c0 .581-.118 1.135-.331 1.638-.639 1.512-2.135 2.572-3.879 2.572-2.325 0-4.21-1.885-4.21-4.21s1.885-4.21 4.21-4.21 4.21 1.885 4.21 4.21z" fill="#b87332"/><path d="m415.258 547.285v-34.033h-73.484v-77.816" fill="none" stroke="#b87332" stroke-miterlimit="10" stroke-width="2.8347"/><path d="m209.627 21.375c-.072.12-.15.211-.234.271s-.186.09-.306.09c-.136 0-.296-.067-.479-.204-.185-.136-.414-.285-.69-.449s-.608-.314-.996-.451c-.388-.135-.858-.203-1.41-.203-.521 0-.978.07-1.374.209-.396.141-.729.33-.996.57s-.47.522-.605.846c-.137.324-.205.675-.205 1.051 0 .48.119.878.354 1.193.235.316.548.586.937.811.388.225.828.418 1.32.582.491.164.995.334 1.512.51.516.176 1.02.374 1.512.594.492.221.932.498 1.32.834s.699.748.936 1.236.354 1.088.354 1.8c0 .753-.127 1.458-.383 2.118-.257.66-.631 1.234-1.123 1.723-.492.487-1.096.871-1.812 1.151s-1.53.42-2.442.42c-1.119 0-2.136-.202-3.048-.606-.911-.403-1.692-.949-2.34-1.637l.672-1.104c.063-.089.142-.162.234-.222.092-.061.194-.09.306-.09.104 0 .223.041.354.125.133.084.283.19.451.318s.359.268.575.42.462.292.738.42.59.234.942.318.748.125 1.188.125c.553 0 1.044-.075 1.477-.227.432-.152.797-.367 1.098-.643.3-.276.529-.605.689-.99.16-.384.24-.813.24-1.283 0-.521-.118-.947-.354-1.279-.236-.331-.547-.609-.93-.834-.385-.223-.824-.414-1.32-.569-.496-.156-1-.315-1.512-.479-.513-.164-1.017-.354-1.513-.57-.496-.217-.937-.496-1.319-.84-.385-.344-.695-.774-.931-1.291-.235-.516-.354-1.153-.354-1.914 0-.607.119-1.195.354-1.764.235-.567.58-1.072 1.032-1.512.451-.439 1.008-.792 1.668-1.057.66-.264 1.418-.396 2.273-.396.961 0 1.834.152 2.623.456.787.305 1.481.744 2.082 1.32z"/><path d="m225.479 20.643h-5.568v15.24h-2.315v-15.24h-5.58v-1.955h13.464v1.955z"/><path d="m245.914 18.688v17.195h-2.039v-12.636c0-.168.006-.348.018-.54.012-.191.025-.388.042-.588l-5.903 10.752c-.185.36-.465.54-.841.54h-.336c-.376 0-.655-.18-.84-.54l-6.024-10.8c.049.425.072.815.072 1.176v12.636h-2.04v-17.195h1.716c.209 0 .368.02.48.06.111.04.22.152.324.337l5.939 10.584c.096.191.189.392.282.6.092.208.178.42.258.636.08-.216.164-.431.253-.642.088-.213.184-.414.287-.606l5.832-10.571c.096-.185.202-.297.318-.337.115-.04.277-.06.486-.06h1.716z"/><path d="m249.67 23.344c.113-.784.328-1.479.648-2.082.32-.604.727-1.11 1.219-1.519.492-.407 1.057-.718 1.691-.93.637-.212 1.322-.318 2.059-.318.729 0 1.4.104 2.016.312.615.209 1.146.505 1.59.889s.791.848 1.039 1.393c.248.543.371 1.147.371 1.812 0 .544-.07 1.03-.209 1.458-.141.428-.342.803-.602 1.122s-.574.592-.941.815c-.367.225-.779.408-1.236.553 1.121.287 1.963.781 2.527 1.481.563.7.846 1.574.846 2.622 0 .792-.15 1.504-.451 2.137-.299.631-.709 1.17-1.229 1.613-.521.444-1.127.784-1.818 1.02-.693.236-1.436.354-2.227.354-.912 0-1.691-.114-2.34-.342s-1.195-.542-1.645-.942c-.447-.399-.816-.873-1.104-1.422-.289-.548-.533-1.142-.732-1.781l.924-.385c.24-.104.475-.132.703-.084.227.049.393.18.498.396.104.224.232.492.389.804s.371.612.643.899c.271.289.617.533 1.037.732.422.2.955.301 1.604.301.6 0 1.125-.099 1.578-.295.451-.195.828-.449 1.127-.762.301-.313.525-.66.678-1.044s.229-.765.229-1.14c0-.465-.061-.889-.18-1.272-.121-.384-.344-.716-.672-.996s-.779-.499-1.35-.659c-.572-.16-1.307-.24-2.203-.24v-1.549c.736-.008 1.363-.088 1.879-.24.516-.151.936-.359 1.26-.623s.559-.58.707-.948.223-.776.223-1.224c0-.496-.078-.928-.234-1.297-.156-.367-.369-.672-.643-.912-.271-.239-.594-.42-.965-.539-.373-.121-.773-.18-1.207-.18-.432 0-.834.063-1.205.191-.373.128-.701.306-.984.533-.283.229-.521.498-.713.811-.193.313-.328.656-.408 1.032-.105.28-.234.466-.391.558s-.383.118-.678.078z"/><path d="m273.875 33.855c.232 0 .416.068.553.203.135.137.203.313.203.529v1.295h-11.473v-.731c0-.151.033-.308.096-.468.064-.16.164-.309.301-.444l5.508-5.532c.457-.463.873-.91 1.248-1.338.377-.428.695-.857.961-1.29.264-.432.467-.87.611-1.313.145-.444.217-.918.217-1.422s-.08-.946-.24-1.326c-.16-.381-.379-.694-.654-.942-.275-.247-.602-.434-.979-.558-.375-.124-.779-.186-1.211-.186-.441 0-.846.063-1.213.191s-.693.306-.979.533c-.283.229-.521.498-.713.811-.193.313-.328.656-.408 1.032-.096.28-.227.466-.391.558s-.395.118-.689.078l-1.117-.191c.113-.784.33-1.479.654-2.082.324-.604.732-1.11 1.225-1.519.492-.407 1.055-.718 1.686-.93.633-.212 1.316-.318 2.053-.318.729 0 1.408.108 2.039.324.633.216 1.18.53 1.645.942s.828.914 1.092 1.506.396 1.264.396 2.016c0 .641-.096 1.234-.289 1.782-.191.548-.451 1.069-.779 1.565s-.705.98-1.135 1.453c-.428.472-.881.947-1.361 1.428l-4.535 4.631c.318-.088.643-.157.971-.209.328-.053.645-.078.949-.078z"/><path d="m280.475 20.584v6.012h7.068v1.896h-7.068v7.392h-2.328v-17.196h10.596v1.896z"/><path d="m302.76 29.68v1.224c0 .128-.039.235-.115.324-.076.088-.193.132-.354.132h-2.137v4.523h-1.871v-4.523h-7.633c-.16 0-.297-.046-.414-.139-.115-.092-.189-.205-.221-.342l-.217-1.092 8.363-11.1h1.992v10.993zm-4.477 0v-7.092c0-.209.008-.437.023-.685s.041-.5.072-.756l-6.264 8.532h6.169z"/><path d="m455.646 46.469h-411.402" fill="none" stroke="#000" stroke-miterlimit="10" stroke-width="2.8347"/><path d="m58.404 245.422h1.333v5.76h-1.333v-2.109h-6.069c-.24 0-.487-.008-.741-.022l1.253 1.497c.067.087.108.173.126.256.017.084.018.164.004.238-.016.074-.04.141-.076.197-.035.058-.075.102-.118.131l-.771.561-2.7-3.176v-1.461h9.094v-1.872z"/><path d="m58.081 237.457c0-.19.054-.343.162-.457.107-.112.25-.168.429-.168h1.065v7.143h-.591c-.12 0-.246-.026-.378-.076-.132-.051-.25-.131-.355-.242l-3.169-3.16c-.269-.264-.525-.5-.771-.709-.244-.209-.487-.383-.728-.521-.24-.14-.482-.246-.729-.321-.248-.073-.509-.111-.782-.111-.249 0-.469.036-.658.108-.19.072-.35.174-.479.306s-.227.29-.292.476c-.064.186-.097.393-.097.622 0 .212.03.407.09.587.06.181.145.34.252.479s.234.257.379.353c.144.097.302.168.475.216.221.082.367.188.439.316.072.13.089.317.05.562l-.165.937c-.499-.071-.938-.211-1.313-.417-.378-.207-.691-.465-.943-.775-.252-.309-.442-.664-.569-1.064-.127-.401-.191-.832-.191-1.293 0-.479.071-.919.213-1.317.143-.398.343-.739.602-1.022s.57-.504.936-.662.771-.238 1.217-.238c.385 0 .74.058 1.065.17.327.112.639.264.937.453.298.19.586.412.863.666.279.254.562.521.85.799l2.398 2.348c-.067-.225-.119-.45-.155-.673-.036-.224-.054-.436-.054-.638v-2.677z"/><path d="m59.737 225.196v1.714c0 .129-.034.233-.102.313-.066.078-.144.146-.23.198l-2.57 1.562c.082.024.158.052.231.083.071.031.138.066.201.104l2.138 1.382c.082.054.158.118.228.194.069.077.104.174.104.288v1.592l-3.809-2.535-3.579 2.435v-1.714c0-.13.019-.226.054-.288.036-.062.095-.117.177-.165l2.462-1.548c-.162-.053-.323-.128-.482-.224l-1.943-1.246c-.178-.105-.267-.242-.267-.41v-1.635l3.499 2.427z"/><path d="m52.227 220.877c-.499-.072-.938-.211-1.313-.418-.378-.206-.691-.464-.943-.774s-.442-.664-.569-1.065c-.127-.4-.191-.832-.191-1.292 0-.479.069-.913.206-1.3.136-.386.326-.716.568-.99.243-.273.527-.482.854-.629.327-.146.68-.221 1.058-.221.332 0 .624.037.876.112.252.074.471.181.658.32s.346.312.475.518c.13.208.238.439.325.698.196-.623.496-1.088.899-1.396.403-.307.909-.461 1.519-.461.52 0 .978.097 1.376.289.398.191.732.451 1.005.777.271.326.476.705.615 1.134.139.43.208.885.208 1.365 0 .522-.06.979-.179 1.367-.121.39-.298.727-.533 1.015-.236.289-.523.533-.864.735-.341.201-.734.374-1.181.518l-.324-.784c-.086-.207-.108-.399-.068-.58.041-.18.138-.311.291-.393.169-.086.334-.18.497-.284s.309-.227.437-.37c.126-.145.229-.313.309-.508.08-.194.119-.427.119-.695 0-.302-.05-.565-.148-.792-.098-.225-.226-.413-.384-.564s-.335-.264-.53-.339c-.194-.074-.39-.111-.587-.111-.249 0-.476.025-.68.078-.204.055-.378.164-.522.332s-.257.409-.338.723c-.082.315-.123.736-.123 1.265h-1.267c-.005-.437-.046-.799-.123-1.087-.076-.289-.183-.518-.319-.688-.138-.17-.302-.288-.494-.356-.191-.066-.402-.101-.634-.101-.488 0-.861.138-1.115.41-.255.274-.382.639-.382 1.095 0 .212.03.405.09.584.06.177.145.337.252.478.107.142.234.262.379.357.144.097.302.168.475.216.221.082.367.188.439.32s.089.318.05.558z"/><path d="m52.227 212.524c-.499-.071-.938-.211-1.313-.417-.378-.206-.691-.464-.943-.774s-.442-.665-.569-1.065-.191-.832-.191-1.293c0-.479.069-.912.206-1.299.136-.386.326-.717.568-.99.243-.273.527-.483.854-.63.327-.146.68-.22 1.058-.22.332 0 .624.037.876.112.252.073.471.181.658.319.188.14.346.313.475.519.13.207.238.439.325.698.196-.623.496-1.089.899-1.396s.909-.461 1.519-.461c.52 0 .978.096 1.376.288s.732.451 1.005.778c.271.326.476.704.615 1.133.139.431.208.885.208 1.365 0 .523-.06.979-.179 1.368-.121.389-.298.727-.533 1.015-.236.288-.523.533-.864.734-.341.202-.734.374-1.181.519l-.324-.784c-.086-.207-.108-.399-.068-.58.041-.181.138-.311.291-.393.169-.087.334-.181.497-.285.163-.103.309-.226.437-.37.126-.144.229-.313.309-.507.08-.195.119-.427.119-.695 0-.303-.05-.566-.148-.792s-.226-.414-.384-.565c-.158-.15-.335-.264-.53-.338-.194-.074-.39-.111-.587-.111-.249 0-.476.025-.68.078-.204.054-.378.164-.522.332-.145.167-.257.408-.338.723-.082.315-.123.736-.123 1.265h-1.267c-.005-.438-.046-.8-.123-1.088-.076-.288-.183-.517-.319-.688-.138-.17-.302-.288-.494-.356-.191-.066-.402-.101-.634-.101-.488 0-.861.137-1.115.41-.255.274-.382.639-.382 1.095 0 .212.03.405.09.583.06.177.145.338.252.479.107.142.234.261.379.357.144.096.302.167.475.216.221.082.367.188.439.319.072.133.089.319.05.558z"/><path d="m54.531 196.959c.907 0 1.696.097 2.365.291.67.195 1.224.463 1.659.807.438.344.763.749.977 1.217.213.469.319.974.319 1.516s-.106 1.045-.319 1.509c-.214.463-.539.864-.977 1.206-.436.341-.989.606-1.659.799-.669.192-1.458.288-2.365.288-.911 0-1.701-.096-2.368-.288-.668-.192-1.22-.458-1.657-.799-.436-.342-.762-.743-.975-1.206-.214-.464-.321-.967-.321-1.509s.107-1.047.321-1.516c.213-.468.539-.873.975-1.217.438-.344.989-.611 1.657-.807.667-.194 1.457-.291 2.368-.291zm0 1.836c-.753 0-1.378.055-1.872.165s-.888.258-1.181.443-.498.397-.615.638c-.118.238-.177.488-.177.748 0 .255.059.501.177.737.117.238.322.448.615.631s.687.327 1.181.436 1.119.162 1.872.162c.754 0 1.378-.054 1.872-.162s.888-.253 1.181-.436.498-.393.615-.631c.118-.236.177-.482.177-.737 0-.26-.059-.51-.177-.748-.117-.24-.322-.453-.615-.638-.293-.186-.687-.333-1.181-.443s-1.118-.165-1.872-.165z"/><path d="m58.145 185.467h.986c.178 0 .322.058.437.174.112.115.169.273.169.475v3.824h-2.189c-.058-.332-.188-.643-.393-.934-.204-.29-.462-.545-.773-.763-.312-.219-.669-.39-1.073-.516-.403-.124-.832-.187-1.288-.187-.533 0-.997.085-1.394.256-.396.17-.724.4-.983.691-.259.289-.453.628-.583 1.015-.129.387-.193.796-.193 1.228s.064.841.193 1.228c.13.387.324.724.583 1.012.26.288.588.518.983.688.396.17.86.256 1.394.256.456 0 .885-.063 1.288-.188.404-.124.762-.297 1.073-.515s.569-.473.773-.763c.205-.291.335-.602.393-.933h2.189v3.823c0 .202-.057.36-.169.475-.114.115-.259.174-.437.174h-.986v-1.657c0-.225.011-.456.033-.69.021-.235.049-.469.082-.698-.154.427-.367.818-.641 1.173-.273.355-.595.66-.965.914-.369.256-.778.452-1.228.595-.448.142-.926.212-1.43.212-.691 0-1.327-.13-1.911-.392-.584-.263-1.089-.623-1.516-1.084-.428-.461-.76-1.002-1-1.624-.24-.621-.361-1.292-.361-2.013 0-.719.121-1.391.361-2.012s.572-1.161 1-1.619c.427-.46.932-.82 1.516-1.084s1.22-.396 1.911-.396c.504 0 .981.07 1.43.212s.856.34 1.224.595c.368.254.689.559.966.914.275.355.489.746.644 1.174-.033-.23-.062-.462-.082-.695-.022-.232-.033-.461-.033-.688z"/><path d="m56.892 347.009c-.283-.252-.514-.537-.689-.857s-.264-.696-.264-1.128c0-.336.069-.644.21-.921.14-.278.343-.519.608-.721.267-.201.594-.357.984-.468.39-.109.837-.165 1.341-.165.46 0 .886.063 1.278.187s.731.301 1.02.53c.288.23.513.509.675.834.162.326.243.691.243 1.096 0 .344-.053.638-.159.882-.105.244-.253.462-.44.654h2.52v1.481h-8.166v-.906c0-.191.09-.317.271-.378zm3.721-.077c.204-.168.348-.352.432-.55.084-.197.126-.412.126-.645 0-.224-.042-.426-.126-.606s-.212-.333-.384-.459-.389-.223-.651-.291c-.262-.067-.57-.102-.927-.102-.36 0-.665.029-.915.087s-.453.141-.609.249c-.155.108-.27.239-.342.393s-.107.329-.107.525c0 .309.064.57.194.786s.313.42.549.612h2.76z"/><path d="m61.098 336.119h1.11v4.8h-1.11v-1.758h-5.058c-.2 0-.406-.006-.618-.018l1.044 1.248c.057.071.091.143.105.213s.015.136.003.198c-.013.062-.033.116-.063.165-.029.048-.063.084-.099.107l-.643.468-2.25-2.646v-1.218h7.578v-1.559z"/><path d="m74.065 346.967c-.283-.252-.514-.538-.689-.858-.176-.319-.264-.695-.264-1.128 0-.336.069-.643.21-.921.14-.277.343-.518.608-.72.267-.202.594-.358.984-.468s.837-.165 1.341-.165c.46 0 .886.062 1.278.186s.731.301 1.02.531.513.508.675.834.243.691.243 1.095c0 .345-.053.639-.159.882-.105.244-.253.463-.44.654h2.52v1.482h-8.166v-.906c0-.192.09-.318.271-.378zm3.721-.078c.204-.168.348-.351.432-.549s.126-.413.126-.646c0-.224-.042-.426-.126-.605s-.212-.333-.384-.459-.389-.223-.651-.291-.57-.103-.927-.103c-.36 0-.665.029-.915.088-.25.058-.453.141-.609.249-.155.107-.27.238-.342.393s-.107.329-.107.525c0 .308.064.569.194.785.13.217.313.421.549.612h2.76z"/><path d="m78.001 336.4c0-.159.045-.286.135-.381.09-.094.209-.141.357-.141h.888v5.952h-.492c-.1 0-.205-.021-.314-.063-.11-.042-.209-.108-.297-.201l-2.641-2.634c-.224-.22-.438-.417-.642-.591s-.406-.319-.606-.435-.402-.205-.608-.268c-.206-.062-.424-.093-.651-.093-.208 0-.391.03-.549.09-.158.061-.291.146-.399.255-.107.11-.188.242-.243.396-.054.154-.081.327-.081.519 0 .177.025.339.075.489s.12.283.21.399c.09.115.195.214.315.294s.252.14.396.18c.185.068.307.156.366.264.061.108.074.265.042.468l-.138.78c-.416-.06-.781-.176-1.095-.348s-.576-.387-.786-.646c-.21-.258-.368-.554-.475-.888-.105-.334-.159-.693-.159-1.077 0-.399.06-.766.178-1.098s.285-.616.501-.853c.216-.235.476-.42.779-.552.305-.132.643-.198 1.015-.198.32 0 .616.048.888.142s.532.22.78.378.488.343.72.555.468.435.708.666l1.998 1.956c-.056-.188-.099-.375-.129-.561-.03-.187-.045-.363-.045-.531v-2.224z"/><path d="m93.696 347.084c-.283-.252-.514-.537-.689-.857s-.264-.696-.264-1.128c0-.336.069-.644.21-.921.14-.278.343-.519.608-.721.267-.201.594-.357.984-.468.39-.109.837-.165 1.341-.165.46 0 .886.063 1.278.187s.731.301 1.02.53c.288.23.513.509.675.834.162.326.243.691.243 1.096 0 .344-.053.638-.159.882-.105.244-.253.462-.44.654h2.52v1.481h-8.166v-.906c0-.191.09-.317.271-.378zm3.721-.077c.204-.168.348-.352.432-.55.084-.197.126-.412.126-.645 0-.224-.042-.426-.126-.606s-.212-.333-.384-.459-.389-.223-.651-.291c-.262-.067-.57-.102-.927-.102-.36 0-.665.029-.915.087s-.453.141-.609.249c-.155.108-.27.239-.342.393s-.107.329-.107.525c0 .309.064.57.194.786s.313.42.549.612h2.76z"/><path d="m92.755 341.757c-.416-.061-.781-.176-1.095-.349-.314-.172-.576-.387-.786-.645s-.368-.554-.475-.888c-.105-.334-.159-.693-.159-1.077 0-.4.058-.762.172-1.083.113-.322.271-.598.474-.825.202-.229.439-.403.711-.525s.566-.183.882-.183c.276 0 .52.031.729.093.21.063.393.151.549.268.156.115.288.26.396.432s.198.366.271.582c.164-.521.414-.908.75-1.164s.758-.384 1.266-.384c.433 0 .814.08 1.146.24.332.159.61.376.837.647.226.272.396.587.513.945.116.357.174.736.174 1.137 0 .437-.05.816-.149 1.14-.101.324-.248.606-.444.847-.196.239-.436.443-.72.611s-.612.313-.984.433l-.27-.654c-.072-.172-.091-.333-.058-.483.034-.149.115-.259.243-.326.141-.072.278-.151.414-.237s.257-.189.363-.309c.105-.12.191-.262.258-.424s.099-.354.099-.579c0-.252-.041-.472-.123-.659-.082-.188-.188-.346-.32-.472s-.279-.22-.441-.281c-.162-.063-.325-.094-.489-.094-.208 0-.396.022-.566.066s-.315.136-.436.276c-.12.14-.214.341-.281.603-.068.262-.103.613-.103 1.053h-1.056c-.004-.363-.038-.666-.103-.905-.063-.24-.152-.432-.267-.573-.114-.143-.251-.241-.411-.297-.16-.057-.336-.084-.528-.084-.407 0-.718.113-.93.342-.212.228-.318.532-.318.912 0 .176.025.338.075.485.05.148.12.281.21.399s.195.217.315.297.252.141.396.18c.185.068.307.157.366.268.061.11.074.265.042.465z"/><path d="m111.173 347.213c-.283-.252-.514-.537-.689-.857s-.264-.696-.264-1.128c0-.336.069-.644.21-.921.14-.278.343-.519.608-.721.267-.201.594-.357.984-.468.39-.109.837-.165 1.341-.165.46 0 .886.063 1.278.187s.731.301 1.02.53c.288.23.513.509.675.834.162.326.243.691.243 1.096 0 .344-.053.638-.159.882-.105.244-.253.462-.44.654h2.52v1.481h-8.166v-.906c0-.191.09-.317.271-.378zm3.721-.077c.204-.168.348-.352.432-.55.084-.197.126-.412.126-.645 0-.224-.042-.426-.126-.606s-.212-.333-.384-.459-.389-.223-.651-.291c-.262-.067-.57-.102-.927-.102-.36 0-.665.029-.915.087s-.453.141-.609.249c-.155.108-.27.239-.342.393s-.107.329-.107.525c0 .309.064.57.194.786s.313.42.549.612h2.76z"/><path d="m113.22 335.88h.857c.08 0 .149.025.207.077.059.053.087.126.087.223v.792h2.118v1.29h-2.118v3.66c0 .1-.031.188-.093.264-.063.076-.139.124-.231.144l-.75.156-5.489-4.11v-1.403h5.412zm0 2.382h-2.839c-.268 0-.563-.019-.888-.055l3.727 2.694z"/><path d="m129.981 347.146c-.283-.252-.514-.538-.689-.858-.176-.319-.264-.695-.264-1.128 0-.336.069-.643.21-.921.14-.277.343-.518.608-.72.267-.202.594-.358.984-.468s.837-.165 1.341-.165c.46 0 .886.062 1.278.186s.731.301 1.02.531.513.508.675.834.243.691.243 1.095c0 .345-.053.639-.159.882-.105.244-.253.463-.44.654h2.52v1.482h-8.166v-.906c0-.192.09-.318.271-.378zm3.721-.078c.204-.168.348-.351.432-.549s.126-.413.126-.646c0-.224-.042-.426-.126-.605s-.212-.333-.384-.459-.389-.223-.651-.291-.57-.103-.927-.103c-.36 0-.665.029-.915.088-.25.058-.453.141-.609.249-.155.107-.27.238-.342.393s-.107.329-.107.525c0 .308.064.569.194.785.13.217.313.421.549.612h2.76z"/><path d="m129.771 340.03c-.04-.191-.068-.376-.087-.552-.018-.176-.026-.346-.026-.51 0-.456.067-.858.204-1.206.136-.348.323-.64.563-.876s.521-.414.843-.534.669-.18 1.041-.18c.46 0 .88.081 1.261.243.38.161.704.387.975.675.27.288.479.629.627 1.022.147.395.222.823.222 1.287 0 .272-.027.53-.084.774-.056.244-.131.473-.225.687s-.202.412-.324.594c-.122.183-.251.346-.387.489l-.63-.456c-.136-.096-.204-.222-.204-.378 0-.1.032-.202.096-.306s.134-.223.21-.357.146-.292.21-.474.096-.401.096-.657c0-.271-.044-.512-.132-.72s-.211-.381-.369-.52c-.157-.138-.346-.241-.563-.312s-.455-.105-.711-.105c-.472 0-.841.138-1.107.411-.266.274-.398.68-.398 1.215 0 .412.076.834.228 1.267l-.264.924-4.212-.72v-4.284h.63c.212 0 .384.065.516.198.132.132.198.355.198.672v2.382z"/><path d="m155 341.391v1.458c0 .276-.108.476-.324.6l-2.777 1.824c-.104.068-.179.144-.223.226s-.065.202-.065.362v.69h3.389v1.614h-8.676v-2.646c0-.588.061-1.093.183-1.515s.293-.769.513-1.038c.221-.271.483-.469.789-.598.307-.128.644-.191 1.012-.191.292 0 .567.043.828.129.26.086.495.21.708.372.212.162.397.362.558.6.16.238.286.51.378.813.06-.104.131-.2.213-.288s.179-.168.291-.24zm-4.548 4.152c0-.305-.038-.569-.114-.795-.076-.227-.181-.412-.314-.559-.135-.146-.293-.255-.478-.327-.184-.071-.386-.107-.605-.107-.44 0-.778.145-1.015.435-.235.29-.354.733-.354 1.329v1.032h2.88z"/><path d="m155 333.398v1.608c0 .112-.028.201-.084.267s-.12.119-.192.159l-3.33 2.01c.101.032.187.07.259.114l3.071 1.926c.068.049.132.104.189.165.058.063.087.144.087.243v1.506l-4.464-2.88-4.212 2.767v-1.608c0-.112.015-.193.045-.243s.079-.097.146-.141l3.181-1.975c-.101-.039-.2-.088-.3-.144l-2.851-1.813c-.076-.044-.132-.092-.168-.144s-.054-.118-.054-.198v-1.542l4.146 2.79z"/><path d="m167.25 341.97v2.615h7.35v1.614h-7.35v2.616h-1.326v-6.846h1.326z"/><path d="m174.6 333.779v1.608c0 .112-.028.201-.084.267s-.12.119-.192.159l-3.33 2.01c.101.032.187.07.259.114l3.071 1.926c.068.049.132.104.189.165.058.063.087.144.087.243v1.506l-4.464-2.88-4.212 2.767v-1.608c0-.112.015-.193.045-.243s.079-.097.146-.141l3.181-1.975c-.101-.039-.2-.088-.3-.144l-2.851-1.813c-.076-.044-.132-.092-.168-.144s-.054-.118-.054-.198v-1.542l4.146 2.79z"/><path d="m184.814 343.259c.084.048.145.099.183.152.038.055.057.121.057.201 0 .084-.03.175-.093.273-.062.098-.131.215-.207.351s-.145.295-.207.478c-.062.182-.093.396-.093.645 0 .225.027.42.081.588s.129.31.225.423c.097.114.211.199.346.255.134.057.28.084.44.084.204 0 .374-.057.51-.171.137-.113.253-.265.349-.452.096-.188.182-.402.258-.643s.157-.486.243-.738.186-.498.3-.737c.114-.24.258-.454.432-.643.175-.188.388-.339.64-.453.252-.113.558-.171.918-.171.392 0 .759.067 1.101.201s.641.33.895.588.454.573.6.945.219.798.219 1.278c0 .275-.026.548-.081.815-.054.269-.131.525-.23.771-.101.246-.22.477-.36.692-.14.216-.296.408-.468.576l-.774-.474c-.056-.04-.103-.092-.141-.156-.038-.063-.057-.132-.057-.204 0-.1.041-.208.123-.324.082-.115.173-.254.272-.414.101-.159.191-.347.273-.561s.123-.471.123-.771c0-.46-.109-.815-.327-1.067s-.531-.378-.939-.378c-.228 0-.414.057-.558.171-.145.114-.265.265-.363.453s-.181.401-.249.642c-.067.24-.142.484-.222.732s-.176.491-.288.731-.258.454-.438.643c-.18.188-.404.339-.675.453-.27.113-.603.171-.999.171-.315 0-.624-.063-.924-.189s-.565-.309-.798-.549-.418-.536-.558-.888c-.141-.353-.211-.757-.211-1.212 0-.513.08-.984.24-1.416.16-.433.384-.801.672-1.104z"/><path d="m189.866 335.339c0-.088.034-.166.102-.234l.69-.636c.436.352.77.785 1.002 1.299s.348 1.131.348 1.851c0 .645-.109 1.224-.33 1.737-.22.514-.525.953-.918 1.317-.392.363-.859.643-1.403.837-.544.193-1.139.291-1.782.291-.652 0-1.249-.104-1.791-.313s-1.009-.501-1.401-.879-.696-.829-.915-1.353c-.218-.524-.327-1.104-.327-1.74 0-.632.104-1.193.313-1.684.208-.489.479-.906.816-1.251l.75.54c.048.032.09.073.126.123.035.051.054.119.054.207 0 .061-.018.122-.051.187-.034.063-.076.134-.126.21-.051.076-.105.164-.165.264-.061.101-.115.216-.165.349-.05.132-.092.284-.126.459-.034.174-.052.375-.052.603 0 .388.069.743.207 1.065.139.321.339.599.601.83.262.232.582.412.96.54.378.129.809.192 1.293.192.488 0 .922-.069 1.302-.207s.7-.325.96-.561.459-.515.598-.834c.138-.32.206-.664.206-1.032 0-.22-.012-.419-.035-.597-.024-.179-.063-.343-.114-.492-.052-.15-.119-.292-.201-.427-.082-.134-.183-.267-.303-.398-.036-.04-.065-.082-.087-.126-.025-.043-.036-.089-.036-.137z"/><path d="m186.872 331.744v-.378c0-.151-.021-.277-.063-.378-.042-.1-.109-.186-.201-.258l-3.03-2.394c-.128-.101-.217-.205-.267-.315-.051-.11-.075-.249-.075-.417v-1.392l3.605 2.922c.221.172.376.35.469.534.048-.133.114-.251.2-.357.087-.106.199-.207.34-.303l4.062-3.013v1.423c0 .191-.027.335-.081.429s-.133.173-.237.236l-3.204 2.454c-.107.076-.184.164-.228.265-.044.1-.066.244-.066.432v.51h3.816v1.614h-8.676v-1.614z"/><path d="m202.461 338.867h8.676v1.422h-5.604c-.225 0-.467-.012-.727-.036l4.926 2.622c.236.124.354.314.354.57v.228c0 .256-.118.446-.354.57l-4.943 2.651c.132-.012.262-.021.39-.029s.246-.013.354-.013h5.604v1.423h-8.676v-1.219c0-.071.002-.134.006-.186s.014-.1.03-.142.042-.079.078-.113c.035-.034.084-.067.144-.1l4.818-2.598c.128-.068.26-.131.396-.189s.276-.114.42-.171c-.147-.056-.291-.113-.429-.174-.138-.06-.271-.124-.399-.191l-4.806-2.563c-.06-.032-.108-.065-.144-.102-.036-.036-.063-.075-.078-.117-.017-.042-.026-.089-.03-.142-.004-.052-.006-.113-.006-.186z"/><path d="m211.137 335.315v1.62h-8.676v-1.62z"/><path d="m204.039 328.757c.084.048.145.1.183.153s.057.121.057.201c0 .084-.03.175-.093.272-.062.099-.131.215-.207.352-.076.136-.145.295-.207.477-.062.183-.093.397-.093.646 0 .224.027.42.081.588s.129.309.225.423c.097.114.211.199.346.255.134.056.28.084.44.084.204 0 .374-.057.51-.171.137-.114.253-.265.349-.453s.182-.402.258-.642.157-.486.243-.738.186-.498.3-.738.258-.454.432-.642c.175-.188.388-.339.64-.453s.558-.171.918-.171c.392 0 .759.066 1.101.201.342.134.641.33.895.588s.454.572.6.944.219.799.219 1.278c0 .276-.026.548-.081.816-.054.268-.131.524-.23.771-.101.246-.22.478-.36.693-.14.216-.296.408-.468.576l-.774-.475c-.056-.04-.103-.092-.141-.155-.038-.064-.057-.133-.057-.204 0-.101.041-.208.123-.324s.173-.254.272-.414c.101-.16.191-.347.273-.562.082-.214.123-.471.123-.771 0-.46-.109-.816-.327-1.068s-.531-.378-.939-.378c-.228 0-.414.058-.558.171-.145.114-.265.266-.363.453-.098.188-.181.402-.249.643-.067.239-.142.483-.222.731s-.176.492-.288.732-.258.454-.438.642-.404.339-.675.453c-.27.114-.603.171-.999.171-.315 0-.624-.063-.924-.188s-.565-.31-.798-.55c-.232-.239-.418-.535-.558-.888-.141-.352-.211-.756-.211-1.212 0-.512.08-.984.24-1.416s.384-.8.672-1.104z"/><path d="m206.799 318.521c.636 0 1.225.105 1.767.315s1.012.507 1.407.891c.396.385.705.847.927 1.387.223.54.333 1.14.333 1.8 0 .656-.11 1.254-.333 1.794-.222.54-.53 1.003-.927 1.389-.396.387-.865.686-1.407.897s-1.131.317-1.767.317-1.225-.105-1.768-.317c-.541-.212-1.011-.511-1.406-.897-.396-.386-.705-.849-.928-1.389-.222-.54-.333-1.138-.333-1.794 0-.44.052-.854.153-1.242.103-.388.246-.744.433-1.068.186-.323.411-.614.678-.872.266-.259.563-.478.891-.657.328-.181.685-.317 1.068-.411s.788-.143 1.212-.143zm0 1.65c-.477 0-.903.064-1.281.192s-.699.31-.963.546-.466.522-.606.86c-.14.339-.21.72-.21 1.144s.07.805.21 1.143c.141.339.343.626.606.864s.585.421.963.549.805.192 1.281.192.903-.064 1.281-.192.697-.311.96-.549c.262-.238.463-.525.603-.864.141-.338.21-.719.21-1.143s-.069-.805-.21-1.144c-.14-.338-.341-.624-.603-.86-.263-.236-.582-.418-.96-.546s-.806-.192-1.281-.192z"/><path d="m220.229 338.99h8.676v1.422h-5.604c-.225 0-.467-.012-.727-.036l4.926 2.622c.236.124.354.314.354.57v.228c0 .256-.118.446-.354.57l-4.943 2.651c.132-.012.262-.021.39-.029s.246-.013.354-.013h5.604v1.423h-8.676v-1.219c0-.071.002-.134.006-.186s.014-.1.03-.142.042-.079.078-.113c.035-.034.084-.067.144-.1l4.818-2.598c.128-.068.26-.131.396-.189s.276-.114.42-.171c-.147-.056-.291-.113-.429-.174-.138-.06-.271-.124-.399-.191l-4.806-2.563c-.06-.032-.108-.065-.144-.102-.036-.036-.063-.075-.078-.117-.017-.042-.026-.089-.03-.142-.004-.052-.006-.113-.006-.186z"/><path d="m224.566 328.784c.636 0 1.225.105 1.767.315s1.012.507 1.407.891c.396.384.705.846.927 1.386.223.54.333 1.141.333 1.8 0 .656-.11 1.254-.333 1.794-.222.54-.53 1.004-.927 1.39-.396.386-.865.685-1.407.896s-1.131.318-1.767.318-1.225-.106-1.768-.318c-.541-.212-1.011-.511-1.406-.896-.396-.386-.705-.85-.928-1.39-.222-.54-.333-1.138-.333-1.794 0-.439.052-.854.153-1.241.103-.389.246-.744.433-1.068.186-.324.411-.615.678-.873.266-.258.563-.477.891-.657s.685-.316 1.068-.411c.384-.095.789-.142 1.212-.142zm0 1.651c-.477 0-.903.063-1.281.191s-.699.311-.963.546c-.264.236-.466.523-.606.861s-.21.719-.21 1.143c0 .425.07.806.21 1.144.141.338.343.626.606.864.264.237.585.421.963.549s.805.191 1.281.191.903-.063 1.281-.191.697-.312.96-.549c.262-.238.463-.526.603-.864.141-.338.21-.719.21-1.144 0-.424-.069-.805-.21-1.143-.14-.338-.341-.625-.603-.861-.263-.235-.582-.418-.96-.546s-.805-.191-1.281-.191z"/><path d="m221.807 322.742c.084.048.145.1.183.153s.057.121.057.201c0 .084-.03.175-.093.272-.062.099-.131.215-.207.352-.076.136-.145.295-.207.477-.062.183-.093.397-.093.646 0 .224.027.42.081.588s.129.309.225.423c.097.114.211.199.346.255.134.056.28.084.44.084.204 0 .374-.057.51-.171.137-.114.253-.265.349-.453s.182-.402.258-.642.157-.486.243-.738.186-.498.3-.738.258-.454.432-.642c.175-.188.388-.339.64-.453s.558-.171.918-.171c.392 0 .759.066 1.101.201.342.134.641.33.895.588s.454.572.6.944.219.799.219 1.278c0 .276-.026.548-.081.816-.054.268-.131.524-.23.771-.101.246-.22.478-.36.693-.14.216-.296.408-.468.576l-.774-.475c-.056-.04-.103-.092-.141-.155-.038-.064-.057-.133-.057-.204 0-.101.041-.208.123-.324s.173-.254.272-.414c.101-.16.191-.347.273-.562.082-.214.123-.471.123-.771 0-.46-.109-.816-.327-1.068s-.531-.378-.939-.378c-.228 0-.414.058-.558.171-.145.114-.265.266-.363.453-.098.188-.181.402-.249.643-.067.239-.142.483-.222.731s-.176.492-.288.732-.258.454-.438.642-.404.339-.675.453c-.27.114-.603.171-.999.171-.315 0-.624-.063-.924-.188s-.565-.31-.798-.55c-.232-.239-.418-.535-.558-.888-.141-.352-.211-.756-.211-1.212 0-.512.08-.984.24-1.416s.384-.8.672-1.104z"/><path d="m228.904 319.16v1.62h-8.676v-1.62z"/><path d="m240.917 342.982c.084.048.145.099.183.152.038.055.057.121.057.201 0 .084-.03.175-.093.273-.062.098-.131.215-.207.351s-.145.295-.207.478c-.062.182-.093.396-.093.645 0 .225.027.42.081.588s.129.31.225.423c.097.114.211.199.346.255.134.057.28.084.44.084.204 0 .374-.057.51-.171.137-.113.253-.265.349-.452.096-.188.182-.402.258-.643s.157-.486.243-.738.186-.498.3-.737c.114-.24.258-.454.432-.643.175-.188.388-.339.64-.453.252-.113.558-.171.918-.171.392 0 .759.067 1.101.201s.641.33.895.588.454.573.6.945.219.798.219 1.278c0 .275-.027.548-.082.815-.053.269-.131.525-.23.771-.1.246-.219.477-.36.692-.14.216-.296.408-.468.576l-.774-.474c-.056-.04-.103-.092-.141-.156-.038-.063-.057-.132-.057-.204 0-.1.041-.208.123-.324.082-.115.173-.254.272-.414.101-.159.191-.347.273-.561s.123-.471.123-.771c0-.46-.109-.815-.327-1.067s-.531-.378-.939-.378c-.228 0-.414.057-.558.171-.145.114-.265.265-.363.453s-.181.401-.249.642c-.067.24-.142.484-.222.732s-.176.491-.288.731-.258.454-.438.643c-.18.188-.404.339-.675.453-.27.113-.603.171-.999.171-.315 0-.624-.063-.924-.189s-.565-.309-.798-.549-.418-.536-.558-.888c-.141-.353-.211-.757-.211-1.212 0-.513.08-.984.24-1.416.16-.433.384-.801.672-1.104z"/><path d="m243.677 333.316c.636 0 1.22.105 1.752.317s.99.511 1.374.895.682.846.894 1.386c.213.54.319 1.14.319 1.8v3.307h-8.676v-3.307c0-.66.106-1.26.32-1.8.215-.54.513-1.002.895-1.386s.839-.683 1.371-.895 1.116-.317 1.751-.317zm0 1.656c-.477 0-.903.063-1.281.189s-.698.308-.96.546-.463.526-.603.864c-.141.338-.21.719-.21 1.143v1.687h6.107v-1.687c0-.424-.069-.805-.21-1.143-.14-.338-.341-.626-.603-.864-.263-.238-.582-.42-.96-.546s-.804-.189-1.28-.189z"/><path d="m248.016 324.73v1.248c0 .14-.035.254-.105.342s-.157.154-.261.198l-1.77.647v3.594l1.77.648c.092.032.177.094.251.186.076.093.115.206.115.343v1.26l-8.676-3.414v-1.645zm-3.277 2.85-2.886 1.056c-.128.053-.28.106-.456.162-.176.057-.366.112-.57.168.204.053.396.106.573.162.179.057.333.11.465.162l2.874 1.05z"/><path d="m258.418 342.614c.084.048.145.099.183.152.038.055.057.121.057.201 0 .084-.03.175-.093.273-.062.098-.131.215-.207.351s-.145.295-.207.478c-.062.182-.093.396-.093.645 0 .225.027.42.081.588s.129.31.225.423c.097.114.211.199.346.255.134.057.28.084.44.084.204 0 .374-.057.51-.171.137-.113.253-.265.349-.452.096-.188.182-.402.258-.643s.157-.486.243-.738.186-.498.3-.737c.114-.24.258-.454.432-.643.175-.188.388-.339.64-.453.252-.113.558-.171.918-.171.392 0 .759.067 1.101.201s.641.33.895.588.454.573.6.945.219.798.219 1.278c0 .275-.026.548-.081.815-.054.269-.131.525-.23.771-.101.246-.22.477-.36.692-.14.216-.296.408-.468.576l-.774-.474c-.056-.04-.103-.092-.141-.156-.038-.063-.057-.132-.057-.204 0-.1.041-.208.123-.324.082-.115.173-.254.272-.414.101-.159.191-.347.273-.561s.123-.471.123-.771c0-.46-.109-.815-.327-1.067s-.531-.378-.939-.378c-.228 0-.414.057-.558.171-.145.114-.265.265-.363.453s-.181.401-.249.642c-.067.24-.142.484-.222.732s-.176.491-.288.731-.258.454-.438.643c-.18.188-.404.339-.675.453-.27.113-.603.171-.999.171-.315 0-.624-.063-.924-.189s-.565-.309-.798-.549-.418-.536-.558-.888c-.141-.353-.211-.757-.211-1.212 0-.513.08-.984.24-1.416.16-.433.384-.801.672-1.104z"/><path d="m263.47 334.694c0-.088.034-.166.102-.234l.69-.636c.436.352.77.785 1.002 1.299s.348 1.131.348 1.851c0 .645-.109 1.224-.33 1.737-.22.514-.525.953-.918 1.317-.392.363-.859.643-1.403.837-.544.193-1.139.291-1.782.291-.652 0-1.249-.104-1.791-.313s-1.009-.501-1.401-.879-.696-.829-.915-1.353c-.218-.524-.327-1.104-.327-1.74 0-.632.104-1.193.313-1.684.208-.489.479-.906.816-1.251l.75.54c.048.032.09.073.126.123.035.051.054.119.054.207 0 .061-.018.122-.051.187-.034.063-.076.134-.126.21-.051.076-.105.164-.165.264-.061.101-.115.216-.165.349-.05.132-.092.284-.126.459-.034.174-.052.375-.052.603 0 .388.069.743.207 1.065.139.321.339.599.601.83.262.232.582.412.96.54.378.129.809.192 1.293.192.488 0 .922-.069 1.302-.207s.7-.325.96-.561.459-.515.598-.834c.138-.32.206-.664.206-1.032 0-.22-.012-.419-.035-.597-.024-.179-.063-.343-.114-.492-.052-.15-.119-.292-.201-.427-.082-.134-.183-.267-.303-.398-.036-.04-.065-.082-.087-.126-.026-.043-.036-.089-.036-.137z"/><path d="m264.184 327.632h1.332v5.082h-8.676v-1.614h7.344z"/><path d="m415.258 312.129v-15.873" fill="none" stroke="#b87332" stroke-miterlimit="10" stroke-width="2.8347"/><path d="m427.57 285.434h-24.625" fill="none" stroke="#000" stroke-miterlimit="10" stroke-width="4.252"/><path d="m415.258 299.517v-14.083" fill="none" stroke="#000" stroke-miterlimit="10" stroke-width="2.8347"/><path d="m415.314 553.934c-.58 0-1.135-.117-1.637-.33-1.512-.639-2.572-2.135-2.572-3.879 0-2.326 1.885-4.211 4.209-4.211 2.326 0 4.211 1.885 4.211 4.211 0 2.324-1.884 4.209-4.211 4.209z" fill="#fff200" stroke="#000" stroke-miterlimit="10" stroke-width="2.8347"/><path d="m415.314 544.471v-14.083" fill="none" stroke="#000" stroke-miterlimit="10" stroke-width="2.8347"/><path d="m301.042 508.558c0-.581.118-1.135.331-1.638.639-1.512 2.135-2.572 3.879-2.572 2.325 0 4.21 1.885 4.21 4.21s-1.885 4.21-4.21 4.21-4.21-1.885-4.21-4.21z" fill="#ed1f24" stroke="#000" stroke-miterlimit="10" stroke-width="2.8347"/><path d="m305.252 487.533v16.764" fill="none" stroke="#000" stroke-miterlimit="10" stroke-width="2.8347"/><path d="m285.037 524.258h-2.793v2.968h-1.447v-2.968h-2.78v-1.317h2.78v-2.951h1.447v2.951h2.793z"/><path d="m288.622 521.803c.231-.048.451-.082.663-.104.211-.021.415-.031.612-.031.547 0 1.03.081 1.447.245.417.163.768.388 1.051.676.284.288.497.626.642 1.012.144.387.215.803.215 1.249 0 .552-.097 1.056-.291 1.513-.195.456-.465.845-.811 1.17-.346.323-.754.574-1.228.752-.473.177-.987.267-1.544.267-.326 0-.636-.033-.929-.102-.293-.066-.567-.156-.824-.27-.258-.112-.494-.242-.714-.389-.218-.146-.413-.301-.586-.464l.547-.756c.115-.163.267-.245.454-.245.12 0 .241.039.367.115.124.077.267.16.428.252.161.091.351.176.569.252.218.077.48.114.789.114.325 0 .613-.053.863-.158s.457-.253.622-.442c.167-.189.291-.415.375-.677.083-.261.126-.546.126-.853 0-.566-.164-1.01-.494-1.329-.328-.319-.814-.479-1.457-.479-.495 0-1.001.092-1.52.273l-1.108-.316.864-5.055h5.141v.756c0 .255-.08.461-.238.619s-.428.237-.806.237h-2.858z"/><path d="m304.132 518.023-4.204 10.411h-1.75l-4.206-10.411h1.557c.167 0 .305.041.41.122.105.082.184.188.236.317l2.456 6.351c.081.206.16.433.233.68.075.247.146.505.214.774.057-.27.119-.527.186-.774.068-.247.143-.474.225-.68l2.44-6.351c.038-.111.114-.212.227-.302.112-.092.251-.138.413-.138h1.563z"/><path d="m309.086 523.921c0 .988.12 1.96.36 2.915.239.955.583 1.853 1.029 2.693.048.096.076.181.083.255s.001.14-.019.195c-.019.055-.05.103-.089.144-.041.041-.086.075-.134.104l-.792.482c-.355-.547-.658-1.097-.907-1.648-.25-.553-.454-1.109-.612-1.671s-.275-1.13-.349-1.706c-.075-.577-.111-1.164-.111-1.764 0-.601.036-1.189.111-1.769.073-.578.19-1.148.349-1.71s.362-1.117.612-1.666c.249-.55.552-1.099.907-1.646l.792.475c.048.029.093.064.134.105.039.04.07.088.089.143.02.057.025.121.019.194-.007.075-.035.163-.083.264-.446.835-.79 1.731-1.029 2.688-.24.96-.36 1.934-.36 2.923z"/><path d="m316.098 522.487c-.048.077-.098.131-.15.162s-.121.047-.202.047c-.087 0-.179-.023-.277-.072-.099-.048-.212-.102-.343-.161-.129-.062-.276-.115-.442-.163-.165-.048-.361-.071-.586-.071-.351 0-.626.073-.825.223-.199.148-.299.343-.299.583 0 .158.052.292.154.4.104.107.24.202.412.284.17.081.363.155.578.22.216.064.437.136.659.212.224.077.442.165.658.264.217.099.41.223.58.374.17.15.308.332.41.543.104.211.155.466.155.764 0 .354-.063.683-.19.982-.128.301-.316.56-.565.777-.25.219-.559.389-.925.512-.368.122-.791.184-1.271.184-.255 0-.503-.022-.745-.068s-.475-.109-.699-.191c-.223-.08-.429-.177-.618-.288-.19-.11-.356-.229-.501-.359l.41-.677c.053-.082.116-.144.188-.188.072-.043.163-.064.273-.064.111 0 .216.031.314.093.098.063.212.13.342.202.129.072.281.139.457.202.175.063.397.093.666.093.211 0 .393-.024.543-.075.151-.05.275-.116.374-.198s.171-.177.217-.284c.046-.108.068-.22.068-.334 0-.174-.052-.315-.155-.426-.103-.11-.24-.206-.41-.288-.171-.081-.365-.154-.583-.219s-.442-.137-.669-.213c-.229-.077-.451-.167-.671-.271-.218-.103-.412-.233-.582-.393-.171-.158-.308-.353-.411-.582-.104-.231-.155-.509-.155-.836 0-.302.062-.591.181-.863.119-.274.297-.513.529-.718.232-.203.523-.366.871-.488.348-.123.75-.184 1.206-.184.509 0 .973.084 1.39.252.417.167.766.389 1.044.662z"/><path d="m328.469 521.047-2.348 7.388h-1.426c-.163 0-.277-.105-.339-.316l-1.324-4.271c-.044-.144-.083-.286-.12-.428-.035-.142-.065-.284-.089-.429-.029.145-.062.289-.097.436-.037.146-.076.292-.12.437l-1.347 4.255c-.057.211-.184.316-.381.316h-1.368l-2.339-7.388h1.418c.13 0 .24.032.331.094.091.063.151.142.18.238l1.058 3.945c.053.216.1.427.141.633.041.208.076.414.104.62.053-.206.109-.412.17-.62.06-.206.123-.417.19-.633l1.225-3.96c.029-.096.085-.176.168-.237.085-.063.187-.094.307-.094h.785c.125 0 .231.031.32.094.088.062.146.142.176.237l1.188 3.96c.063.216.121.428.176.638.056.209.109.416.163.622.063-.407.151-.828.266-1.26l1.088-3.945c.033-.097.094-.176.18-.238s.189-.094.309-.094z"/><path d="m330.218 523.921c0-.989-.119-1.963-.357-2.921-.236-.957-.579-1.854-1.025-2.688-.053-.101-.083-.188-.09-.264-.007-.073-.001-.138.018-.194.02-.055.049-.103.09-.143.041-.041.088-.076.141-.105l.792-.475c.355.547.658 1.096.907 1.646.25.549.454 1.104.612 1.666s.273 1.132.346 1.71c.072.579.107 1.168.107 1.769 0 .6-.035 1.187-.107 1.764-.072.576-.188 1.145-.346 1.706s-.362 1.118-.612 1.671c-.249.552-.552 1.102-.907 1.648l-.792-.482c-.053-.029-.1-.063-.141-.104s-.07-.089-.09-.144c-.019-.056-.024-.121-.018-.195s.037-.159.09-.255c.446-.841.789-1.738 1.025-2.693.238-.957.357-1.929.357-2.917z"/><path d="m433.722 541.816-4.205 10.411h-1.749l-4.206-10.411h1.557c.167 0 .305.041.41.122.105.082.184.188.236.317l2.456 6.351c.081.206.159.433.233.68.075.247.146.505.213.774.058-.27.12-.527.187-.774.068-.247.142-.474.224-.68l2.441-6.351c.037-.111.113-.212.227-.303.112-.091.25-.137.413-.137h1.563z"/><path d="m435.948 547.605c0 .119-.024.23-.072.335-.05.105-.114.197-.193.274-.081.078-.175.142-.283.188-.108.047-.224.07-.347.07-.119 0-.233-.023-.339-.07-.106-.046-.199-.109-.277-.188-.078-.077-.141-.169-.188-.274-.047-.104-.07-.216-.07-.335 0-.123.023-.239.07-.347.047-.109.109-.202.188-.28s.171-.141.277-.188c.105-.047.22-.07.339-.07.123 0 .238.023.347.07s.202.109.283.188c.079.078.144.171.193.28.048.108.072.224.072.347zm-.191 1.674v5.742h-1.387v-5.742z"/><path d="m438.461 549.984c.116-.116.237-.224.366-.322s.266-.183.408-.252c.145-.069.298-.123.462-.162s.343-.06.538-.06c.313 0 .59.054.833.161.242.105.445.255.608.447.161.192.284.422.369.688.084.268.125.562.125.882v3.655h-1.382v-3.655c0-.351-.081-.622-.241-.814s-.404-.288-.732-.288c-.239 0-.463.055-.672.162-.209.108-.407.256-.594.442v4.153h-1.382v-5.742h.845c.18 0 .297.084.354.252z"/><path d="m446.864 547.713c0 .989.12 1.961.36 2.916.239.955.583 1.853 1.029 2.693.048.096.076.18.083.255.007.074.001.14-.019.194-.019.056-.05.104-.089.145-.041.041-.086.075-.134.104l-.792.482c-.355-.547-.658-1.097-.907-1.648-.25-.554-.454-1.11-.612-1.671-.158-.562-.275-1.13-.349-1.707-.075-.576-.111-1.163-.111-1.764 0-.6.036-1.189.111-1.768.073-.578.19-1.148.349-1.71s.362-1.117.612-1.667c.249-.549.552-1.098.907-1.645l.792.475c.048.029.093.064.134.105.039.039.07.088.089.143.02.057.025.121.019.194-.007.075-.035.163-.083.264-.446.835-.79 1.731-1.029 2.688-.24.959-.36 1.934-.36 2.922z"/><path d="m451.256 545.848c.303-.34.646-.616 1.03-.827s.836-.316 1.354-.316c.403 0 .771.083 1.105.252.334.167.621.411.863.729.242.32.43.713.563 1.182.131.468.198 1.004.198 1.609 0 .552-.075 1.063-.224 1.533-.149.471-.361.878-.638 1.224-.275.346-.609.615-1.001.81s-.828.292-1.313.292c-.413 0-.766-.063-1.059-.19s-.554-.304-.785-.529v3.023h-1.777v-9.799h1.086c.231 0 .382.107.454.324zm.094 4.465c.202.245.422.417.659.518.237.102.495.151.774.151.269 0 .511-.05.727-.151.217-.101.399-.254.551-.46s.269-.467.349-.782c.082-.313.123-.684.123-1.111 0-.433-.035-.799-.104-1.099-.07-.3-.17-.544-.299-.731-.131-.186-.287-.323-.473-.41-.184-.086-.395-.129-.629-.129-.371 0-.685.078-.943.233-.26.156-.504.376-.735.659z"/><path d="m458.341 547.713c0-.988-.119-1.963-.357-2.92-.236-.957-.578-1.854-1.025-2.688-.053-.101-.083-.188-.09-.264-.007-.073-.001-.138.018-.194.02-.055.049-.104.09-.143.041-.041.088-.076.141-.105l.793-.475c.354.547.657 1.096.906 1.645.25.55.454 1.105.612 1.667s.274 1.132.346 1.71.107 1.168.107 1.768c0 .601-.035 1.188-.107 1.764-.071.577-.188 1.146-.346 1.707s-.362 1.117-.612 1.671c-.249.552-.552 1.102-.906 1.648l-.793-.482c-.053-.029-.1-.063-.141-.104s-.07-.089-.09-.145c-.019-.055-.024-.12-.018-.194.007-.075.037-.159.09-.255.447-.841.789-1.738 1.025-2.693.238-.957.357-1.929.357-2.918z"/></svg>