<svg enable-background="new 0 0 359.978 366" height="366" viewBox="0 0 359.978 366" width="359.978" xmlns="http://www.w3.org/2000/svg" xmlns:xlink="http://www.w3.org/1999/xlink"><clipPath id="a"><path d="m219.787 54.333h14.193v39.448h-14.193z"/></clipPath><path d="m135.013 270.374v25.262" fill="none" stroke="#b87332" stroke-miterlimit="10" stroke-width="2.8347"/><path d="m74.239 331.011c3.2 0 5.798-2.599 5.798-5.798v-24.604c0-3.202-2.598-5.798-5.798-5.798h-24.602c-3.2 0-5.79 2.596-5.79 5.798v24.604c0 3.199 2.59 5.798 5.79 5.798z"/><path d="m57.31 308.282h9.264v9.264h-9.264z" fill="#c3996c"/><path d="m111.161 331.011c3.199 0 5.797-2.599 5.797-5.798v-24.604c0-3.202-2.598-5.798-5.797-5.798h-24.603c-3.2 0-5.789 2.596-5.789 5.798v24.604c0 3.199 2.589 5.798 5.789 5.798z"/><path d="m94.231 308.282h9.263v9.264h-9.263z" fill="#c3996c"/><path d="m147.804 331.011c3.2 0 5.798-2.599 5.798-5.798v-24.604c0-3.202-2.598-5.798-5.798-5.798h-24.604c-3.198 0-5.788 2.596-5.788 5.798v24.604c0 3.199 2.59 5.798 5.788 5.798z"/><path d="m130.874 308.282h9.264v9.264h-9.264z" fill="#c3996c"/><path d="m184.726 331.011c3.2 0 5.797-2.599 5.797-5.798v-24.604c0-3.202-2.597-5.798-5.797-5.798h-24.604c-3.199 0-5.789 2.596-5.789 5.798v24.604c0 3.199 2.59 5.798 5.789 5.798z"/><path d="m167.797 308.282h9.263v9.264h-9.263z" fill="#c3996c"/><path d="m221.279 331.011c3.2 0 5.798-2.599 5.798-5.798v-24.604c0-3.202-2.598-5.798-5.798-5.798h-24.604c-3.2 0-5.79 2.596-5.79 5.798v24.604c0 3.199 2.59 5.798 5.79 5.798z"/><path d="m204.351 308.282h9.263v9.264h-9.263z" fill="#c3996c"/><path d="m258.202 331.011c3.197 0 5.796-2.599 5.796-5.798v-24.604c0-3.202-2.599-5.798-5.796-5.798h-24.605c-3.199 0-5.789 2.596-5.789 5.798v24.604c0 3.199 2.59 5.798 5.789 5.798z"/><path d="m241.271 308.282h9.263v9.264h-9.263z" fill="#c3996c"/><path d="m63.437 294.959v-66.737" fill="none" stroke="#b87332" stroke-miterlimit="10" stroke-width="2.8347"/><path d="m98.72 295.185v-66.738" fill="none" stroke="#b87332" stroke-miterlimit="10" stroke-width="2.8347"/><path d="m13.787 207.627-.359.446c.201-.101.419-.178.651-.233s.483-.083.752-.083c.394 0 .776.064 1.148.194.372.129.7.325.982.588.284.261.512.586.685.975s.259.843.259 1.36c0 .485-.089.94-.267 1.365-.177.425-.427.796-.748 1.112s-.709.566-1.163.749c-.453.182-.954.272-1.501.272-.557 0-1.056-.089-1.498-.266-.441-.178-.818-.426-1.13-.745-.313-.319-.551-.703-.717-1.152-.165-.448-.248-.946-.248-1.494 0-.489.1-.992.299-1.508s.507-1.053.925-1.609l2.484-3.334c.086-.114.212-.213.378-.295.165-.081.356-.122.572-.122h1.584zm.403 5.292c.283 0 .544-.048.781-.144.237-.097.441-.23.612-.403.17-.173.303-.375.399-.608s.144-.486.144-.76c0-.297-.045-.564-.137-.803-.091-.237-.221-.439-.389-.604-.168-.166-.369-.292-.604-.378-.235-.087-.494-.129-.777-.129-.284 0-.54.048-.771.143-.23.096-.428.229-.591.399-.163.171-.291.373-.382.606-.091.231-.137.482-.137.752 0 .287.04.551.119.787.079.238.196.441.353.609s.35.299.579.392c.233.094.498.141.801.141z"/><path d="m22.138 207.627-.359.446c.201-.101.419-.178.651-.233s.483-.083.753-.083c.394 0 .776.064 1.148.194.372.129.699.325.982.588.283.261.512.586.685.975s.259.843.259 1.36c0 .485-.089.94-.267 1.365s-.428.796-.749 1.112-.709.566-1.162.749c-.454.182-.954.272-1.502.272-.557 0-1.056-.089-1.497-.266-.442-.178-.818-.426-1.131-.745-.312-.319-.551-.703-.716-1.152-.166-.448-.249-.946-.249-1.494 0-.489.1-.992.299-1.508s.508-1.053.926-1.609l2.484-3.334c.086-.114.212-.213.378-.295.165-.081.355-.122.572-.122h1.584zm.404 5.292c.284 0 .544-.048.782-.144.237-.097.44-.23.611-.403s.304-.375.399-.608c.097-.233.145-.486.145-.76 0-.297-.046-.564-.138-.803-.091-.237-.22-.439-.388-.604-.169-.166-.37-.292-.605-.378-.235-.087-.494-.129-.777-.129s-.54.048-.771.143c-.23.096-.427.229-.591.399-.162.171-.29.373-.381.606-.092.231-.138.482-.138.752 0 .287.04.551.119.787.079.238.197.441.353.609s.35.299.58.392c.231.094.498.141.8.141z"/><path d="m34.724 209.053c0 .907-.097 1.696-.291 2.365-.195.67-.464 1.224-.807 1.659-.344.438-.749.763-1.217.977-.469.213-.974.319-1.516.319s-1.045-.106-1.509-.319c-.463-.214-.865-.539-1.206-.977-.341-.436-.607-.989-.799-1.659-.192-.669-.288-1.458-.288-2.365 0-.911.096-1.701.288-2.368.191-.668.458-1.22.799-1.657.341-.436.743-.762 1.206-.975.464-.213.967-.321 1.509-.321s1.047.108 1.516.321c.468.213.873.539 1.217.975.343.438.611.989.807 1.657.194.667.291 1.457.291 2.368zm-1.836 0c0-.753-.055-1.378-.165-1.872-.111-.493-.259-.888-.443-1.181s-.397-.498-.638-.615c-.239-.118-.489-.177-.748-.177-.255 0-.501.059-.738.177-.237.117-.447.322-.63.615s-.327.688-.436 1.181c-.108.494-.162 1.119-.162 1.872 0 .754.054 1.379.162 1.872.108.494.253.888.436 1.181s.393.498.63.615c.237.119.483.178.738.178.259 0 .509-.059.748-.178.24-.117.453-.322.638-.615s.332-.687.443-1.181c.11-.493.165-1.118.165-1.872z"/><path d="m46.215 212.667v.987c0 .177-.058.322-.173.436-.115.112-.273.169-.476.169h-3.823v-2.189c.332-.058.643-.188.934-.393.29-.204.544-.462.763-.773s.39-.669.515-1.073c.125-.403.188-.832.188-1.288 0-.533-.085-.997-.256-1.394-.171-.396-.4-.724-.691-.982-.29-.26-.629-.454-1.015-.584-.387-.129-.796-.193-1.228-.193-.433 0-.842.064-1.228.193-.387.13-.724.324-1.012.584-.288.259-.518.587-.688.982-.171.396-.256.86-.256 1.394 0 .456.063.885.188 1.288.124.404.296.762.515 1.073.218.312.473.569.763.773.291.205.602.335.933.393v2.189h-3.823c-.202 0-.36-.057-.476-.169-.114-.113-.173-.259-.173-.436v-.987h1.656c.226 0 .456.011.691.033.235.021.468.049.698.082-.427-.153-.818-.367-1.174-.64-.354-.274-.659-.596-.914-.966-.255-.369-.452-.778-.594-1.228-.142-.448-.212-.926-.212-1.43 0-.691.13-1.327.392-1.911.262-.583.623-1.089 1.084-1.515.461-.428 1.002-.761 1.624-1.001.621-.24 1.292-.361 2.012-.361s1.391.121 2.013.361c.621.24 1.161.573 1.619 1.001.459.426.82.932 1.084 1.515.264.584.396 1.22.396 1.911 0 .504-.07.981-.212 1.43s-.34.857-.594 1.224c-.255.368-.56.689-.914.966-.355.275-.747.49-1.174.644.23-.033.462-.062.695-.082.232-.022.461-.033.687-.033z"/><path d="m116.999 206.671-.36.446c.202-.101.419-.178.651-.233.233-.055.483-.083.753-.083.394 0 .776.064 1.148.194.372.129.699.325.982.587s.512.586.685.976c.173.389.259.843.259 1.36 0 .485-.089.939-.267 1.365-.178.424-.427.796-.749 1.112-.321.316-.709.565-1.162.749-.454.182-.954.272-1.501.272-.557 0-1.057-.089-1.498-.266-.441-.179-.818-.426-1.13-.745-.313-.319-.551-.703-.717-1.152-.165-.449-.249-.947-.249-1.494 0-.49.1-.992.299-1.508s.508-1.053.926-1.609l2.484-3.334c.086-.115.212-.213.378-.295.165-.081.356-.122.572-.122h1.584zm.402 5.292c.284 0 .544-.048.782-.145.237-.096.441-.229.611-.402.171-.173.304-.375.399-.608.097-.233.145-.486.145-.76 0-.298-.046-.564-.137-.803-.091-.237-.221-.439-.389-.604-.168-.166-.37-.292-.604-.379-.236-.086-.495-.129-.778-.129s-.54.049-.771.144c-.229.096-.427.229-.59.399-.163.171-.291.373-.382.605-.092.232-.137.483-.137.753 0 .287.039.551.118.787.079.238.197.44.354.609.155.168.349.299.579.392.232.094.498.141.8.141z"/><path d="m125.35 206.671-.359.446c.201-.101.419-.178.651-.233s.483-.083.752-.083c.394 0 .776.064 1.148.194.372.129.7.325.982.587.284.262.512.586.685.976.173.389.259.843.259 1.36 0 .485-.089.939-.267 1.365-.177.424-.427.796-.748 1.112s-.709.565-1.163.749c-.453.182-.954.272-1.501.272-.557 0-1.056-.089-1.498-.266-.441-.179-.818-.426-1.13-.745-.313-.319-.551-.703-.717-1.152-.165-.449-.248-.947-.248-1.494 0-.49.1-.992.299-1.508s.507-1.053.925-1.609l2.484-3.334c.086-.115.212-.213.378-.295.165-.081.356-.122.572-.122h1.584zm.403 5.292c.283 0 .544-.048.781-.145.237-.096.441-.229.612-.402.17-.173.303-.375.399-.608s.144-.486.144-.76c0-.298-.045-.564-.137-.803-.091-.237-.221-.439-.389-.604-.168-.166-.369-.292-.604-.379-.235-.086-.494-.129-.777-.129-.284 0-.54.049-.771.144-.23.096-.428.229-.591.399-.163.171-.291.373-.382.605s-.137.483-.137.753c0 .287.04.551.119.787.079.238.196.44.353.609.156.168.35.299.579.392.233.094.499.141.801.141z"/><path d="m137.936 208.097c0 .907-.098 1.696-.292 2.365-.194.67-.463 1.224-.806 1.659-.344.438-.749.763-1.218.977-.468.213-.973.319-1.516.319-.542 0-1.045-.106-1.508-.319-.464-.214-.865-.539-1.206-.977-.341-.436-.607-.989-.799-1.659-.192-.669-.289-1.458-.289-2.365 0-.911.097-1.701.289-2.368.191-.668.458-1.22.799-1.657.341-.436.742-.762 1.206-.975.463-.214.966-.321 1.508-.321.543 0 1.048.107 1.516.321.469.213.874.539 1.218.975.343.438.611.989.806 1.657.194.667.292 1.457.292 2.368zm-1.836 0c0-.753-.056-1.378-.166-1.872s-.258-.888-.442-1.181c-.186-.293-.397-.498-.638-.615-.239-.118-.489-.177-.749-.177-.254 0-.5.059-.737.177-.238.117-.448.322-.63.615-.183.293-.328.687-.437 1.181-.107.494-.161 1.119-.161 1.872 0 .754.054 1.378.161 1.872.108.494.254.888.437 1.181.182.293.392.498.63.615.237.118.483.177.737.177.26 0 .51-.059.749-.177.24-.117.452-.322.638-.615.185-.293.332-.687.442-1.181s.166-1.118.166-1.872z"/><path d="m149.427 211.711v.986c0 .178-.057.322-.172.437-.115.112-.275.169-.477.169h-3.823v-2.189c.332-.058.643-.188.933-.393.291-.204.544-.462.763-.773s.391-.669.516-1.073c.125-.403.186-.832.186-1.288 0-.533-.084-.997-.254-1.394-.172-.396-.402-.724-.691-.983-.291-.259-.629-.453-1.016-.583-.387-.129-.795-.193-1.228-.193-.432 0-.841.064-1.228.193-.387.13-.724.324-1.012.583-.287.26-.518.588-.688.983-.17.396-.256.86-.256 1.394 0 .456.063.885.188 1.288.125.404.297.762.516 1.073.218.312.472.569.763.773.29.205.601.335.932.393v2.189h-3.823c-.201 0-.359-.057-.475-.169-.115-.114-.173-.259-.173-.437v-.986h1.656c.226 0 .456.011.69.033.236.021.469.049.699.082-.428-.154-.818-.367-1.174-.641s-.66-.595-.914-.965c-.255-.369-.452-.778-.595-1.228-.142-.448-.212-.926-.212-1.43 0-.691.131-1.327.393-1.911s.622-1.089 1.084-1.516c.46-.428 1.002-.76 1.623-1s1.292-.361 2.013-.361c.72 0 1.391.121 2.013.361.621.24 1.16.572 1.619 1 .459.427.818.932 1.084 1.516.264.584.395 1.22.395 1.911 0 .504-.07.981-.211 1.43-.143.449-.34.856-.596 1.224-.254.368-.559.689-.914.966-.355.275-.746.489-1.172.644.229-.033.461-.062.693-.082.232-.022.463-.033.688-.033z"/><g fill="none"><path d="m209.437 294.959v-98.954" stroke="#b87332" stroke-miterlimit="10" stroke-width="2.8347"/><path d="m245.562 295.185v-99.18" stroke="#b87332" stroke-miterlimit="10" stroke-width="2.8347"/><path d="m172.429 331.011v15.873" stroke="#b87332" stroke-miterlimit="10" stroke-width="2.8347"/><path d="m184.741 357.706h-24.625" stroke="#000" stroke-miterlimit="10" stroke-width="4.252"/><path d="m172.429 343.623v14.083" stroke="#000" stroke-miterlimit="10" stroke-width="2.8347"/><path d="m98.72 189.123v-149.775h26.538" stroke="#b87332" stroke-miterlimit="10" stroke-width="2.8347"/><path d="m90.202 189.123h17.035v39.699h-17.035z" stroke="#000" stroke-miterlimit="10" stroke-width="2.8347"/><path d="m125.258 25.643h-61.821v163.312" stroke="#b87332" stroke-miterlimit="10" stroke-width="2.8347"/><path d="m54.697 188.955h17.035v39.699h-17.035z" stroke="#000" stroke-miterlimit="10" stroke-width="2.8347"/></g><path d="m185.427 27.211c-.072.119-.15.209-.234.27s-.187.09-.306.09c-.137 0-.297-.068-.48-.203-.184-.137-.414-.287-.689-.451-.276-.164-.608-.313-.996-.449-.389-.137-.858-.205-1.41-.205-.521 0-.979.07-1.374.211-.396.141-.729.33-.996.57-.269.24-.47.521-.606.846-.136.324-.204.674-.204 1.051 0 .479.118.877.354 1.193.235.316.548.586.936.811.389.223.828.418 1.32.582s.996.334 1.512.51c.517.176 1.021.373 1.513.594.491.219.932.498 1.319.834.389.336.7.748.937 1.236.235.488.354 1.088.354 1.799 0 .752-.128 1.459-.384 2.119s-.63 1.234-1.122 1.721c-.492.488-1.096.873-1.812 1.152-.717.279-1.53.42-2.442.42-1.12 0-2.136-.201-3.048-.605s-1.692-.949-2.34-1.639l.672-1.104c.063-.088.142-.162.234-.223.092-.059.193-.09.306-.09.104 0 .222.043.354.127.133.084.282.189.45.318.168.127.36.268.576.42.216.15.462.291.738.42.275.127.59.232.941.316.353.084.748.127 1.188.127.552 0 1.044-.076 1.476-.229.433-.152.798-.365 1.099-.641.3-.277.529-.607.689-.99.16-.385.24-.813.24-1.285 0-.52-.118-.945-.354-1.277-.235-.332-.546-.609-.93-.834s-.824-.414-1.32-.57-1-.316-1.512-.48-1.016-.354-1.512-.57c-.496-.215-.937-.494-1.32-.84-.384-.344-.694-.773-.93-1.289s-.354-1.154-.354-1.914c0-.607.118-1.195.354-1.764.235-.568.58-1.072 1.032-1.512.451-.441 1.008-.793 1.668-1.057.659-.264 1.418-.396 2.273-.396.96 0 1.834.152 2.622.457.788.303 1.482.744 2.082 1.32z"/><path d="m201.278 26.479h-5.568v15.24h-2.315v-15.24h-5.58v-1.955h13.464v1.955z"/><path d="m221.714 24.523v17.195h-2.04v-12.636c0-.168.007-.348.019-.539.012-.193.025-.389.042-.588l-5.904 10.752c-.184.359-.464.539-.84.539h-.336c-.376 0-.656-.18-.84-.539l-6.024-10.801c.048.424.072.816.072 1.176v12.637h-2.04v-17.196h1.716c.208 0 .368.02.48.059.111.041.22.152.323.336l5.94 10.584c.096.193.189.393.282.6.092.209.178.422.258.637.08-.215.164-.43.252-.643.088-.211.184-.414.288-.605l5.832-10.572c.096-.184.202-.295.318-.336.115-.039.277-.059.485-.059h1.717z"/><path d="m225.47 29.178c.112-.783.328-1.477.648-2.082.32-.604.726-1.109 1.218-1.518.493-.408 1.058-.717 1.692-.93.637-.211 1.322-.318 2.059-.318.729 0 1.4.104 2.016.313s1.146.504 1.59.889c.443.383.791.848 1.039 1.391.248.545.371 1.148.371 1.813 0 .545-.07 1.029-.209 1.459-.141.428-.342.801-.602 1.121s-.574.592-.941.816-.779.408-1.236.551c1.121.289 1.963.783 2.527 1.482.563.701.846 1.574.846 2.623 0 .791-.15 1.504-.451 2.135-.299.633-.709 1.17-1.229 1.615-.521.443-1.127.783-1.818 1.02-.693.236-1.436.354-2.227.354-.912 0-1.691-.113-2.34-.342s-1.196-.541-1.645-.941-.816-.875-1.104-1.422c-.288-.549-.532-1.143-.731-1.783l.924-.383c.24-.104.474-.133.702-.084.228.047.394.18.498.395.104.225.233.492.39.805s.371.611.643.9c.271.287.617.531 1.037.732.422.199.955.299 1.604.299.6 0 1.125-.098 1.578-.293.451-.197.828-.451 1.127-.762.301-.313.525-.66.678-1.045s.229-.764.229-1.141c0-.463-.061-.887-.18-1.271-.121-.383-.344-.715-.672-.996-.328-.279-.779-.5-1.35-.66-.572-.16-1.307-.24-2.203-.24v-1.547c.736-.008 1.363-.088 1.879-.24s.936-.359 1.26-.625c.324-.264.559-.578.707-.947.148-.367.223-.775.223-1.225 0-.496-.078-.928-.234-1.295-.156-.369-.369-.672-.643-.912-.271-.24-.594-.42-.965-.541-.373-.119-.773-.18-1.207-.18-.432 0-.834.064-1.205.193-.373.127-.701.305-.984.533s-.521.498-.713.811c-.193.311-.328.656-.408 1.031-.105.279-.235.467-.392.559-.155.092-.382.117-.678.078z"/><path d="m249.675 39.691c.232 0 .416.066.553.203.135.137.203.313.203.527v1.297h-11.473v-.732c0-.152.033-.309.096-.469.064-.158.164-.307.301-.443l5.508-5.531c.457-.465.873-.91 1.248-1.338.377-.428.695-.859.961-1.291.264-.432.467-.869.611-1.314.145-.443.217-.918.217-1.422s-.08-.945-.24-1.326c-.16-.379-.379-.693-.654-.941s-.602-.434-.979-.559c-.375-.123-.779-.186-1.211-.186-.441 0-.846.064-1.213.193-.367.127-.693.305-.979.533-.283.229-.521.498-.713.811-.193.311-.328.656-.408 1.031-.096.279-.227.467-.391.559s-.395.117-.689.078l-1.117-.193c.113-.783.33-1.477.654-2.082.324-.604.732-1.109 1.225-1.518s1.055-.717 1.686-.93c.633-.211 1.316-.318 2.053-.318.729 0 1.408.109 2.039.324.633.217 1.18.529 1.645.941s.828.914 1.092 1.506c.264.594.396 1.266.396 2.018 0 .639-.096 1.234-.289 1.781-.191.549-.451 1.07-.779 1.566s-.705.98-1.135 1.451c-.428.473-.881.949-1.361 1.428l-4.535 4.633c.318-.088.643-.158.971-.211.328-.051.645-.076.949-.076z"/><path d="m256.274 26.418v6.012h7.068v1.896h-7.068v7.393h-2.328v-17.196h10.596v1.895z"/><path d="m278.56 35.514v1.225c0 .129-.039.236-.115.324s-.193.133-.354.133h-2.137v4.523h-1.871v-4.523h-7.633c-.16 0-.297-.047-.414-.139-.115-.092-.189-.205-.221-.342l-.217-1.092 8.363-11.1h1.992v10.99h2.607zm-4.477 0v-7.092c0-.207.008-.436.023-.684s.041-.5.072-.756l-6.264 8.531h6.169z"/><path d="m126.476 12.199v40.756h202.665v-.166-40.754" fill="none" stroke="#000" stroke-miterlimit="10" stroke-width="2.8347"/><path d="m199.918 144.265c0 .954-.159 1.83-.477 2.628s-.766 1.485-1.342 2.061c-.575.576-1.269 1.023-2.078 1.342-.811.317-1.71.477-2.7.477h-4.959v-13.014h4.959c.99 0 1.89.16 2.7.481.81.32 1.503.768 2.078 1.341.576.573 1.023 1.259 1.342 2.057.318.797.477 1.673.477 2.627zm-2.483 0c0-.714-.095-1.354-.284-1.922-.188-.566-.462-1.047-.818-1.439-.357-.394-.789-.694-1.297-.905-.507-.21-1.078-.314-1.714-.314h-2.529v9.162h2.529c.636 0 1.207-.105 1.714-.315.508-.21.939-.512 1.297-.904.356-.393.63-.873.818-1.44.189-.569.284-1.209.284-1.923z"/><path d="m212.212 150.771h-2.188c-.414 0-.714-.162-.899-.486l-2.736-4.167c-.103-.155-.215-.267-.338-.333-.123-.065-.305-.099-.544-.099h-1.035v5.085h-2.421v-13.014h3.969c.882 0 1.64.091 2.272.274.633.183 1.152.439 1.557.77.405.33.704.725.896 1.184s.288.964.288 1.517c0 .438-.064.852-.193 1.241-.129.391-.314.744-.558 1.063s-.543.597-.9.837c-.356.24-.764.429-1.22.567.156.09.301.196.433.319s.252.269.359.437zm-6.229-6.822c.456 0 .854-.057 1.192-.171.339-.113.618-.271.837-.473.22-.2.383-.439.491-.715.107-.276.162-.579.162-.909 0-.66-.218-1.167-.653-1.521s-1.1-.53-1.993-.53h-1.548v4.319z"/><path d="m224.37 137.758-5.256 13.014h-2.187l-5.256-13.014h1.943c.21 0 .381.051.514.152.132.103.23.234.297.396l3.068 7.938c.103.259.2.542.293.851.093.31.182.632.266.968.071-.336.149-.658.233-.968.084-.309.178-.592.279-.851l3.051-7.938c.048-.138.143-.264.284-.378s.313-.171.518-.171h1.953z"/><path d="m231.688 143.985c.792.258 1.377.652 1.755 1.184s.567 1.181.567 1.948c0 .576-.109 1.099-.329 1.566-.219.468-.526.867-.922 1.197s-.872.585-1.427.765-1.169.27-1.841.27-1.285-.09-1.84-.27c-.556-.18-1.031-.435-1.427-.765s-.704-.729-.923-1.197-.328-.99-.328-1.566c0-.768.188-1.417.566-1.948.379-.531.964-.926 1.756-1.184-.631-.264-1.103-.639-1.418-1.125s-.473-1.071-.473-1.755c0-.492.101-.951.302-1.377s.481-.797.842-1.111c.359-.315.79-.562 1.291-.738s1.052-.266 1.651-.266c.601 0 1.15.089 1.651.266s.932.423 1.292.738c.36.314.641.686.842 1.111.2.426.301.885.301 1.377 0 .684-.157 1.269-.472 1.755-.314.487-.787.862-1.416 1.125zm-2.197 5.194c.366 0 .688-.053.963-.158.276-.104.509-.25.698-.436.188-.187.331-.408.427-.666.097-.259.145-.537.145-.838 0-.714-.198-1.254-.594-1.619-.396-.366-.942-.55-1.639-.55s-1.242.184-1.638.55c-.396.365-.594.905-.594 1.619 0 .301.048.579.144.838.096.258.238.479.428.666.188.186.421.331.697.436.277.105.597.158.963.158zm0-9.892c-.33 0-.615.052-.854.153-.24.103-.439.238-.599.409s-.276.368-.352.59c-.074.222-.112.456-.112.702 0 .258.032.509.095.751.063.243.17.459.319.648.15.189.348.341.594.454.246.114.55.171.909.171.36 0 .663-.057.909-.171.246-.113.444-.265.594-.454s.257-.405.32-.648c.063-.242.094-.493.094-.751 0-.246-.039-.48-.117-.702-.077-.222-.194-.419-.351-.59s-.354-.307-.594-.409c-.24-.101-.525-.153-.855-.153z"/><path d="m242.127 143.985c.792.258 1.377.652 1.755 1.184s.567 1.181.567 1.948c0 .576-.109 1.099-.329 1.566-.219.468-.526.867-.922 1.197s-.872.585-1.427.765-1.169.27-1.841.27-1.285-.09-1.84-.27c-.556-.18-1.031-.435-1.427-.765s-.704-.729-.923-1.197-.328-.99-.328-1.566c0-.768.188-1.417.566-1.948.379-.531.964-.926 1.756-1.184-.631-.264-1.103-.639-1.418-1.125s-.473-1.071-.473-1.755c0-.492.101-.951.302-1.377s.481-.797.842-1.111c.359-.315.79-.562 1.291-.738s1.052-.266 1.651-.266c.601 0 1.15.089 1.651.266s.932.423 1.292.738c.36.314.641.686.842 1.111.2.426.301.885.301 1.377 0 .684-.157 1.269-.472 1.755-.314.487-.786.862-1.416 1.125zm-2.196 5.194c.366 0 .688-.053.963-.158.276-.104.509-.25.698-.436.188-.187.331-.408.427-.666.097-.259.145-.537.145-.838 0-.714-.198-1.254-.594-1.619-.396-.366-.942-.55-1.639-.55s-1.242.184-1.638.55c-.396.365-.594.905-.594 1.619 0 .301.048.579.144.838.096.258.238.479.428.666.188.186.421.331.697.436s.596.158.963.158zm0-9.892c-.33 0-.615.052-.854.153-.24.103-.439.238-.599.409s-.276.368-.352.59c-.074.222-.112.456-.112.702 0 .258.032.509.095.751.063.243.17.459.319.648.15.189.348.341.594.454.246.114.55.171.909.171.36 0 .663-.057.909-.171.246-.113.444-.265.594-.454s.257-.405.32-.648c.063-.242.094-.493.094-.751 0-.246-.039-.48-.117-.702-.077-.222-.194-.419-.351-.59s-.354-.307-.594-.409c-.24-.101-.525-.153-.855-.153z"/><path d="m255.132 145.866v1.287c0 .12-.039.224-.117.311s-.189.131-.333.131h-1.188v3.177h-1.935v-3.177h-5.49c-.15 0-.282-.047-.396-.14s-.187-.209-.217-.347l-.233-1.125 6.165-8.235h2.105v8.118zm-3.573 0v-4.257c0-.401.026-.846.081-1.332l-4.041 5.589z"/><path d="m263.006 143.985c.792.258 1.377.652 1.755 1.184s.567 1.181.567 1.948c0 .576-.109 1.099-.329 1.566-.219.468-.526.867-.922 1.197s-.872.585-1.427.765-1.169.27-1.841.27-1.285-.09-1.84-.27c-.556-.18-1.031-.435-1.427-.765s-.704-.729-.923-1.197-.328-.99-.328-1.566c0-.768.188-1.417.566-1.948.379-.531.964-.926 1.756-1.184-.631-.264-1.103-.639-1.418-1.125s-.473-1.071-.473-1.755c0-.492.101-.951.302-1.377s.481-.797.842-1.111c.359-.315.79-.562 1.291-.738s1.052-.266 1.651-.266c.601 0 1.15.089 1.651.266s.932.423 1.292.738c.36.314.641.686.842 1.111.2.426.301.885.301 1.377 0 .684-.157 1.269-.472 1.755-.314.487-.786.862-1.416 1.125zm-2.196 5.194c.366 0 .688-.053.963-.158.276-.104.509-.25.698-.436.188-.187.331-.408.427-.666.097-.259.145-.537.145-.838 0-.714-.198-1.254-.594-1.619-.396-.366-.942-.55-1.639-.55s-1.242.184-1.638.55c-.396.365-.594.905-.594 1.619 0 .301.048.579.144.838.096.258.238.479.428.666.188.186.421.331.697.436s.596.158.963.158zm0-9.892c-.33 0-.615.052-.854.153-.24.103-.439.238-.599.409s-.276.368-.352.59c-.074.222-.112.456-.112.702 0 .258.032.509.095.751.063.243.17.459.319.648.15.189.348.341.594.454.246.114.55.171.909.171.36 0 .663-.057.909-.171.246-.113.444-.265.594-.454s.257-.405.32-.648c.063-.242.094-.493.094-.751 0-.246-.039-.48-.117-.702-.077-.222-.194-.419-.351-.59s-.354-.307-.594-.409c-.24-.101-.525-.153-.855-.153z"/><path clip-path="url(#a)" d="m225.653 86.899h-5.86l7.094 6.892 7.094-6.892h-5.859v-25.579h5.859l-7.094-6.892-7.094 6.892h5.86zm0 0"/><path d="m240.826 318.546h25.666v21.334h-25.666z" fill="none"/><text fill="#fff" font-family="'Lato-Bold'" font-size="12" transform="translate(250.1787 327.4609)">1</text><path d="m204.351 318.546h25.666v21.334h-25.666z" fill="none"/><text fill="#fff" font-family="'Lato-Bold'" font-size="12" transform="translate(213.7041 327.4629)">2</text><path d="m167.797 318.546h25.666v21.334h-25.666z" fill="none"/><text fill="#fff" font-family="'Lato-Bold'" font-size="12" transform="translate(177.1494 327.4619)">3</text><path d="m130.874 318.546h25.666v21.334h-25.666z" fill="none"/><text fill="#fff" font-family="'Lato-Bold'" font-size="12" transform="translate(140.2271 327.4619)">4</text><path d="m94.404 317.546h25.666v21.334h-25.666z" fill="none"/><text fill="#fff" font-family="'Lato-Bold'" font-size="12" transform="translate(103.7573 326.4619)">5</text><path d="m57.31 317.546h25.666v21.334h-25.666z" fill="none"/><text fill="#fff" font-family="'Lato-Bold'" font-size="12" transform="translate(66.6626 326.4619)">6</text><path d="m84.199 289.484h2.887v-3.644h1.49v3.644h2.945v-4.623h1.548v6.567h-10.411v-6.567h1.541z"/><path d="m82.658 274.372h10.411v.992c0 .155-.026.284-.076.387-.051.104-.135.202-.256.298l-6.939 5.437c.316-.029.609-.044.878-.044h6.394v1.707h-10.412v-1.016c0-.082.004-.152.011-.212s.021-.113.043-.158c.021-.047.053-.09.094-.134.041-.043.095-.091.162-.144l6.969-5.458c-.167.015-.333.026-.497.035-.162.011-.313.016-.453.016h-6.328v-1.706z"/><path d="m90.614 264.904c0-.105.041-.199.122-.281l.828-.764c.522.423.924.941 1.202 1.559.279.617.417 1.357.417 2.222 0 .773-.131 1.467-.396 2.083-.264.618-.631 1.145-1.102 1.582-.47.437-1.031.771-1.685 1.004-.652.232-1.366.349-2.139.349-.782 0-1.498-.124-2.148-.374-.65-.249-1.211-.601-1.682-1.055-.471-.453-.836-.994-1.099-1.623-.261-.629-.393-1.325-.393-2.088 0-.76.126-1.432.375-2.021.25-.588.575-1.087.979-1.501l.9.648c.058.038.107.088.151.147.042.061.064.143.064.248 0 .073-.021.146-.062.223s-.091.162-.15.253c-.062.092-.127.197-.198.316-.073.12-.139.26-.198.418-.06.159-.11.342-.151.551-.041.208-.062.449-.062.724 0 .466.083.891.248 1.277.166.387.406.72.721.997.314.279.698.495 1.152.648.453.154.97.23 1.551.23.586 0 1.106-.083 1.563-.248s.84-.391 1.152-.674.551-.616.717-1.001c.165-.384.247-.797.247-1.237 0-.265-.014-.504-.042-.717-.029-.214-.075-.41-.137-.591-.063-.18-.144-.35-.242-.511s-.219-.32-.363-.479c-.043-.048-.078-.099-.104-.152-.024-.049-.036-.105-.036-.162z"/><path d="m87.769 259.999c0-.53.051-.984.151-1.36.101-.377.245-.686.432-.928.187-.238.412-.416.677-.527.266-.112.563-.168.896-.168.19 0 .372.027.545.084.174.057.337.143.487.26.151.117.289.268.412.448s.227.396.313.646c.251-1.113.851-1.669 1.803-1.669.343 0 .66.066.951.197.291.13.543.321.752.569.211.251.377.558.496.924.119.365.18.784.18 1.254v3.056h-8.094v-2.786zm1.164 1.282h2.34v-1.198c0-.516-.094-.904-.279-1.167-.187-.264-.483-.395-.89-.395-.422 0-.724.118-.901.357-.18.238-.27.611-.27 1.12zm5.754-1.523c0-.279-.034-.515-.101-.706-.067-.189-.157-.342-.269-.454-.112-.115-.242-.197-.392-.248-.149-.05-.308-.076-.476-.076-.176 0-.334.028-.474.085-.14.056-.259.144-.358.264-.099.118-.174.272-.227.462-.053.188-.078.414-.078.68v1.518h2.373v-1.525z"/><path d="m48.775 289.219h2.886v-3.644h1.491v3.644h2.944v-4.623h1.548v6.567h-10.41v-6.567h1.541z"/><path d="m47.234 274.106h10.41v.992c0 .155-.025.284-.076.387-.05.104-.135.202-.255.298l-6.94 5.437c.316-.029.609-.044.878-.044h6.394v1.707h-10.41v-1.016c0-.082.003-.152.01-.212.008-.06.021-.113.044-.158.021-.047.053-.09.094-.134.041-.043.095-.091.161-.144l6.97-5.458c-.168.015-.333.026-.497.035-.163.011-.314.016-.453.016h-6.328v-1.706z"/><path d="m55.189 264.639c0-.105.041-.199.122-.281l.829-.764c.522.423.923.941 1.202 1.559.278.617.417 1.357.417 2.222 0 .773-.131 1.467-.396 2.083-.264.618-.63 1.145-1.102 1.582-.47.437-1.031.771-1.684 1.004s-1.366.349-2.139.349c-.783 0-1.499-.124-2.149-.374-.65-.249-1.21-.601-1.682-1.055-.47-.453-.835-.994-1.098-1.623-.262-.629-.393-1.325-.393-2.088 0-.76.125-1.432.375-2.021.249-.588.575-1.087.979-1.501l.9.648c.057.038.107.088.15.147.043.061.064.143.064.248 0 .073-.021.146-.061.223-.041.077-.092.162-.151.253-.061.092-.126.197-.198.316-.072.12-.138.26-.197.418-.061.159-.11.342-.151.551-.041.208-.063.449-.063.724 0 .466.083.891.249 1.277s.406.72.721.997c.313.279.698.495 1.151.648.454.154.971.23 1.552.23.586 0 1.106-.083 1.563-.248.455-.165.84-.391 1.151-.674s.551-.616.718-1.001c.165-.384.247-.797.247-1.237 0-.265-.015-.504-.042-.717-.029-.214-.075-.41-.138-.591-.062-.18-.143-.35-.241-.511s-.219-.32-.363-.479c-.043-.048-.078-.099-.104-.152-.024-.05-.038-.106-.038-.162z"/><path d="m60.438 255.585v1.165c0 .131-.032.236-.099.318-.064.082-.145.145-.242.186l-1.651.604v3.352l1.651.604c.086.03.164.088.234.174.071.086.106.191.106.318v1.177l-8.093-3.186v-1.532zm-3.055 2.66-2.692.984c-.119.048-.261.099-.425.151s-.342.104-.532.155c.19.05.369.1.535.152.165.052.311.103.434.15l2.681.979v-2.571z"/><path d="m198.579 280.507c.762 0 1.471.127 2.119.379.652.252 1.215.608 1.689 1.068.477.462.846 1.015 1.111 1.664.268.647.4 1.368.4 2.159 0 .787-.133 1.504-.4 2.153-.266.647-.635 1.204-1.111 1.667-.475.464-1.037.822-1.689 1.075-.648.256-1.357.382-2.119.382-.764 0-1.469-.126-2.121-.382-.648-.253-1.213-.611-1.688-1.075-.475-.463-.846-1.02-1.113-1.667-.268-.649-.4-1.366-.4-2.153 0-.527.063-1.024.186-1.49.121-.465.295-.893.518-1.281s.494-.737.813-1.047c.32-.311.676-.573 1.07-.79.393-.216.822-.38 1.281-.492.46-.113.946-.17 1.454-.17zm0 1.98c-.572 0-1.084.076-1.537.231-.455.152-.84.371-1.156.653-.316.284-.559.628-.729 1.034-.166.405-.25.862-.25 1.371 0 .51.084.967.25 1.372.17.406.412.751.729 1.037s.701.505 1.156.658c.453.153.965.229 1.537.229.57 0 1.084-.076 1.537-.229s.838-.372 1.152-.658c.313-.286.555-.631.723-1.037.17-.405.252-.862.252-1.372 0-.509-.082-.966-.252-1.371-.168-.406-.41-.75-.723-1.034-.314-.282-.699-.501-1.152-.653-.453-.155-.967-.231-1.537-.231z"/><path d="m202.222 274.611c0-.375-.061-.71-.188-1.006-.125-.295-.301-.543-.525-.745-.225-.201-.498-.356-.82-.464-.32-.107-.682-.162-1.08-.162h-6.234v-1.936h6.234c.619 0 1.191.099 1.719.298.523.199.977.485 1.359.857.381.372.68.824.893 1.357.213.532.32 1.132.32 1.8 0 .672-.107 1.273-.32 1.807-.213.532-.512.984-.893 1.357-.383.373-.836.657-1.359.856-.527.199-1.1.299-1.719.299h-6.234v-1.937h6.227c.398 0 .76-.055 1.082-.162.32-.107.594-.264.822-.468s.404-.454.529-.75c.126-.293.187-.627.187-1.001z"/><path d="m194.966 260.837v3.14h8.818v1.938h-8.818v3.138h-1.592v-8.215h1.592z"/><path d="m234.485 256.94c0-.529.049-.983.15-1.36.102-.376.246-.685.432-.926.188-.24.412-.417.678-.528.264-.111.563-.168.895-.168.189 0 .373.028.547.083.172.057.334.144.486.262.15.117.289.266.41.447.125.181.229.396.314.646.25-1.112.852-1.668 1.803-1.668.342 0 .66.065.951.195.291.131.541.321.752.571.211.251.375.558.494.923.121.366.182.783.182 1.254v3.057h-8.094zm1.162 1.283h2.342v-1.197c0-.515-.094-.904-.281-1.168-.186-.264-.482-.395-.889-.395-.422 0-.723.119-.902.358-.178.239-.27.612-.27 1.119zm5.754-1.523c0-.28-.031-.516-.1-.705-.066-.19-.158-.343-.268-.456-.113-.113-.244-.195-.391-.247-.15-.05-.311-.075-.477-.075-.176 0-.336.028-.473.084-.141.057-.262.144-.359.263-.098.12-.174.274-.227.462s-.078.415-.078.68v1.518h2.371v-1.524z"/><path d="m234.075 280.975c.762 0 1.469.127 2.119.379s1.215.608 1.689 1.068c.475.462.846 1.015 1.111 1.664.268.647.4 1.368.4 2.159 0 .787-.133 1.504-.4 2.153-.266.647-.637 1.204-1.111 1.667-.475.464-1.039.822-1.689 1.075-.65.256-1.357.382-2.119.382-.764 0-1.471-.126-2.121-.382-.65-.253-1.213-.611-1.688-1.075-.477-.463-.848-1.02-1.113-1.667-.268-.649-.4-1.366-.4-2.153 0-.527.063-1.024.184-1.49.123-.465.295-.893.52-1.281.223-.389.494-.737.813-1.047.32-.311.676-.573 1.07-.79.393-.216.82-.38 1.281-.492s.944-.17 1.454-.17zm0 1.98c-.572 0-1.084.076-1.539.231-.453.152-.838.371-1.154.653-.316.284-.559.628-.729 1.034-.168.405-.252.862-.252 1.371 0 .51.084.967.252 1.372.17.406.412.751.729 1.037s.701.505 1.154.658c.455.153.967.229 1.539.229.57 0 1.084-.076 1.537-.229s.836-.372 1.152-.658c.313-.286.555-.631.723-1.037.168-.405.252-.862.252-1.372 0-.509-.084-.966-.252-1.371-.168-.406-.41-.75-.723-1.034-.316-.282-.699-.501-1.152-.653-.453-.155-.966-.231-1.537-.231z"/><path d="m237.718 275.079c0-.375-.063-.71-.188-1.006-.125-.295-.301-.543-.525-.745-.227-.201-.498-.356-.82-.464s-.682-.162-1.082-.162h-6.234v-1.936h6.234c.621 0 1.193.099 1.719.298s.979.485 1.361.857c.381.372.68.824.893 1.357.213.532.32 1.132.32 1.8 0 .672-.107 1.273-.32 1.807-.213.532-.512.984-.893 1.357-.383.373-.836.657-1.361.856s-1.098.299-1.719.299h-6.234v-1.937h6.229c.398 0 .76-.055 1.08-.162s.596-.264.824-.468.404-.454.529-.75c.124-.293.187-.627.187-1.001z"/><path d="m230.46 261.305v3.14h8.82v1.938h-8.82v3.138h-1.592v-8.215h1.592z"/><path d="m206.073 253.261v1.165c0 .13-.033.237-.098.319s-.146.143-.242.185l-1.652.604v3.353l1.652.605c.084.03.164.086.234.173.07.086.105.192.105.319v1.175l-8.092-3.184v-1.534zm-3.056 2.659-2.691.985c-.119.047-.262.099-.426.15-.164.053-.34.105-.531.157.191.049.369.099.535.151s.311.102.434.15l2.68.98v-2.573z"/><path d="m309.198 97.268v16.638h-31.472" fill="none" stroke="#b87332" stroke-miterlimit="10" stroke-width="2.8347"/><path d="m321.511 215.058h-24.625" fill="none" stroke="#000" stroke-miterlimit="10" stroke-width="4.252"/><path d="m277.393 177.627h31.805v24.66" fill="none" stroke="#b87332" stroke-miterlimit="10" stroke-width="2.8347"/><path d="m176.207 94.621h101.354v101.354h-101.354z" fill="none" stroke="#000" stroke-miterlimit="10" stroke-width="2.8347"/><path d="m130.803 260.731c0 .581.118 1.135.331 1.638.639 1.512 2.135 2.572 3.879 2.572 2.325 0 4.21-1.885 4.21-4.21s-1.885-4.21-4.21-4.21-4.21 1.885-4.21 4.21z" fill="#ed1f24" stroke="#000" stroke-miterlimit="10" stroke-width="2.8347"/><path d="m151.565 261.703h-2.794v2.968h-1.447v-2.968h-2.779v-1.317h2.779v-2.951h1.447v2.951h2.794z"/><path d="m155.15 259.248c.23-.048.452-.082.663-.104.211-.021.415-.031.611-.031.548 0 1.029.081 1.447.245.418.163.768.388 1.052.676.283.288.497.626.64 1.012.146.387.217.803.217 1.249 0 .552-.098 1.056-.292 1.513-.194.456-.464.845-.81 1.17-.346.323-.755.574-1.227.752-.474.177-.989.267-1.545.267-.327 0-.637-.033-.93-.102-.293-.066-.568-.156-.823-.27-.258-.112-.495-.242-.713-.389-.219-.146-.415-.301-.588-.464l.548-.756c.115-.163.267-.245.453-.245.12 0 .243.039.367.115.125.077.268.16.43.252.159.091.349.176.568.252.218.077.481.114.788.114.326 0 .614-.053.864-.158.249-.105.457-.253.622-.442.166-.189.29-.415.375-.677.084-.261.126-.546.126-.853 0-.566-.165-1.01-.494-1.329-.328-.319-.814-.479-1.458-.479-.494 0-1.001.092-1.519.273l-1.108-.316.863-5.055h5.142v.756c0 .255-.08.461-.238.619s-.428.237-.807.237h-2.857z"/><path d="m170.659 255.469-4.205 10.411h-1.748l-4.205-10.411h1.554c.169 0 .305.041.41.122.106.082.186.188.239.317l2.454 6.351c.082.206.159.433.234.68s.146.505.213.774c.057-.27.12-.527.188-.774.065-.247.141-.474.223-.68l2.44-6.351c.039-.111.114-.212.227-.302.113-.092.251-.138.415-.138h1.561z"/><path d="m135.013 281.756v-16.764" fill="none" stroke="#000" stroke-miterlimit="10" stroke-width="2.8347"/><path d="m309.165 73.722c-.58 0-1.135.117-1.637.33-1.512.639-2.572 2.135-2.572 3.879 0 2.326 1.885 4.211 4.209 4.211 2.326 0 4.211-1.885 4.211-4.211 0-2.325-1.885-4.209-4.211-4.209z" fill="#fff200" stroke="#000" stroke-miterlimit="10" stroke-width="2.8347"/><path d="m309.165 83.185v14.083" fill="none" stroke="#000" stroke-miterlimit="10" stroke-width="2.8347"/><path d="m309.198 200.975v14.083" fill="none" stroke="#000" stroke-miterlimit="10" stroke-width="2.8347"/><path d="m328.532 71.775-4.205 10.411h-1.749l-4.206-10.411h1.557c.167 0 .305.041.41.122.105.082.184.188.236.317l2.456 6.351c.081.206.159.433.233.68.075.247.146.505.213.774.058-.27.12-.527.187-.774.068-.247.142-.474.224-.68l2.441-6.351c.037-.111.113-.212.227-.303.112-.091.25-.137.413-.137h1.563z"/><path d="m330.759 77.564c0 .119-.024.23-.072.335-.05.105-.114.197-.193.274-.081.078-.175.142-.283.188-.108.047-.224.07-.347.07-.119 0-.233-.023-.339-.07-.106-.046-.199-.109-.277-.188-.078-.077-.141-.169-.188-.274-.047-.104-.07-.216-.07-.335 0-.123.023-.239.07-.347.047-.109.109-.202.188-.28s.171-.141.277-.188c.105-.047.22-.07.339-.07.123 0 .238.023.347.07s.202.109.283.188c.079.078.144.171.193.28.047.108.072.224.072.347zm-.192 1.674v5.742h-1.387v-5.742z"/><path d="m333.271 79.943c.116-.116.237-.224.366-.322s.266-.183.408-.252c.145-.069.298-.123.462-.162s.343-.06.538-.06c.313 0 .59.054.833.161.242.105.445.255.608.447.161.192.284.422.369.688.084.268.125.562.125.882v3.655h-1.38v-3.655c0-.351-.081-.622-.241-.814s-.404-.288-.732-.288c-.239 0-.463.055-.672.162-.209.108-.407.256-.594.442v4.153h-1.382v-5.742h.845c.18 0 .297.084.354.252z"/><path d="m341.675 77.672c0 .989.12 1.961.36 2.916.239.955.583 1.853 1.029 2.693.048.096.076.18.083.255.007.074.001.14-.019.194-.019.056-.05.104-.089.145-.041.041-.086.075-.134.104l-.792.482c-.355-.547-.658-1.097-.907-1.648-.25-.554-.454-1.11-.612-1.671-.158-.562-.275-1.13-.349-1.707-.075-.576-.111-1.163-.111-1.764 0-.6.036-1.189.111-1.768.073-.578.19-1.148.349-1.71s.362-1.117.612-1.667c.249-.549.552-1.098.907-1.645l.792.475c.048.029.093.064.134.105.039.039.07.088.089.143.02.057.025.121.019.194-.007.075-.035.163-.083.264-.446.835-.79 1.731-1.029 2.688-.24.959-.36 1.934-.36 2.922z"/><path d="m346.066 75.807c.303-.34.646-.616 1.03-.827s.836-.316 1.354-.316c.403 0 .771.083 1.105.252.334.167.621.411.863.729.242.32.43.713.563 1.182.131.468.198 1.004.198 1.609 0 .552-.075 1.063-.224 1.533-.149.471-.361.878-.638 1.224-.275.346-.609.615-1.001.81s-.828.292-1.313.292c-.413 0-.766-.063-1.059-.19s-.554-.304-.785-.529v3.023h-1.777v-9.799h1.086c.231 0 .382.107.454.324zm.094 4.464c.202.245.422.417.659.518.237.102.495.151.774.151.269 0 .511-.05.727-.151.217-.101.399-.254.551-.46s.269-.467.349-.782c.082-.313.123-.684.123-1.111 0-.433-.035-.799-.104-1.099-.07-.3-.17-.544-.299-.731-.131-.186-.287-.323-.473-.41-.184-.086-.395-.129-.629-.129-.371 0-.685.078-.943.233-.26.156-.504.376-.735.659z"/><path d="m353.151 77.672c0-.988-.119-1.963-.357-2.92-.236-.957-.578-1.854-1.025-2.688-.053-.101-.083-.188-.09-.264-.007-.073-.001-.138.018-.194.02-.055.049-.104.09-.143.041-.041.088-.076.141-.105l.793-.475c.354.547.657 1.096.906 1.645.25.55.454 1.105.612 1.667s.274 1.132.346 1.71.107 1.168.107 1.768c0 .601-.035 1.188-.107 1.764-.071.577-.188 1.146-.346 1.707s-.362 1.117-.612 1.671c-.249.552-.552 1.102-.906 1.648l-.793-.482c-.053-.029-.1-.063-.141-.104s-.07-.089-.09-.145c-.019-.055-.024-.12-.018-.194.007-.075.037-.159.09-.255.447-.841.789-1.738 1.025-2.693.238-.957.357-1.929.357-2.918z"/></svg>