<?xml version="1.0" encoding="UTF-8" standalone="no"?>
<!-- Generator: Adobe Illustrator 16.0.0, SVG Export Plug-In . SVG Version: 6.00 Build 0)  -->

<svg
   xmlns:dc="http://purl.org/dc/elements/1.1/"
   xmlns:cc="http://creativecommons.org/ns#"
   xmlns:rdf="http://www.w3.org/1999/02/22-rdf-syntax-ns#"
   xmlns:svg="http://www.w3.org/2000/svg"
   xmlns="http://www.w3.org/2000/svg"
   xmlns:xlink="http://www.w3.org/1999/xlink"
   xmlns:sodipodi="http://sodipodi.sourceforge.net/DTD/sodipodi-0.dtd"
   xmlns:inkscape="http://www.inkscape.org/namespaces/inkscape"
   version="1.1"
   id="Layer_1"
   x="0px"
   y="0px"
   width="359.978px"
   height="366px"
   viewBox="0 0 359.978 366"
   enable-background="new 0 0 359.978 366"
   xml:space="preserve"
   inkscape:version="0.91 r13725"
   sodipodi:docname="czesci CORE2 opisane copy-04.svg"><metadata
     id="metadata220"><rdf:RDF><cc:Work
         rdf:about=""><dc:format>image/svg+xml</dc:format><dc:type
           rdf:resource="http://purl.org/dc/dcmitype/StillImage" /></cc:Work></rdf:RDF></metadata><defs
     id="defs218" /><sodipodi:namedview
     pagecolor="#ffffff"
     bordercolor="#666666"
     borderopacity="1"
     objecttolerance="10"
     gridtolerance="10"
     guidetolerance="10"
     inkscape:pageopacity="0"
     inkscape:pageshadow="2"
     inkscape:window-width="1440"
     inkscape:window-height="878"
     id="namedview216"
     showgrid="false"
     inkscape:zoom="7.2951781"
     inkscape:cx="204.24517"
     inkscape:cy="95.041221"
     inkscape:window-x="-8"
     inkscape:window-y="-8"
     inkscape:window-maximized="1"
     inkscape:current-layer="Layer_1" /><line
     fill="none"
     stroke="#B87332"
     stroke-width="2.8347"
     stroke-miterlimit="10"
     x1="135.013"
     y1="270.374"
     x2="135.013"
     y2="295.636"
     id="line3" /><path
     d="M74.239,331.011c3.2,0,5.798-2.599,5.798-5.798v-24.604c0-3.202-2.598-5.798-5.798-5.798H49.637  c-3.2,0-5.79,2.596-5.79,5.798v24.604c0,3.199,2.59,5.798,5.79,5.798H74.239z"
     id="path5" /><rect
     x="57.31"
     y="308.282"
     fill="#C3996C"
     width="9.264"
     height="9.264"
     id="rect7" /><path
     d="M111.161,331.011c3.199,0,5.797-2.599,5.797-5.798v-24.604c0-3.202-2.598-5.798-5.797-5.798H86.558  c-3.2,0-5.789,2.596-5.789,5.798v24.604c0,3.199,2.589,5.798,5.789,5.798H111.161z"
     id="path9" /><rect
     x="94.231"
     y="308.282"
     fill="#C3996C"
     width="9.263"
     height="9.264"
     id="rect11" /><path
     d="M147.804,331.011c3.2,0,5.798-2.599,5.798-5.798v-24.604c0-3.202-2.598-5.798-5.798-5.798H123.2  c-3.198,0-5.788,2.596-5.788,5.798v24.604c0,3.199,2.59,5.798,5.788,5.798H147.804z"
     id="path13" /><rect
     x="130.874"
     y="308.282"
     fill="#C3996C"
     width="9.264"
     height="9.264"
     id="rect15" /><path
     d="M184.726,331.011c3.2,0,5.797-2.599,5.797-5.798v-24.604c0-3.202-2.597-5.798-5.797-5.798h-24.604  c-3.199,0-5.789,2.596-5.789,5.798v24.604c0,3.199,2.59,5.798,5.789,5.798H184.726z"
     id="path17" /><rect
     x="167.797"
     y="308.282"
     fill="#C3996C"
     width="9.263"
     height="9.264"
     id="rect19" /><path
     d="M221.279,331.011c3.2,0,5.798-2.599,5.798-5.798v-24.604c0-3.202-2.598-5.798-5.798-5.798h-24.604  c-3.2,0-5.79,2.596-5.79,5.798v24.604c0,3.199,2.59,5.798,5.79,5.798H221.279z"
     id="path21" /><rect
     x="204.351"
     y="308.282"
     fill="#C3996C"
     width="9.263"
     height="9.264"
     id="rect23" /><path
     d="M258.202,331.011c3.197,0,5.796-2.599,5.796-5.798v-24.604c0-3.202-2.599-5.798-5.796-5.798h-24.605  c-3.199,0-5.789,2.596-5.789,5.798v24.604c0,3.199,2.59,5.798,5.789,5.798H258.202z"
     id="path25" /><rect
     x="241.271"
     y="308.282"
     fill="#C3996C"
     width="9.263"
     height="9.264"
     id="rect27" /><path
     fill="none"
     stroke="#B87332"
     stroke-width="2.8347"
     stroke-miterlimit="10"
     d="M63.437,187.913"
     id="path29" /><line
     fill="none"
     stroke="#B87332"
     stroke-width="2.8347"
     stroke-miterlimit="10"
     x1="63.437"
     y1="294.959"
     x2="63.437"
     y2="228.222"
     id="line31" /><line
     fill="none"
     stroke="#B87332"
     stroke-width="2.8347"
     stroke-miterlimit="10"
     x1="98.72"
     y1="295.185"
     x2="98.72"
     y2="228.447"
     id="line33" /><g
     id="g35"><path
       d="M13.787,207.627l-0.359,0.446c0.201-0.101,0.419-0.178,0.651-0.233c0.232-0.055,0.483-0.083,0.752-0.083   c0.394,0,0.776,0.064,1.148,0.194c0.372,0.129,0.7,0.325,0.982,0.588c0.284,0.261,0.512,0.586,0.685,0.975s0.259,0.843,0.259,1.36   c0,0.485-0.089,0.94-0.267,1.365c-0.177,0.425-0.427,0.796-0.748,1.112s-0.709,0.566-1.163,0.749   c-0.453,0.182-0.954,0.272-1.501,0.272c-0.557,0-1.056-0.089-1.498-0.266c-0.441-0.178-0.818-0.426-1.13-0.745   c-0.313-0.319-0.551-0.703-0.717-1.152c-0.165-0.448-0.248-0.946-0.248-1.494c0-0.489,0.1-0.992,0.299-1.508   s0.507-1.053,0.925-1.609l2.484-3.334c0.086-0.114,0.212-0.213,0.378-0.295c0.165-0.081,0.356-0.122,0.572-0.122h1.584   L13.787,207.627z M14.19,212.919c0.283,0,0.544-0.048,0.781-0.144c0.237-0.097,0.441-0.23,0.612-0.403   c0.17-0.173,0.303-0.375,0.399-0.608c0.096-0.233,0.144-0.486,0.144-0.76c0-0.297-0.045-0.564-0.137-0.803   c-0.091-0.237-0.221-0.439-0.389-0.604c-0.168-0.166-0.369-0.292-0.604-0.378c-0.235-0.087-0.494-0.129-0.777-0.129   c-0.284,0-0.54,0.048-0.771,0.143c-0.23,0.096-0.428,0.229-0.591,0.399c-0.163,0.171-0.291,0.373-0.382,0.606   c-0.091,0.231-0.137,0.482-0.137,0.752c0,0.287,0.04,0.551,0.119,0.787c0.079,0.238,0.196,0.441,0.353,0.609   s0.35,0.299,0.579,0.392C13.622,212.872,13.887,212.919,14.19,212.919z"
       id="path37" /><path
       d="M22.138,207.627l-0.359,0.446c0.201-0.101,0.419-0.178,0.651-0.233c0.232-0.055,0.483-0.083,0.753-0.083   c0.394,0,0.776,0.064,1.148,0.194c0.372,0.129,0.699,0.325,0.982,0.588c0.283,0.261,0.512,0.586,0.685,0.975   s0.259,0.843,0.259,1.36c0,0.485-0.089,0.94-0.267,1.365s-0.428,0.796-0.749,1.112s-0.709,0.566-1.162,0.749   c-0.454,0.182-0.954,0.272-1.502,0.272c-0.557,0-1.056-0.089-1.497-0.266c-0.442-0.178-0.818-0.426-1.131-0.745   c-0.312-0.319-0.551-0.703-0.716-1.152c-0.166-0.448-0.249-0.946-0.249-1.494c0-0.489,0.1-0.992,0.299-1.508   s0.508-1.053,0.926-1.609l2.484-3.334c0.086-0.114,0.212-0.213,0.378-0.295c0.165-0.081,0.355-0.122,0.572-0.122h1.584   L22.138,207.627z M22.542,212.919c0.284,0,0.544-0.048,0.782-0.144c0.237-0.097,0.44-0.23,0.611-0.403s0.304-0.375,0.399-0.608   c0.097-0.233,0.145-0.486,0.145-0.76c0-0.297-0.046-0.564-0.138-0.803c-0.091-0.237-0.22-0.439-0.388-0.604   c-0.169-0.166-0.37-0.292-0.605-0.378c-0.235-0.087-0.494-0.129-0.777-0.129s-0.54,0.048-0.771,0.143   c-0.23,0.096-0.427,0.229-0.591,0.399c-0.162,0.171-0.29,0.373-0.381,0.606c-0.092,0.231-0.138,0.482-0.138,0.752   c0,0.287,0.04,0.551,0.119,0.787c0.079,0.238,0.197,0.441,0.353,0.609c0.156,0.168,0.35,0.299,0.58,0.392   C21.973,212.872,22.24,212.919,22.542,212.919z"
       id="path39" /><path
       d="M34.724,209.053c0,0.907-0.097,1.696-0.291,2.365c-0.195,0.67-0.464,1.224-0.807,1.659   c-0.344,0.438-0.749,0.763-1.217,0.977c-0.469,0.213-0.974,0.319-1.516,0.319s-1.045-0.106-1.509-0.319   c-0.463-0.214-0.865-0.539-1.206-0.977c-0.341-0.436-0.607-0.989-0.799-1.659c-0.192-0.669-0.288-1.458-0.288-2.365   c0-0.911,0.096-1.701,0.288-2.368c0.191-0.668,0.458-1.22,0.799-1.657c0.341-0.436,0.743-0.762,1.206-0.975   c0.464-0.213,0.967-0.321,1.509-0.321s1.047,0.108,1.516,0.321c0.468,0.213,0.873,0.539,1.217,0.975   c0.343,0.438,0.611,0.989,0.807,1.657C34.627,207.352,34.724,208.142,34.724,209.053z M32.888,209.053   c0-0.753-0.055-1.378-0.165-1.872c-0.111-0.493-0.259-0.888-0.443-1.181s-0.397-0.498-0.638-0.615   c-0.239-0.118-0.489-0.177-0.748-0.177c-0.255,0-0.501,0.059-0.738,0.177c-0.237,0.117-0.447,0.322-0.63,0.615   s-0.327,0.688-0.436,1.181c-0.108,0.494-0.162,1.119-0.162,1.872c0,0.754,0.054,1.379,0.162,1.872   c0.108,0.494,0.253,0.888,0.436,1.181s0.393,0.498,0.63,0.615c0.237,0.119,0.483,0.178,0.738,0.178   c0.259,0,0.509-0.059,0.748-0.178c0.24-0.117,0.453-0.322,0.638-0.615s0.332-0.687,0.443-1.181   C32.833,210.432,32.888,209.807,32.888,209.053z"
       id="path41" /><path
       d="M46.215,212.667v0.987c0,0.177-0.058,0.322-0.173,0.436c-0.115,0.112-0.273,0.169-0.476,0.169h-3.823v-2.189   c0.332-0.058,0.643-0.188,0.934-0.393c0.29-0.204,0.544-0.462,0.763-0.773s0.39-0.669,0.515-1.073   c0.125-0.403,0.188-0.832,0.188-1.288c0-0.533-0.085-0.997-0.256-1.394c-0.171-0.396-0.4-0.724-0.691-0.982   c-0.29-0.26-0.629-0.454-1.015-0.584c-0.387-0.129-0.796-0.193-1.228-0.193c-0.433,0-0.842,0.064-1.228,0.193   c-0.387,0.13-0.724,0.324-1.012,0.584c-0.288,0.259-0.518,0.587-0.688,0.982c-0.171,0.396-0.256,0.86-0.256,1.394   c0,0.456,0.063,0.885,0.188,1.288c0.124,0.404,0.296,0.762,0.515,1.073c0.218,0.312,0.473,0.569,0.763,0.773   c0.291,0.205,0.602,0.335,0.933,0.393v2.189h-3.823c-0.202,0-0.36-0.057-0.476-0.169c-0.114-0.113-0.173-0.259-0.173-0.436v-0.987   h1.656c0.226,0,0.456,0.011,0.691,0.033c0.235,0.021,0.468,0.049,0.698,0.082c-0.427-0.153-0.818-0.367-1.174-0.64   c-0.354-0.274-0.659-0.596-0.914-0.966c-0.255-0.369-0.452-0.778-0.594-1.228c-0.142-0.448-0.212-0.926-0.212-1.43   c0-0.691,0.13-1.327,0.392-1.911c0.262-0.583,0.623-1.089,1.084-1.515c0.461-0.428,1.002-0.761,1.624-1.001   c0.621-0.24,1.292-0.361,2.012-0.361s1.391,0.121,2.013,0.361c0.621,0.24,1.161,0.573,1.619,1.001   c0.459,0.426,0.82,0.932,1.084,1.515c0.264,0.584,0.396,1.22,0.396,1.911c0,0.504-0.07,0.981-0.212,1.43   c-0.142,0.449-0.34,0.857-0.594,1.224c-0.255,0.368-0.56,0.689-0.914,0.966c-0.355,0.275-0.747,0.49-1.174,0.644   c0.23-0.033,0.462-0.062,0.695-0.082c0.232-0.022,0.461-0.033,0.687-0.033H46.215z"
       id="path43" /></g><g
     id="g45"><path
       d="M116.999,206.671l-0.36,0.446c0.202-0.101,0.419-0.178,0.651-0.233c0.233-0.055,0.483-0.083,0.753-0.083   c0.394,0,0.776,0.064,1.148,0.194c0.372,0.129,0.699,0.325,0.982,0.587s0.512,0.586,0.685,0.976   c0.173,0.389,0.259,0.843,0.259,1.36c0,0.485-0.089,0.939-0.267,1.365c-0.178,0.424-0.427,0.796-0.749,1.112   c-0.321,0.316-0.709,0.565-1.162,0.749c-0.454,0.182-0.954,0.272-1.501,0.272c-0.557,0-1.057-0.089-1.498-0.266   c-0.441-0.179-0.818-0.426-1.13-0.745c-0.313-0.319-0.551-0.703-0.717-1.152c-0.165-0.449-0.249-0.947-0.249-1.494   c0-0.49,0.1-0.992,0.299-1.508s0.508-1.053,0.926-1.609l2.484-3.334c0.086-0.115,0.212-0.213,0.378-0.295   c0.165-0.081,0.356-0.122,0.572-0.122h1.584L116.999,206.671z M117.401,211.963c0.284,0,0.544-0.048,0.782-0.145   c0.237-0.096,0.441-0.229,0.611-0.402c0.171-0.173,0.304-0.375,0.399-0.608c0.097-0.233,0.145-0.486,0.145-0.76   c0-0.298-0.046-0.564-0.137-0.803c-0.091-0.237-0.221-0.439-0.389-0.604c-0.168-0.166-0.37-0.292-0.604-0.379   c-0.236-0.086-0.495-0.129-0.778-0.129s-0.54,0.049-0.771,0.144c-0.229,0.096-0.427,0.229-0.59,0.399   c-0.163,0.171-0.291,0.373-0.382,0.605c-0.092,0.232-0.137,0.483-0.137,0.753c0,0.287,0.039,0.551,0.118,0.787   c0.079,0.238,0.197,0.44,0.354,0.609c0.155,0.168,0.349,0.299,0.579,0.392C116.833,211.916,117.099,211.963,117.401,211.963z"
       id="path47" /><path
       d="M125.35,206.671l-0.359,0.446c0.201-0.101,0.419-0.178,0.651-0.233c0.232-0.055,0.483-0.083,0.752-0.083   c0.394,0,0.776,0.064,1.148,0.194c0.372,0.129,0.7,0.325,0.982,0.587c0.284,0.262,0.512,0.586,0.685,0.976   c0.173,0.389,0.259,0.843,0.259,1.36c0,0.485-0.089,0.939-0.267,1.365c-0.177,0.424-0.427,0.796-0.748,1.112   s-0.709,0.565-1.163,0.749c-0.453,0.182-0.954,0.272-1.501,0.272c-0.557,0-1.056-0.089-1.498-0.266   c-0.441-0.179-0.818-0.426-1.13-0.745c-0.313-0.319-0.551-0.703-0.717-1.152c-0.165-0.449-0.248-0.947-0.248-1.494   c0-0.49,0.1-0.992,0.299-1.508s0.507-1.053,0.925-1.609l2.484-3.334c0.086-0.115,0.212-0.213,0.378-0.295   c0.165-0.081,0.356-0.122,0.572-0.122h1.584L125.35,206.671z M125.753,211.963c0.283,0,0.544-0.048,0.781-0.145   c0.237-0.096,0.441-0.229,0.612-0.402c0.17-0.173,0.303-0.375,0.399-0.608c0.096-0.233,0.144-0.486,0.144-0.76   c0-0.298-0.045-0.564-0.137-0.803c-0.091-0.237-0.221-0.439-0.389-0.604c-0.168-0.166-0.369-0.292-0.604-0.379   c-0.235-0.086-0.494-0.129-0.777-0.129c-0.284,0-0.54,0.049-0.771,0.144c-0.23,0.096-0.428,0.229-0.591,0.399   c-0.163,0.171-0.291,0.373-0.382,0.605s-0.137,0.483-0.137,0.753c0,0.287,0.04,0.551,0.119,0.787   c0.079,0.238,0.196,0.44,0.353,0.609c0.156,0.168,0.35,0.299,0.579,0.392C125.185,211.916,125.451,211.963,125.753,211.963z"
       id="path49" /><path
       d="M137.936,208.097c0,0.907-0.098,1.696-0.292,2.365c-0.194,0.67-0.463,1.224-0.806,1.659   c-0.344,0.438-0.749,0.763-1.218,0.977c-0.468,0.213-0.973,0.319-1.516,0.319c-0.542,0-1.045-0.106-1.508-0.319   c-0.464-0.214-0.865-0.539-1.206-0.977c-0.341-0.436-0.607-0.989-0.799-1.659c-0.192-0.669-0.289-1.458-0.289-2.365   c0-0.911,0.097-1.701,0.289-2.368c0.191-0.668,0.458-1.22,0.799-1.657c0.341-0.436,0.742-0.762,1.206-0.975   c0.463-0.214,0.966-0.321,1.508-0.321c0.543,0,1.048,0.107,1.516,0.321c0.469,0.213,0.874,0.539,1.218,0.975   c0.343,0.438,0.611,0.989,0.806,1.657C137.838,206.396,137.936,207.186,137.936,208.097z M136.1,208.097   c0-0.753-0.056-1.378-0.166-1.872s-0.258-0.888-0.442-1.181c-0.186-0.293-0.397-0.498-0.638-0.615   c-0.239-0.118-0.489-0.177-0.749-0.177c-0.254,0-0.5,0.059-0.737,0.177c-0.238,0.117-0.448,0.322-0.63,0.615   c-0.183,0.293-0.328,0.687-0.437,1.181c-0.107,0.494-0.161,1.119-0.161,1.872c0,0.754,0.054,1.378,0.161,1.872   c0.108,0.494,0.254,0.888,0.437,1.181c0.182,0.293,0.392,0.498,0.63,0.615c0.237,0.118,0.483,0.177,0.737,0.177   c0.26,0,0.51-0.059,0.749-0.177c0.24-0.117,0.452-0.322,0.638-0.615c0.185-0.293,0.332-0.687,0.442-1.181   S136.1,208.851,136.1,208.097z"
       id="path51" /><path
       d="M149.427,211.711v0.986c0,0.178-0.057,0.322-0.172,0.437c-0.115,0.112-0.275,0.169-0.477,0.169h-3.823v-2.189   c0.332-0.058,0.643-0.188,0.933-0.393c0.291-0.204,0.544-0.462,0.763-0.773s0.391-0.669,0.516-1.073   c0.125-0.403,0.186-0.832,0.186-1.288c0-0.533-0.084-0.997-0.254-1.394c-0.172-0.396-0.402-0.724-0.691-0.983   c-0.291-0.259-0.629-0.453-1.016-0.583c-0.387-0.129-0.795-0.193-1.228-0.193c-0.432,0-0.841,0.064-1.228,0.193   c-0.387,0.13-0.724,0.324-1.012,0.583c-0.287,0.26-0.518,0.588-0.688,0.983c-0.17,0.396-0.256,0.86-0.256,1.394   c0,0.456,0.063,0.885,0.188,1.288c0.125,0.404,0.297,0.762,0.516,1.073c0.218,0.312,0.472,0.569,0.763,0.773   c0.29,0.205,0.601,0.335,0.932,0.393v2.189h-3.823c-0.201,0-0.359-0.057-0.475-0.169c-0.115-0.114-0.173-0.259-0.173-0.437v-0.986   h1.656c0.226,0,0.456,0.011,0.69,0.033c0.236,0.021,0.469,0.049,0.699,0.082c-0.428-0.154-0.818-0.367-1.174-0.641   s-0.66-0.595-0.914-0.965c-0.255-0.369-0.452-0.778-0.595-1.228c-0.142-0.448-0.212-0.926-0.212-1.43   c0-0.691,0.131-1.327,0.393-1.911s0.622-1.089,1.084-1.516c0.46-0.428,1.002-0.76,1.623-1s1.292-0.361,2.013-0.361   c0.72,0,1.391,0.121,2.013,0.361c0.621,0.24,1.16,0.572,1.619,1c0.459,0.427,0.818,0.932,1.084,1.516   c0.264,0.584,0.395,1.22,0.395,1.911c0,0.504-0.07,0.981-0.211,1.43c-0.143,0.449-0.34,0.856-0.596,1.224   c-0.254,0.368-0.559,0.689-0.914,0.966c-0.355,0.275-0.746,0.489-1.172,0.644c0.229-0.033,0.461-0.062,0.693-0.082   c0.232-0.022,0.463-0.033,0.688-0.033H149.427z"
       id="path53" /></g><line
     fill="none"
     stroke="#B87332"
     stroke-width="2.8347"
     stroke-miterlimit="10"
     x1="209.437"
     y1="294.959"
     x2="209.437"
     y2="196.005"
     id="line55" /><line
     fill="none"
     stroke="#B87332"
     stroke-width="2.8347"
     stroke-miterlimit="10"
     x1="245.562"
     y1="295.185"
     x2="245.562"
     y2="196.005"
     id="line57" /><path
     fill="none"
     stroke="#B87332"
     stroke-width="2.8347"
     stroke-miterlimit="10"
     d="M177.934,335.89"
     id="path59" /><line
     fill="none"
     stroke="#B87332"
     stroke-width="2.8347"
     stroke-miterlimit="10"
     x1="172.429"
     y1="331.011"
     x2="172.429"
     y2="346.884"
     id="line61" /><line
     fill="none"
     stroke="#000000"
     stroke-width="4.252"
     stroke-miterlimit="10"
     x1="184.741"
     y1="357.706"
     x2="160.116"
     y2="357.706"
     id="line63" /><line
     fill="none"
     stroke="#000000"
     stroke-width="2.8347"
     stroke-miterlimit="10"
     x1="172.429"
     y1="343.623"
     x2="172.429"
     y2="357.706"
     id="line65" /><polyline
     fill="none"
     stroke="#B87332"
     stroke-width="2.8347"
     stroke-miterlimit="10"
     points="98.72,189.123 98.72,39.348   125.258,39.348 "
     id="polyline67" /><rect
     x="90.202"
     y="189.123"
     fill="none"
     stroke="#000000"
     stroke-width="2.8347"
     stroke-miterlimit="10"
     width="17.035"
     height="39.699"
     id="rect69" /><polyline
     fill="none"
     stroke="#B87332"
     stroke-width="2.8347"
     stroke-miterlimit="10"
     points="125.258,25.643 63.437,25.643   63.437,188.955 "
     id="polyline71" /><rect
     x="54.697"
     y="188.955"
     fill="none"
     stroke="#000000"
     stroke-width="2.8347"
     stroke-miterlimit="10"
     width="17.035"
     height="39.699"
     id="rect73" /><path
     d="M185.427,27.211c-0.072,0.119-0.15,0.209-0.234,0.27s-0.187,0.09-0.306,0.09c-0.137,0-0.297-0.068-0.48-0.203  c-0.184-0.137-0.414-0.287-0.689-0.451c-0.276-0.164-0.608-0.313-0.996-0.449c-0.389-0.137-0.858-0.205-1.41-0.205  c-0.521,0-0.979,0.07-1.374,0.211c-0.396,0.141-0.729,0.33-0.996,0.57c-0.269,0.24-0.47,0.521-0.606,0.846  c-0.136,0.324-0.204,0.674-0.204,1.051c0,0.479,0.118,0.877,0.354,1.193c0.235,0.316,0.548,0.586,0.936,0.811  c0.389,0.223,0.828,0.418,1.32,0.582s0.996,0.334,1.512,0.51c0.517,0.176,1.021,0.373,1.513,0.594  c0.491,0.219,0.932,0.498,1.319,0.834c0.389,0.336,0.7,0.748,0.937,1.236c0.235,0.488,0.354,1.088,0.354,1.799  c0,0.752-0.128,1.459-0.384,2.119s-0.63,1.234-1.122,1.721c-0.492,0.488-1.096,0.873-1.812,1.152c-0.717,0.279-1.53,0.42-2.442,0.42  c-1.12,0-2.136-0.201-3.048-0.605s-1.692-0.949-2.34-1.639l0.672-1.104c0.063-0.088,0.142-0.162,0.234-0.223  c0.092-0.059,0.193-0.09,0.306-0.09c0.104,0,0.222,0.043,0.354,0.127c0.133,0.084,0.282,0.189,0.45,0.318  c0.168,0.127,0.36,0.268,0.576,0.42c0.216,0.15,0.462,0.291,0.738,0.42c0.275,0.127,0.59,0.232,0.941,0.316  c0.353,0.084,0.748,0.127,1.188,0.127c0.552,0,1.044-0.076,1.476-0.229c0.433-0.152,0.798-0.365,1.099-0.641  c0.3-0.277,0.529-0.607,0.689-0.99c0.16-0.385,0.24-0.813,0.24-1.285c0-0.52-0.118-0.945-0.354-1.277  c-0.235-0.332-0.546-0.609-0.93-0.834s-0.824-0.414-1.32-0.57s-1-0.316-1.512-0.48s-1.016-0.354-1.512-0.57  c-0.496-0.215-0.937-0.494-1.32-0.84c-0.384-0.344-0.694-0.773-0.93-1.289c-0.236-0.516-0.354-1.154-0.354-1.914  c0-0.607,0.118-1.195,0.354-1.764c0.235-0.568,0.58-1.072,1.032-1.512c0.451-0.441,1.008-0.793,1.668-1.057  c0.659-0.264,1.418-0.396,2.273-0.396c0.96,0,1.834,0.152,2.622,0.457c0.788,0.303,1.482,0.744,2.082,1.32L185.427,27.211z"
     id="path75" /><path
     d="M201.278,26.479h-5.568v15.24h-2.315v-15.24h-5.58v-1.955h13.464V26.479z"
     id="path77" /><path
     d="M221.714,24.523v17.195h-2.04V29.082c0-0.168,0.007-0.348,0.019-0.539c0.012-0.193,0.025-0.389,0.042-0.588l-5.904,10.752  c-0.184,0.359-0.464,0.539-0.84,0.539h-0.336c-0.376,0-0.656-0.18-0.84-0.539l-6.024-10.801c0.048,0.424,0.072,0.816,0.072,1.176  v12.637h-2.04V24.523h1.716c0.208,0,0.368,0.02,0.48,0.059c0.111,0.041,0.22,0.152,0.323,0.336l5.94,10.584  c0.096,0.193,0.189,0.393,0.282,0.6c0.092,0.209,0.178,0.422,0.258,0.637c0.08-0.215,0.164-0.43,0.252-0.643  c0.088-0.211,0.184-0.414,0.288-0.605l5.832-10.572c0.096-0.184,0.202-0.295,0.318-0.336c0.115-0.039,0.277-0.059,0.485-0.059  H221.714z"
     id="path79" /><path
     d="M225.47,29.178c0.112-0.783,0.328-1.477,0.648-2.082c0.32-0.604,0.726-1.109,1.218-1.518  c0.493-0.408,1.058-0.717,1.692-0.93c0.637-0.211,1.322-0.318,2.059-0.318c0.729,0,1.4,0.104,2.016,0.313s1.146,0.504,1.59,0.889  c0.443,0.383,0.791,0.848,1.039,1.391c0.248,0.545,0.371,1.148,0.371,1.813c0,0.545-0.07,1.029-0.209,1.459  c-0.141,0.428-0.342,0.801-0.602,1.121s-0.574,0.592-0.941,0.816s-0.779,0.408-1.236,0.551c1.121,0.289,1.963,0.783,2.527,1.482  c0.563,0.701,0.846,1.574,0.846,2.623c0,0.791-0.15,1.504-0.451,2.135c-0.299,0.633-0.709,1.17-1.229,1.615  c-0.521,0.443-1.127,0.783-1.818,1.02c-0.693,0.236-1.436,0.354-2.227,0.354c-0.912,0-1.691-0.113-2.34-0.342  s-1.196-0.541-1.645-0.941s-0.816-0.875-1.104-1.422c-0.288-0.549-0.532-1.143-0.731-1.783l0.924-0.383  c0.24-0.104,0.474-0.133,0.702-0.084c0.228,0.047,0.394,0.18,0.498,0.395c0.104,0.225,0.233,0.492,0.39,0.805s0.371,0.611,0.643,0.9  c0.271,0.287,0.617,0.531,1.037,0.732c0.422,0.199,0.955,0.299,1.604,0.299c0.6,0,1.125-0.098,1.578-0.293  c0.451-0.197,0.828-0.451,1.127-0.762c0.301-0.313,0.525-0.66,0.678-1.045s0.229-0.764,0.229-1.141c0-0.463-0.061-0.887-0.18-1.271  c-0.121-0.383-0.344-0.715-0.672-0.996c-0.328-0.279-0.779-0.5-1.35-0.66c-0.572-0.16-1.307-0.24-2.203-0.24v-1.547  c0.736-0.008,1.363-0.088,1.879-0.24s0.936-0.359,1.26-0.625c0.324-0.264,0.559-0.578,0.707-0.947  c0.148-0.367,0.223-0.775,0.223-1.225c0-0.496-0.078-0.928-0.234-1.295c-0.156-0.369-0.369-0.672-0.643-0.912  c-0.271-0.24-0.594-0.42-0.965-0.541c-0.373-0.119-0.773-0.18-1.207-0.18c-0.432,0-0.834,0.064-1.205,0.193  c-0.373,0.127-0.701,0.305-0.984,0.533s-0.521,0.498-0.713,0.811c-0.193,0.311-0.328,0.656-0.408,1.031  c-0.105,0.279-0.235,0.467-0.392,0.559c-0.155,0.092-0.382,0.117-0.678,0.078L225.47,29.178z"
     id="path81" /><path
     d="M249.675,39.691c0.232,0,0.416,0.066,0.553,0.203c0.135,0.137,0.203,0.313,0.203,0.527v1.297h-11.473v-0.732  c0-0.152,0.033-0.309,0.096-0.469c0.064-0.158,0.164-0.307,0.301-0.443l5.508-5.531c0.457-0.465,0.873-0.91,1.248-1.338  c0.377-0.428,0.695-0.859,0.961-1.291c0.264-0.432,0.467-0.869,0.611-1.314c0.145-0.443,0.217-0.918,0.217-1.422  s-0.08-0.945-0.24-1.326c-0.16-0.379-0.379-0.693-0.654-0.941s-0.602-0.434-0.979-0.559c-0.375-0.123-0.779-0.186-1.211-0.186  c-0.441,0-0.846,0.064-1.213,0.193c-0.367,0.127-0.693,0.305-0.979,0.533c-0.283,0.229-0.521,0.498-0.713,0.811  c-0.193,0.311-0.328,0.656-0.408,1.031c-0.096,0.279-0.227,0.467-0.391,0.559s-0.395,0.117-0.689,0.078l-1.117-0.193  c0.113-0.783,0.33-1.477,0.654-2.082c0.324-0.604,0.732-1.109,1.225-1.518s1.055-0.717,1.686-0.93  c0.633-0.211,1.316-0.318,2.053-0.318c0.729,0,1.408,0.109,2.039,0.324c0.633,0.217,1.18,0.529,1.645,0.941s0.828,0.914,1.092,1.506  c0.264,0.594,0.396,1.266,0.396,2.018c0,0.639-0.096,1.234-0.289,1.781c-0.191,0.549-0.451,1.07-0.779,1.566  s-0.705,0.98-1.135,1.451c-0.428,0.473-0.881,0.949-1.361,1.428l-4.535,4.633c0.318-0.088,0.643-0.158,0.971-0.211  c0.328-0.051,0.645-0.076,0.949-0.076H249.675z"
     id="path83" /><path
     d="M256.274,26.418v6.012h7.068v1.896h-7.068v7.393h-2.328V24.523h10.596v1.895H256.274z"
     id="path85" /><path
     d="M278.56,35.514v1.225c0,0.129-0.039,0.236-0.115,0.324s-0.193,0.133-0.354,0.133h-2.137v4.523h-1.871v-4.523h-7.633  c-0.16,0-0.297-0.047-0.414-0.139c-0.115-0.092-0.189-0.205-0.221-0.342l-0.217-1.092l8.363-11.1h1.992v10.99H278.56z   M274.083,35.514v-7.092c0-0.207,0.008-0.436,0.023-0.684s0.041-0.5,0.072-0.756l-6.264,8.531H274.083z"
     id="path87" /><polyline
     fill="none"
     stroke="#000000"
     stroke-width="2.8347"
     stroke-miterlimit="10"
     points="126.476,12.199 126.476,52.955   329.141,52.955 329.141,52.789 329.141,12.035 "
     id="polyline89" /><g
     id="g91"><path
       d="M199.918,144.265c0,0.954-0.159,1.83-0.477,2.628c-0.318,0.798-0.766,1.485-1.342,2.061   c-0.575,0.576-1.269,1.023-2.078,1.342c-0.811,0.317-1.71,0.477-2.7,0.477h-4.959v-13.014h4.959c0.99,0,1.89,0.16,2.7,0.481   c0.81,0.32,1.503,0.768,2.078,1.341c0.576,0.573,1.023,1.259,1.342,2.057C199.759,142.435,199.918,143.311,199.918,144.265z    M197.435,144.265c0-0.714-0.095-1.354-0.284-1.922c-0.188-0.566-0.462-1.047-0.818-1.439c-0.357-0.394-0.789-0.694-1.297-0.905   c-0.507-0.21-1.078-0.314-1.714-0.314h-2.529v9.162h2.529c0.636,0,1.207-0.105,1.714-0.315c0.508-0.21,0.939-0.512,1.297-0.904   c0.356-0.393,0.63-0.873,0.818-1.44C197.34,145.619,197.435,144.979,197.435,144.265z"
       id="path93" /><path
       d="M212.212,150.771h-2.188c-0.414,0-0.714-0.162-0.899-0.486l-2.736-4.167c-0.103-0.155-0.215-0.267-0.338-0.333   c-0.123-0.065-0.305-0.099-0.544-0.099h-1.035v5.085h-2.421v-13.014h3.969c0.882,0,1.64,0.091,2.272,0.274   c0.633,0.183,1.152,0.439,1.557,0.77c0.405,0.33,0.704,0.725,0.896,1.184c0.192,0.459,0.288,0.964,0.288,1.517   c0,0.438-0.064,0.852-0.193,1.241c-0.129,0.391-0.314,0.744-0.558,1.063s-0.543,0.597-0.9,0.837   c-0.356,0.24-0.764,0.429-1.22,0.567c0.156,0.09,0.301,0.196,0.433,0.319s0.252,0.269,0.359,0.437L212.212,150.771z    M205.983,143.949c0.456,0,0.854-0.057,1.192-0.171c0.339-0.113,0.618-0.271,0.837-0.473c0.22-0.2,0.383-0.439,0.491-0.715   c0.107-0.276,0.162-0.579,0.162-0.909c0-0.66-0.218-1.167-0.653-1.521c-0.435-0.354-1.1-0.53-1.993-0.53h-1.548v4.319H205.983z"
       id="path95" /><path
       d="M224.37,137.758l-5.256,13.014h-2.187l-5.256-13.014h1.943c0.21,0,0.381,0.051,0.514,0.152   c0.132,0.103,0.23,0.234,0.297,0.396l3.068,7.938c0.103,0.259,0.2,0.542,0.293,0.851c0.093,0.31,0.182,0.632,0.266,0.968   c0.071-0.336,0.149-0.658,0.233-0.968c0.084-0.309,0.178-0.592,0.279-0.851l3.051-7.938c0.048-0.138,0.143-0.264,0.284-0.378   c0.141-0.114,0.313-0.171,0.518-0.171H224.37z"
       id="path97" /><path
       d="M231.688,143.985c0.792,0.258,1.377,0.652,1.755,1.184s0.567,1.181,0.567,1.948c0,0.576-0.109,1.099-0.329,1.566   c-0.219,0.468-0.526,0.867-0.922,1.197c-0.396,0.33-0.872,0.585-1.427,0.765s-1.169,0.27-1.841,0.27s-1.285-0.09-1.84-0.27   c-0.556-0.18-1.031-0.435-1.427-0.765c-0.396-0.33-0.704-0.729-0.923-1.197s-0.328-0.99-0.328-1.566   c0-0.768,0.188-1.417,0.566-1.948c0.379-0.531,0.964-0.926,1.756-1.184c-0.631-0.264-1.103-0.639-1.418-1.125   s-0.473-1.071-0.473-1.755c0-0.492,0.101-0.951,0.302-1.377s0.481-0.797,0.842-1.111c0.359-0.315,0.79-0.562,1.291-0.738   s1.052-0.266,1.651-0.266c0.601,0,1.15,0.089,1.651,0.266s0.932,0.423,1.292,0.738c0.36,0.314,0.641,0.686,0.842,1.111   c0.2,0.426,0.301,0.885,0.301,1.377c0,0.684-0.157,1.269-0.472,1.755C232.79,143.347,232.317,143.722,231.688,143.985z    M229.491,149.179c0.366,0,0.688-0.053,0.963-0.158c0.276-0.104,0.509-0.25,0.698-0.436c0.188-0.187,0.331-0.408,0.427-0.666   c0.097-0.259,0.145-0.537,0.145-0.838c0-0.714-0.198-1.254-0.594-1.619c-0.396-0.366-0.942-0.55-1.639-0.55   s-1.242,0.184-1.638,0.55c-0.396,0.365-0.594,0.905-0.594,1.619c0,0.301,0.048,0.579,0.144,0.838   c0.096,0.258,0.238,0.479,0.428,0.666c0.188,0.186,0.421,0.331,0.697,0.436C228.805,149.126,229.125,149.179,229.491,149.179z    M229.491,139.287c-0.33,0-0.615,0.052-0.854,0.153c-0.24,0.103-0.439,0.238-0.599,0.409s-0.276,0.368-0.352,0.59   c-0.074,0.222-0.112,0.456-0.112,0.702c0,0.258,0.032,0.509,0.095,0.751c0.063,0.243,0.17,0.459,0.319,0.648   c0.15,0.189,0.348,0.341,0.594,0.454c0.246,0.114,0.55,0.171,0.909,0.171c0.36,0,0.663-0.057,0.909-0.171   c0.246-0.113,0.444-0.265,0.594-0.454c0.15-0.189,0.257-0.405,0.32-0.648c0.063-0.242,0.094-0.493,0.094-0.751   c0-0.246-0.039-0.48-0.117-0.702c-0.077-0.222-0.194-0.419-0.351-0.59s-0.354-0.307-0.594-0.409   C230.106,139.339,229.821,139.287,229.491,139.287z"
       id="path99" /><path
       d="M242.127,143.985c0.792,0.258,1.377,0.652,1.755,1.184s0.567,1.181,0.567,1.948c0,0.576-0.109,1.099-0.329,1.566   c-0.219,0.468-0.526,0.867-0.922,1.197c-0.396,0.33-0.872,0.585-1.427,0.765s-1.169,0.27-1.841,0.27s-1.285-0.09-1.84-0.27   c-0.556-0.18-1.031-0.435-1.427-0.765c-0.396-0.33-0.704-0.729-0.923-1.197s-0.328-0.99-0.328-1.566   c0-0.768,0.188-1.417,0.566-1.948c0.379-0.531,0.964-0.926,1.756-1.184c-0.631-0.264-1.103-0.639-1.418-1.125   s-0.473-1.071-0.473-1.755c0-0.492,0.101-0.951,0.302-1.377s0.481-0.797,0.842-1.111c0.359-0.315,0.79-0.562,1.291-0.738   s1.052-0.266,1.651-0.266c0.601,0,1.15,0.089,1.651,0.266s0.932,0.423,1.292,0.738c0.36,0.314,0.641,0.686,0.842,1.111   c0.2,0.426,0.301,0.885,0.301,1.377c0,0.684-0.157,1.269-0.472,1.755C243.229,143.347,242.757,143.722,242.127,143.985z    M239.931,149.179c0.366,0,0.688-0.053,0.963-0.158c0.276-0.104,0.509-0.25,0.698-0.436c0.188-0.187,0.331-0.408,0.427-0.666   c0.097-0.259,0.145-0.537,0.145-0.838c0-0.714-0.198-1.254-0.594-1.619c-0.396-0.366-0.942-0.55-1.639-0.55   s-1.242,0.184-1.638,0.55c-0.396,0.365-0.594,0.905-0.594,1.619c0,0.301,0.048,0.579,0.144,0.838   c0.096,0.258,0.238,0.479,0.428,0.666c0.188,0.186,0.421,0.331,0.697,0.436C239.244,149.126,239.564,149.179,239.931,149.179z    M239.931,139.287c-0.33,0-0.615,0.052-0.854,0.153c-0.24,0.103-0.439,0.238-0.599,0.409s-0.276,0.368-0.352,0.59   c-0.074,0.222-0.112,0.456-0.112,0.702c0,0.258,0.032,0.509,0.095,0.751c0.063,0.243,0.17,0.459,0.319,0.648   c0.15,0.189,0.348,0.341,0.594,0.454c0.246,0.114,0.55,0.171,0.909,0.171c0.36,0,0.663-0.057,0.909-0.171   c0.246-0.113,0.444-0.265,0.594-0.454c0.15-0.189,0.257-0.405,0.32-0.648c0.063-0.242,0.094-0.493,0.094-0.751   c0-0.246-0.039-0.48-0.117-0.702c-0.077-0.222-0.194-0.419-0.351-0.59s-0.354-0.307-0.594-0.409   C240.546,139.339,240.261,139.287,239.931,139.287z"
       id="path101" /><path
       d="M255.132,145.866v1.287c0,0.12-0.039,0.224-0.117,0.311s-0.189,0.131-0.333,0.131h-1.188v3.177h-1.935v-3.177h-5.49   c-0.15,0-0.282-0.047-0.396-0.14c-0.114-0.093-0.187-0.209-0.217-0.347l-0.233-1.125l6.165-8.235h2.105v8.118H255.132z    M251.559,145.866v-4.257c0-0.401,0.026-0.846,0.081-1.332l-4.041,5.589H251.559z"
       id="path103" /><path
       d="M263.006,143.985c0.792,0.258,1.377,0.652,1.755,1.184s0.567,1.181,0.567,1.948c0,0.576-0.109,1.099-0.329,1.566   c-0.219,0.468-0.526,0.867-0.922,1.197c-0.396,0.33-0.872,0.585-1.427,0.765s-1.169,0.27-1.841,0.27s-1.285-0.09-1.84-0.27   c-0.556-0.18-1.031-0.435-1.427-0.765c-0.396-0.33-0.704-0.729-0.923-1.197s-0.328-0.99-0.328-1.566   c0-0.768,0.188-1.417,0.566-1.948c0.379-0.531,0.964-0.926,1.756-1.184c-0.631-0.264-1.103-0.639-1.418-1.125   s-0.473-1.071-0.473-1.755c0-0.492,0.101-0.951,0.302-1.377s0.481-0.797,0.842-1.111c0.359-0.315,0.79-0.562,1.291-0.738   s1.052-0.266,1.651-0.266c0.601,0,1.15,0.089,1.651,0.266s0.932,0.423,1.292,0.738c0.36,0.314,0.641,0.686,0.842,1.111   c0.2,0.426,0.301,0.885,0.301,1.377c0,0.684-0.157,1.269-0.472,1.755C264.108,143.347,263.636,143.722,263.006,143.985z    M260.81,149.179c0.366,0,0.688-0.053,0.963-0.158c0.276-0.104,0.509-0.25,0.698-0.436c0.188-0.187,0.331-0.408,0.427-0.666   c0.097-0.259,0.145-0.537,0.145-0.838c0-0.714-0.198-1.254-0.594-1.619c-0.396-0.366-0.942-0.55-1.639-0.55   s-1.242,0.184-1.638,0.55c-0.396,0.365-0.594,0.905-0.594,1.619c0,0.301,0.048,0.579,0.144,0.838   c0.096,0.258,0.238,0.479,0.428,0.666c0.188,0.186,0.421,0.331,0.697,0.436C260.123,149.126,260.443,149.179,260.81,149.179z    M260.81,139.287c-0.33,0-0.615,0.052-0.854,0.153c-0.24,0.103-0.439,0.238-0.599,0.409s-0.276,0.368-0.352,0.59   c-0.074,0.222-0.112,0.456-0.112,0.702c0,0.258,0.032,0.509,0.095,0.751c0.063,0.243,0.17,0.459,0.319,0.648   c0.15,0.189,0.348,0.341,0.594,0.454c0.246,0.114,0.55,0.171,0.909,0.171c0.36,0,0.663-0.057,0.909-0.171   c0.246-0.113,0.444-0.265,0.594-0.454c0.15-0.189,0.257-0.405,0.32-0.648c0.063-0.242,0.094-0.493,0.094-0.751   c0-0.246-0.039-0.48-0.117-0.702c-0.077-0.222-0.194-0.419-0.351-0.59s-0.354-0.307-0.594-0.409   C261.425,139.339,261.14,139.287,260.81,139.287z"
       id="path105" /></g><g
     id="g107"><g
       id="g109"><defs
         id="defs111"><rect
           id="SVGID_1_"
           x="219.787"
           y="54.333"
           width="14.193"
           height="39.448" /></defs><clipPath
         id="SVGID_2_"><use
           xlink:href="#SVGID_1_"
           overflow="visible"
           id="use115" /></clipPath><path
         clip-path="url(#SVGID_2_)"
         d="M225.653,86.899h-5.86l7.094,6.892l7.094-6.892h-5.859V61.32h5.859l-7.094-6.892l-7.094,6.892    h5.86V86.899z M225.653,86.899"
         id="path117" /></g></g><rect
     x="240.826"
     y="318.546"
     fill="none"
     width="25.666"
     height="21.334"
     id="rect119" /><text
     transform="matrix(1 0 0 1 250.1787 327.4609)"
     fill="#FFFFFF"
     font-family="'Lato-Bold'"
     font-size="12"
     id="text121">1</text>
<rect
     x="204.351"
     y="318.546"
     fill="none"
     width="25.666"
     height="21.334"
     id="rect123" /><text
     transform="matrix(1 0 0 1 213.7041 327.4629)"
     fill="#FFFFFF"
     font-family="'Lato-Bold'"
     font-size="12"
     id="text125">2</text>
<rect
     x="167.797"
     y="318.546"
     fill="none"
     width="25.666"
     height="21.334"
     id="rect127" /><text
     transform="matrix(1 0 0 1 177.1494 327.4619)"
     fill="#FFFFFF"
     font-family="'Lato-Bold'"
     font-size="12"
     id="text129">3</text>
<rect
     x="130.874"
     y="318.546"
     fill="none"
     width="25.666"
     height="21.334"
     id="rect131" /><text
     transform="matrix(1 0 0 1 140.2271 327.4619)"
     fill="#FFFFFF"
     font-family="'Lato-Bold'"
     font-size="12"
     id="text133">4</text>
<rect
     x="94.404"
     y="317.546"
     fill="none"
     width="25.666"
     height="21.334"
     id="rect135" /><text
     transform="matrix(1 0 0 1 103.7573 326.4619)"
     fill="#FFFFFF"
     font-family="'Lato-Bold'"
     font-size="12"
     id="text137">5</text>
<rect
     x="57.31"
     y="317.546"
     fill="none"
     width="25.666"
     height="21.334"
     id="rect139" /><text
     transform="matrix(1 0 0 1 66.6626 326.4619)"
     fill="#FFFFFF"
     font-family="'Lato-Bold'"
     font-size="12"
     id="text141">6</text>
<path
     d="M84.199,289.484h2.887v-3.644h1.49v3.644h2.945v-4.623h1.548v6.567H82.658v-6.567h1.541V289.484z"
     id="path143" /><path
     d="M82.658,274.372h10.411v0.992c0,0.155-0.026,0.284-0.076,0.387c-0.051,0.104-0.135,0.202-0.256,0.298l-6.939,5.437  c0.316-0.029,0.609-0.044,0.878-0.044h6.394v1.707H82.658v-1.016c0-0.082,0.004-0.152,0.011-0.212s0.021-0.113,0.043-0.158  c0.021-0.047,0.053-0.09,0.094-0.134c0.041-0.043,0.095-0.091,0.162-0.144l6.969-5.458c-0.167,0.015-0.333,0.026-0.497,0.035  c-0.162,0.011-0.313,0.016-0.453,0.016h-6.328V274.372z"
     id="path145" /><path
     d="M90.614,264.904c0-0.105,0.041-0.199,0.122-0.281l0.828-0.764c0.522,0.423,0.924,0.941,1.202,1.559  c0.279,0.617,0.417,1.357,0.417,2.222c0,0.773-0.131,1.467-0.396,2.083c-0.264,0.618-0.631,1.145-1.102,1.582  c-0.47,0.437-1.031,0.771-1.685,1.004c-0.652,0.232-1.366,0.349-2.139,0.349c-0.782,0-1.498-0.124-2.148-0.374  c-0.65-0.249-1.211-0.601-1.682-1.055c-0.471-0.453-0.836-0.994-1.099-1.623c-0.261-0.629-0.393-1.325-0.393-2.088  c0-0.76,0.126-1.432,0.375-2.021c0.25-0.588,0.575-1.087,0.979-1.501l0.9,0.648c0.058,0.038,0.107,0.088,0.151,0.147  c0.042,0.061,0.064,0.143,0.064,0.248c0,0.073-0.021,0.146-0.062,0.223c-0.041,0.077-0.091,0.162-0.15,0.253  c-0.062,0.092-0.127,0.197-0.198,0.316c-0.073,0.12-0.139,0.26-0.198,0.418c-0.06,0.159-0.11,0.342-0.151,0.551  c-0.041,0.208-0.062,0.449-0.062,0.724c0,0.466,0.083,0.891,0.248,1.277c0.166,0.387,0.406,0.72,0.721,0.997  c0.314,0.279,0.698,0.495,1.152,0.648c0.453,0.154,0.97,0.23,1.551,0.23c0.586,0,1.106-0.083,1.563-0.248s0.84-0.391,1.152-0.674  c0.312-0.283,0.551-0.616,0.717-1.001c0.165-0.384,0.247-0.797,0.247-1.237c0-0.265-0.014-0.504-0.042-0.717  c-0.029-0.214-0.075-0.41-0.137-0.591c-0.063-0.18-0.144-0.35-0.242-0.511c-0.098-0.161-0.219-0.32-0.363-0.479  c-0.043-0.048-0.078-0.099-0.104-0.152C90.626,265.017,90.614,264.961,90.614,264.904z"
     id="path147" /><path
     d="M87.769,259.999c0-0.53,0.051-0.984,0.151-1.36c0.101-0.377,0.245-0.686,0.432-0.928c0.187-0.238,0.412-0.416,0.677-0.527  c0.266-0.112,0.563-0.168,0.896-0.168c0.19,0,0.372,0.027,0.545,0.084c0.174,0.057,0.337,0.143,0.487,0.26  c0.151,0.117,0.289,0.268,0.412,0.448s0.227,0.396,0.313,0.646c0.251-1.113,0.851-1.669,1.803-1.669c0.343,0,0.66,0.066,0.951,0.197  c0.291,0.13,0.543,0.321,0.752,0.569c0.211,0.251,0.377,0.558,0.496,0.924c0.119,0.365,0.18,0.784,0.18,1.254v3.056h-8.094V259.999z   M88.933,261.281h2.34v-1.198c0-0.516-0.094-0.904-0.279-1.167c-0.187-0.264-0.483-0.395-0.89-0.395  c-0.422,0-0.724,0.118-0.901,0.357c-0.18,0.238-0.27,0.611-0.27,1.12V261.281z M94.687,259.758c0-0.279-0.034-0.515-0.101-0.706  c-0.067-0.189-0.157-0.342-0.269-0.454c-0.112-0.115-0.242-0.197-0.392-0.248c-0.149-0.05-0.308-0.076-0.476-0.076  c-0.176,0-0.334,0.028-0.474,0.085c-0.14,0.056-0.259,0.144-0.358,0.264c-0.099,0.118-0.174,0.272-0.227,0.462  c-0.053,0.188-0.078,0.414-0.078,0.68v1.518h2.373V259.758z"
     id="path149" /><path
     d="M48.775,289.219h2.886v-3.644h1.491v3.644h2.944v-4.623h1.548v6.567h-10.41v-6.567h1.541V289.219z"
     id="path151" /><path
     d="M47.234,274.106h10.41v0.992c0,0.155-0.025,0.284-0.076,0.387c-0.05,0.104-0.135,0.202-0.255,0.298l-6.94,5.437  c0.316-0.029,0.609-0.044,0.878-0.044h6.394v1.707h-10.41v-1.016c0-0.082,0.003-0.152,0.01-0.212  c0.008-0.06,0.021-0.113,0.044-0.158c0.021-0.047,0.053-0.09,0.094-0.134c0.041-0.043,0.095-0.091,0.161-0.144l6.97-5.458  c-0.168,0.015-0.333,0.026-0.497,0.035c-0.163,0.011-0.314,0.016-0.453,0.016h-6.328V274.106z"
     id="path153" /><path
     d="M55.189,264.639c0-0.105,0.041-0.199,0.122-0.281l0.829-0.764c0.522,0.423,0.923,0.941,1.202,1.559  c0.278,0.617,0.417,1.357,0.417,2.222c0,0.773-0.131,1.467-0.396,2.083c-0.264,0.618-0.63,1.145-1.102,1.582  c-0.47,0.437-1.031,0.771-1.684,1.004s-1.366,0.349-2.139,0.349c-0.783,0-1.499-0.124-2.149-0.374  c-0.65-0.249-1.21-0.601-1.682-1.055c-0.47-0.453-0.835-0.994-1.098-1.623c-0.262-0.629-0.393-1.325-0.393-2.088  c0-0.76,0.125-1.432,0.375-2.021c0.249-0.588,0.575-1.087,0.979-1.501l0.9,0.648c0.057,0.038,0.107,0.088,0.15,0.147  c0.043,0.061,0.064,0.143,0.064,0.248c0,0.073-0.021,0.146-0.061,0.223c-0.041,0.077-0.092,0.162-0.151,0.253  c-0.061,0.092-0.126,0.197-0.198,0.316c-0.072,0.12-0.138,0.26-0.197,0.418c-0.061,0.159-0.11,0.342-0.151,0.551  c-0.041,0.208-0.063,0.449-0.063,0.724c0,0.466,0.083,0.891,0.249,1.277s0.406,0.72,0.721,0.997  c0.313,0.279,0.698,0.495,1.151,0.648c0.454,0.154,0.971,0.23,1.552,0.23c0.586,0,1.106-0.083,1.563-0.248  c0.455-0.165,0.84-0.391,1.151-0.674s0.551-0.616,0.718-1.001c0.165-0.384,0.247-0.797,0.247-1.237c0-0.265-0.015-0.504-0.042-0.717  c-0.029-0.214-0.075-0.41-0.138-0.591c-0.062-0.18-0.143-0.35-0.241-0.511s-0.219-0.32-0.363-0.479  c-0.043-0.048-0.078-0.099-0.104-0.152C55.203,264.751,55.189,264.695,55.189,264.639z"
     id="path155" /><path
     d="M60.438,255.585v1.165c0,0.131-0.032,0.236-0.099,0.318c-0.064,0.082-0.145,0.145-0.242,0.186l-1.651,0.604v3.352  l1.651,0.604c0.086,0.03,0.164,0.088,0.234,0.174c0.071,0.086,0.106,0.191,0.106,0.318v1.177l-8.093-3.186v-1.532L60.438,255.585z   M57.383,258.245l-2.692,0.984c-0.119,0.048-0.261,0.099-0.425,0.151s-0.342,0.104-0.532,0.155c0.19,0.05,0.369,0.1,0.535,0.152  c0.165,0.052,0.311,0.103,0.434,0.15l2.681,0.979V258.245z"
     id="path157" /><path
     d="M198.579,280.507c0.762,0,1.471,0.127,2.119,0.379c0.652,0.252,1.215,0.608,1.689,1.068  c0.477,0.462,0.846,1.015,1.111,1.664c0.268,0.647,0.4,1.368,0.4,2.159c0,0.787-0.133,1.504-0.4,2.153  c-0.266,0.647-0.635,1.204-1.111,1.667c-0.475,0.464-1.037,0.822-1.689,1.075c-0.648,0.256-1.357,0.382-2.119,0.382  c-0.764,0-1.469-0.126-2.121-0.382c-0.648-0.253-1.213-0.611-1.688-1.075c-0.475-0.463-0.846-1.02-1.113-1.667  c-0.268-0.649-0.4-1.366-0.4-2.153c0-0.527,0.063-1.024,0.186-1.49c0.121-0.465,0.295-0.893,0.518-1.281s0.494-0.737,0.813-1.047  c0.32-0.311,0.676-0.573,1.07-0.79c0.393-0.216,0.822-0.38,1.281-0.492C197.585,280.564,198.071,280.507,198.579,280.507z   M198.579,282.487c-0.572,0-1.084,0.076-1.537,0.231c-0.455,0.152-0.84,0.371-1.156,0.653c-0.316,0.284-0.559,0.628-0.729,1.034  c-0.166,0.405-0.25,0.862-0.25,1.371c0,0.51,0.084,0.967,0.25,1.372c0.17,0.406,0.412,0.751,0.729,1.037s0.701,0.505,1.156,0.658  c0.453,0.153,0.965,0.229,1.537,0.229c0.57,0,1.084-0.076,1.537-0.229s0.838-0.372,1.152-0.658c0.313-0.286,0.555-0.631,0.723-1.037  c0.17-0.405,0.252-0.862,0.252-1.372c0-0.509-0.082-0.966-0.252-1.371c-0.168-0.406-0.41-0.75-0.723-1.034  c-0.314-0.282-0.699-0.501-1.152-0.653C199.663,282.563,199.149,282.487,198.579,282.487z"
     id="path159" /><path
     d="M202.222,274.611c0-0.375-0.061-0.71-0.188-1.006c-0.125-0.295-0.301-0.543-0.525-0.745  c-0.225-0.201-0.498-0.356-0.82-0.464c-0.32-0.107-0.682-0.162-1.08-0.162h-6.234v-1.936h6.234c0.619,0,1.191,0.099,1.719,0.298  c0.523,0.199,0.977,0.485,1.359,0.857c0.381,0.372,0.68,0.824,0.893,1.357c0.213,0.532,0.32,1.132,0.32,1.8  c0,0.672-0.107,1.273-0.32,1.807c-0.213,0.532-0.512,0.984-0.893,1.357c-0.383,0.373-0.836,0.657-1.359,0.856  c-0.527,0.199-1.1,0.299-1.719,0.299h-6.234v-1.937h6.227c0.398,0,0.76-0.055,1.082-0.162c0.32-0.107,0.594-0.264,0.822-0.468  s0.404-0.454,0.529-0.75C202.161,275.319,202.222,274.985,202.222,274.611z"
     id="path161" /><path
     d="M194.966,260.837v3.14h8.818v1.938h-8.818v3.138h-1.592v-8.215H194.966z"
     id="path163" /><path
     d="m 234.485,256.94 c 0,-0.529 0.049,-0.983 0.15,-1.36 0.102,-0.376 0.246,-0.685 0.432,-0.926 0.188,-0.24 0.412,-0.417 0.678,-0.528 0.264,-0.111 0.563,-0.168 0.895,-0.168 0.189,0 0.373,0.028 0.547,0.083 0.172,0.057 0.334,0.144 0.486,0.262 0.15,0.117 0.289,0.266 0.41,0.447 0.125,0.181 0.229,0.396 0.314,0.646 0.25,-1.112 0.852,-1.668 1.803,-1.668 0.342,0 0.66,0.065 0.951,0.195 0.291,0.131 0.541,0.321 0.752,0.571 0.211,0.251 0.375,0.558 0.494,0.923 0.121,0.366 0.182,0.783 0.182,1.254 l 0,3.057 -8.094,0 0,-2.788 z m 1.162,1.283 2.342,0 0,-1.197 c 0,-0.515 -0.094,-0.904 -0.281,-1.168 -0.186,-0.264 -0.482,-0.395 -0.889,-0.395 -0.422,0 -0.723,0.119 -0.902,0.358 -0.178,0.239 -0.27,0.612 -0.27,1.119 l 0,1.283 z m 5.754,-1.523 c 0,-0.28 -0.031,-0.516 -0.1,-0.705 -0.066,-0.19 -0.158,-0.343 -0.268,-0.456 -0.113,-0.113 -0.244,-0.195 -0.391,-0.247 -0.15,-0.05 -0.311,-0.075 -0.477,-0.075 -0.176,0 -0.336,0.028 -0.473,0.084 -0.141,0.057 -0.262,0.144 -0.359,0.263 -0.098,0.12 -0.174,0.274 -0.227,0.462 -0.053,0.188 -0.078,0.415 -0.078,0.68 l 0,1.518 2.371,0 0,-1.524 z"
     id="path165"
     inkscape:connector-curvature="0" /><path
     d="M234.075,280.975c0.762,0,1.469,0.127,2.119,0.379s1.215,0.608,1.689,1.068c0.475,0.462,0.846,1.015,1.111,1.664  c0.268,0.647,0.4,1.368,0.4,2.159c0,0.787-0.133,1.504-0.4,2.153c-0.266,0.647-0.637,1.204-1.111,1.667  c-0.475,0.464-1.039,0.822-1.689,1.075c-0.65,0.256-1.357,0.382-2.119,0.382c-0.764,0-1.471-0.126-2.121-0.382  c-0.65-0.253-1.213-0.611-1.688-1.075c-0.477-0.463-0.848-1.02-1.113-1.667c-0.268-0.649-0.4-1.366-0.4-2.153  c0-0.527,0.063-1.024,0.184-1.49c0.123-0.465,0.295-0.893,0.52-1.281c0.223-0.389,0.494-0.737,0.813-1.047  c0.32-0.311,0.676-0.573,1.07-0.79c0.393-0.216,0.82-0.38,1.281-0.492S233.565,280.975,234.075,280.975z M234.075,282.955  c-0.572,0-1.084,0.076-1.539,0.231c-0.453,0.152-0.838,0.371-1.154,0.653c-0.316,0.284-0.559,0.628-0.729,1.034  c-0.168,0.405-0.252,0.862-0.252,1.371c0,0.51,0.084,0.967,0.252,1.372c0.17,0.406,0.412,0.751,0.729,1.037s0.701,0.505,1.154,0.658  c0.455,0.153,0.967,0.229,1.539,0.229c0.57,0,1.084-0.076,1.537-0.229s0.836-0.372,1.152-0.658c0.313-0.286,0.555-0.631,0.723-1.037  c0.168-0.405,0.252-0.862,0.252-1.372c0-0.509-0.084-0.966-0.252-1.371c-0.168-0.406-0.41-0.75-0.723-1.034  c-0.316-0.282-0.699-0.501-1.152-0.653C235.159,283.031,234.646,282.955,234.075,282.955z"
     id="path167" /><path
     d="M237.718,275.079c0-0.375-0.063-0.71-0.188-1.006c-0.125-0.295-0.301-0.543-0.525-0.745  c-0.227-0.201-0.498-0.356-0.82-0.464s-0.682-0.162-1.082-0.162h-6.234v-1.936h6.234c0.621,0,1.193,0.099,1.719,0.298  s0.979,0.485,1.361,0.857c0.381,0.372,0.68,0.824,0.893,1.357c0.213,0.532,0.32,1.132,0.32,1.8c0,0.672-0.107,1.273-0.32,1.807  c-0.213,0.532-0.512,0.984-0.893,1.357c-0.383,0.373-0.836,0.657-1.361,0.856s-1.098,0.299-1.719,0.299h-6.234v-1.937h6.229  c0.398,0,0.76-0.055,1.08-0.162s0.596-0.264,0.824-0.468s0.404-0.454,0.529-0.75C237.655,275.787,237.718,275.453,237.718,275.079z"
     id="path169" /><path
     d="M230.46,261.305v3.14h8.82v1.938h-8.82v3.138h-1.592v-8.215H230.46z"
     id="path171" /><path
     d="m 206.073,253.261 0,1.165 c 0,0.13 -0.033,0.237 -0.098,0.319 -0.065,0.082 -0.146,0.143 -0.242,0.185 l -1.652,0.604 0,3.353 1.652,0.605 c 0.084,0.03 0.164,0.086 0.234,0.173 0.07,0.086 0.105,0.192 0.105,0.319 l 0,1.175 -8.092,-3.184 0,-1.534 8.093,-3.18 z m -3.056,2.659 -2.691,0.985 c -0.119,0.047 -0.262,0.099 -0.426,0.15 -0.164,0.053 -0.34,0.105 -0.531,0.157 0.191,0.049 0.369,0.099 0.535,0.151 0.166,0.052 0.311,0.102 0.434,0.15 l 2.68,0.98 0,-2.573 z"
     id="path173"
     inkscape:connector-curvature="0" /><polyline
     fill="none"
     stroke="#B87332"
     stroke-width="2.8347"
     stroke-miterlimit="10"
     points="309.198,97.268 309.198,113.906   277.726,113.906 "
     id="polyline175" /><line
     fill="none"
     stroke="#000000"
     stroke-width="4.252"
     stroke-miterlimit="10"
     x1="321.511"
     y1="215.058"
     x2="296.886"
     y2="215.058"
     id="line177" /><polyline
     fill="none"
     stroke="#B87332"
     stroke-width="2.8347"
     stroke-miterlimit="10"
     points="277.393,177.627 309.198,177.627   309.198,202.287 "
     id="polyline179" /><rect
     x="176.207"
     y="94.621"
     fill="none"
     stroke="#000000"
     stroke-width="2.8347"
     stroke-miterlimit="10"
     width="101.354"
     height="101.354"
     id="rect181" /><g
     id="symbol_x5F_4" /><path
     fill="#ED1F24"
     stroke="#000000"
     stroke-width="2.8347"
     stroke-miterlimit="10"
     d="M130.803,260.731  c0,0.581,0.118,1.135,0.331,1.638c0.639,1.512,2.135,2.572,3.879,2.572c2.325,0,4.21-1.885,4.21-4.21s-1.885-4.21-4.21-4.21  S130.803,258.406,130.803,260.731z"
     id="path184" /><g
     id="g186"><path
       d="M151.565,261.703h-2.794v2.968h-1.447v-2.968h-2.779v-1.317h2.779v-2.951h1.447v2.951h2.794V261.703z"
       id="path188" /><path
       d="M155.15,259.248c0.23-0.048,0.452-0.082,0.663-0.104c0.211-0.021,0.415-0.031,0.611-0.031c0.548,0,1.029,0.081,1.447,0.245   c0.418,0.163,0.768,0.388,1.052,0.676c0.283,0.288,0.497,0.626,0.64,1.012c0.146,0.387,0.217,0.803,0.217,1.249   c0,0.552-0.098,1.056-0.292,1.513c-0.194,0.456-0.464,0.845-0.81,1.17c-0.346,0.323-0.755,0.574-1.227,0.752   c-0.474,0.177-0.989,0.267-1.545,0.267c-0.327,0-0.637-0.033-0.93-0.102c-0.293-0.066-0.568-0.156-0.823-0.27   c-0.258-0.112-0.495-0.242-0.713-0.389c-0.219-0.146-0.415-0.301-0.588-0.464l0.548-0.756c0.115-0.163,0.267-0.245,0.453-0.245   c0.12,0,0.243,0.039,0.367,0.115c0.125,0.077,0.268,0.16,0.43,0.252c0.159,0.091,0.349,0.176,0.568,0.252   c0.218,0.077,0.481,0.114,0.788,0.114c0.326,0,0.614-0.053,0.864-0.158c0.249-0.105,0.457-0.253,0.622-0.442   c0.166-0.189,0.29-0.415,0.375-0.677c0.084-0.261,0.126-0.546,0.126-0.853c0-0.566-0.165-1.01-0.494-1.329   c-0.328-0.319-0.814-0.479-1.458-0.479c-0.494,0-1.001,0.092-1.519,0.273l-1.108-0.316l0.863-5.055h5.142v0.756   c0,0.255-0.08,0.461-0.238,0.619s-0.428,0.237-0.807,0.237h-2.857L155.15,259.248z"
       id="path190" /><path
       d="M170.659,255.469l-4.205,10.411h-1.748l-4.205-10.411h1.554c0.169,0,0.305,0.041,0.41,0.122   c0.106,0.082,0.186,0.188,0.239,0.317l2.454,6.351c0.082,0.206,0.159,0.433,0.234,0.68s0.146,0.505,0.213,0.774   c0.057-0.27,0.12-0.527,0.188-0.774c0.065-0.247,0.141-0.474,0.223-0.68l2.44-6.351c0.039-0.111,0.114-0.212,0.227-0.302   c0.113-0.092,0.251-0.138,0.415-0.138H170.659z"
       id="path192" /></g><line
     fill="none"
     stroke="#000000"
     stroke-width="2.8347"
     stroke-miterlimit="10"
     x1="135.013"
     y1="281.756"
     x2="135.013"
     y2="264.992"
     id="line194" /><path
     fill="#FFF200"
     stroke="#000000"
     stroke-width="2.8347"
     stroke-miterlimit="10"
     d="M309.165,73.722  c-0.58,0-1.135,0.117-1.637,0.33c-1.512,0.639-2.572,2.135-2.572,3.879c0,2.326,1.885,4.211,4.209,4.211  c2.326,0,4.211-1.885,4.211-4.211C313.376,75.606,311.491,73.722,309.165,73.722z"
     id="path196" /><line
     fill="none"
     stroke="#000000"
     stroke-width="2.8347"
     stroke-miterlimit="10"
     x1="309.165"
     y1="83.185"
     x2="309.165"
     y2="97.268"
     id="line198" /><line
     fill="none"
     stroke="#000000"
     stroke-width="2.8347"
     stroke-miterlimit="10"
     x1="309.198"
     y1="200.975"
     x2="309.198"
     y2="215.058"
     id="line200" /><g
     id="g202"><path
       d="M328.532,71.775l-4.205,10.411h-1.749l-4.206-10.411h1.557c0.167,0,0.305,0.041,0.41,0.122   c0.105,0.082,0.184,0.188,0.236,0.317l2.456,6.351c0.081,0.206,0.159,0.433,0.233,0.68c0.075,0.247,0.146,0.505,0.213,0.774   c0.058-0.27,0.12-0.527,0.187-0.774c0.068-0.247,0.142-0.474,0.224-0.68l2.441-6.351c0.037-0.111,0.113-0.212,0.227-0.303   c0.112-0.091,0.25-0.137,0.413-0.137H328.532z"
       id="path204" /><path
       d="M330.759,77.564c0,0.119-0.024,0.23-0.072,0.335c-0.05,0.105-0.114,0.197-0.193,0.274   c-0.081,0.078-0.175,0.142-0.283,0.188c-0.108,0.047-0.224,0.07-0.347,0.07c-0.119,0-0.233-0.023-0.339-0.07   c-0.106-0.046-0.199-0.109-0.277-0.188c-0.078-0.077-0.141-0.169-0.188-0.274c-0.047-0.104-0.07-0.216-0.07-0.335   c0-0.123,0.023-0.239,0.07-0.347c0.047-0.109,0.109-0.202,0.188-0.28s0.171-0.141,0.277-0.188c0.105-0.047,0.22-0.07,0.339-0.07   c0.123,0,0.238,0.023,0.347,0.07s0.202,0.109,0.283,0.188c0.079,0.078,0.144,0.171,0.193,0.28   C330.734,77.325,330.759,77.441,330.759,77.564z M330.567,79.238v5.742h-1.387v-5.742H330.567z"
       id="path206" /><path
       d="M333.271,79.943c0.116-0.116,0.237-0.224,0.366-0.322s0.266-0.183,0.408-0.252c0.145-0.069,0.298-0.123,0.462-0.162   s0.343-0.06,0.538-0.06c0.313,0,0.59,0.054,0.833,0.161c0.242,0.105,0.445,0.255,0.608,0.447c0.161,0.192,0.284,0.422,0.369,0.688   c0.084,0.268,0.125,0.562,0.125,0.882v3.655H335.6v-3.655c0-0.351-0.081-0.622-0.241-0.814s-0.404-0.288-0.732-0.288   c-0.239,0-0.463,0.055-0.672,0.162c-0.209,0.108-0.407,0.256-0.594,0.442v4.153h-1.382v-5.742h0.845   c0.18,0,0.297,0.084,0.354,0.252L333.271,79.943z"
       id="path208" /><path
       d="M341.675,77.672c0,0.989,0.12,1.961,0.36,2.916c0.239,0.955,0.583,1.853,1.029,2.693c0.048,0.096,0.076,0.18,0.083,0.255   c0.007,0.074,0.001,0.14-0.019,0.194c-0.019,0.056-0.05,0.104-0.089,0.145c-0.041,0.041-0.086,0.075-0.134,0.104l-0.792,0.482   c-0.355-0.547-0.658-1.097-0.907-1.648c-0.25-0.554-0.454-1.11-0.612-1.671c-0.158-0.562-0.275-1.13-0.349-1.707   c-0.075-0.576-0.111-1.163-0.111-1.764c0-0.6,0.036-1.189,0.111-1.768c0.073-0.578,0.19-1.148,0.349-1.71s0.362-1.117,0.612-1.667   c0.249-0.549,0.552-1.098,0.907-1.645l0.792,0.475c0.048,0.029,0.093,0.064,0.134,0.105c0.039,0.039,0.07,0.088,0.089,0.143   c0.02,0.057,0.025,0.121,0.019,0.194c-0.007,0.075-0.035,0.163-0.083,0.264c-0.446,0.835-0.79,1.731-1.029,2.688   C341.795,75.709,341.675,76.684,341.675,77.672z"
       id="path210" /><path
       d="M346.066,75.807c0.303-0.34,0.646-0.616,1.03-0.827s0.836-0.316,1.354-0.316c0.403,0,0.771,0.083,1.105,0.252   c0.334,0.167,0.621,0.411,0.863,0.729c0.242,0.32,0.43,0.713,0.563,1.182c0.131,0.468,0.198,1.004,0.198,1.609   c0,0.552-0.075,1.063-0.224,1.533c-0.149,0.471-0.361,0.878-0.638,1.224c-0.275,0.346-0.609,0.615-1.001,0.81   c-0.392,0.195-0.828,0.292-1.313,0.292c-0.413,0-0.766-0.063-1.059-0.19s-0.554-0.304-0.785-0.529v3.023h-1.777v-9.799h1.086   c0.231,0,0.382,0.107,0.454,0.324L346.066,75.807z M346.16,80.271c0.202,0.245,0.422,0.417,0.659,0.518   c0.237,0.102,0.495,0.151,0.774,0.151c0.269,0,0.511-0.05,0.727-0.151c0.217-0.101,0.399-0.254,0.551-0.46s0.269-0.467,0.349-0.782   c0.082-0.313,0.123-0.684,0.123-1.111c0-0.433-0.035-0.799-0.104-1.099c-0.07-0.3-0.17-0.544-0.299-0.731   c-0.131-0.186-0.287-0.323-0.473-0.41c-0.184-0.086-0.395-0.129-0.629-0.129c-0.371,0-0.685,0.078-0.943,0.233   c-0.26,0.156-0.504,0.376-0.735,0.659V80.271z"
       id="path212" /><path
       d="M353.151,77.672c0-0.988-0.119-1.963-0.357-2.92c-0.236-0.957-0.578-1.854-1.025-2.688   c-0.053-0.101-0.083-0.188-0.09-0.264c-0.007-0.073-0.001-0.138,0.018-0.194c0.02-0.055,0.049-0.104,0.09-0.143   c0.041-0.041,0.088-0.076,0.141-0.105l0.793-0.475c0.354,0.547,0.657,1.096,0.906,1.645c0.25,0.55,0.454,1.105,0.612,1.667   s0.274,1.132,0.346,1.71c0.072,0.578,0.107,1.168,0.107,1.768c0,0.601-0.035,1.188-0.107,1.764   c-0.071,0.577-0.188,1.146-0.346,1.707c-0.158,0.561-0.362,1.117-0.612,1.671c-0.249,0.552-0.552,1.102-0.906,1.648l-0.793-0.482   c-0.053-0.029-0.1-0.063-0.141-0.104s-0.07-0.089-0.09-0.145c-0.019-0.055-0.024-0.12-0.018-0.194   c0.007-0.075,0.037-0.159,0.09-0.255c0.447-0.841,0.789-1.738,1.025-2.693C353.032,79.633,353.151,78.661,353.151,77.672z"
       id="path214" /></g></svg>