<svg enable-background="new 0 0 426.027 327.4" height="327.4" viewBox="0 0 426.027 327.4" width="426.027" xmlns="http://www.w3.org/2000/svg" xmlns:xlink="http://www.w3.org/1999/xlink"><symbol id="a" viewBox="-15.166 -27.48 30.332 54.961"><path d="m-15.166-27.118h28.527v53.154h-28.527z" fill="#424143"/><path d="m-11.195 8.125h-3.971v19.355h3.971z" fill="#231f20"/><path d="m15.166 23.508h-30.332v3.972h30.332z" fill="#231f20"/><path d="m11.193 27.48h3.973v-53.154h-3.973z" fill="#231f20"/><path d="m-11.195-25.674h-3.971v17.549h3.971z" fill="#231f20"/><path d="m15.166-27.48h-30.332v3.972h30.332z" fill="#231f20"/><path d="m-3.43-8.016v-2.312h-2.312v2.312z" fill="#c3996c"/><path d="m-3.43 1.155v-2.312h-2.312v2.312z" fill="#c3996c"/><path d="m-3.43 10.328v-2.312h-2.312v2.312z" fill="#c3996c"/><path d="m5.742-8.016v-2.312h-2.312v2.312z" fill="#c3996c"/><path d="m5.742 1.155v-2.312h-2.312v2.312z" fill="#c3996c"/><path d="m5.742 10.328v-2.312h-2.312v2.312z" fill="#c3996c"/></symbol><use height="54.961" transform="matrix(4.0055 0 0 -4.0055 215.729 190.0405)" width="30.332" x="-15.166" xlink:href="#a" y="-27.48"/><path d="m95.601 134.172-.36.446c.202-.101.419-.179.651-.233.233-.055.483-.083.753-.083.394 0 .776.064 1.148.194.372.129.699.324.982.587.283.262.512.586.685.976.173.389.259.842.259 1.36 0 .485-.089.939-.267 1.365-.178.424-.427.796-.749 1.112-.321.316-.709.565-1.162.748-.454.182-.954.273-1.501.273-.557 0-1.057-.089-1.498-.266-.441-.179-.818-.426-1.13-.746-.313-.318-.551-.703-.717-1.151-.165-.449-.249-.947-.249-1.494 0-.49.1-.993.299-1.509s.508-1.052.926-1.608l2.484-3.334c.086-.115.212-.214.378-.296.165-.08.356-.121.572-.121h1.584zm.402 5.292c.284 0 .544-.048.782-.145.237-.096.441-.229.611-.403.171-.172.304-.375.399-.607.097-.233.145-.486.145-.76 0-.298-.046-.564-.137-.803s-.221-.439-.389-.604c-.168-.167-.37-.292-.604-.379-.236-.087-.495-.129-.778-.129s-.54.048-.771.144c-.229.096-.427.229-.59.399-.163.171-.291.372-.382.605-.092.232-.137.483-.137.753 0 .287.039.551.118.787.079.238.197.44.354.609.155.168.349.299.579.392.232.094.498.141.8.141z"/><path d="m103.952 134.172-.359.446c.201-.101.419-.179.651-.233s.483-.083.752-.083c.394 0 .776.064 1.148.194.372.129.7.324.982.587.284.262.512.586.685.976.173.389.259.842.259 1.36 0 .485-.089.939-.267 1.365-.177.424-.427.796-.748 1.112s-.709.565-1.163.748c-.453.182-.954.273-1.501.273-.557 0-1.056-.089-1.498-.266-.441-.179-.818-.426-1.13-.746-.313-.318-.551-.703-.717-1.151-.165-.449-.248-.947-.248-1.494 0-.49.1-.993.299-1.509s.507-1.052.925-1.608l2.484-3.334c.086-.115.212-.214.378-.296.165-.08.356-.121.572-.121h1.584zm.403 5.292c.283 0 .544-.048.781-.145.237-.096.441-.229.612-.403.17-.172.303-.375.399-.607.096-.233.144-.486.144-.76 0-.298-.045-.564-.137-.803-.091-.238-.221-.439-.389-.604-.168-.167-.369-.292-.604-.379s-.494-.129-.777-.129c-.284 0-.54.048-.771.144s-.428.229-.591.399c-.163.171-.291.372-.382.605-.091.232-.137.483-.137.753 0 .287.04.551.119.787.079.238.196.44.353.609.156.168.35.299.579.392.233.094.499.141.801.141z"/><path d="m116.538 135.598c0 .907-.098 1.695-.292 2.365s-.463 1.223-.806 1.659c-.344.437-.749.763-1.218.976-.468.214-.973.32-1.516.32-.542 0-1.045-.106-1.508-.32-.464-.213-.865-.539-1.206-.976s-.607-.989-.799-1.659-.289-1.458-.289-2.365c0-.912.097-1.701.289-2.368.191-.668.458-1.22.799-1.657.341-.436.742-.762 1.206-.975.463-.214.966-.321 1.508-.321.543 0 1.048.107 1.516.321.469.213.874.539 1.218.975.343.438.611.989.806 1.657.194.667.292 1.456.292 2.368zm-1.836 0c0-.754-.056-1.378-.166-1.873-.11-.493-.258-.887-.442-1.18-.186-.293-.397-.498-.638-.615-.239-.118-.489-.177-.749-.177-.254 0-.5.059-.737.177-.238.117-.448.322-.63.615-.183.293-.328.687-.437 1.18-.107.495-.161 1.119-.161 1.873s.054 1.378.161 1.871c.108.495.254.889.437 1.182.182.293.392.498.63.615.237.118.483.177.737.177.26 0 .51-.059.749-.177.24-.117.452-.322.638-.615.185-.293.332-.687.442-1.182.11-.493.166-1.117.166-1.871z"/><path d="m128.029 139.212v.986c0 .177-.058.322-.173.437-.115.112-.274.168-.476.168h-3.823v-2.188c.332-.058.643-.188.933-.393.29-.204.545-.462.763-.773.219-.312.391-.669.516-1.073.125-.403.187-.832.187-1.288 0-.533-.085-.997-.255-1.394-.171-.396-.401-.725-.691-.983s-.629-.453-1.016-.583c-.387-.129-.795-.193-1.228-.193-.432 0-.841.064-1.228.193-.387.13-.724.324-1.012.583-.287.259-.518.587-.688.983s-.256.86-.256 1.394c0 .456.063.885.188 1.288.125.404.297.762.516 1.073.218.312.472.569.763.773.29.205.601.335.932.393v2.188h-3.823c-.201 0-.359-.056-.475-.168-.115-.114-.173-.26-.173-.437v-.986h1.656c.226 0 .456.011.69.032.236.021.469.05.699.082-.428-.153-.818-.366-1.174-.64-.355-.274-.66-.595-.914-.966-.255-.369-.452-.777-.595-1.227-.142-.449-.212-.926-.212-1.43 0-.691.131-1.328.393-1.911.262-.584.622-1.089 1.084-1.516.46-.428 1.002-.761 1.623-1.001s1.292-.36 2.013-.36c.72 0 1.391.12 2.013.36.621.24 1.161.573 1.619 1.001.459.427.819.932 1.084 1.516.264.583.396 1.22.396 1.911 0 .504-.07.98-.212 1.43s-.34.856-.595 1.224c-.254.368-.559.688-.914.966-.355.275-.746.489-1.173.643.229-.032.461-.061.694-.082.232-.021.462-.032.688-.032z"/><path d="m95.601 170.688-.36.446c.202-.101.419-.178.651-.233.233-.055.483-.083.753-.083.394 0 .776.064 1.148.194.372.129.699.325.982.588.283.261.512.586.685.975s.259.843.259 1.36c0 .485-.089.94-.267 1.365s-.427.796-.749 1.112c-.321.316-.709.566-1.162.749-.454.182-.954.272-1.501.272-.557 0-1.057-.089-1.498-.266-.441-.178-.818-.426-1.13-.745-.313-.319-.551-.703-.717-1.152-.165-.448-.249-.946-.249-1.494 0-.489.1-.992.299-1.508s.508-1.053.926-1.609l2.484-3.334c.086-.114.212-.213.378-.295.165-.081.356-.122.572-.122h1.584zm.402 5.292c.284 0 .544-.048.782-.144.237-.097.441-.23.611-.403.171-.173.304-.375.399-.608.097-.233.145-.486.145-.76 0-.297-.046-.564-.137-.803-.091-.237-.221-.439-.389-.604-.168-.166-.37-.292-.604-.378-.236-.087-.495-.129-.778-.129s-.54.048-.771.143c-.229.096-.427.229-.59.399-.163.171-.291.373-.382.606-.092.231-.137.482-.137.752 0 .287.039.551.118.787.079.238.197.441.354.609.155.168.349.299.579.392.232.094.498.141.8.141z"/><path d="m103.952 170.688-.359.446c.201-.101.419-.178.651-.233s.483-.083.752-.083c.394 0 .776.064 1.148.194.372.129.7.325.982.588.284.261.512.586.685.975s.259.843.259 1.36c0 .485-.089.94-.267 1.365-.177.425-.427.796-.748 1.112s-.709.566-1.163.749c-.453.182-.954.272-1.501.272-.557 0-1.056-.089-1.498-.266-.441-.178-.818-.426-1.13-.745-.313-.319-.551-.703-.717-1.152-.165-.448-.248-.946-.248-1.494 0-.489.1-.992.299-1.508s.507-1.053.925-1.609l2.484-3.334c.086-.114.212-.213.378-.295.165-.081.356-.122.572-.122h1.584zm.403 5.292c.283 0 .544-.048.781-.144.237-.097.441-.23.612-.403.17-.173.303-.375.399-.608s.144-.486.144-.76c0-.297-.045-.564-.137-.803-.091-.237-.221-.439-.389-.604-.168-.166-.369-.292-.604-.378-.235-.087-.494-.129-.777-.129-.284 0-.54.048-.771.143-.23.096-.428.229-.591.399-.163.171-.291.373-.382.606-.091.231-.137.482-.137.752 0 .287.04.551.119.787.079.238.196.441.353.609s.35.299.579.392c.233.094.499.141.801.141z"/><path d="m116.538 172.114c0 .907-.098 1.696-.292 2.365-.194.67-.463 1.224-.806 1.659-.344.438-.749.763-1.218.977-.468.213-.973.319-1.516.319-.542 0-1.045-.106-1.508-.319-.464-.214-.865-.539-1.206-.977-.341-.436-.607-.989-.799-1.659-.192-.669-.289-1.458-.289-2.365 0-.911.097-1.701.289-2.368.191-.668.458-1.22.799-1.657.341-.436.742-.762 1.206-.975.463-.213.966-.321 1.508-.321.543 0 1.048.108 1.516.321.469.213.874.539 1.218.975.343.438.611.989.806 1.657.194.667.292 1.457.292 2.368zm-1.836 0c0-.753-.056-1.378-.166-1.872-.11-.493-.258-.888-.442-1.181-.186-.293-.397-.498-.638-.615-.239-.118-.489-.177-.749-.177-.254 0-.5.059-.737.177-.238.117-.448.322-.63.615-.183.293-.328.688-.437 1.181-.107.494-.161 1.119-.161 1.872 0 .754.054 1.379.161 1.872.108.494.254.888.437 1.181.182.293.392.498.63.615.237.119.483.178.737.178.26 0 .51-.059.749-.178.24-.117.452-.322.638-.615.185-.293.332-.687.442-1.181.11-.493.166-1.118.166-1.872z"/><path d="m128.029 175.728v.987c0 .177-.058.322-.173.436-.115.112-.274.169-.476.169h-3.823v-2.189c.332-.058.643-.188.933-.393.29-.204.545-.462.763-.773.219-.312.391-.669.516-1.073.125-.403.187-.832.187-1.288 0-.533-.085-.997-.255-1.394-.171-.396-.401-.724-.691-.982-.29-.26-.629-.454-1.016-.584-.387-.129-.795-.193-1.228-.193-.432 0-.841.064-1.228.193-.387.13-.724.324-1.012.584-.287.259-.518.587-.688.982-.17.396-.256.86-.256 1.394 0 .456.063.885.188 1.288.125.404.297.762.516 1.073.218.312.472.569.763.773.29.205.601.335.932.393v2.189h-3.823c-.201 0-.359-.057-.475-.169-.115-.113-.173-.259-.173-.436v-.987h1.656c.226 0 .456.011.69.033.236.021.469.049.699.082-.428-.153-.818-.367-1.174-.64-.355-.274-.66-.596-.914-.966-.255-.369-.452-.778-.595-1.228-.142-.448-.212-.926-.212-1.43 0-.691.131-1.327.393-1.911.262-.583.622-1.089 1.084-1.515.46-.428 1.002-.761 1.623-1.001s1.292-.361 2.013-.361c.72 0 1.391.121 2.013.361.621.24 1.161.573 1.619 1.001.459.426.819.932 1.084 1.515.264.584.396 1.22.396 1.911 0 .504-.07.981-.212 1.43s-.34.857-.595 1.224c-.254.368-.559.689-.914.966-.355.275-.746.49-1.173.644.229-.033.461-.062.694-.082.232-.022.462-.033.688-.033z"/><g fill="none"><path d="m192.729 153.303h-62.642" stroke="#b87332" stroke-miterlimit="10" stroke-width="2.8347"/><path d="m89.451 153.303h-27.409" stroke="#b87332" stroke-miterlimit="10" stroke-width="2.8347"/><path d="m62.042 154.682v-113.387" stroke="#b87332" stroke-miterlimit="10" stroke-width="2.8347"/><path d="m192.729 190.4h-62.642" stroke="#b87332" stroke-miterlimit="10" stroke-width="2.8347"/><path d="m89.451 190.4h-58.58" stroke="#b87332" stroke-miterlimit="10" stroke-width="2.8347"/><path d="m31.931 190.962v-149.104" stroke="#b87332" stroke-miterlimit="10" stroke-width="2.8347"/><path d="m238.729 153.303h62.927" stroke="#b87332" stroke-miterlimit="10" stroke-width="2.8347"/><path d="m341.355 153.303h28.347" stroke="#b87332" stroke-miterlimit="10" stroke-width="2.8347"/><path d="m369.702 154.682v-113.387" stroke="#b87332" stroke-miterlimit="10" stroke-width="2.8347"/><path d="m238.729 190.4h62.927" stroke="#b87332" stroke-miterlimit="10" stroke-width="2.8347"/><path d="m341.355 190.4h59.842" stroke="#b87332" stroke-miterlimit="10" stroke-width="2.8347"/><path d="m400.132 190.962v-149.104" stroke="#b87332" stroke-miterlimit="10" stroke-width="2.8347"/><path d="m421.431 41.295h-411.403" stroke="#000" stroke-miterlimit="10" stroke-width="2.8347"/><path d="m11.284 41.507v-35.275" stroke="#000" stroke-miterlimit="10" stroke-width="2.8347"/><path d="m420.283 41.342v-35.275" stroke="#000" stroke-miterlimit="10" stroke-width="2.8347"/></g><path d="m174.263 15.763c-.072.12-.15.21-.234.27s-.186.09-.306.09c-.136 0-.296-.068-.48-.204s-.414-.286-.69-.45-.608-.314-.996-.45-.858-.204-1.41-.204c-.52 0-.978.07-1.374.21s-.728.33-.996.57-.47.522-.606.846-.204.674-.204 1.05c0 .48.118.878.354 1.194s.548.586.936.81.828.418 1.32.582.996.334 1.512.51 1.02.374 1.512.594.932.498 1.32.834.7.748.936 1.236.354 1.088.354 1.8c0 .752-.128 1.458-.384 2.118s-.63 1.234-1.122 1.722-1.096.872-1.812 1.152-1.53.42-2.442.42c-1.12 0-2.136-.202-3.048-.606s-1.692-.95-2.34-1.638l.672-1.104c.064-.088.142-.162.234-.222s.194-.09.306-.09c.104 0 .222.042.354.126s.282.19.45.318.36.268.576.42.462.292.738.42.59.234.942.318.748.126 1.188.126c.552 0 1.044-.076 1.476-.228s.798-.366 1.098-.642.53-.606.69-.99.24-.812.24-1.284c0-.52-.118-.946-.354-1.278s-.546-.61-.93-.834-.824-.414-1.32-.57-1-.316-1.512-.48-1.016-.354-1.512-.57-.936-.496-1.32-.84-.694-.774-.93-1.29-.354-1.154-.354-1.914c0-.608.118-1.196.354-1.764s.58-1.072 1.032-1.512 1.008-.792 1.668-1.056 1.418-.396 2.274-.396c.96 0 1.834.152 2.622.456s1.482.744 2.082 1.32z"/><path d="m190.115 15.03h-5.568v15.24h-2.316v-15.24h-5.58v-1.956h13.464z"/><path d="m210.55 13.075v17.196h-2.04v-12.637c0-.168.006-.348.018-.54s.026-.388.042-.588l-5.904 10.752c-.184.36-.464.54-.84.54h-.336c-.376 0-.656-.18-.84-.54l-6.024-10.8c.048.424.072.816.072 1.176v12.636h-2.04v-17.195h1.716c.208 0 .368.02.48.06.112.041.22.152.324.336l5.94 10.584c.096.192.19.392.282.6s.178.42.258.636c.08-.216.164-.43.252-.642s.184-.414.288-.606l5.832-10.572c.096-.184.202-.296.318-.336s.278-.06.486-.06z"/><path d="m214.306 17.73c.112-.784.328-1.478.648-2.082s.726-1.11 1.218-1.518c.493-.408 1.057-.718 1.692-.93.637-.212 1.322-.318 2.059-.318.729 0 1.4.104 2.016.312.615.208 1.146.504 1.59.888s.791.848 1.039 1.392.371 1.148.371 1.812c0 .544-.07 1.03-.209 1.458-.141.428-.342.802-.602 1.122s-.574.592-.941.816-.779.408-1.236.552c1.121.288 1.963.782 2.527 1.482.563.7.846 1.574.846 2.622 0 .792-.15 1.504-.451 2.136-.299.632-.709 1.17-1.229 1.614-.521.444-1.127.784-1.818 1.02-.693.236-1.436.354-2.227.354-.912 0-1.691-.114-2.34-.342s-1.196-.542-1.644-.942-.816-.874-1.104-1.422-.532-1.142-.731-1.782l.924-.384c.24-.104.474-.132.702-.084s.394.18.498.396c.104.224.233.492.39.804.156.312.371.612.642.9s.617.532 1.037.732c.422.2.955.3 1.604.3.6 0 1.125-.098 1.578-.294.451-.196.828-.45 1.127-.762.301-.312.525-.66.678-1.044.152-.384.229-.764.229-1.14 0-.464-.061-.888-.18-1.272-.121-.384-.344-.716-.672-.996s-.779-.5-1.35-.66c-.572-.16-1.307-.24-2.203-.24v-1.548c.736-.008 1.363-.088 1.879-.24s.936-.36 1.26-.624.559-.58.707-.948.223-.776.223-1.224c0-.496-.078-.928-.234-1.296s-.369-.672-.643-.912c-.271-.24-.594-.42-.965-.54-.373-.12-.773-.18-1.207-.18-.432 0-.834.064-1.205.192-.373.128-.701.306-.984.534s-.521.498-.713.81c-.193.312-.328.656-.408 1.032-.105.28-.235.466-.391.558-.155.092-.382.118-.678.078z"/><path d="m238.511 28.243c.232 0 .416.068.553.204.135.136.203.312.203.528v1.296h-11.473v-.732c0-.152.033-.308.096-.468.064-.16.164-.308.301-.444l5.508-5.532c.457-.464.873-.91 1.248-1.338.377-.428.695-.858.961-1.29.264-.432.467-.87.611-1.314.145-.444.217-.918.217-1.422s-.08-.946-.24-1.326-.379-.694-.654-.942-.602-.434-.979-.558c-.375-.124-.779-.186-1.211-.186-.441 0-.846.064-1.213.192s-.693.306-.979.534c-.283.228-.521.498-.713.81-.193.312-.328.656-.408 1.032-.096.28-.227.466-.391.558s-.395.118-.689.078l-1.117-.192c.113-.784.33-1.478.654-2.082s.732-1.11 1.225-1.518c.492-.408 1.055-.718 1.686-.93.633-.212 1.316-.318 2.053-.318.729 0 1.408.108 2.039.324.633.216 1.18.53 1.645.942s.828.914 1.092 1.506.396 1.264.396 2.016c0 .64-.096 1.234-.289 1.782-.191.548-.451 1.07-.779 1.566s-.705.98-1.135 1.452c-.428.472-.881.948-1.361 1.428l-4.535 4.632c.318-.088.643-.158.971-.21s.645-.078.949-.078z"/><path d="m245.11 14.971v6.012h7.068v1.896h-7.068v7.392h-2.328v-17.196h10.596v1.896z"/><path d="m267.396 24.066v1.224c0 .128-.039.236-.115.324s-.193.132-.354.132h-2.137v4.524h-1.871v-4.524h-7.633c-.16 0-.297-.046-.414-.138-.115-.092-.189-.206-.221-.342l-.217-1.092 8.363-11.1h1.992v10.992zm-4.477 0v-7.092c0-.208.008-.436.023-.684s.041-.5.072-.756l-6.264 8.532z"/><path d="m306.868 134.172-.36.446c.202-.101.419-.179.652-.233.232-.055.483-.083.752-.083.394 0 .777.064 1.148.194.371.129.699.324.983.587.283.262.511.586.685.976.172.389.258.842.258 1.36 0 .485-.09.939-.267 1.365-.177.424-.428.796-.749 1.112-.32.316-.709.565-1.162.748-.453.182-.954.273-1.501.273-.557 0-1.056-.089-1.498-.266-.441-.179-.819-.426-1.131-.746-.312-.318-.551-.703-.716-1.151-.165-.449-.248-.947-.248-1.494 0-.49.1-.993.299-1.509s.507-1.052.926-1.608l2.484-3.334c.085-.115.211-.214.377-.296.165-.08.356-.121.572-.121h1.584zm.403 5.292c.283 0 .543-.048.781-.145.238-.096.441-.229.611-.403.17-.172.304-.375.4-.607.096-.233.144-.486.144-.76 0-.298-.046-.564-.137-.803-.092-.238-.221-.439-.39-.604-.167-.167-.369-.292-.604-.379-.234-.087-.494-.129-.776-.129-.284 0-.541.048-.771.144s-.428.229-.591.399c-.164.171-.29.372-.382.605-.091.232-.137.483-.137.753 0 .287.04.551.118.787.08.238.197.44.354.609.155.168.35.299.579.392.233.094.499.141.801.141z"/><path d="m315.22 134.172-.359.446c.201-.101.419-.179.651-.233s.482-.083.752-.083c.395 0 .776.064 1.148.194.373.129.7.324.982.587.283.262.512.586.685.976.173.389.26.842.26 1.36 0 .485-.089.939-.267 1.365-.179.424-.427.796-.749 1.112-.321.316-.709.565-1.163.748-.453.182-.953.273-1.501.273-.557 0-1.056-.089-1.497-.266-.442-.179-.818-.426-1.13-.746-.313-.318-.551-.703-.718-1.151-.165-.449-.248-.947-.248-1.494 0-.49.1-.993.299-1.509s.508-1.052.925-1.608l2.484-3.334c.087-.115.213-.214.378-.296.166-.08.356-.121.573-.121h1.583zm.403 5.292c.283 0 .544-.048.781-.145.237-.096.441-.229.612-.403.171-.172.304-.375.399-.607.096-.233.145-.486.145-.76 0-.298-.046-.564-.138-.803-.09-.238-.22-.439-.388-.604-.169-.167-.37-.292-.604-.379-.237-.087-.495-.129-.778-.129s-.54.048-.771.144c-.229.096-.426.229-.59.399-.162.171-.291.372-.381.605-.092.232-.138.483-.138.753 0 .287.04.551.12.787.078.238.196.44.352.609.156.168.349.299.58.392.231.094.496.141.799.141z"/><path d="m327.806 135.598c0 .907-.097 1.695-.292 2.365-.194.67-.464 1.223-.806 1.659-.344.437-.749.763-1.217.976-.469.214-.974.32-1.517.32-.541 0-1.045-.106-1.508-.32-.463-.213-.866-.539-1.206-.976-.341-.437-.606-.989-.799-1.659s-.288-1.458-.288-2.365c0-.912.096-1.701.288-2.368.192-.668.458-1.22.799-1.657.34-.436.743-.762 1.206-.975.463-.214.967-.321 1.508-.321.543 0 1.048.107 1.517.321.468.213.873.539 1.217.975.342.438.611.989.806 1.657.195.667.292 1.456.292 2.368zm-1.836 0c0-.754-.056-1.378-.165-1.873-.111-.493-.26-.887-.443-1.18-.186-.293-.397-.498-.638-.615-.24-.118-.488-.177-.749-.177-.254 0-.5.059-.738.177-.236.117-.447.322-.629.615-.183.293-.327.687-.436 1.18-.108.495-.162 1.119-.162 1.873s.054 1.378.162 1.871c.108.495.253.889.436 1.182.182.293.393.498.629.615.238.118.484.177.738.177.261 0 .509-.059.749-.177.24-.117.452-.322.638-.615.184-.293.332-.687.443-1.182.109-.493.165-1.117.165-1.871z"/><path d="m339.296 139.212v.986c0 .177-.056.322-.172.437-.115.112-.273.168-.475.168h-3.824v-2.188c.332-.058.643-.188.933-.393.29-.204.545-.462.764-.773.218-.312.39-.669.516-1.073.124-.403.186-.832.186-1.288 0-.533-.085-.997-.255-1.394s-.401-.725-.691-.983-.63-.453-1.015-.583c-.387-.129-.796-.193-1.228-.193-.434 0-.841.064-1.228.193-.387.13-.725.324-1.013.583-.287.259-.517.587-.687.983-.172.396-.256.86-.256 1.394 0 .456.063.885.188 1.288.124.404.295.762.515 1.073.218.312.472.569.763.773.291.205.602.335.933.393v2.188h-3.823c-.202 0-.36-.056-.475-.168-.115-.114-.174-.26-.174-.437v-.986h1.657c.225 0 .454.011.69.032.235.021.467.05.698.082-.428-.153-.818-.366-1.173-.64-.356-.274-.661-.595-.914-.966-.256-.369-.453-.777-.596-1.227-.141-.449-.211-.926-.211-1.43 0-.691.13-1.328.392-1.911.263-.584.623-1.089 1.084-1.516.46-.428 1.002-.761 1.623-1.001s1.292-.36 2.013-.36c.72 0 1.391.12 2.013.36.621.24 1.161.573 1.619 1.001.458.427.819.932 1.084 1.516.264.583.396 1.22.396 1.911 0 .504-.07.98-.214 1.43-.141.449-.34.856-.593 1.224-.255.368-.56.688-.914.966-.356.275-.747.489-1.174.643.229-.032.462-.061.694-.082.233-.021.462-.032.688-.032z"/><path d="m306.868 170.688-.36.446c.202-.101.419-.178.652-.233.232-.055.483-.083.752-.083.394 0 .777.064 1.148.194.371.129.699.325.983.588.283.261.511.586.685.975.172.389.258.843.258 1.36 0 .485-.09.94-.267 1.365s-.428.796-.749 1.112c-.32.316-.709.566-1.162.749-.453.182-.954.272-1.501.272-.557 0-1.056-.089-1.498-.266-.441-.178-.819-.426-1.131-.745s-.551-.703-.716-1.152c-.165-.448-.248-.946-.248-1.494 0-.489.1-.992.299-1.508s.507-1.053.926-1.609l2.484-3.334c.085-.114.211-.213.377-.295.165-.081.356-.122.572-.122h1.584zm.403 5.292c.283 0 .543-.048.781-.144.238-.097.441-.23.611-.403s.304-.375.4-.608.144-.486.144-.76c0-.297-.046-.564-.137-.803-.092-.237-.221-.439-.39-.604-.167-.166-.369-.292-.604-.378-.234-.087-.494-.129-.776-.129-.284 0-.541.048-.771.143-.23.096-.428.229-.591.399-.164.171-.29.373-.382.606-.091.231-.137.482-.137.752 0 .287.04.551.118.787.08.238.197.441.354.609.155.168.35.299.579.392.233.094.499.141.801.141z"/><path d="m315.22 170.688-.359.446c.201-.101.419-.178.651-.233s.482-.083.752-.083c.395 0 .776.064 1.148.194.373.129.7.325.982.588.283.261.512.586.685.975s.26.843.26 1.36c0 .485-.089.94-.267 1.365-.179.425-.427.796-.749 1.112-.321.316-.709.566-1.163.749-.453.182-.953.272-1.501.272-.557 0-1.056-.089-1.497-.266-.442-.178-.818-.426-1.13-.745-.313-.319-.551-.703-.718-1.152-.165-.448-.248-.946-.248-1.494 0-.489.1-.992.299-1.508s.508-1.053.925-1.609l2.484-3.334c.087-.114.213-.213.378-.295.166-.081.356-.122.573-.122h1.583zm.403 5.292c.283 0 .544-.048.781-.144.237-.097.441-.23.612-.403s.304-.375.399-.608.145-.486.145-.76c0-.297-.046-.564-.138-.803-.09-.237-.22-.439-.388-.604-.169-.166-.37-.292-.604-.378-.237-.087-.495-.129-.778-.129s-.54.048-.771.143c-.229.096-.426.229-.59.399-.162.171-.291.373-.381.606-.092.231-.138.482-.138.752 0 .287.04.551.12.787.078.238.196.441.352.609s.349.299.58.392c.231.094.496.141.799.141z"/><path d="m327.806 172.114c0 .907-.097 1.696-.292 2.365-.194.67-.464 1.224-.806 1.659-.344.438-.749.763-1.217.977-.469.213-.974.319-1.517.319-.541 0-1.045-.106-1.508-.319-.463-.214-.866-.539-1.206-.977-.341-.436-.606-.989-.799-1.659-.192-.669-.288-1.458-.288-2.365 0-.911.096-1.701.288-2.368.192-.668.458-1.22.799-1.657.34-.436.743-.762 1.206-.975s.967-.321 1.508-.321c.543 0 1.048.108 1.517.321.468.213.873.539 1.217.975.342.438.611.989.806 1.657.195.667.292 1.457.292 2.368zm-1.836 0c0-.753-.056-1.378-.165-1.872-.111-.493-.26-.888-.443-1.181-.186-.293-.397-.498-.638-.615-.24-.118-.488-.177-.749-.177-.254 0-.5.059-.738.177-.236.117-.447.322-.629.615-.183.293-.327.688-.436 1.181-.108.494-.162 1.119-.162 1.872 0 .754.054 1.379.162 1.872.108.494.253.888.436 1.181.182.293.393.498.629.615.238.119.484.178.738.178.261 0 .509-.059.749-.178.24-.117.452-.322.638-.615.184-.293.332-.687.443-1.181.109-.493.165-1.118.165-1.872z"/><path d="m339.296 175.728v.987c0 .177-.056.322-.172.436-.115.112-.273.169-.475.169h-3.824v-2.189c.332-.058.643-.188.933-.393.29-.204.545-.462.764-.773.218-.312.39-.669.516-1.073.124-.403.186-.832.186-1.288 0-.533-.085-.997-.255-1.394-.17-.396-.401-.724-.691-.982-.29-.26-.63-.454-1.015-.584-.387-.129-.796-.193-1.228-.193-.434 0-.841.064-1.228.193-.387.13-.725.324-1.013.584-.287.259-.517.587-.687.982-.172.396-.256.86-.256 1.394 0 .456.063.885.188 1.288.124.404.295.762.515 1.073.218.312.472.569.763.773.291.205.602.335.933.393v2.189h-3.823c-.202 0-.36-.057-.475-.169-.115-.113-.174-.259-.174-.436v-.987h1.657c.225 0 .454.011.69.033.235.021.467.049.698.082-.428-.153-.818-.367-1.173-.64-.356-.274-.661-.596-.914-.966-.256-.369-.453-.778-.596-1.228-.141-.448-.211-.926-.211-1.43 0-.691.13-1.327.392-1.911.263-.583.623-1.089 1.084-1.515.46-.428 1.002-.761 1.623-1.001s1.292-.361 2.013-.361c.72 0 1.391.121 2.013.361.621.24 1.161.573 1.619 1.001.458.426.819.932 1.084 1.515.264.584.396 1.22.396 1.911 0 .504-.07.981-.214 1.43-.141.449-.34.857-.593 1.224-.255.368-.56.689-.914.966-.356.275-.747.49-1.174.644.229-.033.462-.062.694-.082.233-.022.462-.033.688-.033z"/><path d="m192.729 226.779h-130.687" fill="none" stroke="#b87332" stroke-miterlimit="10" stroke-width="2.8347"/><path d="m238.729 226.779h62.927" fill="none" stroke="#b87332" stroke-miterlimit="10" stroke-width="2.8347"/><path d="m301.657 225.362v73.299" fill="none" stroke="#b87332" stroke-miterlimit="10" stroke-width="2.8347"/><path d="m194.618 157.935h25.667v21.334h-25.667z" fill="none"/><text fill="#fff" font-family="'Lato-Bold'" font-size="12" transform="translate(203.9712 166.8506)">1</text><path d="m229.468 157.935h25.666v21.334h-25.666z" fill="none"/><text fill="#fff" font-family="'Lato-Bold'" font-size="12" transform="translate(238.8213 166.8511)">2</text><path d="m192.729 194.275h25.667v21.334h-25.667z" fill="none"/><text fill="#fff" font-family="'Lato-Bold'" font-size="12" transform="translate(202.0825 203.1909)">3</text><path d="m229.467 194.275h25.667v21.334h-25.667z" fill="none"/><text fill="#fff" font-family="'Lato-Bold'" font-size="12" transform="translate(238.8203 203.1909)">4</text><path d="m192.729 231.41h25.667v21.334h-25.667z" fill="none"/><text fill="#fff" font-family="'Lato-Bold'" font-size="12" transform="translate(202.0825 240.3257)">5</text><path d="m229.949 231.41h25.667v21.334h-25.667z" fill="none"/><text fill="#fff" font-family="'Lato-Bold'" font-size="12" transform="translate(239.3027 240.3257)">6</text><path d="m90.388 144.786h39.699v17.035h-39.699z" fill="none" stroke="#000" stroke-miterlimit="10" stroke-width="2.8347"/><path d="m90.388 181.882h39.699v17.035h-39.699z" fill="none" stroke="#000" stroke-miterlimit="10" stroke-width="2.8347"/><path d="m301.656 144.786h39.699v17.035h-39.699z" fill="none" stroke="#000" stroke-miterlimit="10" stroke-width="2.8347"/><path d="m301.656 181.882h39.699v17.035h-39.699z" fill="none" stroke="#000" stroke-miterlimit="10" stroke-width="2.8347"/><path d="m137.046 140.7c.303-.34.646-.616 1.029-.827s.835-.316 1.354-.316c.403 0 .771.083 1.105.252.333.167.621.411.864.729.242.32.43.713.562 1.182.132.468.197 1.004.197 1.609 0 .552-.074 1.063-.223 1.533-.149.471-.361.878-.637 1.224-.277.346-.61.615-1.001.81-.392.195-.83.292-1.314.292-.413 0-.766-.063-1.059-.19s-.555-.304-.785-.529v3.023h-1.778v-9.799h1.088c.23 0 .382.107.453.324zm.093 4.465c.202.245.422.417.659.518.237.102.495.151.774.151.269 0 .511-.05.728-.151.215-.101.399-.254.551-.46.15-.206.267-.467.349-.782.082-.313.123-.684.123-1.111 0-.433-.035-.799-.105-1.099-.069-.3-.169-.544-.299-.731-.129-.186-.286-.323-.471-.41-.186-.086-.396-.129-.631-.129-.369 0-.684.078-.942.233-.26.156-.505.376-.735.659v3.312z"/><path d="m150.113 145.747v1.333h-5.76v-1.333h2.109v-6.068c0-.24.007-.488.021-.742l-1.497 1.253c-.086.067-.172.108-.256.126-.084.017-.163.018-.237.004-.075-.016-.141-.04-.198-.076-.058-.035-.101-.075-.13-.118l-.562-.771 3.176-2.7h1.461v9.094h1.873z"/><path d="m282.308 140.855c.303-.34.646-.617 1.03-.828.383-.211.836-.316 1.354-.316.403 0 .771.084 1.105.252s.622.412.863.73c.242.32.43.713.563 1.182.131.467.197 1.004.197 1.608 0 .552-.074 1.063-.223 1.534-.149.47-.361.878-.638 1.224s-.609.615-1.001.81-.83.292-1.313.292c-.414 0-.766-.063-1.059-.191-.293-.126-.556-.304-.785-.528v3.023h-1.778v-9.799h1.087c.231 0 .382.107.455.324zm.093 4.465c.202.244.422.417.659.518s.495.151.774.151c.269 0 .511-.051.728-.151.216-.101.398-.254.551-.461.15-.206.268-.466.35-.781.08-.314.121-.685.121-1.112 0-.433-.035-.798-.105-1.098-.067-.3-.168-.544-.297-.731-.131-.187-.287-.323-.472-.41s-.396-.129-.63-.129c-.371 0-.685.077-.943.233-.26.155-.506.376-.735.658v3.313z"/><path d="m294.987 145.579c.192 0 .345.054.457.161.112.108.169.251.169.43v1.064h-7.142v-.59c0-.12.024-.246.075-.378s.131-.251.241-.356l3.161-3.168c.264-.269.5-.525.709-.771.208-.245.383-.487.522-.728.138-.24.246-.482.319-.73.074-.247.111-.508.111-.781 0-.25-.035-.469-.107-.658-.072-.19-.174-.35-.306-.479-.133-.129-.291-.227-.475-.292-.186-.064-.394-.098-.624-.098-.211 0-.406.031-.586.091s-.34.144-.48.252c-.138.107-.255.234-.352.378-.096.145-.168.303-.215.475-.082.222-.188.368-.318.439-.13.073-.317.09-.561.051l-.937-.165c.071-.499.211-.938.418-1.313.206-.378.464-.691.773-.943s.665-.442 1.065-.57c.4-.126.832-.19 1.293-.19.48 0 .918.071 1.316.213s.74.343 1.023.602c.282.259.504.57.662.935.159.366.238.771.238 1.218 0 .385-.058.739-.17 1.065-.113.327-.264.639-.453.937s-.412.586-.666.863c-.255.279-.521.562-.8.85l-2.347 2.397c.225-.066.449-.118.672-.154.225-.036.437-.054.638-.054h2.677z"/><path d="m136.355 178.266c.302-.34.645-.616 1.029-.827s.835-.316 1.354-.316c.403 0 .771.083 1.104.252.334.167.622.411.864.729.242.32.43.713.562 1.182.132.468.198 1.004.198 1.609 0 .552-.074 1.063-.224 1.533-.148.471-.36.878-.637 1.224s-.609.615-1.001.81c-.391.195-.829.292-1.313.292-.413 0-.767-.063-1.059-.19-.293-.127-.555-.304-.785-.529v3.023h-1.778v-9.799h1.088c.229 0 .381.107.453.324zm.093 4.465c.201.245.421.417.659.518.237.102.495.151.774.151.268 0 .511-.05.727-.151s.399-.254.551-.46.268-.467.35-.782c.081-.313.122-.684.122-1.111 0-.433-.035-.799-.104-1.099s-.169-.544-.299-.731c-.13-.186-.287-.323-.472-.41-.185-.086-.395-.129-.63-.129-.37 0-.684.078-.943.233-.259.156-.504.376-.734.659v3.312z"/><path d="m142.748 177.136c.072-.499.211-.938.418-1.313.206-.377.464-.691.774-.943.309-.252.664-.441 1.064-.569.401-.127.832-.191 1.293-.191.479 0 .913.069 1.3.206.386.137.717.326.99.568.273.243.483.527.63.854.146.327.22.68.22 1.059 0 .331-.038.623-.112.875s-.181.471-.32.658c-.139.188-.312.346-.518.475-.207.131-.439.238-.699.325.624.196 1.09.497 1.397.899.307.403.46.91.46 1.52 0 .519-.096.977-.288 1.375-.191.398-.451.732-.777 1.005-.326.271-.704.476-1.134.615s-.884.208-1.364.208c-.523 0-.979-.06-1.368-.179-.389-.121-.727-.298-1.016-.533-.287-.235-.532-.522-.733-.864-.202-.341-.375-.734-.519-1.181l.784-.323c.207-.087.399-.109.58-.069.18.041.311.138.392.292.087.168.182.334.285.496.104.163.227.309.37.437.145.126.313.229.508.31.195.079.427.118.695.118.303 0 .566-.05.792-.147.226-.099.414-.227.565-.385.15-.158.264-.335.338-.529.074-.195.111-.391.111-.588 0-.249-.026-.476-.079-.68-.053-.203-.163-.378-.331-.522s-.409-.257-.724-.337c-.314-.082-.735-.123-1.264-.123v-1.268c.437-.004.8-.045 1.087-.123.288-.076.518-.183.688-.319.17-.138.288-.302.355-.493.067-.192.102-.403.102-.635 0-.488-.137-.861-.41-1.115-.274-.254-.639-.382-1.095-.382-.212 0-.405.03-.583.09s-.338.145-.479.252c-.143.108-.261.234-.357.379-.096.144-.168.302-.216.475-.082.222-.188.368-.32.439-.132.072-.318.089-.558.05z"/><path d="m281.463 178.167c.303-.34.646-.616 1.03-.827.383-.211.834-.316 1.353-.316.402 0 .771.083 1.105.252.333.168.621.411.864.73.242.319.43.712.562 1.181.131.468.197 1.005.197 1.609 0 .552-.073 1.063-.224 1.534-.147.47-.36.877-.636 1.223-.277.346-.611.615-1.001.811-.392.194-.83.291-1.313.291-.414 0-.767-.063-1.06-.19s-.555-.304-.785-.528v3.023h-1.778v-9.8h1.088c.23 0 .381.108.453.325zm.093 4.465c.201.245.422.417.659.519.238.101.496.15.775.15.267 0 .511-.05.727-.15.215-.102.399-.255.551-.461.15-.206.267-.467.349-.781s.122-.685.122-1.112c0-.433-.035-.798-.104-1.099-.069-.3-.169-.543-.299-.73-.129-.187-.286-.324-.471-.41-.186-.087-.396-.129-.631-.129-.37 0-.685.077-.942.232-.26.156-.505.377-.735.659v3.312z"/><path d="m295.063 180.624v1.029c0 .096-.03.18-.093.248-.062.07-.151.104-.266.104h-.952v2.542h-1.547v-2.542h-4.392c-.12 0-.227-.037-.316-.111-.092-.075-.15-.166-.174-.277l-.188-.9 4.933-6.587h1.684v6.494zm-2.858 0v-3.406c0-.321.021-.676.064-1.065l-3.232 4.472h3.168z"/><path d="m301.657 292.171v15.873" fill="none" stroke="#b87332" stroke-miterlimit="10" stroke-width="2.8347"/><path d="m313.97 318.867h-24.625" fill="none" stroke="#000" stroke-miterlimit="10" stroke-width="4.252"/><path d="m301.657 304.784v14.083" fill="none" stroke="#000" stroke-miterlimit="10" stroke-width="2.8347"/><path d="m58.893 207.289c0 .582.118 1.135.331 1.639.639 1.512 2.135 2.572 3.879 2.572 2.325 0 4.21-1.885 4.21-4.211 0-2.324-1.885-4.209-4.21-4.209s-4.21 1.884-4.21 4.209z" fill="#ed1f24" stroke="#000" stroke-miterlimit="10" stroke-width="2.8347"/><path d="m63.103 228.181v-16.631" fill="none" stroke="#000" stroke-miterlimit="10" stroke-width="2.8347"/><path d="m7.021 207.23h-2.794v2.967h-1.447v-2.967h-2.78v-1.317h2.78v-2.952h1.447v2.952h2.794z"/><path d="m10.606 204.775c.23-.049.451-.082.663-.104.211-.021.415-.032.612-.032.547 0 1.029.081 1.447.245.417.163.768.388 1.051.677.283.288.497.625.641 1.011.145.387.216.803.216 1.249 0 .553-.097 1.057-.292 1.514-.194.455-.464.845-.81 1.169-.346.323-.755.574-1.228.753-.473.177-.987.266-1.544.266-.327 0-.636-.033-.929-.101s-.567-.157-.824-.27c-.258-.112-.494-.243-.714-.39-.218-.146-.413-.301-.586-.464l.546-.756c.116-.163.268-.245.455-.245.119 0 .241.039.367.115.124.077.267.16.428.252s.35.176.569.252c.218.077.48.115.788.115.326 0 .614-.053.864-.158.249-.105.457-.254.622-.443.166-.188.291-.415.375-.676.083-.262.125-.547.125-.854 0-.566-.164-1.009-.493-1.329-.328-.318-.814-.478-1.458-.478-.494 0-1 .091-1.519.272l-1.108-.316.863-5.054h5.142v.756c0 .254-.08.46-.238.618s-.428.238-.806.238h-2.858z"/><path d="m26.116 200.996-4.205 10.41h-1.749l-4.206-10.41h1.557c.167 0 .305.041.41.121.105.082.184.188.236.318l2.456 6.35c.081.207.159.433.233.68.075.248.146.506.213.775.058-.27.12-.527.187-.775.068-.247.142-.473.224-.68l2.441-6.35c.037-.111.113-.213.227-.303.112-.092.25-.137.413-.137h1.563z"/><path d="m31.069 206.892c0 .989.121 1.961.361 2.916.239.955.582 1.853 1.029 2.692.048.097.076.181.083.256.007.073.001.14-.019.194s-.05.104-.09.145c-.041.041-.085.074-.133.104l-.793.483c-.354-.548-.657-1.097-.906-1.649-.25-.553-.454-1.109-.612-1.671s-.275-1.13-.349-1.706c-.075-.576-.111-1.164-.111-1.764s.036-1.189.111-1.769c.073-.577.19-1.148.349-1.71.158-.561.362-1.116.612-1.666.249-.55.552-1.098.906-1.646l.793.475c.048.029.092.064.133.105.04.04.07.088.09.144s.025.12.019.194c-.007.075-.035.163-.083.264-.447.834-.79 1.73-1.029 2.688-.24.958-.361 1.932-.361 2.921z"/><path d="m38.082 205.458c-.048.078-.099.132-.151.162-.053.031-.12.047-.201.047-.087 0-.18-.023-.277-.071-.099-.048-.213-.103-.343-.162-.129-.061-.276-.114-.442-.163-.166-.048-.361-.071-.586-.071-.351 0-.626.074-.825.223s-.299.344-.299.584c0 .158.052.292.154.399.104.107.24.203.411.285.17.08.363.154.579.219s.437.136.659.212c.224.077.442.165.658.264.217.099.41.223.58.374s.307.333.41.544.154.465.154.763c0 .355-.063.684-.189.983-.128.3-.316.559-.566.776-.249.22-.558.39-.924.513-.368.122-.791.183-1.271.183-.255 0-.503-.022-.746-.068-.241-.045-.475-.108-.698-.19-.223-.081-.429-.177-.618-.288-.19-.11-.356-.23-.501-.36l.41-.676c.053-.082.116-.145.188-.188.071-.044.163-.064.273-.064.111 0 .216.03.313.093.099.063.213.13.343.201.129.072.281.14.457.203.175.062.397.092.665.092.211 0 .393-.024.544-.074.151-.051.275-.116.374-.198s.171-.177.217-.285c.046-.107.068-.219.068-.334 0-.173-.052-.315-.155-.425s-.24-.207-.41-.289c-.171-.08-.365-.154-.583-.219-.219-.064-.442-.136-.67-.212-.229-.077-.451-.168-.67-.271-.218-.104-.412-.233-.582-.393-.172-.158-.308-.354-.412-.583-.103-.23-.154-.509-.154-.835 0-.303.061-.591.181-.864.119-.274.296-.512.529-.717.232-.204.522-.367.871-.489.348-.123.75-.184 1.206-.184.508 0 .973.084 1.39.252s.765.389 1.044.662z"/><path d="m50.452 204.019-2.347 7.387h-1.427c-.162 0-.276-.105-.338-.316l-1.324-4.27c-.044-.145-.084-.286-.12-.428-.035-.143-.065-.285-.089-.43-.029.145-.063.29-.098.437-.036.146-.076.292-.119.436l-1.347 4.255c-.058.211-.184.316-.381.316h-1.368l-2.34-7.387h1.418c.131 0 .24.031.332.094.09.062.151.142.18.237l1.058 3.946c.053.215.1.426.141.633s.076.413.104.619c.053-.206.109-.412.17-.619.06-.207.123-.418.189-.633l1.225-3.96c.029-.097.086-.176.169-.238.085-.062.187-.094.306-.094h.785c.126 0 .232.032.321.094.088.063.146.142.176.238l1.188 3.96c.063.215.121.428.176.637s.109.416.163.623c.062-.408.151-.829.266-1.26l1.088-3.946c.032-.096.094-.176.179-.237.087-.063.19-.094.31-.094z"/><path d="m52.202 206.892c0-.989-.119-1.963-.357-2.92-.236-.958-.579-1.854-1.025-2.688-.053-.101-.083-.188-.09-.264-.008-.074-.002-.139.018-.194s.049-.104.09-.144c.041-.041.088-.076.141-.105l.792-.475c.355.548.657 1.096.907 1.646s.453 1.105.611 1.666c.158.562.274 1.133.346 1.71.073.579.108 1.169.108 1.769s-.035 1.188-.108 1.764c-.071.576-.188 1.145-.346 1.706s-.361 1.118-.611 1.671-.552 1.102-.907 1.649l-.792-.483c-.053-.029-.1-.063-.141-.104s-.07-.09-.09-.145-.025-.121-.018-.194c.007-.075.037-.159.09-.256.446-.84.789-1.737 1.025-2.692.238-.956.357-1.928.357-2.917z"/></svg>