<?xml version="1.0" encoding="utf-8"?>
<!-- Generator: Adobe Illustrator 16.0.0, SVG Export Plug-In . SVG Version: 6.00 Build 0)  -->
<!DOCTYPE svg PUBLIC "-//W3C//DTD SVG 1.1//EN" "http://www.w3.org/Graphics/SVG/1.1/DTD/svg11.dtd">
<svg version="1.1" id="Layer_1" xmlns="http://www.w3.org/2000/svg" xmlns:xlink="http://www.w3.org/1999/xlink" x="0px" y="0px"
	 width="426.027px" height="327.4px" viewBox="0 0 426.027 327.4" enable-background="new 0 0 426.027 327.4" xml:space="preserve">
<symbol  id="symbol_x5F_8" viewBox="-15.166 -27.48 30.332 54.961">
	<polygon fill="#424143" points="-15.166,-27.118 13.361,-27.118 13.361,26.036 -15.166,26.036 	"/>
	<g>
		<polygon fill="#231F20" points="-11.195,8.125 -15.166,8.125 -15.166,27.48 -11.195,27.48 		"/>
		<polygon fill="#231F20" points="15.166,23.508 -15.166,23.508 -15.166,27.48 15.166,27.48 		"/>
		<polygon fill="#231F20" points="11.193,27.48 15.166,27.48 15.166,-25.674 11.193,-25.674 		"/>
		<polygon fill="#231F20" points="-11.195,-25.674 -15.166,-25.674 -15.166,-8.125 -11.195,-8.125 		"/>
		<polygon fill="#231F20" points="15.166,-27.48 -15.166,-27.48 -15.166,-23.508 15.166,-23.508 		"/>
	</g>
	<g>
		<polygon fill="#C3996C" points="-3.43,-8.016 -3.43,-10.328 -5.742,-10.328 -5.742,-8.016 		"/>
		<polygon fill="#C3996C" points="-3.43,1.155 -3.43,-1.157 -5.742,-1.157 -5.742,1.155 		"/>
		<polygon fill="#C3996C" points="-3.43,10.328 -3.43,8.016 -5.742,8.016 -5.742,10.328 		"/>
		<polygon fill="#C3996C" points="5.742,-8.016 5.742,-10.328 3.43,-10.328 3.43,-8.016 		"/>
		<polygon fill="#C3996C" points="5.742,1.155 5.742,-1.157 3.43,-1.157 3.43,1.155 		"/>
		<polygon fill="#C3996C" points="5.742,10.328 5.742,8.016 3.43,8.016 3.43,10.328 		"/>
	</g>
</symbol>
<use xlink:href="#symbol_x5F_8"  width="30.332" height="54.961" x="-15.166" y="-27.48" transform="matrix(4.0055 0 0 -4.0055 215.729 190.0405)" overflow="visible"/>
<g>
	<path d="M95.601,134.172l-0.36,0.446c0.202-0.101,0.419-0.179,0.651-0.233c0.233-0.055,0.483-0.083,0.753-0.083
		c0.394,0,0.776,0.064,1.148,0.194c0.372,0.129,0.699,0.324,0.982,0.587c0.283,0.262,0.512,0.586,0.685,0.976
		c0.173,0.389,0.259,0.842,0.259,1.36c0,0.485-0.089,0.939-0.267,1.365c-0.178,0.424-0.427,0.796-0.749,1.112
		c-0.321,0.316-0.709,0.565-1.162,0.748c-0.454,0.182-0.954,0.273-1.501,0.273c-0.557,0-1.057-0.089-1.498-0.266
		c-0.441-0.179-0.818-0.426-1.13-0.746c-0.313-0.318-0.551-0.703-0.717-1.151c-0.165-0.449-0.249-0.947-0.249-1.494
		c0-0.49,0.1-0.993,0.299-1.509s0.508-1.052,0.926-1.608l2.484-3.334c0.086-0.115,0.212-0.214,0.378-0.296
		c0.165-0.08,0.356-0.121,0.572-0.121h1.584L95.601,134.172z M96.003,139.464c0.284,0,0.544-0.048,0.782-0.145
		c0.237-0.096,0.441-0.229,0.611-0.403c0.171-0.172,0.304-0.375,0.399-0.607c0.097-0.233,0.145-0.486,0.145-0.76
		c0-0.298-0.046-0.564-0.137-0.803s-0.221-0.439-0.389-0.604c-0.168-0.167-0.37-0.292-0.604-0.379
		c-0.236-0.087-0.495-0.129-0.778-0.129s-0.54,0.048-0.771,0.144c-0.229,0.096-0.427,0.229-0.59,0.399
		c-0.163,0.171-0.291,0.372-0.382,0.605c-0.092,0.232-0.137,0.483-0.137,0.753c0,0.287,0.039,0.551,0.118,0.787
		c0.079,0.238,0.197,0.44,0.354,0.609c0.155,0.168,0.349,0.299,0.579,0.392C95.435,139.417,95.701,139.464,96.003,139.464z"/>
	<path d="M103.952,134.172l-0.359,0.446c0.201-0.101,0.419-0.179,0.651-0.233s0.483-0.083,0.752-0.083
		c0.394,0,0.776,0.064,1.148,0.194c0.372,0.129,0.7,0.324,0.982,0.587c0.284,0.262,0.512,0.586,0.685,0.976
		c0.173,0.389,0.259,0.842,0.259,1.36c0,0.485-0.089,0.939-0.267,1.365c-0.177,0.424-0.427,0.796-0.748,1.112
		s-0.709,0.565-1.163,0.748c-0.453,0.182-0.954,0.273-1.501,0.273c-0.557,0-1.056-0.089-1.498-0.266
		c-0.441-0.179-0.818-0.426-1.13-0.746c-0.313-0.318-0.551-0.703-0.717-1.151c-0.165-0.449-0.248-0.947-0.248-1.494
		c0-0.49,0.1-0.993,0.299-1.509s0.507-1.052,0.925-1.608l2.484-3.334c0.086-0.115,0.212-0.214,0.378-0.296
		c0.165-0.08,0.356-0.121,0.572-0.121h1.584L103.952,134.172z M104.355,139.464c0.283,0,0.544-0.048,0.781-0.145
		c0.237-0.096,0.441-0.229,0.612-0.403c0.17-0.172,0.303-0.375,0.399-0.607c0.096-0.233,0.144-0.486,0.144-0.76
		c0-0.298-0.045-0.564-0.137-0.803c-0.091-0.238-0.221-0.439-0.389-0.604c-0.168-0.167-0.369-0.292-0.604-0.379
		s-0.494-0.129-0.777-0.129c-0.284,0-0.54,0.048-0.771,0.144s-0.428,0.229-0.591,0.399c-0.163,0.171-0.291,0.372-0.382,0.605
		c-0.091,0.232-0.137,0.483-0.137,0.753c0,0.287,0.04,0.551,0.119,0.787c0.079,0.238,0.196,0.44,0.353,0.609
		c0.156,0.168,0.35,0.299,0.579,0.392C103.787,139.417,104.053,139.464,104.355,139.464z"/>
	<path d="M116.538,135.598c0,0.907-0.098,1.695-0.292,2.365s-0.463,1.223-0.806,1.659c-0.344,0.437-0.749,0.763-1.218,0.976
		c-0.468,0.214-0.973,0.32-1.516,0.32c-0.542,0-1.045-0.106-1.508-0.32c-0.464-0.213-0.865-0.539-1.206-0.976
		s-0.607-0.989-0.799-1.659c-0.192-0.67-0.289-1.458-0.289-2.365c0-0.912,0.097-1.701,0.289-2.368
		c0.191-0.668,0.458-1.22,0.799-1.657c0.341-0.436,0.742-0.762,1.206-0.975c0.463-0.214,0.966-0.321,1.508-0.321
		c0.543,0,1.048,0.107,1.516,0.321c0.469,0.213,0.874,0.539,1.218,0.975c0.343,0.438,0.611,0.989,0.806,1.657
		C116.44,133.897,116.538,134.686,116.538,135.598z M114.702,135.598c0-0.754-0.056-1.378-0.166-1.873
		c-0.11-0.493-0.258-0.887-0.442-1.18c-0.186-0.293-0.397-0.498-0.638-0.615c-0.239-0.118-0.489-0.177-0.749-0.177
		c-0.254,0-0.5,0.059-0.737,0.177c-0.238,0.117-0.448,0.322-0.63,0.615c-0.183,0.293-0.328,0.687-0.437,1.18
		c-0.107,0.495-0.161,1.119-0.161,1.873s0.054,1.378,0.161,1.871c0.108,0.495,0.254,0.889,0.437,1.182
		c0.182,0.293,0.392,0.498,0.63,0.615c0.237,0.118,0.483,0.177,0.737,0.177c0.26,0,0.51-0.059,0.749-0.177
		c0.24-0.117,0.452-0.322,0.638-0.615c0.185-0.293,0.332-0.687,0.442-1.182C114.646,136.976,114.702,136.352,114.702,135.598z"/>
	<path d="M128.029,139.212v0.986c0,0.177-0.058,0.322-0.173,0.437c-0.115,0.112-0.274,0.168-0.476,0.168h-3.823v-2.188
		c0.332-0.058,0.643-0.188,0.933-0.393c0.29-0.204,0.545-0.462,0.763-0.773c0.219-0.312,0.391-0.669,0.516-1.073
		c0.125-0.403,0.187-0.832,0.187-1.288c0-0.533-0.085-0.997-0.255-1.394c-0.171-0.396-0.401-0.725-0.691-0.983
		s-0.629-0.453-1.016-0.583c-0.387-0.129-0.795-0.193-1.228-0.193c-0.432,0-0.841,0.064-1.228,0.193
		c-0.387,0.13-0.724,0.324-1.012,0.583c-0.287,0.259-0.518,0.587-0.688,0.983s-0.256,0.86-0.256,1.394
		c0,0.456,0.063,0.885,0.188,1.288c0.125,0.404,0.297,0.762,0.516,1.073c0.218,0.312,0.472,0.569,0.763,0.773
		c0.29,0.205,0.601,0.335,0.932,0.393v2.188h-3.823c-0.201,0-0.359-0.056-0.475-0.168c-0.115-0.114-0.173-0.26-0.173-0.437v-0.986
		h1.656c0.226,0,0.456,0.011,0.69,0.032c0.236,0.021,0.469,0.05,0.699,0.082c-0.428-0.153-0.818-0.366-1.174-0.64
		c-0.355-0.274-0.66-0.595-0.914-0.966c-0.255-0.369-0.452-0.777-0.595-1.227c-0.142-0.449-0.212-0.926-0.212-1.43
		c0-0.691,0.131-1.328,0.393-1.911c0.262-0.584,0.622-1.089,1.084-1.516c0.46-0.428,1.002-0.761,1.623-1.001s1.292-0.36,2.013-0.36
		c0.72,0,1.391,0.12,2.013,0.36c0.621,0.24,1.161,0.573,1.619,1.001c0.459,0.427,0.819,0.932,1.084,1.516
		c0.264,0.583,0.396,1.22,0.396,1.911c0,0.504-0.07,0.98-0.212,1.43s-0.34,0.856-0.595,1.224c-0.254,0.368-0.559,0.688-0.914,0.966
		c-0.355,0.275-0.746,0.489-1.173,0.643c0.229-0.032,0.461-0.061,0.694-0.082c0.232-0.021,0.462-0.032,0.688-0.032H128.029z"/>
</g>
<g>
	<path d="M95.601,170.688l-0.36,0.446c0.202-0.101,0.419-0.178,0.651-0.233c0.233-0.055,0.483-0.083,0.753-0.083
		c0.394,0,0.776,0.064,1.148,0.194c0.372,0.129,0.699,0.325,0.982,0.588c0.283,0.261,0.512,0.586,0.685,0.975
		s0.259,0.843,0.259,1.36c0,0.485-0.089,0.94-0.267,1.365s-0.427,0.796-0.749,1.112c-0.321,0.316-0.709,0.566-1.162,0.749
		c-0.454,0.182-0.954,0.272-1.501,0.272c-0.557,0-1.057-0.089-1.498-0.266c-0.441-0.178-0.818-0.426-1.13-0.745
		c-0.313-0.319-0.551-0.703-0.717-1.152c-0.165-0.448-0.249-0.946-0.249-1.494c0-0.489,0.1-0.992,0.299-1.508
		s0.508-1.053,0.926-1.609l2.484-3.334c0.086-0.114,0.212-0.213,0.378-0.295c0.165-0.081,0.356-0.122,0.572-0.122h1.584
		L95.601,170.688z M96.003,175.98c0.284,0,0.544-0.048,0.782-0.144c0.237-0.097,0.441-0.23,0.611-0.403
		c0.171-0.173,0.304-0.375,0.399-0.608c0.097-0.233,0.145-0.486,0.145-0.76c0-0.297-0.046-0.564-0.137-0.803
		c-0.091-0.237-0.221-0.439-0.389-0.604c-0.168-0.166-0.37-0.292-0.604-0.378c-0.236-0.087-0.495-0.129-0.778-0.129
		s-0.54,0.048-0.771,0.143c-0.229,0.096-0.427,0.229-0.59,0.399c-0.163,0.171-0.291,0.373-0.382,0.606
		c-0.092,0.231-0.137,0.482-0.137,0.752c0,0.287,0.039,0.551,0.118,0.787c0.079,0.238,0.197,0.441,0.354,0.609
		c0.155,0.168,0.349,0.299,0.579,0.392C95.435,175.933,95.701,175.98,96.003,175.98z"/>
	<path d="M103.952,170.688l-0.359,0.446c0.201-0.101,0.419-0.178,0.651-0.233c0.232-0.055,0.483-0.083,0.752-0.083
		c0.394,0,0.776,0.064,1.148,0.194c0.372,0.129,0.7,0.325,0.982,0.588c0.284,0.261,0.512,0.586,0.685,0.975s0.259,0.843,0.259,1.36
		c0,0.485-0.089,0.94-0.267,1.365c-0.177,0.425-0.427,0.796-0.748,1.112s-0.709,0.566-1.163,0.749
		c-0.453,0.182-0.954,0.272-1.501,0.272c-0.557,0-1.056-0.089-1.498-0.266c-0.441-0.178-0.818-0.426-1.13-0.745
		c-0.313-0.319-0.551-0.703-0.717-1.152c-0.165-0.448-0.248-0.946-0.248-1.494c0-0.489,0.1-0.992,0.299-1.508
		s0.507-1.053,0.925-1.609l2.484-3.334c0.086-0.114,0.212-0.213,0.378-0.295c0.165-0.081,0.356-0.122,0.572-0.122h1.584
		L103.952,170.688z M104.355,175.98c0.283,0,0.544-0.048,0.781-0.144c0.237-0.097,0.441-0.23,0.612-0.403
		c0.17-0.173,0.303-0.375,0.399-0.608c0.096-0.233,0.144-0.486,0.144-0.76c0-0.297-0.045-0.564-0.137-0.803
		c-0.091-0.237-0.221-0.439-0.389-0.604c-0.168-0.166-0.369-0.292-0.604-0.378c-0.235-0.087-0.494-0.129-0.777-0.129
		c-0.284,0-0.54,0.048-0.771,0.143c-0.23,0.096-0.428,0.229-0.591,0.399c-0.163,0.171-0.291,0.373-0.382,0.606
		c-0.091,0.231-0.137,0.482-0.137,0.752c0,0.287,0.04,0.551,0.119,0.787c0.079,0.238,0.196,0.441,0.353,0.609
		s0.35,0.299,0.579,0.392C103.787,175.933,104.053,175.98,104.355,175.98z"/>
	<path d="M116.538,172.114c0,0.907-0.098,1.696-0.292,2.365c-0.194,0.67-0.463,1.224-0.806,1.659
		c-0.344,0.438-0.749,0.763-1.218,0.977c-0.468,0.213-0.973,0.319-1.516,0.319c-0.542,0-1.045-0.106-1.508-0.319
		c-0.464-0.214-0.865-0.539-1.206-0.977c-0.341-0.436-0.607-0.989-0.799-1.659c-0.192-0.669-0.289-1.458-0.289-2.365
		c0-0.911,0.097-1.701,0.289-2.368c0.191-0.668,0.458-1.22,0.799-1.657c0.341-0.436,0.742-0.762,1.206-0.975
		c0.463-0.213,0.966-0.321,1.508-0.321c0.543,0,1.048,0.108,1.516,0.321c0.469,0.213,0.874,0.539,1.218,0.975
		c0.343,0.438,0.611,0.989,0.806,1.657C116.44,170.413,116.538,171.203,116.538,172.114z M114.702,172.114
		c0-0.753-0.056-1.378-0.166-1.872c-0.11-0.493-0.258-0.888-0.442-1.181c-0.186-0.293-0.397-0.498-0.638-0.615
		c-0.239-0.118-0.489-0.177-0.749-0.177c-0.254,0-0.5,0.059-0.737,0.177c-0.238,0.117-0.448,0.322-0.63,0.615
		c-0.183,0.293-0.328,0.688-0.437,1.181c-0.107,0.494-0.161,1.119-0.161,1.872c0,0.754,0.054,1.379,0.161,1.872
		c0.108,0.494,0.254,0.888,0.437,1.181c0.182,0.293,0.392,0.498,0.63,0.615c0.237,0.119,0.483,0.178,0.737,0.178
		c0.26,0,0.51-0.059,0.749-0.178c0.24-0.117,0.452-0.322,0.638-0.615c0.185-0.293,0.332-0.687,0.442-1.181
		C114.646,173.493,114.702,172.868,114.702,172.114z"/>
	<path d="M128.029,175.728v0.987c0,0.177-0.058,0.322-0.173,0.436c-0.115,0.112-0.274,0.169-0.476,0.169h-3.823v-2.189
		c0.332-0.058,0.643-0.188,0.933-0.393c0.29-0.204,0.545-0.462,0.763-0.773c0.219-0.312,0.391-0.669,0.516-1.073
		c0.125-0.403,0.187-0.832,0.187-1.288c0-0.533-0.085-0.997-0.255-1.394c-0.171-0.396-0.401-0.724-0.691-0.982
		c-0.29-0.26-0.629-0.454-1.016-0.584c-0.387-0.129-0.795-0.193-1.228-0.193c-0.432,0-0.841,0.064-1.228,0.193
		c-0.387,0.13-0.724,0.324-1.012,0.584c-0.287,0.259-0.518,0.587-0.688,0.982c-0.17,0.396-0.256,0.86-0.256,1.394
		c0,0.456,0.063,0.885,0.188,1.288c0.125,0.404,0.297,0.762,0.516,1.073c0.218,0.312,0.472,0.569,0.763,0.773
		c0.29,0.205,0.601,0.335,0.932,0.393v2.189h-3.823c-0.201,0-0.359-0.057-0.475-0.169c-0.115-0.113-0.173-0.259-0.173-0.436v-0.987
		h1.656c0.226,0,0.456,0.011,0.69,0.033c0.236,0.021,0.469,0.049,0.699,0.082c-0.428-0.153-0.818-0.367-1.174-0.64
		c-0.355-0.274-0.66-0.596-0.914-0.966c-0.255-0.369-0.452-0.778-0.595-1.228c-0.142-0.448-0.212-0.926-0.212-1.43
		c0-0.691,0.131-1.327,0.393-1.911c0.262-0.583,0.622-1.089,1.084-1.515c0.46-0.428,1.002-0.761,1.623-1.001
		s1.292-0.361,2.013-0.361c0.72,0,1.391,0.121,2.013,0.361c0.621,0.24,1.161,0.573,1.619,1.001c0.459,0.426,0.819,0.932,1.084,1.515
		c0.264,0.584,0.396,1.22,0.396,1.911c0,0.504-0.07,0.981-0.212,1.43c-0.142,0.449-0.34,0.857-0.595,1.224
		c-0.254,0.368-0.559,0.689-0.914,0.966c-0.355,0.275-0.746,0.49-1.173,0.644c0.229-0.033,0.461-0.062,0.694-0.082
		c0.232-0.022,0.462-0.033,0.688-0.033H128.029z"/>
</g>
<line fill="none" stroke="#B87332" stroke-width="2.8347" stroke-miterlimit="10" x1="192.729" y1="153.303" x2="130.087" y2="153.303"/>
<line fill="none" stroke="#B87332" stroke-width="2.8347" stroke-miterlimit="10" x1="89.451" y1="153.303" x2="62.042" y2="153.303"/>
<line fill="none" stroke="#B87332" stroke-width="2.8347" stroke-miterlimit="10" x1="62.042" y1="154.682" x2="62.042" y2="41.295"/>
<line fill="none" stroke="#B87332" stroke-width="2.8347" stroke-miterlimit="10" x1="192.729" y1="190.4" x2="130.087" y2="190.4"/>
<line fill="none" stroke="#B87332" stroke-width="2.8347" stroke-miterlimit="10" x1="89.451" y1="190.4" x2="30.871" y2="190.4"/>
<line fill="none" stroke="#B87332" stroke-width="2.8347" stroke-miterlimit="10" x1="31.931" y1="190.962" x2="31.931" y2="41.858"/>
<line fill="none" stroke="#B87332" stroke-width="2.8347" stroke-miterlimit="10" x1="238.729" y1="153.303" x2="301.656" y2="153.303"/>
<line fill="none" stroke="#B87332" stroke-width="2.8347" stroke-miterlimit="10" x1="341.355" y1="153.303" x2="369.702" y2="153.303"/>
<line fill="none" stroke="#B87332" stroke-width="2.8347" stroke-miterlimit="10" x1="369.702" y1="154.682" x2="369.702" y2="41.295"/>
<line fill="none" stroke="#B87332" stroke-width="2.8347" stroke-miterlimit="10" x1="238.729" y1="190.4" x2="301.656" y2="190.4"/>
<line fill="none" stroke="#B87332" stroke-width="2.8347" stroke-miterlimit="10" x1="341.355" y1="190.4" x2="401.197" y2="190.4"/>
<line fill="none" stroke="#B87332" stroke-width="2.8347" stroke-miterlimit="10" x1="400.132" y1="190.962" x2="400.132" y2="41.858"/>
<line fill="none" stroke="#000000" stroke-width="2.8347" stroke-miterlimit="10" x1="421.431" y1="41.295" x2="10.028" y2="41.295"/>
<line fill="none" stroke="#000000" stroke-width="2.8347" stroke-miterlimit="10" x1="11.284" y1="41.507" x2="11.284" y2="6.232"/>
<line fill="none" stroke="#000000" stroke-width="2.8347" stroke-miterlimit="10" x1="420.283" y1="41.342" x2="420.283" y2="6.067"/>
<g>
	<path d="M174.263,15.763c-0.072,0.12-0.15,0.21-0.234,0.27c-0.084,0.06-0.186,0.09-0.306,0.09c-0.136,0-0.296-0.068-0.48-0.204
		c-0.184-0.136-0.414-0.286-0.69-0.45c-0.276-0.164-0.608-0.314-0.996-0.45c-0.388-0.136-0.858-0.204-1.41-0.204
		c-0.52,0-0.978,0.07-1.374,0.21c-0.396,0.14-0.728,0.33-0.996,0.57c-0.268,0.24-0.47,0.522-0.606,0.846
		c-0.136,0.324-0.204,0.674-0.204,1.05c0,0.48,0.118,0.878,0.354,1.194s0.548,0.586,0.936,0.81s0.828,0.418,1.32,0.582
		c0.492,0.164,0.996,0.334,1.512,0.51c0.516,0.176,1.02,0.374,1.512,0.594c0.492,0.22,0.932,0.498,1.32,0.834s0.7,0.748,0.936,1.236
		c0.236,0.488,0.354,1.088,0.354,1.8c0,0.752-0.128,1.458-0.384,2.118c-0.256,0.66-0.63,1.234-1.122,1.722
		c-0.492,0.488-1.096,0.872-1.812,1.152c-0.716,0.28-1.53,0.42-2.442,0.42c-1.12,0-2.136-0.202-3.048-0.606
		c-0.912-0.404-1.692-0.95-2.34-1.638l0.672-1.104c0.064-0.088,0.142-0.162,0.234-0.222c0.092-0.06,0.194-0.09,0.306-0.09
		c0.104,0,0.222,0.042,0.354,0.126c0.132,0.084,0.282,0.19,0.45,0.318s0.36,0.268,0.576,0.42c0.216,0.152,0.462,0.292,0.738,0.42
		s0.59,0.234,0.942,0.318s0.748,0.126,1.188,0.126c0.552,0,1.044-0.076,1.476-0.228c0.432-0.152,0.798-0.366,1.098-0.642
		c0.3-0.276,0.53-0.606,0.69-0.99c0.16-0.384,0.24-0.812,0.24-1.284c0-0.52-0.118-0.946-0.354-1.278
		c-0.236-0.332-0.546-0.61-0.93-0.834c-0.384-0.224-0.824-0.414-1.32-0.57c-0.496-0.156-1-0.316-1.512-0.48
		c-0.512-0.164-1.016-0.354-1.512-0.57c-0.496-0.216-0.936-0.496-1.32-0.84c-0.384-0.344-0.694-0.774-0.93-1.29
		s-0.354-1.154-0.354-1.914c0-0.608,0.118-1.196,0.354-1.764s0.58-1.072,1.032-1.512c0.452-0.44,1.008-0.792,1.668-1.056
		c0.66-0.264,1.418-0.396,2.274-0.396c0.96,0,1.834,0.152,2.622,0.456c0.788,0.304,1.482,0.744,2.082,1.32L174.263,15.763z"/>
	<path d="M190.115,15.03h-5.568v15.24h-2.316V15.03h-5.58v-1.956h13.464V15.03z"/>
	<path d="M210.55,13.075v17.196h-2.04V17.634c0-0.168,0.006-0.348,0.018-0.54c0.012-0.192,0.026-0.388,0.042-0.588l-5.904,10.752
		c-0.184,0.36-0.464,0.54-0.84,0.54h-0.336c-0.376,0-0.656-0.18-0.84-0.54l-6.024-10.8c0.048,0.424,0.072,0.816,0.072,1.176v12.636
		h-2.04V13.075h1.716c0.208,0,0.368,0.02,0.48,0.06c0.112,0.041,0.22,0.152,0.324,0.336l5.94,10.584
		c0.096,0.192,0.19,0.392,0.282,0.6c0.092,0.208,0.178,0.42,0.258,0.636c0.08-0.216,0.164-0.43,0.252-0.642
		c0.088-0.212,0.184-0.414,0.288-0.606l5.832-10.572c0.096-0.184,0.202-0.296,0.318-0.336c0.116-0.04,0.278-0.06,0.486-0.06H210.55z
		"/>
	<path d="M214.306,17.73c0.112-0.784,0.328-1.478,0.648-2.082s0.726-1.11,1.218-1.518c0.493-0.408,1.057-0.718,1.692-0.93
		c0.637-0.212,1.322-0.318,2.059-0.318c0.729,0,1.4,0.104,2.016,0.312c0.615,0.208,1.146,0.504,1.59,0.888s0.791,0.848,1.039,1.392
		s0.371,1.148,0.371,1.812c0,0.544-0.07,1.03-0.209,1.458c-0.141,0.428-0.342,0.802-0.602,1.122s-0.574,0.592-0.941,0.816
		s-0.779,0.408-1.236,0.552c1.121,0.288,1.963,0.782,2.527,1.482c0.563,0.7,0.846,1.574,0.846,2.622c0,0.792-0.15,1.504-0.451,2.136
		c-0.299,0.632-0.709,1.17-1.229,1.614c-0.521,0.444-1.127,0.784-1.818,1.02c-0.693,0.236-1.436,0.354-2.227,0.354
		c-0.912,0-1.691-0.114-2.34-0.342s-1.196-0.542-1.644-0.942s-0.816-0.874-1.104-1.422c-0.288-0.548-0.532-1.142-0.731-1.782
		l0.924-0.384c0.24-0.104,0.474-0.132,0.702-0.084c0.228,0.048,0.394,0.18,0.498,0.396c0.104,0.224,0.233,0.492,0.39,0.804
		c0.156,0.312,0.371,0.612,0.642,0.9s0.617,0.532,1.037,0.732c0.422,0.2,0.955,0.3,1.604,0.3c0.6,0,1.125-0.098,1.578-0.294
		c0.451-0.196,0.828-0.45,1.127-0.762c0.301-0.312,0.525-0.66,0.678-1.044c0.152-0.384,0.229-0.764,0.229-1.14
		c0-0.464-0.061-0.888-0.18-1.272c-0.121-0.384-0.344-0.716-0.672-0.996c-0.328-0.28-0.779-0.5-1.35-0.66
		c-0.572-0.16-1.307-0.24-2.203-0.24v-1.548c0.736-0.008,1.363-0.088,1.879-0.24c0.516-0.152,0.936-0.36,1.26-0.624
		c0.324-0.264,0.559-0.58,0.707-0.948s0.223-0.776,0.223-1.224c0-0.496-0.078-0.928-0.234-1.296s-0.369-0.672-0.643-0.912
		c-0.271-0.24-0.594-0.42-0.965-0.54c-0.373-0.12-0.773-0.18-1.207-0.18c-0.432,0-0.834,0.064-1.205,0.192
		c-0.373,0.128-0.701,0.306-0.984,0.534s-0.521,0.498-0.713,0.81c-0.193,0.312-0.328,0.656-0.408,1.032
		c-0.105,0.28-0.235,0.466-0.391,0.558c-0.155,0.092-0.382,0.118-0.678,0.078L214.306,17.73z"/>
	<path d="M238.511,28.243c0.232,0,0.416,0.068,0.553,0.204c0.135,0.136,0.203,0.312,0.203,0.528v1.296h-11.473v-0.732
		c0-0.152,0.033-0.308,0.096-0.468c0.064-0.16,0.164-0.308,0.301-0.444l5.508-5.532c0.457-0.464,0.873-0.91,1.248-1.338
		c0.377-0.428,0.695-0.858,0.961-1.29c0.264-0.432,0.467-0.87,0.611-1.314c0.145-0.444,0.217-0.918,0.217-1.422
		s-0.08-0.946-0.24-1.326c-0.16-0.38-0.379-0.694-0.654-0.942c-0.275-0.248-0.602-0.434-0.979-0.558
		c-0.375-0.124-0.779-0.186-1.211-0.186c-0.441,0-0.846,0.064-1.213,0.192s-0.693,0.306-0.979,0.534
		c-0.283,0.228-0.521,0.498-0.713,0.81c-0.193,0.312-0.328,0.656-0.408,1.032c-0.096,0.28-0.227,0.466-0.391,0.558
		c-0.164,0.092-0.395,0.118-0.689,0.078l-1.117-0.192c0.113-0.784,0.33-1.478,0.654-2.082s0.732-1.11,1.225-1.518
		c0.492-0.408,1.055-0.718,1.686-0.93c0.633-0.212,1.316-0.318,2.053-0.318c0.729,0,1.408,0.108,2.039,0.324
		c0.633,0.216,1.18,0.53,1.645,0.942s0.828,0.914,1.092,1.506c0.264,0.592,0.396,1.264,0.396,2.016c0,0.64-0.096,1.234-0.289,1.782
		c-0.191,0.548-0.451,1.07-0.779,1.566s-0.705,0.98-1.135,1.452c-0.428,0.472-0.881,0.948-1.361,1.428l-4.535,4.632
		c0.318-0.088,0.643-0.158,0.971-0.21c0.328-0.052,0.645-0.078,0.949-0.078H238.511z"/>
	<path d="M245.11,14.971v6.012h7.068v1.896h-7.068v7.392h-2.328V13.075h10.596v1.896H245.11z"/>
	<path d="M267.396,24.066v1.224c0,0.128-0.039,0.236-0.115,0.324c-0.076,0.088-0.193,0.132-0.354,0.132h-2.137v4.524h-1.871v-4.524
		h-7.633c-0.16,0-0.297-0.046-0.414-0.138c-0.115-0.092-0.189-0.206-0.221-0.342l-0.217-1.092l8.363-11.1h1.992v10.992H267.396z
		 M262.919,24.066v-7.092c0-0.208,0.008-0.436,0.023-0.684s0.041-0.5,0.072-0.756l-6.264,8.532H262.919z"/>
</g>
<g>
	<path d="M306.868,134.172l-0.36,0.446c0.202-0.101,0.419-0.179,0.652-0.233c0.232-0.055,0.483-0.083,0.752-0.083
		c0.394,0,0.777,0.064,1.148,0.194c0.371,0.129,0.699,0.324,0.983,0.587c0.283,0.262,0.511,0.586,0.685,0.976
		c0.172,0.389,0.258,0.842,0.258,1.36c0,0.485-0.09,0.939-0.267,1.365c-0.177,0.424-0.428,0.796-0.749,1.112
		c-0.32,0.316-0.709,0.565-1.162,0.748c-0.453,0.182-0.954,0.273-1.501,0.273c-0.557,0-1.056-0.089-1.498-0.266
		c-0.441-0.179-0.819-0.426-1.131-0.746c-0.312-0.318-0.551-0.703-0.716-1.151c-0.165-0.449-0.248-0.947-0.248-1.494
		c0-0.49,0.1-0.993,0.299-1.509s0.507-1.052,0.926-1.608l2.484-3.334c0.085-0.115,0.211-0.214,0.377-0.296
		c0.165-0.08,0.356-0.121,0.572-0.121h1.584L306.868,134.172z M307.271,139.464c0.283,0,0.543-0.048,0.781-0.145
		c0.238-0.096,0.441-0.229,0.611-0.403c0.17-0.172,0.304-0.375,0.4-0.607c0.096-0.233,0.144-0.486,0.144-0.76
		c0-0.298-0.046-0.564-0.137-0.803c-0.092-0.238-0.221-0.439-0.39-0.604c-0.167-0.167-0.369-0.292-0.604-0.379
		c-0.234-0.087-0.494-0.129-0.776-0.129c-0.284,0-0.541,0.048-0.771,0.144c-0.23,0.096-0.428,0.229-0.591,0.399
		c-0.164,0.171-0.29,0.372-0.382,0.605c-0.091,0.232-0.137,0.483-0.137,0.753c0,0.287,0.04,0.551,0.118,0.787
		c0.08,0.238,0.197,0.44,0.354,0.609c0.155,0.168,0.35,0.299,0.579,0.392C306.703,139.417,306.969,139.464,307.271,139.464z"/>
	<path d="M315.22,134.172l-0.359,0.446c0.201-0.101,0.419-0.179,0.651-0.233s0.482-0.083,0.752-0.083
		c0.395,0,0.776,0.064,1.148,0.194c0.373,0.129,0.7,0.324,0.982,0.587c0.283,0.262,0.512,0.586,0.685,0.976
		c0.173,0.389,0.26,0.842,0.26,1.36c0,0.485-0.089,0.939-0.267,1.365c-0.179,0.424-0.427,0.796-0.749,1.112
		c-0.321,0.316-0.709,0.565-1.163,0.748c-0.453,0.182-0.953,0.273-1.501,0.273c-0.557,0-1.056-0.089-1.497-0.266
		c-0.442-0.179-0.818-0.426-1.13-0.746c-0.313-0.318-0.551-0.703-0.718-1.151c-0.165-0.449-0.248-0.947-0.248-1.494
		c0-0.49,0.1-0.993,0.299-1.509s0.508-1.052,0.925-1.608l2.484-3.334c0.087-0.115,0.213-0.214,0.378-0.296
		c0.166-0.08,0.356-0.121,0.573-0.121h1.583L315.22,134.172z M315.623,139.464c0.283,0,0.544-0.048,0.781-0.145
		c0.237-0.096,0.441-0.229,0.612-0.403c0.171-0.172,0.304-0.375,0.399-0.607c0.096-0.233,0.145-0.486,0.145-0.76
		c0-0.298-0.046-0.564-0.138-0.803c-0.09-0.238-0.22-0.439-0.388-0.604c-0.169-0.167-0.37-0.292-0.604-0.379
		c-0.237-0.087-0.495-0.129-0.778-0.129s-0.54,0.048-0.771,0.144c-0.229,0.096-0.426,0.229-0.59,0.399
		c-0.162,0.171-0.291,0.372-0.381,0.605c-0.092,0.232-0.138,0.483-0.138,0.753c0,0.287,0.04,0.551,0.12,0.787
		c0.078,0.238,0.196,0.44,0.352,0.609c0.156,0.168,0.349,0.299,0.58,0.392C315.055,139.417,315.32,139.464,315.623,139.464z"/>
	<path d="M327.806,135.598c0,0.907-0.097,1.695-0.292,2.365c-0.194,0.67-0.464,1.223-0.806,1.659
		c-0.344,0.437-0.749,0.763-1.217,0.976c-0.469,0.214-0.974,0.32-1.517,0.32c-0.541,0-1.045-0.106-1.508-0.32
		c-0.463-0.213-0.866-0.539-1.206-0.976c-0.341-0.437-0.606-0.989-0.799-1.659s-0.288-1.458-0.288-2.365
		c0-0.912,0.096-1.701,0.288-2.368c0.192-0.668,0.458-1.22,0.799-1.657c0.34-0.436,0.743-0.762,1.206-0.975
		c0.463-0.214,0.967-0.321,1.508-0.321c0.543,0,1.048,0.107,1.517,0.321c0.468,0.213,0.873,0.539,1.217,0.975
		c0.342,0.438,0.611,0.989,0.806,1.657C327.709,133.897,327.806,134.686,327.806,135.598z M325.97,135.598
		c0-0.754-0.056-1.378-0.165-1.873c-0.111-0.493-0.26-0.887-0.443-1.18c-0.186-0.293-0.397-0.498-0.638-0.615
		c-0.24-0.118-0.488-0.177-0.749-0.177c-0.254,0-0.5,0.059-0.738,0.177c-0.236,0.117-0.447,0.322-0.629,0.615
		c-0.183,0.293-0.327,0.687-0.436,1.18c-0.108,0.495-0.162,1.119-0.162,1.873s0.054,1.378,0.162,1.871
		c0.108,0.495,0.253,0.889,0.436,1.182c0.182,0.293,0.393,0.498,0.629,0.615c0.238,0.118,0.484,0.177,0.738,0.177
		c0.261,0,0.509-0.059,0.749-0.177c0.24-0.117,0.452-0.322,0.638-0.615c0.184-0.293,0.332-0.687,0.443-1.182
		C325.914,136.976,325.97,136.352,325.97,135.598z"/>
	<path d="M339.296,139.212v0.986c0,0.177-0.056,0.322-0.172,0.437c-0.115,0.112-0.273,0.168-0.475,0.168h-3.824v-2.188
		c0.332-0.058,0.643-0.188,0.933-0.393c0.29-0.204,0.545-0.462,0.764-0.773c0.218-0.312,0.39-0.669,0.516-1.073
		c0.124-0.403,0.186-0.832,0.186-1.288c0-0.533-0.085-0.997-0.255-1.394s-0.401-0.725-0.691-0.983s-0.63-0.453-1.015-0.583
		c-0.387-0.129-0.796-0.193-1.228-0.193c-0.434,0-0.841,0.064-1.228,0.193c-0.387,0.13-0.725,0.324-1.013,0.583
		c-0.287,0.259-0.517,0.587-0.687,0.983c-0.172,0.396-0.256,0.86-0.256,1.394c0,0.456,0.063,0.885,0.188,1.288
		c0.124,0.404,0.295,0.762,0.515,1.073c0.218,0.312,0.472,0.569,0.763,0.773c0.291,0.205,0.602,0.335,0.933,0.393v2.188h-3.823
		c-0.202,0-0.36-0.056-0.475-0.168c-0.115-0.114-0.174-0.26-0.174-0.437v-0.986h1.657c0.225,0,0.454,0.011,0.69,0.032
		c0.235,0.021,0.467,0.05,0.698,0.082c-0.428-0.153-0.818-0.366-1.173-0.64c-0.356-0.274-0.661-0.595-0.914-0.966
		c-0.256-0.369-0.453-0.777-0.596-1.227c-0.141-0.449-0.211-0.926-0.211-1.43c0-0.691,0.13-1.328,0.392-1.911
		c0.263-0.584,0.623-1.089,1.084-1.516c0.46-0.428,1.002-0.761,1.623-1.001s1.292-0.36,2.013-0.36c0.72,0,1.391,0.12,2.013,0.36
		c0.621,0.24,1.161,0.573,1.619,1.001c0.458,0.427,0.819,0.932,1.084,1.516c0.264,0.583,0.396,1.22,0.396,1.911
		c0,0.504-0.07,0.98-0.214,1.43c-0.141,0.449-0.34,0.856-0.593,1.224c-0.255,0.368-0.56,0.688-0.914,0.966
		c-0.356,0.275-0.747,0.489-1.174,0.643c0.229-0.032,0.462-0.061,0.694-0.082c0.233-0.021,0.462-0.032,0.688-0.032H339.296z"/>
</g>
<g>
	<path d="M306.868,170.688l-0.36,0.446c0.202-0.101,0.419-0.178,0.652-0.233c0.232-0.055,0.483-0.083,0.752-0.083
		c0.394,0,0.777,0.064,1.148,0.194c0.371,0.129,0.699,0.325,0.983,0.588c0.283,0.261,0.511,0.586,0.685,0.975
		c0.172,0.389,0.258,0.843,0.258,1.36c0,0.485-0.09,0.94-0.267,1.365s-0.428,0.796-0.749,1.112c-0.32,0.316-0.709,0.566-1.162,0.749
		c-0.453,0.182-0.954,0.272-1.501,0.272c-0.557,0-1.056-0.089-1.498-0.266c-0.441-0.178-0.819-0.426-1.131-0.745
		s-0.551-0.703-0.716-1.152c-0.165-0.448-0.248-0.946-0.248-1.494c0-0.489,0.1-0.992,0.299-1.508s0.507-1.053,0.926-1.609
		l2.484-3.334c0.085-0.114,0.211-0.213,0.377-0.295c0.165-0.081,0.356-0.122,0.572-0.122h1.584L306.868,170.688z M307.271,175.98
		c0.283,0,0.543-0.048,0.781-0.144c0.238-0.097,0.441-0.23,0.611-0.403s0.304-0.375,0.4-0.608c0.096-0.233,0.144-0.486,0.144-0.76
		c0-0.297-0.046-0.564-0.137-0.803c-0.092-0.237-0.221-0.439-0.39-0.604c-0.167-0.166-0.369-0.292-0.604-0.378
		c-0.234-0.087-0.494-0.129-0.776-0.129c-0.284,0-0.541,0.048-0.771,0.143c-0.23,0.096-0.428,0.229-0.591,0.399
		c-0.164,0.171-0.29,0.373-0.382,0.606c-0.091,0.231-0.137,0.482-0.137,0.752c0,0.287,0.04,0.551,0.118,0.787
		c0.08,0.238,0.197,0.441,0.354,0.609c0.155,0.168,0.35,0.299,0.579,0.392C306.703,175.933,306.969,175.98,307.271,175.98z"/>
	<path d="M315.22,170.688l-0.359,0.446c0.201-0.101,0.419-0.178,0.651-0.233c0.232-0.055,0.482-0.083,0.752-0.083
		c0.395,0,0.776,0.064,1.148,0.194c0.373,0.129,0.7,0.325,0.982,0.588c0.283,0.261,0.512,0.586,0.685,0.975s0.26,0.843,0.26,1.36
		c0,0.485-0.089,0.94-0.267,1.365c-0.179,0.425-0.427,0.796-0.749,1.112c-0.321,0.316-0.709,0.566-1.163,0.749
		c-0.453,0.182-0.953,0.272-1.501,0.272c-0.557,0-1.056-0.089-1.497-0.266c-0.442-0.178-0.818-0.426-1.13-0.745
		c-0.313-0.319-0.551-0.703-0.718-1.152c-0.165-0.448-0.248-0.946-0.248-1.494c0-0.489,0.1-0.992,0.299-1.508
		s0.508-1.053,0.925-1.609l2.484-3.334c0.087-0.114,0.213-0.213,0.378-0.295c0.166-0.081,0.356-0.122,0.573-0.122h1.583
		L315.22,170.688z M315.623,175.98c0.283,0,0.544-0.048,0.781-0.144c0.237-0.097,0.441-0.23,0.612-0.403s0.304-0.375,0.399-0.608
		s0.145-0.486,0.145-0.76c0-0.297-0.046-0.564-0.138-0.803c-0.09-0.237-0.22-0.439-0.388-0.604c-0.169-0.166-0.37-0.292-0.604-0.378
		c-0.237-0.087-0.495-0.129-0.778-0.129s-0.54,0.048-0.771,0.143c-0.229,0.096-0.426,0.229-0.59,0.399
		c-0.162,0.171-0.291,0.373-0.381,0.606c-0.092,0.231-0.138,0.482-0.138,0.752c0,0.287,0.04,0.551,0.12,0.787
		c0.078,0.238,0.196,0.441,0.352,0.609c0.156,0.168,0.349,0.299,0.58,0.392C315.055,175.933,315.32,175.98,315.623,175.98z"/>
	<path d="M327.806,172.114c0,0.907-0.097,1.696-0.292,2.365c-0.194,0.67-0.464,1.224-0.806,1.659
		c-0.344,0.438-0.749,0.763-1.217,0.977c-0.469,0.213-0.974,0.319-1.517,0.319c-0.541,0-1.045-0.106-1.508-0.319
		c-0.463-0.214-0.866-0.539-1.206-0.977c-0.341-0.436-0.606-0.989-0.799-1.659c-0.192-0.669-0.288-1.458-0.288-2.365
		c0-0.911,0.096-1.701,0.288-2.368c0.192-0.668,0.458-1.22,0.799-1.657c0.34-0.436,0.743-0.762,1.206-0.975s0.967-0.321,1.508-0.321
		c0.543,0,1.048,0.108,1.517,0.321c0.468,0.213,0.873,0.539,1.217,0.975c0.342,0.438,0.611,0.989,0.806,1.657
		C327.709,170.413,327.806,171.203,327.806,172.114z M325.97,172.114c0-0.753-0.056-1.378-0.165-1.872
		c-0.111-0.493-0.26-0.888-0.443-1.181c-0.186-0.293-0.397-0.498-0.638-0.615c-0.24-0.118-0.488-0.177-0.749-0.177
		c-0.254,0-0.5,0.059-0.738,0.177c-0.236,0.117-0.447,0.322-0.629,0.615c-0.183,0.293-0.327,0.688-0.436,1.181
		c-0.108,0.494-0.162,1.119-0.162,1.872c0,0.754,0.054,1.379,0.162,1.872c0.108,0.494,0.253,0.888,0.436,1.181
		c0.182,0.293,0.393,0.498,0.629,0.615c0.238,0.119,0.484,0.178,0.738,0.178c0.261,0,0.509-0.059,0.749-0.178
		c0.24-0.117,0.452-0.322,0.638-0.615c0.184-0.293,0.332-0.687,0.443-1.181C325.914,173.493,325.97,172.868,325.97,172.114z"/>
	<path d="M339.296,175.728v0.987c0,0.177-0.056,0.322-0.172,0.436c-0.115,0.112-0.273,0.169-0.475,0.169h-3.824v-2.189
		c0.332-0.058,0.643-0.188,0.933-0.393c0.29-0.204,0.545-0.462,0.764-0.773c0.218-0.312,0.39-0.669,0.516-1.073
		c0.124-0.403,0.186-0.832,0.186-1.288c0-0.533-0.085-0.997-0.255-1.394c-0.17-0.396-0.401-0.724-0.691-0.982
		c-0.29-0.26-0.63-0.454-1.015-0.584c-0.387-0.129-0.796-0.193-1.228-0.193c-0.434,0-0.841,0.064-1.228,0.193
		c-0.387,0.13-0.725,0.324-1.013,0.584c-0.287,0.259-0.517,0.587-0.687,0.982c-0.172,0.396-0.256,0.86-0.256,1.394
		c0,0.456,0.063,0.885,0.188,1.288c0.124,0.404,0.295,0.762,0.515,1.073c0.218,0.312,0.472,0.569,0.763,0.773
		c0.291,0.205,0.602,0.335,0.933,0.393v2.189h-3.823c-0.202,0-0.36-0.057-0.475-0.169c-0.115-0.113-0.174-0.259-0.174-0.436v-0.987
		h1.657c0.225,0,0.454,0.011,0.69,0.033c0.235,0.021,0.467,0.049,0.698,0.082c-0.428-0.153-0.818-0.367-1.173-0.64
		c-0.356-0.274-0.661-0.596-0.914-0.966c-0.256-0.369-0.453-0.778-0.596-1.228c-0.141-0.448-0.211-0.926-0.211-1.43
		c0-0.691,0.13-1.327,0.392-1.911c0.263-0.583,0.623-1.089,1.084-1.515c0.46-0.428,1.002-0.761,1.623-1.001s1.292-0.361,2.013-0.361
		c0.72,0,1.391,0.121,2.013,0.361c0.621,0.24,1.161,0.573,1.619,1.001c0.458,0.426,0.819,0.932,1.084,1.515
		c0.264,0.584,0.396,1.22,0.396,1.911c0,0.504-0.07,0.981-0.214,1.43c-0.141,0.449-0.34,0.857-0.593,1.224
		c-0.255,0.368-0.56,0.689-0.914,0.966c-0.356,0.275-0.747,0.49-1.174,0.644c0.229-0.033,0.462-0.062,0.694-0.082
		c0.233-0.022,0.462-0.033,0.688-0.033H339.296z"/>
</g>
<line fill="none" stroke="#B87332" stroke-width="2.8347" stroke-miterlimit="10" x1="192.729" y1="226.779" x2="62.042" y2="226.779"/>
<line fill="none" stroke="#B87332" stroke-width="2.8347" stroke-miterlimit="10" x1="238.729" y1="226.779" x2="301.656" y2="226.779"/>
<line fill="none" stroke="#B87332" stroke-width="2.8347" stroke-miterlimit="10" x1="301.657" y1="225.362" x2="301.657" y2="298.661"/>
<rect x="194.618" y="157.935" fill="none" width="25.667" height="21.334"/>
<text transform="matrix(1 0 0 1 203.9712 166.8506)" fill="#FFFFFF" font-family="'Lato-Bold'" font-size="12">1</text>
<rect x="229.468" y="157.935" fill="none" width="25.666" height="21.334"/>
<text transform="matrix(1 0 0 1 238.8213 166.8511)" fill="#FFFFFF" font-family="'Lato-Bold'" font-size="12">2</text>
<rect x="192.729" y="194.275" fill="none" width="25.667" height="21.334"/>
<text transform="matrix(1 0 0 1 202.0825 203.1909)" fill="#FFFFFF" font-family="'Lato-Bold'" font-size="12">3</text>
<rect x="229.467" y="194.275" fill="none" width="25.667" height="21.334"/>
<text transform="matrix(1 0 0 1 238.8203 203.1909)" fill="#FFFFFF" font-family="'Lato-Bold'" font-size="12">4</text>
<rect x="192.729" y="231.41" fill="none" width="25.667" height="21.334"/>
<text transform="matrix(1 0 0 1 202.0825 240.3257)" fill="#FFFFFF" font-family="'Lato-Bold'" font-size="12">5</text>
<rect x="229.949" y="231.41" fill="none" width="25.667" height="21.334"/>
<text transform="matrix(1 0 0 1 239.3027 240.3257)" fill="#FFFFFF" font-family="'Lato-Bold'" font-size="12">6</text>
<rect x="90.388" y="144.786" fill="none" stroke="#000000" stroke-width="2.8347" stroke-miterlimit="10" width="39.699" height="17.035"/>
<rect x="90.388" y="181.882" fill="none" stroke="#000000" stroke-width="2.8347" stroke-miterlimit="10" width="39.699" height="17.035"/>
<rect x="301.656" y="144.786" fill="none" stroke="#000000" stroke-width="2.8347" stroke-miterlimit="10" width="39.699" height="17.035"/>
<rect x="301.656" y="181.882" fill="none" stroke="#000000" stroke-width="2.8347" stroke-miterlimit="10" width="39.699" height="17.035"/>
<g>
	<path d="M137.046,140.7c0.303-0.34,0.646-0.616,1.029-0.827s0.835-0.316,1.354-0.316c0.403,0,0.771,0.083,1.105,0.252
		c0.333,0.167,0.621,0.411,0.864,0.729c0.242,0.32,0.43,0.713,0.562,1.182c0.132,0.468,0.197,1.004,0.197,1.609
		c0,0.552-0.074,1.063-0.223,1.533c-0.149,0.471-0.361,0.878-0.637,1.224c-0.277,0.346-0.61,0.615-1.001,0.81
		c-0.392,0.195-0.83,0.292-1.314,0.292c-0.413,0-0.766-0.063-1.059-0.19s-0.555-0.304-0.785-0.529v3.023h-1.778v-9.799h1.088
		c0.23,0,0.382,0.107,0.453,0.324L137.046,140.7z M137.139,145.165c0.202,0.245,0.422,0.417,0.659,0.518
		c0.237,0.102,0.495,0.151,0.774,0.151c0.269,0,0.511-0.05,0.728-0.151c0.215-0.101,0.399-0.254,0.551-0.46
		c0.15-0.206,0.267-0.467,0.349-0.782c0.082-0.313,0.123-0.684,0.123-1.111c0-0.433-0.035-0.799-0.105-1.099
		c-0.069-0.3-0.169-0.544-0.299-0.731c-0.129-0.186-0.286-0.323-0.471-0.41c-0.186-0.086-0.396-0.129-0.631-0.129
		c-0.369,0-0.684,0.078-0.942,0.233c-0.26,0.156-0.505,0.376-0.735,0.659V145.165z"/>
	<path d="M150.113,145.747v1.333h-5.76v-1.333h2.109v-6.068c0-0.24,0.007-0.488,0.021-0.742l-1.497,1.253
		c-0.086,0.067-0.172,0.108-0.256,0.126c-0.084,0.017-0.163,0.018-0.237,0.004c-0.075-0.016-0.141-0.04-0.198-0.076
		c-0.058-0.035-0.101-0.075-0.13-0.118l-0.562-0.771l3.176-2.7h1.461v9.094H150.113z"/>
</g>
<g>
	<path d="M282.308,140.855c0.303-0.34,0.646-0.617,1.03-0.828c0.383-0.211,0.836-0.316,1.354-0.316c0.403,0,0.771,0.084,1.105,0.252
		s0.622,0.412,0.863,0.73c0.242,0.32,0.43,0.713,0.563,1.182c0.131,0.467,0.197,1.004,0.197,1.608c0,0.552-0.074,1.063-0.223,1.534
		c-0.149,0.47-0.361,0.878-0.638,1.224s-0.609,0.615-1.001,0.81s-0.83,0.292-1.313,0.292c-0.414,0-0.766-0.063-1.059-0.191
		c-0.293-0.126-0.556-0.304-0.785-0.528v3.023h-1.778v-9.799h1.087c0.231,0,0.382,0.107,0.455,0.324L282.308,140.855z
		 M282.401,145.32c0.202,0.244,0.422,0.417,0.659,0.518s0.495,0.151,0.774,0.151c0.269,0,0.511-0.051,0.728-0.151
		c0.216-0.101,0.398-0.254,0.551-0.461c0.15-0.206,0.268-0.466,0.35-0.781c0.08-0.314,0.121-0.685,0.121-1.112
		c0-0.433-0.035-0.798-0.105-1.098c-0.067-0.3-0.168-0.544-0.297-0.731c-0.131-0.187-0.287-0.323-0.472-0.41
		s-0.396-0.129-0.63-0.129c-0.371,0-0.685,0.077-0.943,0.233c-0.26,0.155-0.506,0.376-0.735,0.658V145.32z"/>
	<path d="M294.987,145.579c0.192,0,0.345,0.054,0.457,0.161c0.112,0.108,0.169,0.251,0.169,0.43v1.064h-7.142v-0.59
		c0-0.12,0.024-0.246,0.075-0.378s0.131-0.251,0.241-0.356l3.161-3.168c0.264-0.269,0.5-0.525,0.709-0.771
		c0.208-0.245,0.383-0.487,0.522-0.728c0.138-0.24,0.246-0.482,0.319-0.73c0.074-0.247,0.111-0.508,0.111-0.781
		c0-0.25-0.035-0.469-0.107-0.658c-0.072-0.19-0.174-0.35-0.306-0.479c-0.133-0.129-0.291-0.227-0.475-0.292
		c-0.186-0.064-0.394-0.098-0.624-0.098c-0.211,0-0.406,0.031-0.586,0.091s-0.34,0.144-0.48,0.252
		c-0.138,0.107-0.255,0.234-0.352,0.378c-0.096,0.145-0.168,0.303-0.215,0.475c-0.082,0.222-0.188,0.368-0.318,0.439
		c-0.13,0.073-0.317,0.09-0.561,0.051l-0.937-0.165c0.071-0.499,0.211-0.938,0.418-1.313c0.206-0.378,0.464-0.691,0.773-0.943
		s0.665-0.442,1.065-0.57c0.4-0.126,0.832-0.19,1.293-0.19c0.48,0,0.918,0.071,1.316,0.213s0.74,0.343,1.023,0.602
		c0.282,0.259,0.504,0.57,0.662,0.935c0.159,0.366,0.238,0.771,0.238,1.218c0,0.385-0.058,0.739-0.17,1.065
		c-0.113,0.327-0.264,0.639-0.453,0.937s-0.412,0.586-0.666,0.863c-0.255,0.279-0.521,0.562-0.8,0.85l-2.347,2.397
		c0.225-0.066,0.449-0.118,0.672-0.154c0.225-0.036,0.437-0.054,0.638-0.054H294.987z"/>
</g>
<g>
	<path d="M136.355,178.266c0.302-0.34,0.645-0.616,1.029-0.827c0.384-0.211,0.835-0.316,1.354-0.316
		c0.403,0,0.771,0.083,1.104,0.252c0.334,0.167,0.622,0.411,0.864,0.729c0.242,0.32,0.43,0.713,0.562,1.182
		c0.132,0.468,0.198,1.004,0.198,1.609c0,0.552-0.074,1.063-0.224,1.533c-0.148,0.471-0.36,0.878-0.637,1.224
		s-0.609,0.615-1.001,0.81c-0.391,0.195-0.829,0.292-1.313,0.292c-0.413,0-0.767-0.063-1.059-0.19
		c-0.293-0.127-0.555-0.304-0.785-0.529v3.023h-1.778v-9.799h1.088c0.229,0,0.381,0.107,0.453,0.324L136.355,178.266z
		 M136.448,182.731c0.201,0.245,0.421,0.417,0.659,0.518c0.237,0.102,0.495,0.151,0.774,0.151c0.268,0,0.511-0.05,0.727-0.151
		c0.216-0.101,0.399-0.254,0.551-0.46s0.268-0.467,0.35-0.782c0.081-0.313,0.122-0.684,0.122-1.111c0-0.433-0.035-0.799-0.104-1.099
		s-0.169-0.544-0.299-0.731c-0.13-0.186-0.287-0.323-0.472-0.41c-0.185-0.086-0.395-0.129-0.63-0.129
		c-0.37,0-0.684,0.078-0.943,0.233c-0.259,0.156-0.504,0.376-0.734,0.659V182.731z"/>
	<path d="M142.748,177.136c0.072-0.499,0.211-0.938,0.418-1.313c0.206-0.377,0.464-0.691,0.774-0.943
		c0.309-0.252,0.664-0.441,1.064-0.569c0.401-0.127,0.832-0.191,1.293-0.191c0.479,0,0.913,0.069,1.3,0.206
		c0.386,0.137,0.717,0.326,0.99,0.568c0.273,0.243,0.483,0.527,0.63,0.854c0.146,0.327,0.22,0.68,0.22,1.059
		c0,0.331-0.038,0.623-0.112,0.875s-0.181,0.471-0.32,0.658c-0.139,0.188-0.312,0.346-0.518,0.475
		c-0.207,0.131-0.439,0.238-0.699,0.325c0.624,0.196,1.09,0.497,1.397,0.899c0.307,0.403,0.46,0.91,0.46,1.52
		c0,0.519-0.096,0.977-0.288,1.375c-0.191,0.398-0.451,0.732-0.777,1.005c-0.326,0.271-0.704,0.476-1.134,0.615
		s-0.884,0.208-1.364,0.208c-0.523,0-0.979-0.06-1.368-0.179c-0.389-0.121-0.727-0.298-1.016-0.533
		c-0.287-0.235-0.532-0.522-0.733-0.864c-0.202-0.341-0.375-0.734-0.519-1.181l0.784-0.323c0.207-0.087,0.399-0.109,0.58-0.069
		c0.18,0.041,0.311,0.138,0.392,0.292c0.087,0.168,0.182,0.334,0.285,0.496c0.104,0.163,0.227,0.309,0.37,0.437
		c0.145,0.126,0.313,0.229,0.508,0.31c0.195,0.079,0.427,0.118,0.695,0.118c0.303,0,0.566-0.05,0.792-0.147
		c0.226-0.099,0.414-0.227,0.565-0.385c0.15-0.158,0.264-0.335,0.338-0.529c0.074-0.195,0.111-0.391,0.111-0.588
		c0-0.249-0.026-0.476-0.079-0.68c-0.053-0.203-0.163-0.378-0.331-0.522c-0.168-0.144-0.409-0.257-0.724-0.337
		c-0.314-0.082-0.735-0.123-1.264-0.123v-1.268c0.437-0.004,0.8-0.045,1.087-0.123c0.288-0.076,0.518-0.183,0.688-0.319
		c0.17-0.138,0.288-0.302,0.355-0.493c0.067-0.192,0.102-0.403,0.102-0.635c0-0.488-0.137-0.861-0.41-1.115
		c-0.274-0.254-0.639-0.382-1.095-0.382c-0.212,0-0.405,0.03-0.583,0.09s-0.338,0.145-0.479,0.252
		c-0.143,0.108-0.261,0.234-0.357,0.379c-0.096,0.144-0.168,0.302-0.216,0.475c-0.082,0.222-0.188,0.368-0.32,0.439
		c-0.132,0.072-0.318,0.089-0.558,0.05L142.748,177.136z"/>
</g>
<g>
	<path d="M281.463,178.167c0.303-0.34,0.646-0.616,1.03-0.827c0.383-0.211,0.834-0.316,1.353-0.316c0.402,0,0.771,0.083,1.105,0.252
		c0.333,0.168,0.621,0.411,0.864,0.73c0.242,0.319,0.43,0.712,0.562,1.181c0.131,0.468,0.197,1.005,0.197,1.609
		c0,0.552-0.073,1.063-0.224,1.534c-0.147,0.47-0.36,0.877-0.636,1.223c-0.277,0.346-0.611,0.615-1.001,0.811
		c-0.392,0.194-0.83,0.291-1.313,0.291c-0.414,0-0.767-0.063-1.06-0.19c-0.293-0.127-0.555-0.304-0.785-0.528v3.023h-1.778v-9.8
		h1.088c0.23,0,0.381,0.108,0.453,0.325L281.463,178.167z M281.556,182.632c0.201,0.245,0.422,0.417,0.659,0.519
		c0.238,0.101,0.496,0.15,0.775,0.15c0.267,0,0.511-0.05,0.727-0.15c0.215-0.102,0.399-0.255,0.551-0.461
		c0.15-0.206,0.267-0.467,0.349-0.781s0.122-0.685,0.122-1.112c0-0.433-0.035-0.798-0.104-1.099c-0.069-0.3-0.169-0.543-0.299-0.73
		c-0.129-0.187-0.286-0.324-0.471-0.41c-0.186-0.087-0.396-0.129-0.631-0.129c-0.37,0-0.685,0.077-0.942,0.232
		c-0.26,0.156-0.505,0.377-0.735,0.659V182.632z"/>
	<path d="M295.063,180.624v1.029c0,0.096-0.03,0.18-0.093,0.248c-0.062,0.07-0.151,0.104-0.266,0.104h-0.952v2.542h-1.547v-2.542
		h-4.392c-0.12,0-0.227-0.037-0.316-0.111c-0.092-0.075-0.15-0.166-0.174-0.277l-0.188-0.9l4.933-6.587h1.684v6.494H295.063z
		 M292.205,180.624v-3.406c0-0.321,0.021-0.676,0.064-1.065l-3.232,4.472H292.205z"/>
</g>
<line fill="none" stroke="#B87332" stroke-width="2.8347" stroke-miterlimit="10" x1="301.657" y1="292.171" x2="301.657" y2="308.044"/>
<line fill="none" stroke="#000000" stroke-width="4.252" stroke-miterlimit="10" x1="313.97" y1="318.867" x2="289.345" y2="318.867"/>
<line fill="none" stroke="#000000" stroke-width="2.8347" stroke-miterlimit="10" x1="301.657" y1="304.784" x2="301.657" y2="318.867"/>
<g id="symbol_x5F_4">
</g>
<path fill="#ED1F24" stroke="#000000" stroke-width="2.8347" stroke-miterlimit="10" d="M58.893,207.289
	c0,0.582,0.118,1.135,0.331,1.639c0.639,1.512,2.135,2.572,3.879,2.572c2.325,0,4.21-1.885,4.21-4.211
	c0-2.324-1.885-4.209-4.21-4.209S58.893,204.964,58.893,207.289z"/>
<line fill="none" stroke="#000000" stroke-width="2.8347" stroke-miterlimit="10" x1="63.103" y1="228.181" x2="63.103" y2="211.55"/>
<g>
	<path d="M7.021,207.23H4.227v2.967H2.78v-2.967H0v-1.317H2.78v-2.952h1.447v2.952h2.794V207.23z"/>
	<path d="M10.606,204.775c0.23-0.049,0.451-0.082,0.663-0.104c0.211-0.021,0.415-0.032,0.612-0.032c0.547,0,1.029,0.081,1.447,0.245
		c0.417,0.163,0.768,0.388,1.051,0.677c0.283,0.288,0.497,0.625,0.641,1.011c0.145,0.387,0.216,0.803,0.216,1.249
		c0,0.553-0.097,1.057-0.292,1.514c-0.194,0.455-0.464,0.845-0.81,1.169c-0.346,0.323-0.755,0.574-1.228,0.753
		c-0.473,0.177-0.987,0.266-1.544,0.266c-0.327,0-0.636-0.033-0.929-0.101s-0.567-0.157-0.824-0.27
		c-0.258-0.112-0.494-0.243-0.714-0.39c-0.218-0.146-0.413-0.301-0.586-0.464l0.546-0.756c0.116-0.163,0.268-0.245,0.455-0.245
		c0.119,0,0.241,0.039,0.367,0.115c0.124,0.077,0.267,0.16,0.428,0.252s0.35,0.176,0.569,0.252c0.218,0.077,0.48,0.115,0.788,0.115
		c0.326,0,0.614-0.053,0.864-0.158c0.249-0.105,0.457-0.254,0.622-0.443c0.166-0.188,0.291-0.415,0.375-0.676
		c0.083-0.262,0.125-0.547,0.125-0.854c0-0.566-0.164-1.009-0.493-1.329c-0.328-0.318-0.814-0.478-1.458-0.478
		c-0.494,0-1,0.091-1.519,0.272l-1.108-0.316l0.863-5.054h5.142v0.756c0,0.254-0.08,0.46-0.238,0.618s-0.428,0.238-0.806,0.238
		h-2.858L10.606,204.775z"/>
	<path d="M26.116,200.996l-4.205,10.41h-1.749l-4.206-10.41h1.557c0.167,0,0.305,0.041,0.41,0.121
		c0.105,0.082,0.184,0.188,0.236,0.318l2.456,6.35c0.081,0.207,0.159,0.433,0.233,0.68c0.075,0.248,0.146,0.506,0.213,0.775
		c0.058-0.27,0.12-0.527,0.187-0.775c0.068-0.247,0.142-0.473,0.224-0.68l2.441-6.35c0.037-0.111,0.113-0.213,0.227-0.303
		c0.112-0.092,0.25-0.137,0.413-0.137H26.116z"/>
	<path d="M31.069,206.892c0,0.989,0.121,1.961,0.361,2.916c0.239,0.955,0.582,1.853,1.029,2.692
		c0.048,0.097,0.076,0.181,0.083,0.256c0.007,0.073,0.001,0.14-0.019,0.194s-0.05,0.104-0.09,0.145
		c-0.041,0.041-0.085,0.074-0.133,0.104l-0.793,0.483c-0.354-0.548-0.657-1.097-0.906-1.649c-0.25-0.553-0.454-1.109-0.612-1.671
		s-0.275-1.13-0.349-1.706c-0.075-0.576-0.111-1.164-0.111-1.764s0.036-1.189,0.111-1.769c0.073-0.577,0.19-1.148,0.349-1.71
		c0.158-0.561,0.362-1.116,0.612-1.666c0.249-0.55,0.552-1.098,0.906-1.646l0.793,0.475c0.048,0.029,0.092,0.064,0.133,0.105
		c0.04,0.04,0.07,0.088,0.09,0.144s0.025,0.12,0.019,0.194c-0.007,0.075-0.035,0.163-0.083,0.264
		c-0.447,0.834-0.79,1.73-1.029,2.688C31.19,204.929,31.069,205.903,31.069,206.892z"/>
	<path d="M38.082,205.458c-0.048,0.078-0.099,0.132-0.151,0.162c-0.053,0.031-0.12,0.047-0.201,0.047
		c-0.087,0-0.18-0.023-0.277-0.071c-0.099-0.048-0.213-0.103-0.343-0.162c-0.129-0.061-0.276-0.114-0.442-0.163
		c-0.166-0.048-0.361-0.071-0.586-0.071c-0.351,0-0.626,0.074-0.825,0.223c-0.199,0.149-0.299,0.344-0.299,0.584
		c0,0.158,0.052,0.292,0.154,0.399c0.104,0.107,0.24,0.203,0.411,0.285c0.17,0.08,0.363,0.154,0.579,0.219s0.437,0.136,0.659,0.212
		c0.224,0.077,0.442,0.165,0.658,0.264c0.217,0.099,0.41,0.223,0.58,0.374s0.307,0.333,0.41,0.544s0.154,0.465,0.154,0.763
		c0,0.355-0.063,0.684-0.189,0.983c-0.128,0.3-0.316,0.559-0.566,0.776c-0.249,0.22-0.558,0.39-0.924,0.513
		c-0.368,0.122-0.791,0.183-1.271,0.183c-0.255,0-0.503-0.022-0.746-0.068c-0.241-0.045-0.475-0.108-0.698-0.19
		c-0.223-0.081-0.429-0.177-0.618-0.288c-0.19-0.11-0.356-0.23-0.501-0.36l0.41-0.676c0.053-0.082,0.116-0.145,0.188-0.188
		c0.071-0.044,0.163-0.064,0.273-0.064c0.111,0,0.216,0.03,0.313,0.093c0.099,0.063,0.213,0.13,0.343,0.201
		c0.129,0.072,0.281,0.14,0.457,0.203c0.175,0.062,0.397,0.092,0.665,0.092c0.211,0,0.393-0.024,0.544-0.074
		c0.151-0.051,0.275-0.116,0.374-0.198s0.171-0.177,0.217-0.285c0.046-0.107,0.068-0.219,0.068-0.334
		c0-0.173-0.052-0.315-0.155-0.425c-0.103-0.11-0.24-0.207-0.41-0.289c-0.171-0.08-0.365-0.154-0.583-0.219
		c-0.219-0.064-0.442-0.136-0.67-0.212c-0.229-0.077-0.451-0.168-0.67-0.271c-0.218-0.104-0.412-0.233-0.582-0.393
		c-0.172-0.158-0.308-0.354-0.412-0.583c-0.103-0.23-0.154-0.509-0.154-0.835c0-0.303,0.061-0.591,0.181-0.864
		c0.119-0.274,0.296-0.512,0.529-0.717c0.232-0.204,0.522-0.367,0.871-0.489c0.348-0.123,0.75-0.184,1.206-0.184
		c0.508,0,0.973,0.084,1.39,0.252s0.765,0.389,1.044,0.662L38.082,205.458z"/>
	<path d="M50.452,204.019l-2.347,7.387h-1.427c-0.162,0-0.276-0.105-0.338-0.316l-1.324-4.27c-0.044-0.145-0.084-0.286-0.12-0.428
		c-0.035-0.143-0.065-0.285-0.089-0.43c-0.029,0.145-0.063,0.29-0.098,0.437c-0.036,0.146-0.076,0.292-0.119,0.436l-1.347,4.255
		c-0.058,0.211-0.184,0.316-0.381,0.316h-1.368l-2.34-7.387h1.418c0.131,0,0.24,0.031,0.332,0.094
		c0.09,0.062,0.151,0.142,0.18,0.237l1.058,3.946c0.053,0.215,0.1,0.426,0.141,0.633s0.076,0.413,0.104,0.619
		c0.053-0.206,0.109-0.412,0.17-0.619c0.06-0.207,0.123-0.418,0.189-0.633l1.225-3.96c0.029-0.097,0.086-0.176,0.169-0.238
		c0.085-0.062,0.187-0.094,0.306-0.094h0.785c0.126,0,0.232,0.032,0.321,0.094c0.088,0.063,0.146,0.142,0.176,0.238l1.188,3.96
		c0.063,0.215,0.121,0.428,0.176,0.637s0.109,0.416,0.163,0.623c0.062-0.408,0.151-0.829,0.266-1.26l1.088-3.946
		c0.032-0.096,0.094-0.176,0.179-0.237c0.087-0.063,0.19-0.094,0.31-0.094H50.452z"/>
	<path d="M52.202,206.892c0-0.989-0.119-1.963-0.357-2.92c-0.236-0.958-0.579-1.854-1.025-2.688
		c-0.053-0.101-0.083-0.188-0.09-0.264c-0.008-0.074-0.002-0.139,0.018-0.194s0.049-0.104,0.09-0.144
		c0.041-0.041,0.088-0.076,0.141-0.105l0.792-0.475c0.355,0.548,0.657,1.096,0.907,1.646s0.453,1.105,0.611,1.666
		c0.158,0.562,0.274,1.133,0.346,1.71c0.073,0.579,0.108,1.169,0.108,1.769s-0.035,1.188-0.108,1.764
		c-0.071,0.576-0.188,1.145-0.346,1.706s-0.361,1.118-0.611,1.671s-0.552,1.102-0.907,1.649l-0.792-0.483
		c-0.053-0.029-0.1-0.063-0.141-0.104s-0.07-0.09-0.09-0.145s-0.025-0.121-0.018-0.194c0.007-0.075,0.037-0.159,0.09-0.256
		c0.446-0.84,0.789-1.737,1.025-2.692C52.083,208.853,52.202,207.881,52.202,206.892z"/>
</g>
</svg>
