<svg enable-background="new 0 0 411 218.597" height="218.597" viewBox="0 0 411 218.597" width="411" xmlns="http://www.w3.org/2000/svg" xmlns:xlink="http://www.w3.org/1999/xlink"><path d="m174.637 45.294h193.331" fill="none" stroke="#b87332" stroke-miterlimit="10" stroke-width="2.8347"/><path d="m368.014 211.084v-205.068" fill="none" stroke="#000" stroke-miterlimit="10" stroke-width="2.8347"/><path d="m367.968 7.271h35.275" fill="none" stroke="#000" stroke-miterlimit="10" stroke-width="2.8347"/><path d="m57.607 62.825c3.199 0 5.799-2.597 5.799-5.795v-24.604c0-3.199-2.6-5.799-5.799-5.799h-24.603c-3.199 0-5.789 2.6-5.789 5.799v24.604c0 3.198 2.59 5.795 5.789 5.795z"/><path d="m57.607 99.563c3.199 0 5.799-2.598 5.799-5.795v-24.606c0-3.199-2.6-5.797-5.799-5.797h-24.603c-3.199 0-5.789 2.598-5.789 5.797v24.605c0 3.197 2.59 5.795 5.789 5.795h24.603z"/><path d="m57.607 136.302c3.199 0 5.799-2.597 5.799-5.798v-24.604c0-3.201-2.6-5.798-5.799-5.798h-24.603c-3.199 0-5.789 2.597-5.789 5.798v24.604c0 3.201 2.59 5.798 5.789 5.798z"/><path d="m40.68 40.092h9.262v9.263h-9.262z" fill="#c3996c"/><path d="m40.68 113.715h9.262v9.263h-9.262z" fill="#c3996c"/><path d="m367.968 209.937h35.273" fill="none" stroke="#000" stroke-miterlimit="10" stroke-width="2.8347"/><path d="m393.546 66.223c-.119-.072-.209-.15-.27-.234-.06-.084-.09-.187-.09-.306 0-.137.068-.297.204-.48s.286-.414.45-.689c.164-.276.313-.608.449-.996.137-.389.205-.858.205-1.41 0-.521-.07-.979-.211-1.374-.14-.396-.33-.729-.57-.996-.239-.269-.521-.47-.846-.606-.324-.136-.674-.204-1.05-.204-.479 0-.878.118-1.194.354-.315.235-.586.548-.81.936-.224.389-.418.828-.582 1.32s-.334.996-.51 1.512c-.177.517-.374 1.021-.595 1.513-.219.491-.498.932-.834 1.319-.336.389-.748.7-1.235.937-.488.235-1.088.354-1.8.354-.752 0-1.458-.128-2.118-.384s-1.234-.63-1.722-1.122-.873-1.096-1.152-1.812c-.279-.717-.42-1.53-.42-2.442 0-1.12.201-2.136.605-3.048s.95-1.692 1.639-2.34l1.104.672c.088.063.162.142.223.234.06.092.09.193.09.306 0 .104-.043.222-.127.354-.084.133-.189.282-.317.45s-.269.36-.42.576-.292.462-.42.738c-.128.275-.233.59-.317.941-.084.353-.127.748-.127 1.188 0 .552.076 1.044.229 1.476.152.433.365.798.642 1.099.276.3.606.529.99.689s.812.24 1.284.24c.52 0 .945-.118 1.277-.354.332-.235.61-.546.834-.93.225-.384.414-.824.57-1.32s.316-1 .48-1.512.354-1.016.57-1.512c.215-.496.495-.937.84-1.32.344-.384.773-.694 1.289-.93.517-.236 1.154-.354 1.914-.354.608 0 1.196.118 1.764.354.568.235 1.072.58 1.513 1.032.44.451.792 1.008 1.056 1.668.264.659.396 1.418.396 2.273 0 .96-.152 1.834-.456 2.622s-.744 1.482-1.32 2.082z"/><path d="m394.278 82.074v-5.568h-15.24v-2.316h15.24v-5.58h1.956v13.464z"/><path d="m396.234 102.51h-17.196v-2.04h12.637c.168 0 .348.007.539.019.193.012.389.025.589.042l-10.752-5.904c-.36-.184-.54-.464-.54-.84v-.337c0-.376.18-.656.54-.84l10.8-6.024c-.424.048-.816.072-1.176.072h-12.637v-2.04h17.196v1.716c0 .208-.021.368-.06.48-.041.111-.152.22-.336.323l-10.584 5.94c-.192.096-.393.189-.6.282-.209.092-.421.178-.637.258.216.08.43.164.643.252.211.088.414.184.605.288l10.572 5.832c.184.096.295.202.336.318.039.115.06.277.06.485v1.718z"/><path d="m391.579 106.266c.783.112 1.478.328 2.082.648s1.109.726 1.518 1.218c.408.493.718 1.058.93 1.692.212.637.318 1.322.318 2.059 0 .729-.104 1.4-.313 2.016-.208.615-.504 1.146-.888 1.59s-.849.791-1.392 1.039c-.545.248-1.148.371-1.813.371-.544 0-1.029-.07-1.458-.209-.428-.141-.802-.342-1.122-.602s-.592-.574-.816-.941-.407-.779-.551-1.236c-.289 1.121-.783 1.963-1.482 2.527-.7.563-1.574.846-2.622.846-.792 0-1.505-.15-2.136-.451-.633-.299-1.17-.709-1.614-1.229-.444-.521-.784-1.127-1.021-1.818-.235-.693-.354-1.436-.354-2.227 0-.912.113-1.691.342-2.34s.542-1.196.941-1.645c.4-.448.875-.816 1.423-1.104s1.142-.532 1.782-.731l.384.924c.104.24.132.474.084.702s-.181.394-.396.498c-.225.104-.492.233-.805.39s-.611.371-.9.643c-.287.271-.531.617-.731 1.037-.2.422-.3.955-.3 1.604 0 .6.098 1.125.293 1.578.197.451.451.828.763 1.127.312.301.66.525 1.044.678.385.152.764.229 1.141.229.463 0 .887-.061 1.271-.18.384-.121.716-.344.996-.672.279-.328.5-.779.66-1.35.16-.572.24-1.307.24-2.203h1.547c.008.736.088 1.363.24 1.879s.36.936.625 1.26c.264.324.579.559.947.707s.775.223 1.225.223c.496 0 .928-.078 1.295-.234.369-.156.672-.369.912-.643.24-.271.42-.594.541-.965.119-.373.18-.773.18-1.207 0-.432-.064-.834-.192-1.205-.128-.373-.306-.701-.534-.984s-.498-.521-.81-.713c-.312-.193-.656-.328-1.032-.408-.279-.105-.466-.235-.559-.392-.092-.155-.117-.382-.077-.678z"/><path d="m381.066 130.471c0 .232-.067.416-.204.553-.136.135-.312.203-.527.203h-1.297v-11.473h.732c.152 0 .309.033.469.096.159.064.307.164.443.301l5.531 5.508c.465.457.91.873 1.339 1.248.428.377.858.695 1.29.961.432.264.869.467 1.314.611.443.145.918.217 1.422.217s.945-.08 1.326-.24c.379-.16.693-.379.941-.654s.434-.602.559-.979c.123-.375.186-.779.186-1.211 0-.441-.064-.846-.192-1.213s-.306-.693-.534-.979c-.228-.283-.498-.521-.81-.713-.312-.193-.656-.328-1.032-.408-.279-.096-.466-.227-.559-.391-.092-.164-.117-.395-.077-.689l.192-1.117c.783.113 1.478.33 2.082.654s1.109.732 1.518 1.225.718 1.055.93 1.686c.212.633.318 1.316.318 2.053 0 .729-.108 1.408-.324 2.039-.216.633-.529 1.18-.941 1.645s-.914.828-1.506 1.092c-.593.264-1.265.396-2.017.396-.64 0-1.234-.096-1.782-.289-.548-.191-1.07-.451-1.566-.779s-.979-.705-1.451-1.135c-.473-.428-.948-.881-1.428-1.361l-4.633-4.535c.088.318.158.643.211.971.051.328.077.645.077.949z"/><path d="m394.339 137.07h-6.012v7.068h-1.896v-7.068h-7.393v-2.328h17.196v10.596h-1.896v-8.268z"/><path d="m385.243 159.355h-1.225c-.128 0-.236-.039-.324-.115s-.132-.193-.132-.354v-2.137h-4.524v-1.871h4.524v-7.633c0-.16.046-.297.138-.414.092-.115.206-.189.342-.221l1.093-.217 11.1 8.363v1.992h-10.991v2.607zm0-4.476h7.092c.207 0 .436.008.684.023s.5.041.756.072l-8.531-6.264v6.169z"/><path d="m134.299 45.792h-84.357" fill="none" stroke="#b87332" stroke-miterlimit="10" stroke-width="2.8347"/><path d="m188.71 81.758h-139.682" fill="none" stroke="#b87332" stroke-miterlimit="10" stroke-width="2.8347"/><path d="m134.937 36.56h39.699v17.035h-39.699z" fill="none" stroke="#000" stroke-miterlimit="10" stroke-width="2.8347"/><path d="m72.786 89.374c.192-.04.376-.068.552-.087.176-.018.346-.026.51-.026.456 0 .858.067 1.206.204.348.136.64.323.876.563s.414.521.534.843.18.669.18 1.041c0 .46-.081.88-.243 1.261-.162.38-.387.704-.675.975-.288.27-.629.479-1.023.627-.394.147-.823.222-1.287.222-.272 0-.53-.027-.774-.084-.244-.056-.473-.131-.687-.225s-.412-.202-.594-.324-.345-.251-.489-.387l.456-.63c.096-.136.222-.204.378-.204.1 0 .202.032.306.096s.223.134.357.21.292.146.474.21.401.096.657.096c.272 0 .512-.044.72-.132s.381-.211.519-.369c.138-.157.242-.346.312-.563.07-.218.105-.455.105-.711 0-.472-.137-.841-.411-1.107s-.679-.398-1.215-.398c-.412 0-.834.076-1.266.228l-.924-.264.72-4.212h4.284v.63c0 .212-.066.384-.198.516s-.356.198-.672.198h-2.382z"/><path d="m85.71 86.225-3.504 8.675h-1.458l-3.504-8.676h1.296c.14 0 .254.034.342.102s.154.156.198.265l2.046 5.292c.068.172.133.36.195.566s.121.421.177.646c.048-.225.1-.439.156-.646.056-.206.118-.395.186-.566l2.034-5.292c.032-.093.095-.177.189-.252.094-.076.209-.114.345-.114z"/><path d="m89.88 94.918c-.068.185-.177.322-.327.414-.15.093-.303.139-.459.139h-.63l3.504-8.964c.064-.168.162-.298.294-.388s.286-.135.462-.135h.636z"/><path d="m99.756 89.374-.3.372c.168-.084.349-.148.543-.194s.403-.069.627-.069c.328 0 .647.054.957.162.31.107.583.271.819.489s.426.488.57.813.216.702.216 1.134c0 .404-.074.783-.222 1.138-.148.354-.356.663-.624.927s-.591.472-.969.624c-.378.151-.795.228-1.251.228-.464 0-.88-.074-1.248-.222s-.682-.354-.942-.621c-.26-.266-.459-.586-.597-.96s-.207-.789-.207-1.245c0-.408.083-.827.249-1.257s.423-.877.771-1.341l2.07-2.778c.072-.096.177-.178.315-.246.138-.067.297-.102.477-.102h1.32zm.336 4.41c.236 0 .453-.04.651-.12s.368-.191.51-.336c.142-.144.253-.313.333-.507s.12-.405.12-.633c0-.248-.038-.471-.114-.669s-.184-.366-.324-.504c-.14-.139-.308-.243-.504-.315s-.412-.107-.648-.107-.45.04-.642.119c-.192.08-.356.191-.492.333-.136.143-.242.311-.318.505-.076.193-.114.402-.114.627 0 .239.033.459.099.656.066.198.164.367.294.508.13.14.291.249.483.326.192.078.414.117.666.117z"/><path d="m111.984 86.225-3.504 8.675h-1.458l-3.504-8.676h1.296c.14 0 .254.034.342.102s.154.156.198.265l2.046 5.292c.068.172.133.36.195.566s.121.421.177.646c.048-.225.1-.439.156-.646.056-.206.118-.395.186-.566l2.034-5.292c.032-.093.095-.177.189-.252.094-.076.209-.114.345-.114z"/><path d="m116.154 94.918c-.068.185-.177.322-.327.414-.15.093-.303.139-.459.139h-.63l3.504-8.964c.064-.168.162-.298.294-.388s.286-.135.462-.135h.636z"/><path d="m129.45 86.225v.642c0 .192-.02.348-.06.465-.04.118-.08.218-.12.297l-3.288 6.769c-.068.14-.164.259-.288.356-.124.099-.29.147-.498.147h-1.074l3.354-6.63c.076-.136.151-.261.225-.375s.157-.223.249-.327h-4.152c-.092 0-.172-.034-.24-.102s-.102-.148-.102-.24v-1.002z"/><path d="m130.374 94.084c0-.123.023-.241.069-.354s.109-.208.189-.288.176-.144.288-.192.232-.071.36-.071.247.023.357.071c.11.049.206.112.288.192s.147.176.195.288.072.23.072.354c0 .129-.024.247-.072.357s-.113.205-.195.285-.178.143-.288.188c-.11.046-.229.069-.357.069s-.248-.023-.36-.069-.208-.108-.288-.188-.143-.175-.189-.285-.069-.228-.069-.357z"/><path d="m139.361 91.631v.857c0 .08-.026.149-.078.207-.052.059-.126.087-.222.087h-.792v2.118h-1.29v-2.118h-3.66c-.1 0-.188-.031-.264-.093-.076-.063-.124-.139-.144-.231l-.156-.75 4.11-5.489h1.404v5.412zm-2.382 0v-2.839c0-.268.018-.563.054-.888l-2.694 3.727z"/><path d="m148.067 86.225-3.504 8.676h-1.458l-3.504-8.676h1.296c.14 0 .254.034.342.102s.154.156.198.265l2.046 5.292c.068.172.133.36.195.566s.121.421.177.646c.048-.225.1-.439.156-.646.056-.206.118-.395.186-.566l2.034-5.292c.032-.093.095-.177.189-.252.094-.076.209-.114.345-.114h1.302z"/><path d="m152.238 94.918c-.068.185-.177.322-.327.414-.15.093-.303.139-.459.139h-.63l3.504-8.964c.064-.168.162-.298.294-.388s.286-.135.462-.135h.636z"/><path d="m163.925 90.376c.528.173.918.436 1.17.789.252.354.378.787.378 1.3 0 .384-.073.731-.219 1.044-.146.312-.351.578-.615.798s-.581.39-.951.51-.779.18-1.227.18-.857-.06-1.227-.18-.687-.29-.951-.51-.469-.486-.615-.798c-.146-.313-.219-.66-.219-1.044 0-.513.126-.945.378-1.3.252-.354.642-.616 1.17-.789-.42-.176-.735-.426-.945-.75-.21-.323-.315-.714-.315-1.17 0-.327.067-.634.201-.918.134-.283.321-.53.561-.74.24-.211.527-.374.861-.492s.701-.178 1.101-.178.767.06 1.101.178.621.281.861.492c.24.21.427.457.561.74.134.284.201.591.201.918 0 .456-.105.847-.315 1.17-.209.324-.525.574-.945.75zm-1.464 3.463c.244 0 .458-.035.642-.105s.339-.167.465-.291.221-.271.285-.444c.064-.172.096-.357.096-.558 0-.476-.132-.836-.396-1.08s-.628-.366-1.092-.366-.828.122-1.092.366-.396.604-.396 1.08c0 .2.032.386.096.558.064.173.159.32.285.444s.281.221.465.291.398.105.642.105zm0-6.595c-.22 0-.41.034-.57.103-.16.067-.293.159-.399.272-.106.114-.184.245-.234.394-.05.147-.075.304-.075.468 0 .172.021.339.063.501s.113.306.213.432.232.228.396.304c.164.075.366.113.606.113s.442-.038.606-.113c.164-.076.296-.178.396-.304s.171-.27.213-.432.063-.329.063-.501c0-.164-.026-.32-.078-.468s-.13-.279-.234-.394c-.104-.113-.236-.205-.396-.272-.159-.069-.35-.103-.57-.103z"/><path d="m166.458 94.084c0-.123.023-.241.069-.354s.109-.208.189-.288.176-.144.288-.192.232-.071.36-.071.247.023.357.071c.11.049.206.112.288.192s.147.176.195.288.072.23.072.354c0 .129-.024.247-.072.357s-.113.205-.195.285-.178.143-.288.188c-.11.046-.229.069-.357.069s-.248-.023-.36-.069-.208-.108-.288-.188-.143-.175-.189-.285-.069-.228-.069-.357z"/><path d="m171.923 89.374-.3.372c.168-.084.349-.148.543-.194s.403-.069.627-.069c.328 0 .647.054.957.162.31.107.583.271.819.489s.426.488.57.813.216.702.216 1.134c0 .404-.074.783-.222 1.138-.148.354-.356.663-.624.927s-.591.472-.969.624c-.378.151-.795.228-1.251.228-.464 0-.88-.074-1.248-.222s-.682-.354-.942-.621c-.26-.266-.459-.586-.597-.96s-.207-.789-.207-1.245c0-.408.083-.827.249-1.257s.423-.877.771-1.341l2.07-2.778c.072-.096.177-.178.315-.246.138-.067.297-.102.477-.102h1.32zm.336 4.41c.236 0 .453-.04.651-.12s.368-.191.51-.336c.142-.144.253-.313.333-.507s.12-.405.12-.633c0-.248-.038-.471-.114-.669s-.184-.366-.324-.504c-.14-.139-.308-.243-.504-.315s-.412-.107-.648-.107-.45.04-.642.119c-.192.08-.356.191-.492.333-.136.143-.242.311-.318.505-.076.193-.114.402-.114.627 0 .239.033.459.099.656.066.198.164.367.294.508.13.14.291.249.483.326.192.078.414.117.666.117z"/><path d="m184.151 86.225-3.504 8.676h-1.458l-3.504-8.676h1.296c.14 0 .254.034.342.102s.154.156.198.265l2.046 5.292c.068.172.133.36.195.566s.121.421.177.646c.048-.225.1-.439.156-.646.056-.206.118-.395.186-.566l2.034-5.292c.032-.093.095-.177.189-.252.094-.076.209-.114.345-.114h1.302z"/><path d="m131.625 118.346h-81.797" fill="none" stroke="#b87332" stroke-miterlimit="10" stroke-width="2.8347"/><path d="m130.147 118.346v23.63" fill="none" stroke="#b87332" stroke-miterlimit="10" stroke-width="2.8347"/><path d="m136.122 25.521c.071-.499.211-.938.418-1.313.206-.377.464-.691.773-.943s.665-.441 1.065-.569c.4-.127.832-.191 1.293-.191.48 0 .914.069 1.299.207.386.136.717.325.99.568.274.242.483.527.631.853.146.327.219.68.219 1.059 0 .331-.037.623-.111.875s-.182.472-.32.659-.313.346-.519.475c-.206.13-.439.237-.698.324.623.197 1.09.497 1.396.9.308.402.461.909.461 1.519 0 .519-.096.978-.288 1.376-.191.398-.451.732-.777 1.004-.327.271-.705.476-1.134.615-.43.14-.884.209-1.364.209-.524 0-.979-.061-1.369-.18-.389-.121-.727-.298-1.015-.533s-.532-.522-.733-.863c-.202-.342-.375-.735-.52-1.182l.784-.323c.207-.087.4-.109.581-.069.18.041.31.139.392.292.087.169.181.334.285.497.103.162.226.308.37.436.144.127.313.229.507.31.195.079.427.118.696.118.303 0 .565-.049.791-.147.227-.099.414-.227.566-.385.149-.158.263-.335.337-.529.075-.194.113-.391.113-.587 0-.25-.027-.477-.08-.68-.054-.204-.164-.379-.332-.523-.167-.144-.408-.256-.723-.337-.314-.082-.736-.123-1.264-.123v-1.27c.437-.005.8-.046 1.087-.123.288-.076.517-.184.688-.32s.288-.301.356-.493.101-.403.101-.634c0-.489-.136-.861-.41-1.116-.274-.254-.639-.382-1.095-.382-.211 0-.405.03-.583.09-.177.061-.338.145-.479.252-.142.108-.26.234-.356.379s-.168.303-.215.475c-.082.222-.19.368-.321.439-.133.072-.319.089-.558.051z"/><path d="m144.474 25.521c.073-.499.211-.938.417-1.313.207-.377.465-.691.775-.943.309-.252.664-.441 1.064-.569.401-.127.832-.191 1.293-.191.479 0 .913.069 1.3.207.387.136.717.325.99.568.272.242.483.527.629.853.147.327.221.68.221 1.059 0 .331-.038.623-.112.875s-.181.472-.32.659-.312.346-.518.475c-.208.13-.439.237-.699.324.625.197 1.089.497 1.397.9.307.402.46.909.46 1.519 0 .519-.096.978-.288 1.376s-.451.732-.778 1.004c-.325.271-.703.476-1.133.615s-.885.209-1.365.209c-.522 0-.979-.061-1.366-.18-.39-.121-.728-.298-1.017-.533-.287-.235-.533-.522-.734-.863-.201-.342-.374-.735-.518-1.182l.785-.323c.206-.087.398-.109.578-.069.181.041.313.139.393.292.087.169.182.334.285.497.104.162.228.308.37.436.145.127.314.229.509.31.194.079.426.118.693.118.303 0 .567-.049.793-.147.225-.099.414-.227.564-.385.152-.158.265-.335.339-.529.073-.194.111-.391.111-.587 0-.25-.026-.477-.079-.68-.053-.204-.162-.379-.331-.523-.168-.144-.409-.256-.724-.337-.314-.082-.735-.123-1.264-.123v-1.27c.437-.005.799-.046 1.087-.123.288-.076.519-.184.688-.32s.289-.301.355-.493c.067-.192.102-.403.102-.634 0-.489-.138-.861-.41-1.116-.273-.254-.639-.382-1.095-.382-.212 0-.405.03-.583.09-.178.061-.337.145-.479.252-.143.108-.262.234-.357.379-.097.145-.168.303-.216.475-.082.222-.188.368-.32.439-.132.072-.317.089-.558.051z"/><path d="m160.041 27.826c0 .906-.099 1.695-.293 2.364-.194.671-.463 1.224-.807 1.659-.342.438-.747.764-1.216.977s-.973.32-1.517.32c-.541 0-1.044-.107-1.507-.32-.464-.213-.866-.539-1.207-.977-.34-.436-.607-.988-.8-1.659-.191-.669-.288-1.458-.288-2.364 0-.912.097-1.702.288-2.369.192-.668.46-1.22.8-1.656.341-.437.743-.762 1.207-.976.463-.213.966-.321 1.507-.321.544 0 1.048.108 1.517.321.469.214.874.539 1.216.976.344.437.612.988.807 1.656.194.667.293 1.457.293 2.369zm-1.838 0c0-.754-.054-1.379-.164-1.873-.111-.493-.259-.887-.442-1.18-.186-.293-.398-.498-.638-.615-.24-.119-.49-.178-.75-.178-.253 0-.499.059-.737.178-.237.117-.447.322-.629.615-.183.293-.328.687-.437 1.18-.107.494-.161 1.119-.161 1.873 0 .753.054 1.378.161 1.871.108.494.254.889.437 1.182.182.293.392.498.629.615.238.118.484.177.737.177.26 0 .51-.059.75-.177.239-.117.452-.322.638-.615.184-.293.331-.688.442-1.182.11-.493.164-1.118.164-1.871z"/><path d="m171.531 31.439v.987c0 .177-.058.322-.172.436-.115.112-.274.169-.477.169h-3.822v-2.189c.33-.057.643-.188.933-.393.29-.203.544-.461.762-.773.22-.312.392-.669.516-1.073.124-.403.188-.832.188-1.288 0-.533-.085-.997-.255-1.393-.172-.396-.401-.725-.691-.983-.291-.259-.63-.454-1.016-.584-.387-.129-.797-.193-1.228-.193-.433 0-.842.064-1.229.193-.387.13-.723.325-1.011.584-.287.259-.518.587-.688.983s-.255.859-.255 1.393c0 .456.063.885.188 1.288.124.404.296.762.516 1.073.218.313.471.57.762.773.29.205.602.336.933.393v2.189h-3.823c-.201 0-.36-.057-.476-.169-.114-.113-.173-.259-.173-.436v-.987h1.656c.226 0 .456.011.691.033.234.021.468.049.699.082-.428-.153-.818-.367-1.175-.64-.354-.274-.659-.596-.914-.966-.255-.369-.452-.778-.594-1.227s-.212-.926-.212-1.43c0-.691.131-1.328.391-1.912.263-.583.624-1.088 1.086-1.515.459-.428 1-.761 1.623-1.001.621-.24 1.292-.361 2.012-.361s1.391.121 2.014.361c.621.24 1.16.573 1.619 1.001.458.427.819.932 1.083 1.515.265.584.396 1.221.396 1.912 0 .504-.07.98-.212 1.43-.142.448-.34.856-.594 1.223-.255.368-.56.689-.914.966-.356.275-.747.49-1.175.644.231-.033.462-.061.696-.082.232-.022.462-.033.687-.033z"/><path d="m40.68 77.127h9.262v9.262h-9.262z" fill="#c3996c"/><path d="m57.243 58.139v1.111h-4.8v-1.111h1.758v-5.057c0-.201.006-.406.018-.619l-1.248 1.045c-.072.057-.143.09-.213.105-.07.014-.136.014-.198.002s-.117-.033-.165-.063c-.048-.029-.084-.063-.108-.1l-.468-.643 2.646-2.25h1.218v7.578h1.56z" fill="#fff"/><path d="m56.919 94.211c.16 0 .287.045.381.135s.141.209.141.357v.887h-5.952v-.492c0-.1.021-.205.063-.314s.109-.209.201-.297l2.634-2.641c.22-.223.417-.438.591-.641.174-.205.319-.406.435-.607.116-.199.205-.402.267-.607.062-.207.093-.424.093-.652 0-.207-.03-.391-.09-.549s-.145-.291-.255-.398-.242-.189-.396-.244c-.154-.053-.327-.08-.519-.08-.176 0-.339.025-.489.074-.15.051-.283.121-.399.211s-.214.195-.294.314c-.08.121-.14.252-.18.396-.068.184-.156.307-.264.365-.108.061-.264.074-.468.043l-.78-.139c.06-.416.176-.781.348-1.094.172-.314.387-.576.645-.787.258-.209.554-.367.888-.475.334-.105.693-.158 1.077-.158.4 0 .766.059 1.098.178.332.117.616.285.852.5.236.217.42.477.552.779.132.305.198.643.198 1.016 0 .32-.047.615-.141.887-.094.273-.22.533-.378.781s-.343.488-.555.719c-.212.232-.434.469-.666.709l-1.956 1.998c.188-.057.375-.1.561-.129.186-.031.363-.045.531-.045z" fill="#fff"/><path d="m51.681 126.467c.06-.416.176-.781.348-1.095s.387-.576.645-.786.554-.368.888-.475c.334-.105.693-.159 1.077-.159.4 0 .761.058 1.083.172.322.113.597.271.825.474s.403.439.525.711.183.566.183.882c0 .276-.031.52-.093.729s-.151.393-.267.549-.26.288-.432.396-.366.198-.582.271c.52.164.908.414 1.164.75s.384.758.384 1.266c0 .433-.08.814-.24 1.146s-.376.61-.648.837c-.272.226-.587.396-.945.513s-.737.174-1.137.174c-.436 0-.816-.05-1.14-.149-.324-.101-.606-.248-.846-.444s-.444-.436-.612-.72-.312-.612-.432-.984l.654-.27c.172-.072.333-.091.483-.058.15.034.259.115.327.243.072.141.151.278.237.414s.189.257.309.363c.12.105.261.191.423.258s.355.099.579.099c.252 0 .472-.041.66-.123s.345-.188.471-.32.22-.279.282-.441.093-.325.093-.489c0-.208-.022-.396-.066-.566s-.136-.315-.276-.436c-.14-.12-.341-.214-.603-.281-.262-.068-.613-.103-1.053-.103v-1.056c.364-.004.666-.038.906-.103.24-.063.431-.152.573-.267s.241-.251.297-.411.084-.336.084-.528c0-.407-.114-.718-.342-.93s-.532-.318-.912-.318c-.176 0-.338.025-.486.075s-.281.12-.399.21-.217.195-.297.315-.14.252-.18.396c-.068.185-.157.307-.267.366-.11.061-.265.074-.465.042z" fill="#fff"/><path d="m76.849 33.608c-.058.101-.119.173-.184.219s-.146.068-.241.068c-.102 0-.21-.036-.328-.111-.117-.074-.258-.157-.421-.249-.163-.091-.354-.173-.572-.248-.219-.074-.477-.111-.774-.111-.269 0-.504.033-.705.098-.202.064-.371.154-.508.27s-.239.253-.306.414-.101.337-.101.529c0 .244.067.448.205.611.136.164.317.304.543.418.226.115.482.219.771.31.288.092.583.188.886.292s.597.222.886.359c.288.138.545.31.771.519.226.21.406.465.543.768.137.302.205.669.205 1.102 0 .47-.08.91-.241 1.32-.16.41-.396.769-.705 1.073s-.688.545-1.134.72c-.446.176-.958.263-1.534.263-.331 0-.657-.031-.979-.098-.321-.064-.63-.156-.925-.276s-.572-.264-.831-.433c-.26-.167-.49-.354-.691-.561l.568-.93c.048-.066.11-.123.188-.169.076-.046.158-.067.244-.067.12 0 .25.049.39.147.139.099.305.207.497.327.191.12.416.229.673.328.257.098.564.147.925.147.553 0 .979-.132 1.282-.393.302-.262.453-.638.453-1.128 0-.272-.068-.496-.205-.669s-.318-.317-.544-.436c-.226-.117-.482-.217-.771-.299-.287-.081-.58-.17-.878-.267-.298-.096-.59-.211-.879-.346-.288-.135-.545-.309-.771-.525s-.406-.485-.543-.811c-.137-.323-.205-.723-.205-1.198 0-.379.075-.749.227-1.108.151-.36.371-.679.659-.958.287-.278.643-.501 1.065-.669.422-.169.907-.253 1.454-.253.614 0 1.181.096 1.699.288s.96.461 1.324.807z"/><path d="m78.144 64.186-4.204 10.411h-1.75l-4.204-10.411h1.555c.168 0 .305.041.41.122.106.082.186.188.238.317l2.455 6.351c.081.206.159.433.234.68.073.247.145.505.212.774.058-.27.12-.527.188-.774.066-.247.141-.474.223-.68l2.44-6.351c.039-.111.114-.212.228-.302.112-.092.25-.138.414-.138h1.561z"/><path d="m82.251 72.768c-.037.06-.076.102-.117.127-.041.023-.094.036-.156.036-.067 0-.14-.019-.216-.057-.077-.037-.165-.079-.267-.126-.101-.046-.215-.088-.344-.126-.129-.037-.28-.056-.456-.056-.272 0-.486.059-.641.173-.155.116-.232.268-.232.454 0 .123.04.226.12.311.081.084.187.158.319.221s.282.12.45.17c.168.051.339.105.513.166.173.06.344.127.512.205.168.076.318.173.45.29.133.117.239.259.319.423s.12.361.12.594c0 .275-.05.53-.147.764-.1.233-.246.435-.439.604-.194.169-.434.302-.72.397-.285.095-.615.142-.987.142-.198 0-.392-.018-.58-.053s-.369-.084-.543-.148c-.173-.063-.334-.138-.48-.224-.148-.086-.277-.179-.39-.279l.319-.526c.041-.063.089-.112.146-.146.056-.033.127-.05.213-.05.085 0 .167.023.243.072.076.048.165.101.266.156s.22.108.355.157c.137.049.309.072.518.072.164 0 .306-.02.423-.059s.214-.09.291-.153c.076-.063.133-.138.168-.222s.053-.171.053-.26c0-.135-.04-.245-.12-.331-.08-.085-.187-.16-.319-.224-.132-.063-.283-.121-.453-.171-.17-.051-.343-.104-.521-.164-.177-.06-.351-.13-.521-.211-.17-.08-.321-.182-.453-.305-.133-.123-.238-.274-.319-.454-.08-.178-.12-.395-.12-.648 0-.234.047-.459.14-.672.094-.212.231-.398.411-.557.182-.158.407-.286.678-.381s.583-.143.938-.143c.396 0 .756.065 1.08.196.325.13.595.303.812.515z"/><path d="m84.731 74.693c.022.295.074.549.157.764.082.215.189.392.324.532s.294.243.479.313.389.104.612.104c.225 0 .418-.026.58-.077.162-.053.304-.11.425-.174.122-.064.228-.122.319-.175.091-.052.18-.077.266-.077.115 0 .202.042.258.128l.397.504c-.153.179-.324.329-.515.451-.19.12-.39.218-.597.29-.207.073-.418.125-.633.154-.214.03-.422.045-.624.045-.398 0-.771-.066-1.113-.199-.344-.132-.642-.328-.896-.587-.254-.26-.453-.58-.599-.963-.146-.382-.219-.825-.219-1.329 0-.392.063-.761.19-1.105.127-.346.309-.646.546-.9.237-.256.525-.459.867-.607.342-.15.727-.225 1.155-.225.362 0 .696.059 1.002.174.307.115.569.284.79.507.22.222.393.494.518.816s.188.691.188 1.105c0 .21-.022.351-.067.423s-.131.109-.257.109h-3.553zm2.636-.835c0-.178-.024-.347-.075-.506-.051-.158-.126-.298-.227-.417-.101-.12-.229-.214-.384-.283-.154-.068-.335-.103-.54-.103-.398 0-.714.113-.942.341-.229.228-.376.551-.439.968z"/><path d="m90.949 72.645c.18-.344.393-.613.639-.809s.537-.294.873-.294c.265 0 .478.059.638.173l-.09 1.036c-.019.067-.046.115-.081.144-.035.026-.083.041-.143.041-.057 0-.139-.01-.249-.028s-.218-.027-.321-.027c-.154 0-.29.022-.409.067-.12.044-.227.108-.322.193-.095.083-.179.185-.252.305-.072.119-.141.255-.203.408v3.537h-1.383v-5.742h.812c.142 0 .24.024.297.075.056.05.093.142.111.271z"/><path d="m98.997 71.648-2.278 5.742h-1.253l-2.278-5.742h1.143c.104 0 .19.024.26.072.068.049.115.11.137.186l1.108 3.066c.06.18.112.354.156.526.045.171.085.344.118.515.037-.171.078-.344.123-.515.045-.172.099-.347.162-.526l1.131-3.066c.025-.075.072-.137.14-.186.067-.048.147-.072.24-.072z"/><path d="m102.092 71.559c.426 0 .813.068 1.161.207s.647.334.896.588.439.563.573.929c.135.366.202.774.202 1.226 0 .456-.067.866-.202 1.231-.134.366-.325.678-.573.936-.248.257-.547.454-.896.593s-.735.207-1.161.207c-.429 0-.819-.068-1.17-.207s-.65-.336-.898-.593c-.248-.258-.44-.569-.576-.936-.137-.365-.204-.775-.204-1.231 0-.451.067-.859.204-1.226.136-.366.328-.675.576-.929s.548-.449.898-.588.742-.207 1.17-.207zm0 4.852c.478 0 .831-.161 1.061-.481s.344-.79.344-1.41-.114-1.091-.344-1.416c-.229-.324-.583-.487-1.061-.487-.485 0-.845.163-1.077.49-.233.327-.351.798-.351 1.413s.117 1.085.351 1.407c.233.323.592.484 1.077.484z"/><path d="m243.466 158.685v15.873" fill="none" stroke="#b87332" stroke-miterlimit="10" stroke-width="2.8347"/><path d="m255.777 185.38h-24.625" fill="none" stroke="#000" stroke-miterlimit="10" stroke-width="4.252"/><path d="m243.466 171.297v14.083" fill="none" stroke="#000" stroke-miterlimit="10" stroke-width="2.8347"/><path d="m130.148 131.795v15.873" fill="none" stroke="#b87332" stroke-miterlimit="10" stroke-width="2.8347"/><path d="m142.46 155.021h-24.624" fill="none" stroke="#000" stroke-miterlimit="10" stroke-width="4.252"/><path d="m130.148 140.938v14.083" fill="none" stroke="#000" stroke-miterlimit="10" stroke-width="2.8347"/><path d="m222.681 97.07c0 .954-.159 1.83-.478 2.628-.317.798-.764 1.485-1.34 2.061s-1.27 1.023-2.08 1.342c-.81.317-1.709.477-2.699.477h-4.959v-13.015h4.959c.99 0 1.89.16 2.699.481.811.32 1.504.768 2.08 1.341s1.022 1.259 1.34 2.057.478 1.674.478 2.628zm-2.484 0c0-.714-.096-1.354-.284-1.922-.188-.566-.462-1.047-.819-1.439-.356-.394-.789-.694-1.295-.905-.508-.21-1.079-.314-1.715-.314h-2.529v9.162h2.529c.636 0 1.207-.105 1.715-.315.506-.21.938-.512 1.295-.904.357-.393.631-.873.819-1.44.189-.568.284-1.209.284-1.923z"/><path d="m233.751 100.508c.132 0 .249.052.351.153l.954 1.035c-.528.654-1.178 1.155-1.948 1.503-.771.348-1.697.521-2.777.521-.965 0-1.834-.164-2.605-.494s-1.43-.789-1.975-1.377c-.547-.589-.965-1.29-1.256-2.106s-.437-1.707-.437-2.673c0-.979.156-1.874.468-2.687.313-.813.752-1.514 1.318-2.102.567-.588 1.244-1.046 2.029-1.373.787-.326 1.656-.49 2.611-.49.947 0 1.789.156 2.523.468.735.313 1.361.721 1.877 1.225l-.811 1.125c-.047.072-.109.135-.184.188-.076.055-.18.081-.311.081-.09 0-.184-.025-.279-.076s-.201-.114-.314-.189c-.115-.074-.246-.157-.396-.247s-.324-.173-.521-.247c-.199-.075-.428-.139-.689-.189-.261-.051-.563-.076-.904-.076-.582 0-1.114.104-1.598.311-.482.207-.898.507-1.246.899-.348.394-.618.873-.811 1.44-.191.566-.287 1.214-.287 1.939 0 .731.104 1.383.311 1.953.207.569.486 1.05.841 1.439.354.391.771.688 1.251.896s.996.311 1.549.311c.329 0 .628-.018.895-.054.268-.036.514-.093.738-.171s.438-.179.639-.302.4-.274.6-.454c.059-.055.122-.098.188-.131.064-.033.134-.049.206-.049z"/><path d="m237.918 103.604c-.103.275-.266.482-.491.621-.225.138-.454.207-.688.207h-.945l5.256-13.446c.097-.252.244-.445.441-.581.198-.135.43-.202.693-.202h.954z"/><path d="m256.664 97.07c0 .954-.158 1.83-.477 2.628s-.766 1.485-1.342 2.061-1.269 1.023-2.078 1.342c-.811.317-1.711.477-2.7.477h-4.959v-13.015h4.959c.989 0 1.89.16 2.7.481.81.32 1.502.768 2.078 1.341s1.023 1.259 1.342 2.057.477 1.674.477 2.628zm-2.484 0c0-.714-.094-1.354-.283-1.922-.189-.566-.462-1.047-.818-1.439-.357-.394-.789-.694-1.297-.905-.507-.21-1.078-.314-1.714-.314h-2.529v9.162h2.529c.636 0 1.207-.105 1.714-.315.508-.21.939-.512 1.297-.904.356-.393.629-.873.818-1.44.189-.568.283-1.209.283-1.923z"/><path d="m267.734 100.508c.132 0 .248.052.351.153l.954 1.035c-.527.654-1.178 1.155-1.948 1.503s-1.696.521-2.776.521c-.967 0-1.835-.164-2.605-.494-.771-.33-1.43-.789-1.977-1.377-.545-.589-.964-1.29-1.255-2.106s-.437-1.707-.437-2.673c0-.979.156-1.874.469-2.687.312-.813.751-1.514 1.318-2.102.566-.588 1.243-1.046 2.029-1.373.785-.326 1.656-.49 2.609-.49.948 0 1.79.156 2.525.468.734.313 1.359.721 1.876 1.225l-.81 1.125c-.049.072-.109.135-.186.188-.074.055-.178.081-.311.081-.09 0-.183-.025-.278-.076-.097-.051-.201-.114-.315-.189-.113-.074-.246-.157-.396-.247s-.324-.173-.522-.247c-.197-.075-.428-.139-.688-.189-.262-.051-.563-.076-.905-.076-.582 0-1.114.104-1.597.311-.484.207-.899.507-1.247.899-.349.394-.618.873-.81 1.44-.193.566-.289 1.214-.289 1.939 0 .731.104 1.383.311 1.953.207.569.488 1.05.842 1.439.354.391.771.688 1.251.896s.996.311 1.548.311c.33 0 .629-.018.896-.054.266-.036.512-.093.737-.171s.438-.179.64-.302c.2-.123.4-.274.598-.454.061-.055.123-.098.189-.131s.137-.049.209-.049z"/><path d="m208.722 117.896c-.065.084-.13.15-.193.198s-.155.072-.274.072c-.114 0-.225-.035-.333-.104s-.237-.147-.388-.234c-.149-.087-.328-.165-.535-.233-.207-.069-.463-.104-.77-.104-.39 0-.732.07-1.025.211-.295.142-.539.344-.734.607-.194.265-.34.584-.436.959-.097.375-.145.799-.145 1.273 0 .492.053.93.158 1.313.104.385.256.707.454.968s.438.459.72.594c.282.136.6.203.954.203s.641-.044.859-.131c.22-.087.403-.183.554-.288.15-.104.28-.201.392-.288.11-.087.235-.13.374-.13.18 0 .314.068.404.207l.639.81c-.246.288-.513.529-.801.725s-.586.351-.896.468-.627.199-.954.248c-.326.048-.652.071-.977.071-.57 0-1.107-.106-1.611-.319s-.944-.523-1.322-.932-.677-.907-.896-1.498c-.22-.591-.329-1.265-.329-2.021 0-.678.098-1.307.293-1.886s.481-1.08.859-1.503.846-.755 1.404-.994c.558-.24 1.199-.36 1.926-.36.689 0 1.295.111 1.813.333s.985.54 1.399.954z"/><path d="m214.707 115.799c.684 0 1.307.111 1.867.333s1.041.537 1.44.945c.399.407.706.905.923 1.493.215.589.323 1.245.323 1.972 0 .731-.108 1.392-.323 1.979-.217.588-.523 1.089-.923 1.503s-.88.732-1.44.954-1.184.333-1.867.333c-.689 0-1.317-.111-1.881-.333s-1.046-.54-1.445-.954c-.398-.414-.707-.915-.926-1.503-.22-.588-.329-1.248-.329-1.979 0-.727.109-1.383.329-1.972.219-.588.527-1.086.926-1.493.399-.408.881-.724 1.445-.945.564-.222 1.192-.333 1.881-.333zm0 7.803c.768 0 1.336-.258 1.705-.773.369-.517.554-1.272.554-2.269s-.185-1.755-.554-2.276c-.369-.522-.938-.783-1.705-.783-.78 0-1.357.263-1.732.787-.375.525-.563 1.282-.563 2.272s.188 1.745.563 2.264.952.778 1.732.778z"/><path d="m223.041 117.077c.186-.187.383-.358.59-.518s.426-.294.656-.405.479-.198.742-.261c.265-.063.553-.095.864-.095.505 0 .951.085 1.341.257.391.171.716.41.977.72.262.309.459.678.594 1.106.136.43.203.902.203 1.418v5.877h-2.223v-5.876c0-.563-.129-1-.387-1.31-.259-.309-.652-.464-1.18-.464-.384 0-.744.088-1.08.262s-.654.411-.954.711v6.678h-2.223v-9.234h1.358c.289 0 .478.136.567.405z"/><path d="m239.231 115.942-3.663 9.234h-2.016l-3.663-9.234h1.836c.168 0 .308.039.419.117.11.078.184.177.221.297l1.781 4.933c.096.288.18.569.252.846s.135.552.189.828c.06-.276.125-.552.197-.828s.159-.558.262-.846l1.818-4.933c.041-.12.116-.219.225-.297.107-.078.236-.117.387-.117z"/><path d="m241.833 120.839c.036.474.12.884.252 1.229s.306.63.522.854c.215.226.473.394.77.504.297.111.625.167.984.167.36 0 .671-.042.932-.126.262-.084.489-.177.685-.279.194-.102.366-.194.513-.278s.289-.126.428-.126c.186 0 .324.068.414.207l.639.81c-.246.288-.521.529-.828.725-.306.195-.625.351-.958.468s-.673.199-1.017.248c-.346.048-.68.071-1.004.071-.643 0-1.239-.106-1.791-.319-.553-.213-1.032-.528-1.439-.945-.408-.417-.729-.933-.964-1.548-.233-.614-.351-1.327-.351-2.138 0-.63.102-1.222.306-1.777s.497-1.038.878-1.448c.381-.411.846-.737 1.395-.977s1.168-.36 1.858-.36c.582 0 1.119.093 1.611.279.491.186.915.457 1.269.814.354.356.632.795.833 1.313.2.52.302 1.111.302 1.777 0 .337-.037.563-.108.68s-.21.176-.414.176h-5.717zm4.239-1.341c0-.288-.041-.56-.122-.814s-.202-.479-.364-.671c-.162-.191-.367-.344-.617-.454-.248-.111-.538-.167-.867-.167-.643 0-1.148.184-1.518.549-.369.366-.604.886-.706 1.558h4.194z"/><path d="m251.832 117.545c.287-.552.63-.985 1.025-1.301.396-.314.864-.473 1.404-.473.426 0 .768.094 1.025.279l-.144 1.665c-.03.108-.073.185-.13.229-.058.045-.135.067-.23.067-.09 0-.223-.015-.4-.045s-.35-.045-.518-.045c-.246 0-.465.036-.656.107-.192.072-.365.176-.518.311-.153.136-.288.299-.405.491-.116.191-.227.411-.329.656v5.688h-2.223v-9.234h1.305c.229 0 .388.041.478.122.091.081.149.227.181.437z"/><path d="m259.526 125.32c-.804 0-1.421-.226-1.849-.679-.43-.453-.645-1.079-.645-1.877v-5.157h-.945c-.119 0-.221-.039-.305-.116-.084-.078-.127-.195-.127-.352v-.882l1.485-.243.468-2.52c.03-.12.087-.213.172-.279.084-.066.191-.099.323-.099h1.151v2.906h2.467v1.584h-2.467v5.004c0 .288.071.514.213.676.141.162.334.242.58.242.138 0 .253-.016.346-.049.094-.033.174-.067.244-.104.068-.036.13-.07.184-.104.055-.033.108-.05.162-.05.066 0 .12.017.162.05s.087.082.135.148l.666 1.08c-.324.27-.695.474-1.115.611-.419.142-.854.21-1.305.21z"/><path d="m264.782 120.839c.036.474.12.884.252 1.229s.306.63.522.854c.215.226.473.394.77.504.297.111.625.167.984.167.36 0 .671-.042.932-.126.262-.084.489-.177.685-.279.194-.102.366-.194.513-.278s.289-.126.428-.126c.186 0 .324.068.414.207l.639.81c-.246.288-.521.529-.828.725-.306.195-.625.351-.958.468s-.673.199-1.017.248c-.346.048-.68.071-1.004.071-.643 0-1.239-.106-1.791-.319-.553-.213-1.032-.528-1.439-.945-.408-.417-.729-.933-.964-1.548-.233-.614-.351-1.327-.351-2.138 0-.63.102-1.222.306-1.777s.497-1.038.878-1.448c.381-.411.846-.737 1.395-.977s1.168-.36 1.858-.36c.582 0 1.119.093 1.611.279.491.186.915.457 1.269.814.354.356.632.795.833 1.313.2.52.302 1.111.302 1.777 0 .337-.037.563-.108.68s-.21.176-.414.176h-5.717zm4.239-1.341c0-.288-.041-.56-.122-.814s-.202-.479-.364-.671c-.162-.191-.367-.344-.617-.454-.248-.111-.538-.167-.867-.167-.643 0-1.148.184-1.518.549-.369.366-.604.886-.706 1.558h4.194z"/><path d="m274.781 117.545c.287-.552.63-.985 1.025-1.301.396-.314.864-.473 1.404-.473.426 0 .768.094 1.025.279l-.144 1.665c-.03.108-.073.185-.13.229-.058.045-.135.067-.23.067-.09 0-.223-.015-.4-.045s-.35-.045-.518-.045c-.246 0-.465.036-.656.107-.192.072-.365.176-.518.311-.153.136-.288.299-.405.491-.116.191-.227.411-.329.656v5.688h-2.223v-9.234h1.305c.229 0 .388.041.478.122.091.081.149.227.181.437z"/><path d="m321.563 72.331v21.796h-31.42" fill="none" stroke="#b87332" stroke-miterlimit="10" stroke-width="2.8347"/><path d="m321.6 61.445c-.58 0-1.135.117-1.637.33-1.512.639-2.572 2.135-2.572 3.879 0 2.326 1.885 4.211 4.209 4.211 2.326 0 4.211-1.885 4.211-4.211 0-2.324-1.885-4.209-4.211-4.209z" fill="#fff200" stroke="#000" stroke-miterlimit="10" stroke-width="2.8347"/><path d="m321.6 70.908v14.083" fill="none" stroke="#000" stroke-miterlimit="10" stroke-width="2.8347"/><path d="m340.424 60.053-4.205 10.411h-1.749l-4.206-10.411h1.556c.168 0 .305.041.41.122.105.082.185.188.237.317l2.456 6.351c.081.206.159.433.233.68.075.247.146.505.213.774.058-.27.12-.527.187-.774.068-.247.142-.474.224-.68l2.441-6.351c.037-.111.113-.212.226-.303s.251-.137.414-.137h1.563z"/><path d="m342.65 65.842c0 .119-.024.23-.073.335s-.113.197-.193.274c-.08.078-.174.142-.282.188-.108.047-.224.07-.347.07-.119 0-.233-.023-.339-.07-.106-.046-.199-.109-.277-.188-.079-.077-.141-.169-.188-.274-.047-.104-.07-.216-.07-.335 0-.123.023-.239.07-.347.047-.109.108-.202.188-.28.078-.078.171-.141.277-.188.105-.047.22-.07.339-.07.123 0 .238.023.347.07s.202.109.282.188.145.171.193.28c.049.108.073.224.073.347zm-.191 1.674v5.742h-1.388v-5.742z"/><path d="m345.163 68.221c.115-.116.237-.224.366-.322s.265-.183.408-.252.298-.123.462-.162.343-.06.537-.06c.313 0 .591.054.834.161.242.105.445.255.607.447s.285.422.369.688c.085.268.126.562.126.882v3.655h-1.382v-3.655c0-.351-.081-.622-.241-.814-.161-.192-.404-.288-.732-.288-.239 0-.463.055-.672.162-.21.108-.407.256-.594.442v4.153h-1.382v-5.742h.845c.18 0 .297.084.353.252z"/><path d="m188.71 57.331h101.354v101.354h-101.354z" fill="none" stroke="#000" stroke-miterlimit="10" stroke-width="2.8347"/><clipPath id="a"><path d="m339.281 115.645h34.25v20.25h-34.25z"/></clipPath><clipPath id="b"><path d="m327.144 118.715h39.448v14.193h-39.448z"/></clipPath><clipPath id="c"><path d="m283.093 111.527h26.314v28.485h-26.314z"/></clipPath><clipPath id="d"><path d="m291.705 118.833h39.448v14.193h-39.448z"/></clipPath><g clip-path="url(#a)"><g><path clip-path="url(#b)" d="m334.025 124.58v-5.859l-6.892 7.094 6.892 7.094v-5.859h25.579v5.859l6.892-7.094-6.892-7.094v5.859zm0 0"/></g></g><g clip-path="url(#c)"><g><path clip-path="url(#d)" d="m298.587 124.699v-5.86l-6.892 7.094 6.892 7.094v-5.859h25.579v5.859l6.892-7.094-6.892-7.094v5.86zm0 0"/></g></g><path d="m309.407 124.645h29.874v2.25h-29.874z"/><path d="m298.563 124.645h61.188v2.688h-61.188z"/></svg>