<?xml version="1.0" encoding="utf-8"?>
<!-- Generator: Adobe Illustrator 16.0.0, SVG Export Plug-In . SVG Version: 6.00 Build 0)  -->
<!DOCTYPE svg PUBLIC "-//W3C//DTD SVG 1.1//EN" "http://www.w3.org/Graphics/SVG/1.1/DTD/svg11.dtd">
<svg version="1.1" id="Layer_1" xmlns="http://www.w3.org/2000/svg" xmlns:xlink="http://www.w3.org/1999/xlink" x="0px" y="0px"
	 width="411px" height="218.597px" viewBox="0 0 411 218.597" enable-background="new 0 0 411 218.597" xml:space="preserve">
<line fill="none" stroke="#B87332" stroke-width="2.8347" stroke-miterlimit="10" x1="174.637" y1="45.294" x2="367.968" y2="45.294"/>
<line fill="none" stroke="#000000" stroke-width="2.8347" stroke-miterlimit="10" x1="368.014" y1="211.084" x2="368.014" y2="6.016"/>
<line fill="none" stroke="#000000" stroke-width="2.8347" stroke-miterlimit="10" x1="367.968" y1="7.271" x2="403.243" y2="7.271"/>
<path d="M57.607,62.825c3.199,0,5.799-2.597,5.799-5.795V32.426c0-3.199-2.6-5.799-5.799-5.799H33.004
	c-3.199,0-5.789,2.6-5.789,5.799V57.03c0,3.198,2.59,5.795,5.789,5.795H57.607z"/>
<path d="M57.607,99.563c3.199,0,5.799-2.598,5.799-5.795V69.162c0-3.199-2.6-5.797-5.799-5.797H33.004
	c-3.199,0-5.789,2.598-5.789,5.797v24.605c0,3.197,2.59,5.795,5.789,5.795H57.607z"/>
<path d="M57.607,136.302c3.199,0,5.799-2.597,5.799-5.798V105.9c0-3.201-2.6-5.798-5.799-5.798H33.004
	c-3.199,0-5.789,2.597-5.789,5.798v24.604c0,3.201,2.59,5.798,5.789,5.798H57.607z"/>
<rect x="40.68" y="40.092" fill="#C3996C" width="9.262" height="9.263"/>
<rect x="40.68" y="113.715" fill="#C3996C" width="9.262" height="9.263"/>
<path fill="none" stroke="#B87332" stroke-width="2.8347" stroke-miterlimit="10" d="M368.014,159.355"/>
<path fill="none" stroke="#B87332" stroke-width="2.8347" stroke-miterlimit="10" d="M227.049,130.679"/>
<line fill="none" stroke="#000000" stroke-width="2.8347" stroke-miterlimit="10" x1="367.968" y1="209.937" x2="403.241" y2="209.937"/>
<g>
	<path d="M393.546,66.223c-0.119-0.072-0.209-0.15-0.27-0.234c-0.06-0.084-0.09-0.187-0.09-0.306c0-0.137,0.068-0.297,0.204-0.48
		s0.286-0.414,0.45-0.689c0.164-0.276,0.313-0.608,0.449-0.996c0.137-0.389,0.205-0.858,0.205-1.41c0-0.521-0.07-0.979-0.211-1.374
		c-0.14-0.396-0.33-0.729-0.57-0.996c-0.239-0.269-0.521-0.47-0.846-0.606c-0.324-0.136-0.674-0.204-1.05-0.204
		c-0.479,0-0.878,0.118-1.194,0.354c-0.315,0.235-0.586,0.548-0.81,0.936c-0.224,0.389-0.418,0.828-0.582,1.32
		s-0.334,0.996-0.51,1.512c-0.177,0.517-0.374,1.021-0.595,1.513c-0.219,0.491-0.498,0.932-0.834,1.319
		c-0.336,0.389-0.748,0.7-1.235,0.937c-0.488,0.235-1.088,0.354-1.8,0.354c-0.752,0-1.458-0.128-2.118-0.384
		s-1.234-0.63-1.722-1.122c-0.488-0.492-0.873-1.096-1.152-1.812c-0.279-0.717-0.42-1.53-0.42-2.442c0-1.12,0.201-2.136,0.605-3.048
		s0.95-1.692,1.639-2.34l1.104,0.672c0.088,0.063,0.162,0.142,0.223,0.234c0.06,0.092,0.09,0.193,0.09,0.306
		c0,0.104-0.043,0.222-0.127,0.354c-0.084,0.133-0.189,0.282-0.317,0.45s-0.269,0.36-0.42,0.576s-0.292,0.462-0.42,0.738
		c-0.128,0.275-0.233,0.59-0.317,0.941c-0.084,0.353-0.127,0.748-0.127,1.188c0,0.552,0.076,1.044,0.229,1.476
		c0.152,0.433,0.365,0.798,0.642,1.099c0.276,0.3,0.606,0.529,0.99,0.689s0.812,0.24,1.284,0.24c0.52,0,0.945-0.118,1.277-0.354
		c0.332-0.235,0.61-0.546,0.834-0.93c0.225-0.384,0.414-0.824,0.57-1.32s0.316-1,0.48-1.512s0.354-1.016,0.57-1.512
		c0.215-0.496,0.495-0.937,0.84-1.32c0.344-0.384,0.773-0.694,1.289-0.93c0.517-0.236,1.154-0.354,1.914-0.354
		c0.608,0,1.196,0.118,1.764,0.354c0.568,0.235,1.072,0.58,1.513,1.032c0.44,0.451,0.792,1.008,1.056,1.668
		c0.264,0.659,0.396,1.418,0.396,2.273c0,0.96-0.152,1.834-0.456,2.622s-0.744,1.482-1.32,2.082L393.546,66.223z"/>
	<path d="M394.278,82.074v-5.568h-15.24V74.19h15.24v-5.58h1.956v13.464H394.278z"/>
	<path d="M396.234,102.51h-17.196v-2.04h12.637c0.168,0,0.348,0.007,0.539,0.019c0.193,0.012,0.389,0.025,0.589,0.042l-10.752-5.904
		c-0.36-0.184-0.54-0.464-0.54-0.84V93.45c0-0.376,0.18-0.656,0.54-0.84l10.8-6.024c-0.424,0.048-0.816,0.072-1.176,0.072h-12.637
		v-2.04h17.196v1.716c0,0.208-0.021,0.368-0.06,0.48c-0.041,0.111-0.152,0.22-0.336,0.323l-10.584,5.94
		c-0.192,0.096-0.393,0.189-0.6,0.282c-0.209,0.092-0.421,0.178-0.637,0.258c0.216,0.08,0.43,0.164,0.643,0.252
		c0.211,0.088,0.414,0.184,0.605,0.288l10.572,5.832c0.184,0.096,0.295,0.202,0.336,0.318c0.039,0.115,0.06,0.277,0.06,0.485V102.51
		z"/>
	<path d="M391.579,106.266c0.783,0.112,1.478,0.328,2.082,0.648c0.604,0.32,1.109,0.726,1.518,1.218
		c0.408,0.493,0.718,1.058,0.93,1.692c0.212,0.637,0.318,1.322,0.318,2.059c0,0.729-0.104,1.4-0.313,2.016
		c-0.208,0.615-0.504,1.146-0.888,1.59s-0.849,0.791-1.392,1.039c-0.545,0.248-1.148,0.371-1.813,0.371
		c-0.544,0-1.029-0.07-1.458-0.209c-0.428-0.141-0.802-0.342-1.122-0.602s-0.592-0.574-0.816-0.941
		c-0.224-0.367-0.407-0.779-0.551-1.236c-0.289,1.121-0.783,1.963-1.482,2.527c-0.7,0.563-1.574,0.846-2.622,0.846
		c-0.792,0-1.505-0.15-2.136-0.451c-0.633-0.299-1.17-0.709-1.614-1.229c-0.444-0.521-0.784-1.127-1.021-1.818
		c-0.235-0.693-0.354-1.436-0.354-2.227c0-0.912,0.113-1.691,0.342-2.34s0.542-1.196,0.941-1.645c0.4-0.448,0.875-0.816,1.423-1.104
		s1.142-0.532,1.782-0.731l0.384,0.924c0.104,0.24,0.132,0.474,0.084,0.702c-0.048,0.228-0.181,0.394-0.396,0.498
		c-0.225,0.104-0.492,0.233-0.805,0.39s-0.611,0.371-0.9,0.643c-0.287,0.271-0.531,0.617-0.731,1.037
		c-0.2,0.422-0.3,0.955-0.3,1.604c0,0.6,0.098,1.125,0.293,1.578c0.197,0.451,0.451,0.828,0.763,1.127
		c0.312,0.301,0.66,0.525,1.044,0.678c0.385,0.152,0.764,0.229,1.141,0.229c0.463,0,0.887-0.061,1.271-0.18
		c0.384-0.121,0.716-0.344,0.996-0.672c0.279-0.328,0.5-0.779,0.66-1.35c0.16-0.572,0.24-1.307,0.24-2.203h1.547
		c0.008,0.736,0.088,1.363,0.24,1.879s0.36,0.936,0.625,1.26c0.264,0.324,0.579,0.559,0.947,0.707s0.775,0.223,1.225,0.223
		c0.496,0,0.928-0.078,1.295-0.234c0.369-0.156,0.672-0.369,0.912-0.643c0.24-0.271,0.42-0.594,0.541-0.965
		c0.119-0.373,0.18-0.773,0.18-1.207c0-0.432-0.064-0.834-0.192-1.205c-0.128-0.373-0.306-0.701-0.534-0.984
		c-0.228-0.283-0.498-0.521-0.81-0.713c-0.312-0.193-0.656-0.328-1.032-0.408c-0.279-0.105-0.466-0.235-0.559-0.392
		c-0.092-0.155-0.117-0.382-0.077-0.678L391.579,106.266z"/>
	<path d="M381.066,130.471c0,0.232-0.067,0.416-0.204,0.553c-0.136,0.135-0.312,0.203-0.527,0.203h-1.297v-11.473h0.732
		c0.152,0,0.309,0.033,0.469,0.096c0.159,0.064,0.307,0.164,0.443,0.301l5.531,5.508c0.465,0.457,0.91,0.873,1.339,1.248
		c0.428,0.377,0.858,0.695,1.29,0.961c0.432,0.264,0.869,0.467,1.314,0.611c0.443,0.145,0.918,0.217,1.422,0.217
		s0.945-0.08,1.326-0.24c0.379-0.16,0.693-0.379,0.941-0.654s0.434-0.602,0.559-0.979c0.123-0.375,0.186-0.779,0.186-1.211
		c0-0.441-0.064-0.846-0.192-1.213s-0.306-0.693-0.534-0.979c-0.228-0.283-0.498-0.521-0.81-0.713
		c-0.312-0.193-0.656-0.328-1.032-0.408c-0.279-0.096-0.466-0.227-0.559-0.391c-0.092-0.164-0.117-0.395-0.077-0.689l0.192-1.117
		c0.783,0.113,1.478,0.33,2.082,0.654c0.604,0.324,1.109,0.732,1.518,1.225s0.718,1.055,0.93,1.686
		c0.212,0.633,0.318,1.316,0.318,2.053c0,0.729-0.108,1.408-0.324,2.039c-0.216,0.633-0.529,1.18-0.941,1.645
		s-0.914,0.828-1.506,1.092c-0.593,0.264-1.265,0.396-2.017,0.396c-0.64,0-1.234-0.096-1.782-0.289
		c-0.548-0.191-1.07-0.451-1.566-0.779s-0.979-0.705-1.451-1.135c-0.473-0.428-0.948-0.881-1.428-1.361l-4.633-4.535
		c0.088,0.318,0.158,0.643,0.211,0.971c0.051,0.328,0.077,0.645,0.077,0.949V130.471z"/>
	<path d="M394.339,137.07h-6.012v7.068h-1.896v-7.068h-7.393v-2.328h17.196v10.596h-1.896V137.07z"/>
	<path d="M385.243,159.355h-1.225c-0.128,0-0.236-0.039-0.324-0.115s-0.132-0.193-0.132-0.354v-2.137h-4.524v-1.871h4.524v-7.633
		c0-0.16,0.046-0.297,0.138-0.414c0.092-0.115,0.206-0.189,0.342-0.221l1.093-0.217l11.1,8.363v1.992h-10.991V159.355z
		 M385.243,154.879h7.092c0.207,0,0.436,0.008,0.684,0.023s0.5,0.041,0.756,0.072l-8.531-6.264V154.879z"/>
</g>
<line fill="none" stroke="#B87332" stroke-width="2.8347" stroke-miterlimit="10" x1="134.299" y1="45.792" x2="49.942" y2="45.792"/>
<line fill="none" stroke="#B87332" stroke-width="2.8347" stroke-miterlimit="10" x1="188.71" y1="81.758" x2="49.028" y2="81.758"/>
<rect x="134.937" y="36.56" fill="none" stroke="#000000" stroke-width="2.8347" stroke-miterlimit="10" width="39.699" height="17.035"/>
<g>
	<path d="M72.786,89.374c0.192-0.04,0.376-0.068,0.552-0.087c0.176-0.018,0.346-0.026,0.51-0.026c0.456,0,0.858,0.067,1.206,0.204
		c0.348,0.136,0.64,0.323,0.876,0.563c0.236,0.24,0.414,0.521,0.534,0.843c0.12,0.322,0.18,0.669,0.18,1.041
		c0,0.46-0.081,0.88-0.243,1.261c-0.162,0.38-0.387,0.704-0.675,0.975c-0.288,0.27-0.629,0.479-1.023,0.627
		c-0.394,0.147-0.823,0.222-1.287,0.222c-0.272,0-0.53-0.027-0.774-0.084c-0.244-0.056-0.473-0.131-0.687-0.225
		s-0.412-0.202-0.594-0.324c-0.182-0.122-0.345-0.251-0.489-0.387l0.456-0.63c0.096-0.136,0.222-0.204,0.378-0.204
		c0.1,0,0.202,0.032,0.306,0.096c0.104,0.064,0.223,0.134,0.357,0.21c0.134,0.076,0.292,0.146,0.474,0.21
		c0.182,0.064,0.401,0.096,0.657,0.096c0.272,0,0.512-0.044,0.72-0.132s0.381-0.211,0.519-0.369
		c0.138-0.157,0.242-0.346,0.312-0.563c0.07-0.218,0.105-0.455,0.105-0.711c0-0.472-0.137-0.841-0.411-1.107
		c-0.274-0.266-0.679-0.398-1.215-0.398c-0.412,0-0.834,0.076-1.266,0.228l-0.924-0.264l0.72-4.212h4.284v0.63
		c0,0.212-0.066,0.384-0.198,0.516c-0.132,0.132-0.356,0.198-0.672,0.198h-2.382L72.786,89.374z"/>
	<path d="M85.71,86.225L82.206,94.9h-1.458l-3.504-8.676h1.296c0.14,0,0.254,0.034,0.342,0.102c0.088,0.068,0.154,0.156,0.198,0.265
		l2.046,5.292c0.068,0.172,0.133,0.36,0.195,0.566c0.062,0.206,0.121,0.421,0.177,0.646c0.048-0.225,0.1-0.439,0.156-0.646
		c0.056-0.206,0.118-0.395,0.186-0.566l2.034-5.292c0.032-0.093,0.095-0.177,0.189-0.252c0.094-0.076,0.209-0.114,0.345-0.114H85.71
		z"/>
	<path d="M89.88,94.918c-0.068,0.185-0.177,0.322-0.327,0.414c-0.15,0.093-0.303,0.139-0.459,0.139h-0.63l3.504-8.964
		c0.064-0.168,0.162-0.298,0.294-0.388s0.286-0.135,0.462-0.135h0.636L89.88,94.918z"/>
	<path d="M99.756,89.374l-0.3,0.372c0.168-0.084,0.349-0.148,0.543-0.194s0.403-0.069,0.627-0.069c0.328,0,0.647,0.054,0.957,0.162
		c0.31,0.107,0.583,0.271,0.819,0.489c0.236,0.218,0.426,0.488,0.57,0.813s0.216,0.702,0.216,1.134c0,0.404-0.074,0.783-0.222,1.138
		c-0.148,0.354-0.356,0.663-0.624,0.927c-0.268,0.264-0.591,0.472-0.969,0.624c-0.378,0.151-0.795,0.228-1.251,0.228
		c-0.464,0-0.88-0.074-1.248-0.222c-0.368-0.148-0.682-0.354-0.942-0.621c-0.26-0.266-0.459-0.586-0.597-0.96
		c-0.138-0.374-0.207-0.789-0.207-1.245c0-0.408,0.083-0.827,0.249-1.257s0.423-0.877,0.771-1.341l2.07-2.778
		c0.072-0.096,0.177-0.178,0.315-0.246c0.138-0.067,0.297-0.102,0.477-0.102h1.32L99.756,89.374z M100.092,93.784
		c0.236,0,0.453-0.04,0.651-0.12c0.198-0.08,0.368-0.191,0.51-0.336c0.142-0.144,0.253-0.313,0.333-0.507s0.12-0.405,0.12-0.633
		c0-0.248-0.038-0.471-0.114-0.669c-0.076-0.198-0.184-0.366-0.324-0.504c-0.14-0.139-0.308-0.243-0.504-0.315
		c-0.196-0.072-0.412-0.107-0.648-0.107c-0.236,0-0.45,0.04-0.642,0.119c-0.192,0.08-0.356,0.191-0.492,0.333
		c-0.136,0.143-0.242,0.311-0.318,0.505c-0.076,0.193-0.114,0.402-0.114,0.627c0,0.239,0.033,0.459,0.099,0.656
		c0.066,0.198,0.164,0.367,0.294,0.508c0.13,0.14,0.291,0.249,0.483,0.326C99.618,93.745,99.84,93.784,100.092,93.784z"/>
	<path d="M111.984,86.225L108.48,94.9h-1.458l-3.504-8.676h1.296c0.14,0,0.254,0.034,0.342,0.102
		c0.088,0.068,0.154,0.156,0.198,0.265l2.046,5.292c0.068,0.172,0.133,0.36,0.195,0.566c0.062,0.206,0.121,0.421,0.177,0.646
		c0.048-0.225,0.1-0.439,0.156-0.646c0.056-0.206,0.118-0.395,0.186-0.566l2.034-5.292c0.032-0.093,0.095-0.177,0.189-0.252
		c0.094-0.076,0.209-0.114,0.345-0.114H111.984z"/>
	<path d="M116.154,94.918c-0.068,0.185-0.177,0.322-0.327,0.414c-0.15,0.093-0.303,0.139-0.459,0.139h-0.63l3.504-8.964
		c0.064-0.168,0.162-0.298,0.294-0.388s0.286-0.135,0.462-0.135h0.636L116.154,94.918z"/>
	<path d="M129.45,86.225v0.642c0,0.192-0.02,0.348-0.06,0.465c-0.04,0.118-0.08,0.218-0.12,0.297l-3.288,6.769
		c-0.068,0.14-0.164,0.259-0.288,0.356c-0.124,0.099-0.29,0.147-0.498,0.147h-1.074l3.354-6.63c0.076-0.136,0.151-0.261,0.225-0.375
		c0.074-0.114,0.157-0.223,0.249-0.327h-4.152c-0.092,0-0.172-0.034-0.24-0.102c-0.068-0.068-0.102-0.148-0.102-0.24v-1.002H129.45z
		"/>
	<path d="M130.374,94.084c0-0.123,0.023-0.241,0.069-0.354s0.109-0.208,0.189-0.288s0.176-0.144,0.288-0.192
		c0.112-0.048,0.232-0.071,0.36-0.071s0.247,0.023,0.357,0.071c0.11,0.049,0.206,0.112,0.288,0.192s0.147,0.176,0.195,0.288
		c0.048,0.112,0.072,0.23,0.072,0.354c0,0.129-0.024,0.247-0.072,0.357c-0.048,0.11-0.113,0.205-0.195,0.285
		s-0.178,0.143-0.288,0.188c-0.11,0.046-0.229,0.069-0.357,0.069s-0.248-0.023-0.36-0.069s-0.208-0.108-0.288-0.188
		s-0.143-0.175-0.189-0.285S130.374,94.213,130.374,94.084z"/>
	<path d="M139.361,91.631v0.857c0,0.08-0.026,0.149-0.078,0.207c-0.052,0.059-0.126,0.087-0.222,0.087h-0.792V94.9h-1.29v-2.118
		h-3.66c-0.1,0-0.188-0.031-0.264-0.093c-0.076-0.063-0.124-0.139-0.144-0.231l-0.156-0.75l4.11-5.489h1.404v5.412H139.361z
		 M136.979,91.631v-2.839c0-0.268,0.018-0.563,0.054-0.888l-2.694,3.727H136.979z"/>
	<path d="M148.067,86.225l-3.504,8.676h-1.458l-3.504-8.676h1.296c0.14,0,0.254,0.034,0.342,0.102
		c0.088,0.068,0.154,0.156,0.198,0.265l2.046,5.292c0.068,0.172,0.133,0.36,0.195,0.566c0.062,0.206,0.121,0.421,0.177,0.646
		c0.048-0.225,0.1-0.439,0.156-0.646c0.056-0.206,0.118-0.395,0.186-0.566l2.034-5.292c0.032-0.093,0.095-0.177,0.189-0.252
		c0.094-0.076,0.209-0.114,0.345-0.114H148.067z"/>
	<path d="M152.238,94.918c-0.068,0.185-0.177,0.322-0.327,0.414c-0.15,0.093-0.303,0.139-0.459,0.139h-0.63l3.504-8.964
		c0.064-0.168,0.162-0.298,0.294-0.388s0.286-0.135,0.462-0.135h0.636L152.238,94.918z"/>
	<path d="M163.925,90.376c0.528,0.173,0.918,0.436,1.17,0.789c0.252,0.354,0.378,0.787,0.378,1.3c0,0.384-0.073,0.731-0.219,1.044
		c-0.146,0.312-0.351,0.578-0.615,0.798c-0.264,0.22-0.581,0.39-0.951,0.51s-0.779,0.18-1.227,0.18c-0.448,0-0.857-0.06-1.227-0.18
		s-0.687-0.29-0.951-0.51c-0.264-0.22-0.469-0.486-0.615-0.798c-0.146-0.313-0.219-0.66-0.219-1.044c0-0.513,0.126-0.945,0.378-1.3
		c0.252-0.354,0.642-0.616,1.17-0.789c-0.42-0.176-0.735-0.426-0.945-0.75c-0.21-0.323-0.315-0.714-0.315-1.17
		c0-0.327,0.067-0.634,0.201-0.918c0.134-0.283,0.321-0.53,0.561-0.74c0.24-0.211,0.527-0.374,0.861-0.492s0.701-0.178,1.101-0.178
		s0.767,0.06,1.101,0.178s0.621,0.281,0.861,0.492c0.24,0.21,0.427,0.457,0.561,0.74c0.134,0.284,0.201,0.591,0.201,0.918
		c0,0.456-0.105,0.847-0.315,1.17C164.661,89.95,164.345,90.2,163.925,90.376z M162.461,93.839c0.244,0,0.458-0.035,0.642-0.105
		s0.339-0.167,0.465-0.291s0.221-0.271,0.285-0.444c0.064-0.172,0.096-0.357,0.096-0.558c0-0.476-0.132-0.836-0.396-1.08
		c-0.264-0.244-0.628-0.366-1.092-0.366s-0.828,0.122-1.092,0.366c-0.264,0.244-0.396,0.604-0.396,1.08
		c0,0.2,0.032,0.386,0.096,0.558c0.064,0.173,0.159,0.32,0.285,0.444s0.281,0.221,0.465,0.291S162.217,93.839,162.461,93.839z
		 M162.461,87.244c-0.22,0-0.41,0.034-0.57,0.103c-0.16,0.067-0.293,0.159-0.399,0.272c-0.106,0.114-0.184,0.245-0.234,0.394
		c-0.05,0.147-0.075,0.304-0.075,0.468c0,0.172,0.021,0.339,0.063,0.501s0.113,0.306,0.213,0.432s0.232,0.228,0.396,0.304
		c0.164,0.075,0.366,0.113,0.606,0.113c0.24,0,0.442-0.038,0.606-0.113c0.164-0.076,0.296-0.178,0.396-0.304s0.171-0.27,0.213-0.432
		s0.063-0.329,0.063-0.501c0-0.164-0.026-0.32-0.078-0.468c-0.052-0.148-0.13-0.279-0.234-0.394
		c-0.104-0.113-0.236-0.205-0.396-0.272C162.872,87.278,162.681,87.244,162.461,87.244z"/>
	<path d="M166.458,94.084c0-0.123,0.023-0.241,0.069-0.354s0.109-0.208,0.189-0.288s0.176-0.144,0.288-0.192
		c0.112-0.048,0.232-0.071,0.36-0.071s0.247,0.023,0.357,0.071c0.11,0.049,0.206,0.112,0.288,0.192s0.147,0.176,0.195,0.288
		c0.048,0.112,0.072,0.23,0.072,0.354c0,0.129-0.024,0.247-0.072,0.357c-0.048,0.11-0.113,0.205-0.195,0.285
		s-0.178,0.143-0.288,0.188c-0.11,0.046-0.229,0.069-0.357,0.069s-0.248-0.023-0.36-0.069s-0.208-0.108-0.288-0.188
		s-0.143-0.175-0.189-0.285S166.458,94.213,166.458,94.084z"/>
	<path d="M171.923,89.374l-0.3,0.372c0.168-0.084,0.349-0.148,0.543-0.194s0.403-0.069,0.627-0.069c0.328,0,0.647,0.054,0.957,0.162
		c0.31,0.107,0.583,0.271,0.819,0.489c0.236,0.218,0.426,0.488,0.57,0.813s0.216,0.702,0.216,1.134c0,0.404-0.074,0.783-0.222,1.138
		c-0.148,0.354-0.356,0.663-0.624,0.927c-0.268,0.264-0.591,0.472-0.969,0.624c-0.378,0.151-0.795,0.228-1.251,0.228
		c-0.464,0-0.88-0.074-1.248-0.222c-0.368-0.148-0.682-0.354-0.942-0.621c-0.26-0.266-0.459-0.586-0.597-0.96
		c-0.138-0.374-0.207-0.789-0.207-1.245c0-0.408,0.083-0.827,0.249-1.257s0.423-0.877,0.771-1.341l2.07-2.778
		c0.072-0.096,0.177-0.178,0.315-0.246c0.138-0.067,0.297-0.102,0.477-0.102h1.32L171.923,89.374z M172.259,93.784
		c0.236,0,0.453-0.04,0.651-0.12c0.198-0.08,0.368-0.191,0.51-0.336c0.142-0.144,0.253-0.313,0.333-0.507s0.12-0.405,0.12-0.633
		c0-0.248-0.038-0.471-0.114-0.669c-0.076-0.198-0.184-0.366-0.324-0.504c-0.14-0.139-0.308-0.243-0.504-0.315
		c-0.196-0.072-0.412-0.107-0.648-0.107c-0.236,0-0.45,0.04-0.642,0.119c-0.192,0.08-0.356,0.191-0.492,0.333
		c-0.136,0.143-0.242,0.311-0.318,0.505c-0.076,0.193-0.114,0.402-0.114,0.627c0,0.239,0.033,0.459,0.099,0.656
		c0.066,0.198,0.164,0.367,0.294,0.508c0.13,0.14,0.291,0.249,0.483,0.326C171.785,93.745,172.007,93.784,172.259,93.784z"/>
	<path d="M184.151,86.225l-3.504,8.676h-1.458l-3.504-8.676h1.296c0.14,0,0.254,0.034,0.342,0.102
		c0.088,0.068,0.154,0.156,0.198,0.265l2.046,5.292c0.068,0.172,0.133,0.36,0.195,0.566c0.062,0.206,0.121,0.421,0.177,0.646
		c0.048-0.225,0.1-0.439,0.156-0.646c0.056-0.206,0.118-0.395,0.186-0.566l2.034-5.292c0.032-0.093,0.095-0.177,0.189-0.252
		c0.094-0.076,0.209-0.114,0.345-0.114H184.151z"/>
</g>
<line fill="none" stroke="#B87332" stroke-width="2.8347" stroke-miterlimit="10" x1="131.625" y1="118.346" x2="49.828" y2="118.346"/>
<line fill="none" stroke="#B87332" stroke-width="2.8347" stroke-miterlimit="10" x1="130.147" y1="118.346" x2="130.147" y2="141.976"/>
<g>
	<path d="M136.122,25.521c0.071-0.499,0.211-0.938,0.418-1.313c0.206-0.377,0.464-0.691,0.773-0.943s0.665-0.441,1.065-0.569
		c0.4-0.127,0.832-0.191,1.293-0.191c0.48,0,0.914,0.069,1.299,0.207c0.386,0.136,0.717,0.325,0.99,0.568
		c0.274,0.242,0.483,0.527,0.631,0.853c0.146,0.327,0.219,0.68,0.219,1.059c0,0.331-0.037,0.623-0.111,0.875
		s-0.182,0.472-0.32,0.659s-0.313,0.346-0.519,0.475c-0.206,0.13-0.439,0.237-0.698,0.324c0.623,0.197,1.09,0.497,1.396,0.9
		c0.308,0.402,0.461,0.909,0.461,1.519c0,0.519-0.096,0.978-0.288,1.376c-0.191,0.398-0.451,0.732-0.777,1.004
		c-0.327,0.271-0.705,0.476-1.134,0.615c-0.43,0.14-0.884,0.209-1.364,0.209c-0.524,0-0.979-0.061-1.369-0.18
		c-0.389-0.121-0.727-0.298-1.015-0.533s-0.532-0.522-0.733-0.863c-0.202-0.342-0.375-0.735-0.52-1.182l0.784-0.323
		c0.207-0.087,0.4-0.109,0.581-0.069c0.18,0.041,0.31,0.139,0.392,0.292c0.087,0.169,0.181,0.334,0.285,0.497
		c0.103,0.162,0.226,0.308,0.37,0.436c0.144,0.127,0.313,0.229,0.507,0.31c0.195,0.079,0.427,0.118,0.696,0.118
		c0.303,0,0.565-0.049,0.791-0.147c0.227-0.099,0.414-0.227,0.566-0.385c0.149-0.158,0.263-0.335,0.337-0.529
		c0.075-0.194,0.113-0.391,0.113-0.587c0-0.25-0.027-0.477-0.08-0.68c-0.054-0.204-0.164-0.379-0.332-0.523
		c-0.167-0.144-0.408-0.256-0.723-0.337c-0.314-0.082-0.736-0.123-1.264-0.123V27.07c0.437-0.005,0.8-0.046,1.087-0.123
		c0.288-0.076,0.517-0.184,0.688-0.32s0.288-0.301,0.356-0.493s0.101-0.403,0.101-0.634c0-0.489-0.136-0.861-0.41-1.116
		c-0.274-0.254-0.639-0.382-1.095-0.382c-0.211,0-0.405,0.03-0.583,0.09c-0.177,0.061-0.338,0.145-0.479,0.252
		c-0.142,0.108-0.26,0.234-0.356,0.379c-0.096,0.145-0.168,0.303-0.215,0.475c-0.082,0.222-0.19,0.368-0.321,0.439
		c-0.133,0.072-0.319,0.089-0.558,0.051L136.122,25.521z"/>
	<path d="M144.474,25.521c0.073-0.499,0.211-0.938,0.417-1.313c0.207-0.377,0.465-0.691,0.775-0.943
		c0.309-0.252,0.664-0.441,1.064-0.569c0.401-0.127,0.832-0.191,1.293-0.191c0.479,0,0.913,0.069,1.3,0.207
		c0.387,0.136,0.717,0.325,0.99,0.568c0.272,0.242,0.483,0.527,0.629,0.853c0.147,0.327,0.221,0.68,0.221,1.059
		c0,0.331-0.038,0.623-0.112,0.875s-0.181,0.472-0.32,0.659s-0.312,0.346-0.518,0.475c-0.208,0.13-0.439,0.237-0.699,0.324
		c0.625,0.197,1.089,0.497,1.397,0.9c0.307,0.402,0.46,0.909,0.46,1.519c0,0.519-0.096,0.978-0.288,1.376s-0.451,0.732-0.778,1.004
		c-0.325,0.271-0.703,0.476-1.133,0.615s-0.885,0.209-1.365,0.209c-0.522,0-0.979-0.061-1.366-0.18
		c-0.39-0.121-0.728-0.298-1.017-0.533c-0.287-0.235-0.533-0.522-0.734-0.863c-0.201-0.342-0.374-0.735-0.518-1.182l0.785-0.323
		c0.206-0.087,0.398-0.109,0.578-0.069c0.181,0.041,0.313,0.139,0.393,0.292c0.087,0.169,0.182,0.334,0.285,0.497
		c0.104,0.162,0.228,0.308,0.37,0.436c0.145,0.127,0.314,0.229,0.509,0.31c0.194,0.079,0.426,0.118,0.693,0.118
		c0.303,0,0.567-0.049,0.793-0.147c0.225-0.099,0.414-0.227,0.564-0.385c0.152-0.158,0.265-0.335,0.339-0.529
		c0.073-0.194,0.111-0.391,0.111-0.587c0-0.25-0.026-0.477-0.079-0.68c-0.053-0.204-0.162-0.379-0.331-0.523
		c-0.168-0.144-0.409-0.256-0.724-0.337c-0.314-0.082-0.735-0.123-1.264-0.123V27.07c0.437-0.005,0.799-0.046,1.087-0.123
		c0.288-0.076,0.519-0.184,0.688-0.32s0.289-0.301,0.355-0.493c0.067-0.192,0.102-0.403,0.102-0.634c0-0.489-0.138-0.861-0.41-1.116
		c-0.273-0.254-0.639-0.382-1.095-0.382c-0.212,0-0.405,0.03-0.583,0.09c-0.178,0.061-0.337,0.145-0.479,0.252
		c-0.143,0.108-0.262,0.234-0.357,0.379c-0.097,0.145-0.168,0.303-0.216,0.475c-0.082,0.222-0.188,0.368-0.32,0.439
		c-0.132,0.072-0.317,0.089-0.558,0.051L144.474,25.521z"/>
	<path d="M160.041,27.826c0,0.906-0.099,1.695-0.293,2.364c-0.194,0.671-0.463,1.224-0.807,1.659
		c-0.342,0.438-0.747,0.764-1.216,0.977s-0.973,0.32-1.517,0.32c-0.541,0-1.044-0.107-1.507-0.32
		c-0.464-0.213-0.866-0.539-1.207-0.977c-0.34-0.436-0.607-0.988-0.8-1.659c-0.191-0.669-0.288-1.458-0.288-2.364
		c0-0.912,0.097-1.702,0.288-2.369c0.192-0.668,0.46-1.22,0.8-1.656c0.341-0.437,0.743-0.762,1.207-0.976
		c0.463-0.213,0.966-0.321,1.507-0.321c0.544,0,1.048,0.108,1.517,0.321c0.469,0.214,0.874,0.539,1.216,0.976
		c0.344,0.437,0.612,0.988,0.807,1.656C159.942,26.124,160.041,26.914,160.041,27.826z M158.203,27.826
		c0-0.754-0.054-1.379-0.164-1.873c-0.111-0.493-0.259-0.887-0.442-1.18c-0.186-0.293-0.398-0.498-0.638-0.615
		c-0.24-0.119-0.49-0.178-0.75-0.178c-0.253,0-0.499,0.059-0.737,0.178c-0.237,0.117-0.447,0.322-0.629,0.615
		c-0.183,0.293-0.328,0.687-0.437,1.18c-0.107,0.494-0.161,1.119-0.161,1.873c0,0.753,0.054,1.378,0.161,1.871
		c0.108,0.494,0.254,0.889,0.437,1.182c0.182,0.293,0.392,0.498,0.629,0.615c0.238,0.118,0.484,0.177,0.737,0.177
		c0.26,0,0.51-0.059,0.75-0.177c0.239-0.117,0.452-0.322,0.638-0.615c0.184-0.293,0.331-0.688,0.442-1.182
		C158.149,29.204,158.203,28.579,158.203,27.826z"/>
	<path d="M171.531,31.439v0.987c0,0.177-0.058,0.322-0.172,0.436c-0.115,0.112-0.274,0.169-0.477,0.169h-3.822v-2.189
		c0.33-0.057,0.643-0.188,0.933-0.393c0.29-0.203,0.544-0.461,0.762-0.773c0.22-0.312,0.392-0.669,0.516-1.073
		c0.124-0.403,0.188-0.832,0.188-1.288c0-0.533-0.085-0.997-0.255-1.393c-0.172-0.396-0.401-0.725-0.691-0.983
		c-0.291-0.259-0.63-0.454-1.016-0.584c-0.387-0.129-0.797-0.193-1.228-0.193c-0.433,0-0.842,0.064-1.229,0.193
		c-0.387,0.13-0.723,0.325-1.011,0.584c-0.287,0.259-0.518,0.587-0.688,0.983c-0.17,0.396-0.255,0.859-0.255,1.393
		c0,0.456,0.063,0.885,0.188,1.288c0.124,0.404,0.296,0.762,0.516,1.073c0.218,0.313,0.471,0.57,0.762,0.773
		c0.29,0.205,0.602,0.336,0.933,0.393v2.189h-3.823c-0.201,0-0.36-0.057-0.476-0.169c-0.114-0.113-0.173-0.259-0.173-0.436v-0.987
		h1.656c0.226,0,0.456,0.011,0.691,0.033c0.234,0.021,0.468,0.049,0.699,0.082c-0.428-0.153-0.818-0.367-1.175-0.64
		c-0.354-0.274-0.659-0.596-0.914-0.966c-0.255-0.369-0.452-0.778-0.594-1.227c-0.142-0.449-0.212-0.926-0.212-1.43
		c0-0.691,0.131-1.328,0.391-1.912c0.263-0.583,0.624-1.088,1.086-1.515c0.459-0.428,1-0.761,1.623-1.001
		c0.621-0.24,1.292-0.361,2.012-0.361s1.391,0.121,2.014,0.361c0.621,0.24,1.16,0.573,1.619,1.001
		c0.458,0.427,0.819,0.932,1.083,1.515c0.265,0.584,0.396,1.221,0.396,1.912c0,0.504-0.07,0.98-0.212,1.43
		c-0.142,0.448-0.34,0.856-0.594,1.223c-0.255,0.368-0.56,0.689-0.914,0.966c-0.356,0.275-0.747,0.49-1.175,0.644
		c0.231-0.033,0.462-0.061,0.696-0.082c0.232-0.022,0.462-0.033,0.687-0.033H171.531z"/>
</g>
<rect x="40.68" y="77.127" fill="#C3996C" width="9.262" height="9.262"/>
<g>
	<path fill="#FFFFFF" d="M57.243,58.139v1.111h-4.8v-1.111h1.758v-5.057c0-0.201,0.006-0.406,0.018-0.619l-1.248,1.045
		c-0.072,0.057-0.143,0.09-0.213,0.105c-0.07,0.014-0.136,0.014-0.198,0.002s-0.117-0.033-0.165-0.063
		c-0.048-0.029-0.084-0.063-0.108-0.1l-0.468-0.643l2.646-2.25h1.218v7.578H57.243z"/>
</g>
<g>
	<path fill="#FFFFFF" d="M56.919,94.211c0.16,0,0.287,0.045,0.381,0.135c0.094,0.09,0.141,0.209,0.141,0.357v0.887h-5.952v-0.492
		c0-0.1,0.021-0.205,0.063-0.314s0.109-0.209,0.201-0.297l2.634-2.641c0.22-0.223,0.417-0.438,0.591-0.641
		c0.174-0.205,0.319-0.406,0.435-0.607c0.116-0.199,0.205-0.402,0.267-0.607c0.062-0.207,0.093-0.424,0.093-0.652
		c0-0.207-0.03-0.391-0.09-0.549s-0.145-0.291-0.255-0.398s-0.242-0.189-0.396-0.244c-0.154-0.053-0.327-0.08-0.519-0.08
		c-0.176,0-0.339,0.025-0.489,0.074c-0.15,0.051-0.283,0.121-0.399,0.211c-0.116,0.09-0.214,0.195-0.294,0.314
		c-0.08,0.121-0.14,0.252-0.18,0.396c-0.068,0.184-0.156,0.307-0.264,0.365c-0.108,0.061-0.264,0.074-0.468,0.043l-0.78-0.139
		c0.06-0.416,0.176-0.781,0.348-1.094c0.172-0.314,0.387-0.576,0.645-0.787c0.258-0.209,0.554-0.367,0.888-0.475
		c0.334-0.105,0.693-0.158,1.077-0.158c0.4,0,0.766,0.059,1.098,0.178c0.332,0.117,0.616,0.285,0.852,0.5
		c0.236,0.217,0.42,0.477,0.552,0.779c0.132,0.305,0.198,0.643,0.198,1.016c0,0.32-0.047,0.615-0.141,0.887
		c-0.094,0.273-0.22,0.533-0.378,0.781c-0.158,0.248-0.343,0.488-0.555,0.719c-0.212,0.232-0.434,0.469-0.666,0.709l-1.956,1.998
		c0.188-0.057,0.375-0.1,0.561-0.129c0.186-0.031,0.363-0.045,0.531-0.045H56.919z"/>
</g>
<g>
	<path fill="#FFFFFF" d="M51.681,126.467c0.06-0.416,0.176-0.781,0.348-1.095c0.172-0.314,0.387-0.576,0.645-0.786
		c0.258-0.21,0.554-0.368,0.888-0.475c0.334-0.105,0.693-0.159,1.077-0.159c0.4,0,0.761,0.058,1.083,0.172
		c0.322,0.113,0.597,0.271,0.825,0.474s0.403,0.439,0.525,0.711c0.122,0.272,0.183,0.566,0.183,0.882
		c0,0.276-0.031,0.52-0.093,0.729s-0.151,0.393-0.267,0.549c-0.116,0.156-0.26,0.288-0.432,0.396
		c-0.172,0.108-0.366,0.198-0.582,0.271c0.52,0.164,0.908,0.414,1.164,0.75c0.256,0.336,0.384,0.758,0.384,1.266
		c0,0.433-0.08,0.814-0.24,1.146c-0.16,0.332-0.376,0.61-0.648,0.837c-0.272,0.226-0.587,0.396-0.945,0.513
		s-0.737,0.174-1.137,0.174c-0.436,0-0.816-0.05-1.14-0.149c-0.324-0.101-0.606-0.248-0.846-0.444
		c-0.24-0.196-0.444-0.436-0.612-0.72s-0.312-0.612-0.432-0.984l0.654-0.27c0.172-0.072,0.333-0.091,0.483-0.058
		c0.15,0.034,0.259,0.115,0.327,0.243c0.072,0.141,0.151,0.278,0.237,0.414c0.086,0.136,0.189,0.257,0.309,0.363
		c0.12,0.105,0.261,0.191,0.423,0.258s0.355,0.099,0.579,0.099c0.252,0,0.472-0.041,0.66-0.123s0.345-0.188,0.471-0.32
		s0.22-0.279,0.282-0.441s0.093-0.325,0.093-0.489c0-0.208-0.022-0.396-0.066-0.566c-0.044-0.17-0.136-0.315-0.276-0.436
		c-0.14-0.12-0.341-0.214-0.603-0.281c-0.262-0.068-0.613-0.103-1.053-0.103v-1.056c0.364-0.004,0.666-0.038,0.906-0.103
		c0.24-0.063,0.431-0.152,0.573-0.267s0.241-0.251,0.297-0.411s0.084-0.336,0.084-0.528c0-0.407-0.114-0.718-0.342-0.93
		s-0.532-0.318-0.912-0.318c-0.176,0-0.338,0.025-0.486,0.075s-0.281,0.12-0.399,0.21c-0.118,0.09-0.217,0.195-0.297,0.315
		s-0.14,0.252-0.18,0.396c-0.068,0.185-0.157,0.307-0.267,0.366c-0.11,0.061-0.265,0.074-0.465,0.042L51.681,126.467z"/>
</g>
<g>
	<path d="M76.849,33.608c-0.058,0.101-0.119,0.173-0.184,0.219c-0.065,0.046-0.146,0.068-0.241,0.068
		c-0.102,0-0.21-0.036-0.328-0.111c-0.117-0.074-0.258-0.157-0.421-0.249c-0.163-0.091-0.354-0.173-0.572-0.248
		c-0.219-0.074-0.477-0.111-0.774-0.111c-0.269,0-0.504,0.033-0.705,0.098c-0.202,0.064-0.371,0.154-0.508,0.27
		s-0.239,0.253-0.306,0.414c-0.067,0.161-0.101,0.337-0.101,0.529c0,0.244,0.067,0.448,0.205,0.611
		c0.136,0.164,0.317,0.304,0.543,0.418c0.226,0.115,0.482,0.219,0.771,0.31c0.288,0.092,0.583,0.188,0.886,0.292
		S75.711,36.34,76,36.477c0.288,0.138,0.545,0.31,0.771,0.519c0.226,0.21,0.406,0.465,0.543,0.768
		c0.137,0.302,0.205,0.669,0.205,1.102c0,0.47-0.08,0.91-0.241,1.32c-0.16,0.41-0.396,0.769-0.705,1.073s-0.688,0.545-1.134,0.72
		c-0.446,0.176-0.958,0.263-1.534,0.263c-0.331,0-0.657-0.031-0.979-0.098c-0.321-0.064-0.63-0.156-0.925-0.276
		s-0.572-0.264-0.831-0.433c-0.26-0.167-0.49-0.354-0.691-0.561l0.568-0.93c0.048-0.066,0.11-0.123,0.188-0.169
		c0.076-0.046,0.158-0.067,0.244-0.067c0.12,0,0.25,0.049,0.39,0.147c0.139,0.099,0.305,0.207,0.497,0.327
		c0.191,0.12,0.416,0.229,0.673,0.328c0.257,0.098,0.564,0.147,0.925,0.147c0.553,0,0.979-0.132,1.282-0.393
		c0.302-0.262,0.453-0.638,0.453-1.128c0-0.272-0.068-0.496-0.205-0.669s-0.318-0.317-0.544-0.436
		c-0.226-0.117-0.482-0.217-0.771-0.299c-0.287-0.081-0.58-0.17-0.878-0.267c-0.298-0.096-0.59-0.211-0.879-0.346
		c-0.288-0.135-0.545-0.309-0.771-0.525c-0.226-0.216-0.406-0.485-0.543-0.811c-0.137-0.323-0.205-0.723-0.205-1.198
		c0-0.379,0.075-0.749,0.227-1.108c0.151-0.36,0.371-0.679,0.659-0.958c0.287-0.278,0.643-0.501,1.065-0.669
		c0.422-0.169,0.907-0.253,1.454-0.253c0.614,0,1.181,0.096,1.699,0.288s0.96,0.461,1.324,0.807L76.849,33.608z"/>
</g>
<g>
	<path d="M78.144,64.186L73.94,74.597h-1.75l-4.204-10.411h1.555c0.168,0,0.305,0.041,0.41,0.122
		c0.106,0.082,0.186,0.188,0.238,0.317l2.455,6.351c0.081,0.206,0.159,0.433,0.234,0.68c0.073,0.247,0.145,0.505,0.212,0.774
		c0.058-0.27,0.12-0.527,0.188-0.774c0.066-0.247,0.141-0.474,0.223-0.68l2.44-6.351c0.039-0.111,0.114-0.212,0.228-0.302
		c0.112-0.092,0.25-0.138,0.414-0.138H78.144z"/>
	<path d="M82.251,72.768c-0.037,0.06-0.076,0.102-0.117,0.127c-0.041,0.023-0.094,0.036-0.156,0.036
		c-0.067,0-0.14-0.019-0.216-0.057c-0.077-0.037-0.165-0.079-0.267-0.126c-0.101-0.046-0.215-0.088-0.344-0.126
		c-0.129-0.037-0.28-0.056-0.456-0.056c-0.272,0-0.486,0.059-0.641,0.173c-0.155,0.116-0.232,0.268-0.232,0.454
		c0,0.123,0.04,0.226,0.12,0.311c0.081,0.084,0.187,0.158,0.319,0.221c0.132,0.063,0.282,0.12,0.45,0.17
		c0.168,0.051,0.339,0.105,0.513,0.166c0.173,0.06,0.344,0.127,0.512,0.205c0.168,0.076,0.318,0.173,0.45,0.29
		c0.133,0.117,0.239,0.259,0.319,0.423s0.12,0.361,0.12,0.594c0,0.275-0.05,0.53-0.147,0.764c-0.1,0.233-0.246,0.435-0.439,0.604
		c-0.194,0.169-0.434,0.302-0.72,0.397c-0.285,0.095-0.615,0.142-0.987,0.142c-0.198,0-0.392-0.018-0.58-0.053
		s-0.369-0.084-0.543-0.148c-0.173-0.063-0.334-0.138-0.48-0.224c-0.148-0.086-0.277-0.179-0.39-0.279l0.319-0.526
		c0.041-0.063,0.089-0.112,0.146-0.146c0.056-0.033,0.127-0.05,0.213-0.05c0.085,0,0.167,0.023,0.243,0.072
		c0.076,0.048,0.165,0.101,0.266,0.156s0.22,0.108,0.355,0.157c0.137,0.049,0.309,0.072,0.518,0.072c0.164,0,0.306-0.02,0.423-0.059
		s0.214-0.09,0.291-0.153c0.076-0.063,0.133-0.138,0.168-0.222s0.053-0.171,0.053-0.26c0-0.135-0.04-0.245-0.12-0.331
		c-0.08-0.085-0.187-0.16-0.319-0.224c-0.132-0.063-0.283-0.121-0.453-0.171c-0.17-0.051-0.343-0.104-0.521-0.164
		c-0.177-0.06-0.351-0.13-0.521-0.211c-0.17-0.08-0.321-0.182-0.453-0.305c-0.133-0.123-0.238-0.274-0.319-0.454
		c-0.08-0.178-0.12-0.395-0.12-0.648c0-0.234,0.047-0.459,0.14-0.672c0.094-0.212,0.231-0.398,0.411-0.557
		c0.182-0.158,0.407-0.286,0.678-0.381s0.583-0.143,0.938-0.143c0.396,0,0.756,0.065,1.08,0.196c0.325,0.13,0.595,0.303,0.812,0.515
		L82.251,72.768z"/>
	<path d="M84.731,74.693c0.022,0.295,0.074,0.549,0.157,0.764c0.082,0.215,0.189,0.392,0.324,0.532
		c0.135,0.14,0.294,0.243,0.479,0.313s0.389,0.104,0.612,0.104c0.225,0,0.418-0.026,0.58-0.077c0.162-0.053,0.304-0.11,0.425-0.174
		c0.122-0.064,0.228-0.122,0.319-0.175c0.091-0.052,0.18-0.077,0.266-0.077c0.115,0,0.202,0.042,0.258,0.128l0.397,0.504
		c-0.153,0.179-0.324,0.329-0.515,0.451c-0.19,0.12-0.39,0.218-0.597,0.29c-0.207,0.073-0.418,0.125-0.633,0.154
		c-0.214,0.03-0.422,0.045-0.624,0.045c-0.398,0-0.771-0.066-1.113-0.199c-0.344-0.132-0.642-0.328-0.896-0.587
		c-0.254-0.26-0.453-0.58-0.599-0.963c-0.146-0.382-0.219-0.825-0.219-1.329c0-0.392,0.063-0.761,0.19-1.105
		c0.127-0.346,0.309-0.646,0.546-0.9c0.237-0.256,0.525-0.459,0.867-0.607c0.342-0.15,0.727-0.225,1.155-0.225
		c0.362,0,0.696,0.059,1.002,0.174c0.307,0.115,0.569,0.284,0.79,0.507c0.22,0.222,0.393,0.494,0.518,0.816s0.188,0.691,0.188,1.105
		c0,0.21-0.022,0.351-0.067,0.423s-0.131,0.109-0.257,0.109H84.731z M87.367,73.858c0-0.178-0.024-0.347-0.075-0.506
		c-0.051-0.158-0.126-0.298-0.227-0.417c-0.101-0.12-0.229-0.214-0.384-0.283c-0.154-0.068-0.335-0.103-0.54-0.103
		c-0.398,0-0.714,0.113-0.942,0.341c-0.229,0.228-0.376,0.551-0.439,0.968H87.367z"/>
	<path d="M90.949,72.645c0.18-0.344,0.393-0.613,0.639-0.809s0.537-0.294,0.873-0.294c0.265,0,0.478,0.059,0.638,0.173l-0.09,1.036
		c-0.019,0.067-0.046,0.115-0.081,0.144c-0.035,0.026-0.083,0.041-0.143,0.041c-0.057,0-0.139-0.01-0.249-0.028
		c-0.11-0.018-0.218-0.027-0.321-0.027c-0.154,0-0.29,0.022-0.409,0.067c-0.12,0.044-0.227,0.108-0.322,0.193
		c-0.095,0.083-0.179,0.185-0.252,0.305c-0.072,0.119-0.141,0.255-0.203,0.408v3.537h-1.383v-5.742h0.812
		c0.142,0,0.24,0.024,0.297,0.075c0.056,0.05,0.093,0.142,0.111,0.271L90.949,72.645z"/>
	<path d="M98.997,71.648l-2.278,5.742h-1.253l-2.278-5.742h1.143c0.104,0,0.19,0.024,0.26,0.072c0.068,0.049,0.115,0.11,0.137,0.186
		l1.108,3.066c0.06,0.18,0.112,0.354,0.156,0.526c0.045,0.171,0.085,0.344,0.118,0.515c0.037-0.171,0.078-0.344,0.123-0.515
		c0.045-0.172,0.099-0.347,0.162-0.526l1.131-3.066c0.025-0.075,0.072-0.137,0.14-0.186c0.067-0.048,0.147-0.072,0.24-0.072H98.997z
		"/>
	<path d="M102.092,71.559c0.426,0,0.813,0.068,1.161,0.207s0.647,0.334,0.896,0.588s0.439,0.563,0.573,0.929
		c0.135,0.366,0.202,0.774,0.202,1.226c0,0.456-0.067,0.866-0.202,1.231c-0.134,0.366-0.325,0.678-0.573,0.936
		c-0.248,0.257-0.547,0.454-0.896,0.593s-0.735,0.207-1.161,0.207c-0.429,0-0.819-0.068-1.17-0.207s-0.65-0.336-0.898-0.593
		c-0.248-0.258-0.44-0.569-0.576-0.936c-0.137-0.365-0.204-0.775-0.204-1.231c0-0.451,0.067-0.859,0.204-1.226
		c0.136-0.366,0.328-0.675,0.576-0.929s0.548-0.449,0.898-0.588S101.664,71.559,102.092,71.559z M102.092,76.411
		c0.478,0,0.831-0.161,1.061-0.481s0.344-0.79,0.344-1.41s-0.114-1.091-0.344-1.416c-0.229-0.324-0.583-0.487-1.061-0.487
		c-0.485,0-0.845,0.163-1.077,0.49c-0.233,0.327-0.351,0.798-0.351,1.413s0.117,1.085,0.351,1.407
		C101.248,76.25,101.607,76.411,102.092,76.411z"/>
</g>
<line fill="none" stroke="#B87332" stroke-width="2.8347" stroke-miterlimit="10" x1="243.466" y1="158.685" x2="243.466" y2="174.558"/>
<line fill="none" stroke="#000000" stroke-width="4.252" stroke-miterlimit="10" x1="255.777" y1="185.38" x2="231.152" y2="185.38"/>
<line fill="none" stroke="#000000" stroke-width="2.8347" stroke-miterlimit="10" x1="243.466" y1="171.297" x2="243.466" y2="185.38"/>
<line fill="none" stroke="#B87332" stroke-width="2.8347" stroke-miterlimit="10" x1="130.148" y1="131.795" x2="130.148" y2="147.668"/>
<line fill="none" stroke="#000000" stroke-width="4.252" stroke-miterlimit="10" x1="142.46" y1="155.021" x2="117.836" y2="155.021"/>
<line fill="none" stroke="#000000" stroke-width="2.8347" stroke-miterlimit="10" x1="130.148" y1="140.938" x2="130.148" y2="155.021"/>
<g id="symbol_x5F_4">
</g>
<g>
	<path d="M222.681,97.07c0,0.954-0.159,1.83-0.478,2.628c-0.317,0.798-0.764,1.485-1.34,2.061c-0.576,0.576-1.27,1.023-2.08,1.342
		c-0.81,0.317-1.709,0.477-2.699,0.477h-4.959V90.563h4.959c0.99,0,1.89,0.16,2.699,0.481c0.811,0.32,1.504,0.768,2.08,1.341
		s1.022,1.259,1.34,2.057C222.521,95.24,222.681,96.116,222.681,97.07z M220.197,97.07c0-0.714-0.096-1.354-0.284-1.922
		c-0.188-0.566-0.462-1.047-0.819-1.439c-0.356-0.394-0.789-0.694-1.295-0.905c-0.508-0.21-1.079-0.314-1.715-0.314h-2.529v9.162
		h2.529c0.636,0,1.207-0.105,1.715-0.315c0.506-0.21,0.938-0.512,1.295-0.904c0.357-0.393,0.631-0.873,0.819-1.44
		C220.102,98.425,220.197,97.784,220.197,97.07z"/>
	<path d="M233.751,100.508c0.132,0,0.249,0.052,0.351,0.153l0.954,1.035c-0.528,0.654-1.178,1.155-1.948,1.503
		c-0.771,0.348-1.697,0.521-2.777,0.521c-0.965,0-1.834-0.164-2.605-0.494c-0.771-0.33-1.43-0.789-1.975-1.377
		c-0.547-0.589-0.965-1.29-1.256-2.106s-0.437-1.707-0.437-2.673c0-0.979,0.156-1.874,0.468-2.687
		c0.313-0.813,0.752-1.514,1.318-2.102c0.567-0.588,1.244-1.046,2.029-1.373c0.787-0.326,1.656-0.49,2.611-0.49
		c0.947,0,1.789,0.156,2.523,0.468c0.735,0.313,1.361,0.721,1.877,1.225l-0.811,1.125c-0.047,0.072-0.109,0.135-0.184,0.188
		c-0.076,0.055-0.18,0.081-0.311,0.081c-0.09,0-0.184-0.025-0.279-0.076s-0.201-0.114-0.314-0.189
		c-0.115-0.074-0.246-0.157-0.396-0.247s-0.324-0.173-0.521-0.247c-0.199-0.075-0.428-0.139-0.689-0.189
		c-0.261-0.051-0.563-0.076-0.904-0.076c-0.582,0-1.114,0.104-1.598,0.311c-0.482,0.207-0.898,0.507-1.246,0.899
		c-0.348,0.394-0.618,0.873-0.811,1.44c-0.191,0.566-0.287,1.214-0.287,1.939c0,0.731,0.104,1.383,0.311,1.953
		c0.207,0.569,0.486,1.05,0.841,1.439c0.354,0.391,0.771,0.688,1.251,0.896s0.996,0.311,1.549,0.311
		c0.329,0,0.628-0.018,0.895-0.054c0.268-0.036,0.514-0.093,0.738-0.171s0.438-0.179,0.639-0.302s0.4-0.274,0.6-0.454
		c0.059-0.055,0.122-0.098,0.188-0.131C233.609,100.524,233.679,100.508,233.751,100.508z"/>
	<path d="M237.918,103.604c-0.103,0.275-0.266,0.482-0.491,0.621c-0.225,0.138-0.454,0.207-0.688,0.207h-0.945l5.256-13.446
		c0.097-0.252,0.244-0.445,0.441-0.581c0.198-0.135,0.43-0.202,0.693-0.202h0.954L237.918,103.604z"/>
	<path d="M256.664,97.07c0,0.954-0.158,1.83-0.477,2.628s-0.766,1.485-1.342,2.061c-0.576,0.576-1.269,1.023-2.078,1.342
		c-0.811,0.317-1.711,0.477-2.7,0.477h-4.959V90.563h4.959c0.989,0,1.89,0.16,2.7,0.481c0.81,0.32,1.502,0.768,2.078,1.341
		s1.023,1.259,1.342,2.057S256.664,96.116,256.664,97.07z M254.18,97.07c0-0.714-0.094-1.354-0.283-1.922
		c-0.189-0.566-0.462-1.047-0.818-1.439c-0.357-0.394-0.789-0.694-1.297-0.905c-0.507-0.21-1.078-0.314-1.714-0.314h-2.529v9.162
		h2.529c0.636,0,1.207-0.105,1.714-0.315c0.508-0.21,0.939-0.512,1.297-0.904c0.356-0.393,0.629-0.873,0.818-1.44
		C254.086,98.425,254.18,97.784,254.18,97.07z"/>
	<path d="M267.734,100.508c0.132,0,0.248,0.052,0.351,0.153l0.954,1.035c-0.527,0.654-1.178,1.155-1.948,1.503
		s-1.696,0.521-2.776,0.521c-0.967,0-1.835-0.164-2.605-0.494c-0.771-0.33-1.43-0.789-1.977-1.377
		c-0.545-0.589-0.964-1.29-1.255-2.106s-0.437-1.707-0.437-2.673c0-0.979,0.156-1.874,0.469-2.687
		c0.312-0.813,0.751-1.514,1.318-2.102c0.566-0.588,1.243-1.046,2.029-1.373c0.785-0.326,1.656-0.49,2.609-0.49
		c0.948,0,1.79,0.156,2.525,0.468c0.734,0.313,1.359,0.721,1.876,1.225l-0.81,1.125c-0.049,0.072-0.109,0.135-0.186,0.188
		c-0.074,0.055-0.178,0.081-0.311,0.081c-0.09,0-0.183-0.025-0.278-0.076c-0.097-0.051-0.201-0.114-0.315-0.189
		c-0.113-0.074-0.246-0.157-0.396-0.247s-0.324-0.173-0.522-0.247c-0.197-0.075-0.428-0.139-0.688-0.189
		c-0.262-0.051-0.563-0.076-0.905-0.076c-0.582,0-1.114,0.104-1.597,0.311c-0.484,0.207-0.899,0.507-1.247,0.899
		c-0.349,0.394-0.618,0.873-0.81,1.44c-0.193,0.566-0.289,1.214-0.289,1.939c0,0.731,0.104,1.383,0.311,1.953
		c0.207,0.569,0.488,1.05,0.842,1.439c0.354,0.391,0.771,0.688,1.251,0.896s0.996,0.311,1.548,0.311c0.33,0,0.629-0.018,0.896-0.054
		c0.266-0.036,0.512-0.093,0.737-0.171s0.438-0.179,0.64-0.302c0.2-0.123,0.4-0.274,0.598-0.454
		c0.061-0.055,0.123-0.098,0.189-0.131S267.662,100.508,267.734,100.508z"/>
	<path d="M208.722,117.896c-0.065,0.084-0.13,0.15-0.193,0.198s-0.155,0.072-0.274,0.072c-0.114,0-0.225-0.035-0.333-0.104
		c-0.108-0.069-0.237-0.147-0.388-0.234c-0.149-0.087-0.328-0.165-0.535-0.233c-0.207-0.069-0.463-0.104-0.77-0.104
		c-0.39,0-0.732,0.07-1.025,0.211c-0.295,0.142-0.539,0.344-0.734,0.607c-0.194,0.265-0.34,0.584-0.436,0.959
		c-0.097,0.375-0.145,0.799-0.145,1.273c0,0.492,0.053,0.93,0.158,1.313c0.104,0.385,0.256,0.707,0.454,0.968
		s0.438,0.459,0.72,0.594c0.282,0.136,0.6,0.203,0.954,0.203s0.641-0.044,0.859-0.131c0.22-0.087,0.403-0.183,0.554-0.288
		c0.15-0.104,0.28-0.201,0.392-0.288c0.11-0.087,0.235-0.13,0.374-0.13c0.18,0,0.314,0.068,0.404,0.207l0.639,0.81
		c-0.246,0.288-0.513,0.529-0.801,0.725s-0.586,0.351-0.896,0.468s-0.627,0.199-0.954,0.248c-0.326,0.048-0.652,0.071-0.977,0.071
		c-0.57,0-1.107-0.106-1.611-0.319s-0.944-0.523-1.322-0.932s-0.677-0.907-0.896-1.498c-0.22-0.591-0.329-1.265-0.329-2.021
		c0-0.678,0.098-1.307,0.293-1.886s0.481-1.08,0.859-1.503s0.846-0.755,1.404-0.994c0.558-0.24,1.199-0.36,1.926-0.36
		c0.689,0,1.295,0.111,1.813,0.333s0.985,0.54,1.399,0.954L208.722,117.896z"/>
	<path d="M214.707,115.799c0.684,0,1.307,0.111,1.867,0.333s1.041,0.537,1.44,0.945c0.399,0.407,0.706,0.905,0.923,1.493
		c0.215,0.589,0.323,1.245,0.323,1.972c0,0.731-0.108,1.392-0.323,1.979c-0.217,0.588-0.523,1.089-0.923,1.503
		s-0.88,0.732-1.44,0.954s-1.184,0.333-1.867,0.333c-0.689,0-1.317-0.111-1.881-0.333c-0.564-0.222-1.046-0.54-1.445-0.954
		c-0.398-0.414-0.707-0.915-0.926-1.503c-0.22-0.588-0.329-1.248-0.329-1.979c0-0.727,0.109-1.383,0.329-1.972
		c0.219-0.588,0.527-1.086,0.926-1.493c0.399-0.408,0.881-0.724,1.445-0.945C213.39,115.91,214.018,115.799,214.707,115.799z
		 M214.707,123.602c0.768,0,1.336-0.258,1.705-0.773c0.369-0.517,0.554-1.272,0.554-2.269s-0.185-1.755-0.554-2.276
		c-0.369-0.522-0.938-0.783-1.705-0.783c-0.78,0-1.357,0.263-1.732,0.787c-0.375,0.525-0.563,1.282-0.563,2.272
		s0.188,1.745,0.563,2.264C213.35,123.343,213.927,123.602,214.707,123.602z"/>
	<path d="M223.041,117.077c0.186-0.187,0.383-0.358,0.59-0.518s0.426-0.294,0.656-0.405s0.479-0.198,0.742-0.261
		c0.265-0.063,0.553-0.095,0.864-0.095c0.505,0,0.951,0.085,1.341,0.257c0.391,0.171,0.716,0.41,0.977,0.72
		c0.262,0.309,0.459,0.678,0.594,1.106c0.136,0.43,0.203,0.902,0.203,1.418v5.877h-2.223V119.3c0-0.563-0.129-1-0.387-1.31
		c-0.259-0.309-0.652-0.464-1.18-0.464c-0.384,0-0.744,0.088-1.08,0.262s-0.654,0.411-0.954,0.711v6.678h-2.223v-9.234h1.358
		c0.289,0,0.478,0.136,0.567,0.405L223.041,117.077z"/>
	<path d="M239.231,115.942l-3.663,9.234h-2.016l-3.663-9.234h1.836c0.168,0,0.308,0.039,0.419,0.117
		c0.11,0.078,0.184,0.177,0.221,0.297l1.781,4.933c0.096,0.288,0.18,0.569,0.252,0.846s0.135,0.552,0.189,0.828
		c0.06-0.276,0.125-0.552,0.197-0.828s0.159-0.558,0.262-0.846l1.818-4.933c0.041-0.12,0.116-0.219,0.225-0.297
		c0.107-0.078,0.236-0.117,0.387-0.117H239.231z"/>
	<path d="M241.833,120.839c0.036,0.474,0.12,0.884,0.252,1.229s0.306,0.63,0.522,0.854c0.215,0.226,0.473,0.394,0.77,0.504
		c0.297,0.111,0.625,0.167,0.984,0.167c0.36,0,0.671-0.042,0.932-0.126c0.262-0.084,0.489-0.177,0.685-0.279
		c0.194-0.102,0.366-0.194,0.513-0.278s0.289-0.126,0.428-0.126c0.186,0,0.324,0.068,0.414,0.207l0.639,0.81
		c-0.246,0.288-0.521,0.529-0.828,0.725c-0.306,0.195-0.625,0.351-0.958,0.468s-0.673,0.199-1.017,0.248
		c-0.346,0.048-0.68,0.071-1.004,0.071c-0.643,0-1.239-0.106-1.791-0.319c-0.553-0.213-1.032-0.528-1.439-0.945
		c-0.408-0.417-0.729-0.933-0.964-1.548c-0.233-0.614-0.351-1.327-0.351-2.138c0-0.63,0.102-1.222,0.306-1.777
		c0.204-0.555,0.497-1.038,0.878-1.448c0.381-0.411,0.846-0.737,1.395-0.977c0.549-0.24,1.168-0.36,1.858-0.36
		c0.582,0,1.119,0.093,1.611,0.279c0.491,0.186,0.915,0.457,1.269,0.814c0.354,0.356,0.632,0.795,0.833,1.313
		c0.2,0.52,0.302,1.111,0.302,1.777c0,0.337-0.037,0.563-0.108,0.68s-0.21,0.176-0.414,0.176H241.833z M246.072,119.498
		c0-0.288-0.041-0.56-0.122-0.814s-0.202-0.479-0.364-0.671c-0.162-0.191-0.367-0.344-0.617-0.454
		c-0.248-0.111-0.538-0.167-0.867-0.167c-0.643,0-1.148,0.184-1.518,0.549c-0.369,0.366-0.604,0.886-0.706,1.558H246.072z"/>
	<path d="M251.832,117.545c0.287-0.552,0.63-0.985,1.025-1.301c0.396-0.314,0.864-0.473,1.404-0.473
		c0.426,0,0.768,0.094,1.025,0.279l-0.144,1.665c-0.03,0.108-0.073,0.185-0.13,0.229c-0.058,0.045-0.135,0.067-0.23,0.067
		c-0.09,0-0.223-0.015-0.4-0.045c-0.177-0.03-0.35-0.045-0.518-0.045c-0.246,0-0.465,0.036-0.656,0.107
		c-0.192,0.072-0.365,0.176-0.518,0.311c-0.153,0.136-0.288,0.299-0.405,0.491c-0.116,0.191-0.227,0.411-0.329,0.656v5.688h-2.223
		v-9.234h1.305c0.229,0,0.388,0.041,0.478,0.122c0.091,0.081,0.149,0.227,0.181,0.437L251.832,117.545z"/>
	<path d="M259.526,125.32c-0.804,0-1.421-0.226-1.849-0.679c-0.43-0.453-0.645-1.079-0.645-1.877v-5.157h-0.945
		c-0.119,0-0.221-0.039-0.305-0.116c-0.084-0.078-0.127-0.195-0.127-0.352v-0.882l1.485-0.243l0.468-2.52
		c0.03-0.12,0.087-0.213,0.172-0.279c0.084-0.066,0.191-0.099,0.323-0.099h1.151v2.906h2.467v1.584h-2.467v5.004
		c0,0.288,0.071,0.514,0.213,0.676c0.141,0.162,0.334,0.242,0.58,0.242c0.138,0,0.253-0.016,0.346-0.049
		c0.094-0.033,0.174-0.067,0.244-0.104c0.068-0.036,0.13-0.07,0.184-0.104c0.055-0.033,0.108-0.05,0.162-0.05
		c0.066,0,0.12,0.017,0.162,0.05s0.087,0.082,0.135,0.148l0.666,1.08c-0.324,0.27-0.695,0.474-1.115,0.611
		C260.412,125.252,259.977,125.32,259.526,125.32z"/>
	<path d="M264.782,120.839c0.036,0.474,0.12,0.884,0.252,1.229s0.306,0.63,0.522,0.854c0.215,0.226,0.473,0.394,0.77,0.504
		c0.297,0.111,0.625,0.167,0.984,0.167c0.36,0,0.671-0.042,0.932-0.126c0.262-0.084,0.489-0.177,0.685-0.279
		c0.194-0.102,0.366-0.194,0.513-0.278s0.289-0.126,0.428-0.126c0.186,0,0.324,0.068,0.414,0.207l0.639,0.81
		c-0.246,0.288-0.521,0.529-0.828,0.725c-0.306,0.195-0.625,0.351-0.958,0.468s-0.673,0.199-1.017,0.248
		c-0.346,0.048-0.68,0.071-1.004,0.071c-0.643,0-1.239-0.106-1.791-0.319c-0.553-0.213-1.032-0.528-1.439-0.945
		c-0.408-0.417-0.729-0.933-0.964-1.548c-0.233-0.614-0.351-1.327-0.351-2.138c0-0.63,0.102-1.222,0.306-1.777
		c0.204-0.555,0.497-1.038,0.878-1.448c0.381-0.411,0.846-0.737,1.395-0.977c0.549-0.24,1.168-0.36,1.858-0.36
		c0.582,0,1.119,0.093,1.611,0.279c0.491,0.186,0.915,0.457,1.269,0.814c0.354,0.356,0.632,0.795,0.833,1.313
		c0.2,0.52,0.302,1.111,0.302,1.777c0,0.337-0.037,0.563-0.108,0.68s-0.21,0.176-0.414,0.176H264.782z M269.021,119.498
		c0-0.288-0.041-0.56-0.122-0.814s-0.202-0.479-0.364-0.671c-0.162-0.191-0.367-0.344-0.617-0.454
		c-0.248-0.111-0.538-0.167-0.867-0.167c-0.643,0-1.148,0.184-1.518,0.549c-0.369,0.366-0.604,0.886-0.706,1.558H269.021z"/>
	<path d="M274.781,117.545c0.287-0.552,0.63-0.985,1.025-1.301c0.396-0.314,0.864-0.473,1.404-0.473
		c0.426,0,0.768,0.094,1.025,0.279l-0.144,1.665c-0.03,0.108-0.073,0.185-0.13,0.229c-0.058,0.045-0.135,0.067-0.23,0.067
		c-0.09,0-0.223-0.015-0.4-0.045c-0.177-0.03-0.35-0.045-0.518-0.045c-0.246,0-0.465,0.036-0.656,0.107
		c-0.192,0.072-0.365,0.176-0.518,0.311c-0.153,0.136-0.288,0.299-0.405,0.491c-0.116,0.191-0.227,0.411-0.329,0.656v5.688h-2.223
		v-9.234h1.305c0.229,0,0.388,0.041,0.478,0.122c0.091,0.081,0.149,0.227,0.181,0.437L274.781,117.545z"/>
</g>
<polyline fill="none" stroke="#B87332" stroke-width="2.8347" stroke-miterlimit="10" points="321.563,72.331 321.563,94.127 
	290.143,94.127 "/>
<path fill="#FFF200" stroke="#000000" stroke-width="2.8347" stroke-miterlimit="10" d="M321.6,61.445
	c-0.58,0-1.135,0.117-1.637,0.33c-1.512,0.639-2.572,2.135-2.572,3.879c0,2.326,1.885,4.211,4.209,4.211
	c2.326,0,4.211-1.885,4.211-4.211C325.811,63.33,323.926,61.445,321.6,61.445z"/>
<line fill="none" stroke="#000000" stroke-width="2.8347" stroke-miterlimit="10" x1="321.6" y1="70.908" x2="321.6" y2="84.991"/>
<g>
	<path d="M340.424,60.053l-4.205,10.411h-1.749l-4.206-10.411h1.556c0.168,0,0.305,0.041,0.41,0.122
		c0.105,0.082,0.185,0.188,0.237,0.317l2.456,6.351c0.081,0.206,0.159,0.433,0.233,0.68c0.075,0.247,0.146,0.505,0.213,0.774
		c0.058-0.27,0.12-0.527,0.187-0.774c0.068-0.247,0.142-0.474,0.224-0.68l2.441-6.351c0.037-0.111,0.113-0.212,0.226-0.303
		c0.113-0.091,0.251-0.137,0.414-0.137H340.424z"/>
	<path d="M342.65,65.842c0,0.119-0.024,0.23-0.073,0.335c-0.049,0.105-0.113,0.197-0.193,0.274c-0.08,0.078-0.174,0.142-0.282,0.188
		c-0.108,0.047-0.224,0.07-0.347,0.07c-0.119,0-0.233-0.023-0.339-0.07c-0.106-0.046-0.199-0.109-0.277-0.188
		c-0.079-0.077-0.141-0.169-0.188-0.274c-0.047-0.104-0.07-0.216-0.07-0.335c0-0.123,0.023-0.239,0.07-0.347
		c0.047-0.109,0.108-0.202,0.188-0.28c0.078-0.078,0.171-0.141,0.277-0.188c0.105-0.047,0.22-0.07,0.339-0.07
		c0.123,0,0.238,0.023,0.347,0.07s0.202,0.109,0.282,0.188s0.145,0.171,0.193,0.28C342.626,65.603,342.65,65.719,342.65,65.842z
		 M342.459,67.516v5.742h-1.388v-5.742H342.459z"/>
	<path d="M345.163,68.221c0.115-0.116,0.237-0.224,0.366-0.322s0.265-0.183,0.408-0.252s0.298-0.123,0.462-0.162
		s0.343-0.06,0.537-0.06c0.313,0,0.591,0.054,0.834,0.161c0.242,0.105,0.445,0.255,0.607,0.447s0.285,0.422,0.369,0.688
		c0.085,0.268,0.126,0.562,0.126,0.882v3.655h-1.382v-3.655c0-0.351-0.081-0.622-0.241-0.814c-0.161-0.192-0.404-0.288-0.732-0.288
		c-0.239,0-0.463,0.055-0.672,0.162c-0.21,0.108-0.407,0.256-0.594,0.442v4.153h-1.382v-5.742h0.845c0.18,0,0.297,0.084,0.353,0.252
		L345.163,68.221z"/>
</g>
<rect x="188.71" y="57.331" fill="none" stroke="#000000" stroke-width="2.8347" stroke-miterlimit="10" width="101.354" height="101.354"/>
<g>
	<defs>
		<rect id="SVGID_34_" x="339.281" y="115.645" width="34.25" height="20.25"/>
	</defs>
	<clipPath id="SVGID_2_">
		<use xlink:href="#SVGID_34_"  overflow="visible"/>
	</clipPath>
	<g clip-path="url(#SVGID_2_)">
		<g>
			<defs>
				<rect id="SVGID_36_" x="327.144" y="118.715" width="39.448" height="14.193"/>
			</defs>
			<clipPath id="SVGID_4_">
				<use xlink:href="#SVGID_36_"  overflow="visible"/>
			</clipPath>
			<path clip-path="url(#SVGID_4_)" d="M334.025,124.58v-5.859l-6.892,7.094l6.892,7.094v-5.859h25.579v5.859l6.892-7.094
				l-6.892-7.094v5.859H334.025z M334.025,124.58"/>
		</g>
	</g>
</g>
<g>
	<defs>
		<rect id="SVGID_38_" x="283.093" y="111.527" width="26.314" height="28.485"/>
	</defs>
	<clipPath id="SVGID_6_">
		<use xlink:href="#SVGID_38_"  overflow="visible"/>
	</clipPath>
	<g clip-path="url(#SVGID_6_)">
		<g>
			<defs>
				<rect id="SVGID_40_" x="291.705" y="118.833" width="39.448" height="14.193"/>
			</defs>
			<clipPath id="SVGID_8_">
				<use xlink:href="#SVGID_40_"  overflow="visible"/>
			</clipPath>
			<path clip-path="url(#SVGID_8_)" d="M298.587,124.699v-5.86l-6.892,7.094l6.892,7.094v-5.859h25.579v5.859l6.892-7.094
				l-6.892-7.094v5.86H298.587z M298.587,124.699"/>
		</g>
	</g>
</g>
<rect x="309.407" y="124.645" width="29.874" height="2.25"/>
<rect x="298.563" y="124.645" width="61.188" height="2.688"/>
</svg>
